<svg width="200" height="59" viewBox="0 0 200 59" fill="none" xmlns="http://www.w3.org/2000/svg">
<g clip-path="url(#clip0_1309_4913)">
<path d="M191.683 58.9899H7.37242C3.24387 58.9899 0 55.7461 0 51.6175V7.38298C0 3.25442 3.24387 0.0105591 7.37242 0.0105591H191.683C195.811 0.0105591 199.055 3.25442 199.055 7.38298V51.6175C199.055 55.7461 195.811 58.9899 191.683 58.9899Z" fill="black"/>
<path d="M191.683 1.19015C195.074 1.19015 197.876 3.99167 197.876 7.38298V51.6175C197.876 55.0088 195.074 57.8103 191.683 57.8103H7.37242C3.98111 57.8103 1.17959 55.0088 1.17959 51.6175V7.38298C1.17959 3.99167 3.98111 1.19015 7.37242 1.19015H191.683ZM191.683 0.0105591H7.37242C3.24387 0.0105591 0 3.40187 0 7.38298V51.6175C0 55.7461 3.24387 58.9899 7.37242 58.9899H191.683C195.811 58.9899 199.055 55.7461 199.055 51.6175V7.38298C199.055 3.40187 195.811 0.0105591 191.683 0.0105591Z" fill="black"/>
<path d="M69.8905 15.0501C69.8905 16.2296 69.5956 17.2618 68.8584 17.999C67.9737 18.8837 66.9416 19.3261 65.6145 19.3261C64.2875 19.3261 63.2554 18.8837 62.3707 17.999C61.486 17.1143 61.0436 16.0822 61.0436 14.7552C61.0436 13.4281 61.486 12.396 62.3707 11.5113C63.2554 10.6266 64.2875 10.1843 65.6145 10.1843C66.2043 10.1843 66.7941 10.3317 67.3839 10.6266C67.9737 10.9215 68.4161 11.2164 68.711 11.6587L67.9737 12.396C67.3839 11.6587 66.6467 11.3639 65.6145 11.3639C64.7298 11.3639 63.8452 11.6587 63.2554 12.396C62.5181 12.9858 62.2232 13.8705 62.2232 14.9026C62.2232 15.9348 62.5181 16.8194 63.2554 17.4092C63.9926 17.999 64.7298 18.4414 65.6145 18.4414C66.6467 18.4414 67.3839 18.1465 68.1212 17.4092C68.5635 16.9669 68.8584 16.3771 68.8584 15.6399H65.6145V14.4603H69.8905V15.0501ZM76.6732 11.3639H72.6921V14.1654H76.3783V15.1975H72.6921V17.999H76.6732V19.1786H71.5125V10.3317H76.6732V11.3639ZM81.539 19.1786H80.3594V11.3639H77.8528V10.3317H84.0456V11.3639H81.539V19.1786ZM88.3216 19.1786V10.3317H89.5012V19.1786H88.3216ZM94.5144 19.1786H93.3348V11.3639H90.8282V10.3317H96.8736V11.3639H94.367V19.1786H94.5144ZM108.522 17.999C107.637 18.8837 106.605 19.3261 105.278 19.3261C103.951 19.3261 102.919 18.8837 102.034 17.999C101.15 17.1143 100.707 16.0822 100.707 14.7552C100.707 13.4281 101.15 12.396 102.034 11.5113C102.919 10.6266 103.951 10.1843 105.278 10.1843C106.605 10.1843 107.637 10.6266 108.522 11.5113C109.407 12.396 109.849 13.4281 109.849 14.7552C109.849 16.0822 109.407 17.1143 108.522 17.999ZM102.919 17.2618C103.509 17.8516 104.393 18.2939 105.278 18.2939C106.163 18.2939 107.048 17.999 107.637 17.2618C108.227 16.672 108.669 15.7873 108.669 14.7552C108.669 13.723 108.375 12.8383 107.637 12.2485C107.048 11.6587 106.163 11.2164 105.278 11.2164C104.393 11.2164 103.509 11.5113 102.919 12.2485C102.329 12.8383 101.887 13.723 101.887 14.7552C101.887 15.7873 102.182 16.672 102.919 17.2618ZM111.471 19.1786V10.3317H112.798L117.074 17.2618V10.3317H118.254V19.1786H117.074L112.503 11.9536V19.1786H111.471Z" fill="white" stroke="white" stroke-width="0.748822" stroke-miterlimit="10"/>
<path d="M100.412 32.1541C96.8736 32.1541 94.0721 34.8081 94.0721 38.4944C94.0721 42.0331 96.8736 44.8346 100.412 44.8346C103.951 44.8346 106.753 42.1806 106.753 38.4944C106.753 34.6607 103.951 32.1541 100.412 32.1541ZM100.412 42.1806C98.4956 42.1806 96.8736 40.5586 96.8736 38.3469C96.8736 36.1352 98.4956 34.5132 100.412 34.5132C102.329 34.5132 103.951 35.9877 103.951 38.3469C103.951 40.5586 102.329 42.1806 100.412 42.1806ZM86.6997 32.1541C83.1609 32.1541 80.3594 34.8081 80.3594 38.4944C80.3594 42.0331 83.1609 44.8346 86.6997 44.8346C90.2384 44.8346 93.04 42.1806 93.04 38.4944C93.04 34.6607 90.2384 32.1541 86.6997 32.1541ZM86.6997 42.1806C84.7829 42.1806 83.1609 40.5586 83.1609 38.3469C83.1609 36.1352 84.7829 34.5132 86.6997 34.5132C88.6165 34.5132 90.2384 35.9877 90.2384 38.3469C90.2384 40.5586 88.6165 42.1806 86.6997 42.1806ZM70.3329 34.0709V36.725H76.6732C76.5257 38.1995 75.936 39.379 75.1987 40.1163C74.314 41.001 72.8395 42.0331 70.3329 42.0331C66.3518 42.0331 63.4028 38.9367 63.4028 34.9556C63.4028 30.9745 66.4993 27.8781 70.3329 27.8781C72.3972 27.8781 74.0191 28.7628 75.1987 29.7949L77.1155 27.8781C75.4936 26.4036 73.4293 25.224 70.4804 25.224C65.1722 25.224 60.6013 29.6475 60.6013 34.9556C60.6013 40.2637 65.1722 44.6872 70.4804 44.6872C73.4293 44.6872 75.4936 43.8025 77.263 41.8857C79.0324 40.1163 79.6222 37.6097 79.6222 35.6928C79.6222 35.103 79.6222 34.5132 79.4747 34.0709H70.3329ZM137.274 36.1352C136.685 34.6607 135.21 32.1541 131.966 32.1541C128.722 32.1541 126.068 34.6607 126.068 38.4944C126.068 42.0331 128.722 44.8346 132.261 44.8346C135.063 44.8346 136.832 43.0653 137.422 42.0331L135.358 40.5586C134.62 41.5908 133.736 42.328 132.261 42.328C130.787 42.328 129.902 41.7382 129.165 40.4112L137.569 36.8724L137.274 36.1352ZM128.722 38.1995C128.722 35.8403 130.639 34.5132 131.966 34.5132C132.998 34.5132 134.031 35.103 134.326 35.8403L128.722 38.1995ZM121.792 44.2448H124.594V25.8138H121.792V44.2448ZM117.369 33.4811C116.632 32.7439 115.452 32.0066 113.978 32.0066C110.881 32.0066 107.932 34.8081 107.932 38.3469C107.932 41.8857 110.734 44.5397 113.978 44.5397C115.452 44.5397 116.632 43.8025 117.221 43.0653H117.369V43.9499C117.369 46.3091 116.042 47.6362 113.978 47.6362C112.356 47.6362 111.176 46.4566 110.881 45.4244L108.522 46.4566C109.259 48.0785 111.029 50.1428 114.125 50.1428C117.369 50.1428 120.023 48.2259 120.023 43.655V32.449H117.369V33.4811ZM114.125 42.1806C112.208 42.1806 110.586 40.5586 110.586 38.3469C110.586 36.1352 112.208 34.5132 114.125 34.5132C116.042 34.5132 117.516 36.1352 117.516 38.3469C117.516 40.5586 116.042 42.1806 114.125 42.1806ZM150.102 25.8138H143.467V44.2448H146.269V37.3148H150.102C153.199 37.3148 156.148 35.103 156.148 31.5643C156.148 28.0255 153.199 25.8138 150.102 25.8138ZM150.25 34.6607H146.269V28.3204H150.25C152.314 28.3204 153.494 30.0898 153.494 31.4168C153.346 33.0388 152.167 34.6607 150.25 34.6607ZM167.206 32.0066C165.142 32.0066 163.078 32.8913 162.341 34.8081L164.847 35.8403C165.437 34.8081 166.322 34.5132 167.354 34.5132C168.828 34.5132 170.155 35.3979 170.303 36.8724V37.0199C169.861 36.725 168.681 36.2826 167.501 36.2826C164.847 36.2826 162.193 37.7571 162.193 40.4112C162.193 42.9178 164.405 44.5397 166.764 44.5397C168.681 44.5397 169.566 43.655 170.303 42.7704H170.45V44.2448H173.104V37.1673C172.81 33.9235 170.303 32.0066 167.206 32.0066ZM166.912 42.1806C166.027 42.1806 164.7 41.7382 164.7 40.5586C164.7 39.0841 166.322 38.6418 167.649 38.6418C168.828 38.6418 169.418 38.9367 170.155 39.2316C169.861 41.001 168.386 42.1806 166.912 42.1806ZM182.394 32.449L179.297 40.4112H179.15L175.906 32.449H172.957L177.823 43.655L175.021 49.8479H177.823L185.343 32.449H182.394ZM157.622 44.2448H160.424V25.8138H157.622V44.2448Z" fill="white"/>
<path d="M15.3346 11.069C14.8923 11.5113 14.7448 12.2486 14.7448 13.1332V45.7193C14.7448 46.604 15.0397 47.3413 15.4821 47.7836L15.6295 47.9311L33.9131 29.6475V29.3526L15.3346 11.069Z" fill="url(#paint0_linear_1309_4913)"/>
<path d="M39.8111 35.8403L33.7657 29.7949V29.3526L39.8111 23.3072L39.9585 23.4546L47.1835 27.5832C49.2478 28.7628 49.2478 30.6796 47.1835 31.8592L39.8111 35.8403Z" fill="url(#paint1_linear_1309_4913)"/>
<path d="M39.9585 35.6928L33.7657 29.5L15.3347 47.931C16.0719 48.6683 17.104 48.6683 18.4311 48.0785L39.9585 35.6928Z" fill="url(#paint2_linear_1309_4913)"/>
<path d="M39.9585 23.3072L18.4311 11.069C17.104 10.3317 16.0719 10.4792 15.3347 11.2164L33.7657 29.5L39.9585 23.3072Z" fill="url(#paint3_linear_1309_4913)"/>
<path opacity="0.2" d="M39.8111 35.5454L18.4311 47.6361C17.2515 48.3734 16.2193 48.2259 15.4821 47.6361L15.3347 47.7836L15.4821 47.931C16.2193 48.5208 17.2515 48.6683 18.4311 47.931L39.8111 35.5454Z" fill="black"/>
<path opacity="0.2" d="M15.3346 47.6361C14.8923 47.1938 14.7448 46.4566 14.7448 45.5719V45.7193C14.7448 46.604 15.0397 47.3413 15.4821 47.7836V47.6361H15.3346ZM47.1835 31.4168L39.811 35.5454L39.9585 35.6928L47.1835 31.5643C48.2156 30.9745 48.6579 30.2372 48.6579 29.5C48.6579 30.2372 48.0681 30.827 47.1835 31.4168Z" fill="black"/>
<path opacity="0.2" d="M18.431 11.2164L47.1835 27.5832C48.0682 28.173 48.6579 28.7628 48.6579 29.5C48.6579 28.7628 48.2156 28.0255 47.1835 27.4358L18.431 11.069C16.3667 9.88939 14.7448 10.7741 14.7448 13.1333V13.2807C14.7448 11.069 16.3667 10.0368 18.431 11.2164Z" fill="white"/>
</g>
<defs>
<linearGradient id="paint0_linear_1309_4913" x1="32.1437" y1="12.8531" x2="7.39745" y2="37.5979" gradientUnits="userSpaceOnUse">
<stop stop-color="#00A0FF"/>
<stop offset="0.007" stop-color="#00A1FF"/>
<stop offset="0.26" stop-color="#00BEFF"/>
<stop offset="0.512" stop-color="#00D2FF"/>
<stop offset="0.76" stop-color="#00DFFF"/>
<stop offset="1" stop-color="#00E3FF"/>
</linearGradient>
<linearGradient id="paint1_linear_1309_4913" x1="49.8877" y1="29.5015" x2="14.2096" y2="29.5015" gradientUnits="userSpaceOnUse">
<stop stop-color="#FFE000"/>
<stop offset="0.409" stop-color="#FFBD00"/>
<stop offset="0.775" stop-color="#FFA500"/>
<stop offset="1" stop-color="#FF9C00"/>
</linearGradient>
<linearGradient id="paint2_linear_1309_4913" x1="36.607" y1="32.8854" x2="3.05073" y2="66.4417" gradientUnits="userSpaceOnUse">
<stop stop-color="#FF3A44"/>
<stop offset="1" stop-color="#C31162"/>
</linearGradient>
<linearGradient id="paint3_linear_1309_4913" x1="10.7593" y1="0.269867" x2="25.7445" y2="15.255" gradientUnits="userSpaceOnUse">
<stop stop-color="#32A071"/>
<stop offset="0.069" stop-color="#2DA771"/>
<stop offset="0.476" stop-color="#15CF74"/>
<stop offset="0.801" stop-color="#06E775"/>
<stop offset="1" stop-color="#00F076"/>
</linearGradient>
<clipPath id="clip0_1309_4913">
<rect width="199.055" height="59" fill="white"/>
</clipPath>
</defs>
</svg>
