<svg width="232" height="70" viewBox="0 0 232 70" fill="none" xmlns="http://www.w3.org/2000/svg">
<g clip-path="url(#clip0_1545_12895)">
<path d="M228.898 60.9705C228.898 64.5685 225.984 67.4827 222.379 67.4827H9.04083C5.43784 67.4827 2.51343 64.5685 2.51343 60.9705V9.03747C2.51343 5.44128 5.43798 2.51672 9.04083 2.51672H222.377C225.983 2.51672 228.896 5.44128 228.896 9.03747L228.898 60.9705Z" fill="white"/>
<path d="M222.379 68.9982H9.04083C4.60809 68.9982 1 65.3986 1 60.9709V9.03964C1 4.60859 4.60809 1.00391 9.04083 1.00391H222.377C226.805 1.00391 230.418 4.60859 230.418 9.03964V60.9709C230.421 65.3986 226.808 68.9982 222.379 68.9982Z" fill="black"/>
<path d="M228.898 60.9705C228.898 64.5685 225.984 67.4827 222.379 67.4827H9.04083C5.43784 67.4827 2.51343 64.5685 2.51343 60.9705V9.03747C2.51343 5.44128 5.43798 2.51672 9.04083 2.51672H222.377C225.983 2.51672 228.896 5.44128 228.896 9.03747L228.898 60.9705Z" fill="black"/>
<path d="M52.2274 34.6415C52.1781 29.1614 56.7145 26.4953 56.922 26.3711C54.3528 22.6253 50.3708 22.1135 48.9714 22.0727C45.6269 21.7207 42.3826 24.074 40.6789 24.074C38.9412 24.074 36.3176 22.1067 33.4899 22.1645C29.8513 22.2206 26.4474 24.3273 24.5803 27.5988C20.7275 34.2691 23.6009 44.0715 27.2924 49.4632C29.1388 52.1055 31.2967 55.0522 34.1208 54.9485C36.8838 54.8363 37.9159 53.1886 41.2502 53.1886C44.5538 53.1886 45.5231 54.9485 48.4033 54.8822C51.3689 54.8363 53.2357 52.2297 55.0177 49.5653C57.1517 46.5404 58.0085 43.558 58.0426 43.405C57.9745 43.3812 52.2852 41.2082 52.2274 34.6415ZM46.7863 18.5258C48.2723 16.6674 49.2892 14.139 49.007 11.5732C46.8559 11.6684 44.1661 13.061 42.617 14.8786C41.2465 16.4803 40.0223 19.1056 40.3386 21.5745C42.7549 21.7548 45.2356 20.3554 46.7863 18.5258Z" fill="white"/>
<path d="M92.2479 54.5696H88.3865L86.2713 47.9231H78.9189L76.904 54.5696H73.1448L80.4307 31.9417H84.9297L92.2479 54.5696ZM85.6338 45.1345L83.7209 39.2259C83.5186 38.6223 83.1377 37.2008 82.5799 34.9632H82.512C82.2876 35.9256 81.9288 37.3471 81.4374 39.2259L79.5568 45.1345H85.6338ZM110.948 46.2109C110.948 48.9858 110.195 51.1792 108.687 52.7895C107.337 54.2228 105.659 54.9388 103.657 54.9388C101.496 54.9388 99.9419 54.1684 98.9982 52.6246V61.1857H95.3731V43.6162C95.3731 41.8732 95.3273 40.0863 95.2389 38.2533H98.427L98.6294 40.8395H98.6972C99.9062 38.891 101.741 37.9165 104.203 37.9165C106.128 37.9165 107.734 38.6766 109.02 40.1984C110.304 41.7237 110.948 43.7267 110.948 46.2109ZM107.255 46.3435C107.255 44.7554 106.898 43.4461 106.18 42.414C105.397 41.3411 104.344 40.804 103.025 40.804C102.13 40.804 101.317 41.1031 100.591 41.6931C99.8637 42.2882 99.3876 43.0653 99.165 44.0276C99.0528 44.4765 98.9966 44.8421 98.9966 45.1313V47.8534C98.9966 49.0385 99.3605 50.0401 100.088 50.8597C100.816 51.6758 101.761 52.0855 102.924 52.0855C104.29 52.0855 105.353 51.5568 106.112 50.5076C106.874 49.4551 107.255 48.0676 107.255 46.3435ZM129.715 46.2109C129.715 48.9858 128.961 51.1792 127.453 52.7895C126.101 54.2228 124.425 54.9388 122.422 54.9388C120.261 54.9388 118.707 54.1684 117.763 52.6246V61.1857H114.138V43.6162C114.138 41.8732 114.092 40.0863 114.004 38.2533H117.192L117.394 40.8395H117.462C118.669 38.891 120.504 37.9165 122.968 37.9165C124.891 37.9165 126.497 38.6766 127.786 40.1984C129.069 41.7237 129.715 43.7267 129.715 46.2109ZM126.02 46.3435C126.02 44.7554 125.661 43.4461 124.943 42.414C124.16 41.3411 123.11 40.804 121.791 40.804C120.897 40.804 120.084 41.1031 119.354 41.6931C118.627 42.2882 118.152 43.0653 117.93 44.0276C117.819 44.4765 117.76 44.8421 117.76 45.1313V47.8534C117.76 49.0385 118.125 50.0401 118.849 50.8597C119.577 51.6741 120.523 52.0855 121.689 52.0855C123.056 52.0855 124.119 51.5568 124.877 50.5076C125.639 49.4551 126.02 48.0676 126.02 46.3435ZM150.697 48.2223C150.697 50.1488 150.023 51.7148 148.685 52.9237C147.213 54.2432 145.157 54.9046 142.521 54.9046C140.087 54.9046 138.135 54.4353 136.662 53.495L137.5 50.4736C139.09 51.4155 140.836 51.8848 142.737 51.8848C144.104 51.8848 145.167 51.5754 145.925 50.9616C146.685 50.346 147.07 49.5231 147.07 48.4961C147.07 47.5764 146.752 46.806 146.128 46.1787C145.5 45.553 144.463 44.9698 143.006 44.4342C139.044 42.9566 137.062 40.7955 137.062 37.9525C137.062 36.0958 137.762 34.5757 139.16 33.3872C140.558 32.2003 142.411 31.6071 144.717 31.6071C146.776 31.6071 148.491 31.9658 149.853 32.6817L148.944 35.6367C147.662 34.9429 146.215 34.5961 144.596 34.5961C143.317 34.5961 142.314 34.9106 141.596 35.5364C140.993 36.0958 140.687 36.7777 140.687 37.587C140.687 38.4798 141.035 39.2211 141.729 39.8026C142.331 40.3381 143.429 40.9214 145.017 41.5471C146.966 42.3327 148.398 43.2475 149.314 44.2983C150.237 45.3488 150.697 46.6597 150.697 48.2223ZM162.713 40.9739H158.717V48.8957C158.717 50.9105 159.421 51.9154 160.832 51.9154C161.48 51.9154 162.017 51.8609 162.443 51.7471L162.543 54.4999C161.829 54.767 160.888 54.9012 159.724 54.9012C158.292 54.9012 157.173 54.4642 156.365 53.5903C155.561 52.7163 155.157 51.2523 155.157 49.1915V40.9671H152.776V38.2465H155.157V35.2591L158.717 34.1845V38.2465H162.713V40.9739ZM180.706 46.2772C180.706 48.785 179.988 50.8441 178.556 52.4544C177.058 54.1123 175.066 54.9386 172.581 54.9386C170.184 54.9386 168.278 54.1446 166.856 52.5582C165.435 50.9682 164.724 48.9654 164.724 46.5492C164.724 44.0207 165.459 41.9498 166.923 40.3396C168.39 38.7277 170.366 37.9219 172.85 37.9219C175.244 37.9219 177.167 38.7175 178.623 40.3056C180.014 41.8461 180.706 43.8355 180.706 46.2772ZM176.948 46.3605C176.948 44.8658 176.625 43.5837 175.977 42.5108C175.217 41.2152 174.129 40.5675 172.719 40.5675C171.267 40.5675 170.153 41.2152 169.395 42.5108C168.745 43.5837 168.422 44.8879 168.422 46.4284C168.422 47.9248 168.745 49.2101 169.395 50.2797C170.179 51.5754 171.272 52.2232 172.689 52.2232C174.074 52.2232 175.161 51.5618 175.946 50.2474C176.613 49.149 176.948 47.8585 176.948 46.3605ZM192.494 41.4414C192.135 41.375 191.751 41.341 191.351 41.341C190.076 41.341 189.09 41.8206 188.396 42.7863C187.795 43.6364 187.492 44.711 187.492 46.0084V54.5695H183.867V43.3917C183.867 41.5129 183.831 39.7989 183.761 38.255H186.919L187.051 41.3767H187.152C187.536 40.3039 188.138 39.4383 188.964 38.7905C189.772 38.2074 190.644 37.9165 191.585 37.9165C191.919 37.9165 192.222 37.9403 192.491 37.983L192.494 41.4414ZM208.707 45.6395C208.707 46.2891 208.664 46.8364 208.574 47.2838H197.699C197.739 48.8957 198.267 50.1301 199.277 50.9803C200.193 51.7388 201.378 52.1195 202.834 52.1195C204.444 52.1195 205.913 51.8644 207.234 51.3492L207.802 53.864C206.258 54.5373 204.435 54.8723 202.332 54.8723C199.802 54.8723 197.816 54.1274 196.371 52.6415C194.929 51.1537 194.206 49.1541 194.206 46.6495C194.206 44.1907 194.878 42.142 196.223 40.508C197.631 38.7634 199.533 37.891 201.927 37.891C204.279 37.891 206.059 38.7633 207.268 40.508C208.225 41.8903 208.707 43.6043 208.707 45.6395ZM205.25 44.6993C205.275 43.623 205.037 42.6963 204.546 41.9124C203.918 40.9024 202.953 40.3991 201.659 40.3991C200.474 40.3991 199.508 40.8905 198.773 41.8767C198.17 42.6606 197.811 43.6026 197.7 44.6959L205.25 44.6993Z" fill="white"/>
<path d="M83.8858 23.8439H81.9864L80.9475 20.5775H77.3343L76.343 23.8439H74.4948L78.0756 12.722H80.2861L83.8858 23.8439ZM80.6346 19.2071L79.6943 16.3029C79.5957 16.0054 79.4138 15.3133 79.1332 14.2081H79.0992C78.9836 14.6859 78.8187 15.3796 78.5704 16.3029L77.6471 19.2071H80.6346ZM92.8395 15.8251L89.8028 23.8439H88.07L85.132 15.8251H87.0465L88.417 20.0657C88.6482 20.7748 88.8455 21.4515 88.9934 22.0942H89.0427C89.1755 21.5178 89.3726 20.8411 89.6191 20.0657L90.9726 15.8251H92.8395ZM99.3042 23.8439L99.1715 22.9204H99.1221C98.578 23.6635 97.7856 24.0257 96.7792 24.0257C95.344 24.0257 94.3204 23.0191 94.3204 21.6656C94.3204 19.6864 96.036 18.6628 99.0065 18.6628V18.5149C99.0065 17.459 98.4454 16.9302 97.3402 16.9302C96.5477 16.9302 95.8541 17.1291 95.2454 17.5253L94.883 16.3538C95.6261 15.8913 96.5495 15.6601 97.6393 15.6601C99.7341 15.6601 100.792 16.7653 100.792 18.9774V21.9309C100.792 22.7402 100.826 23.3676 100.907 23.8454L99.3042 23.8439ZM99.0559 19.8498C97.0752 19.8498 96.0855 20.3293 96.0855 21.4668C96.0855 22.3085 96.5973 22.7199 97.3063 22.7199C98.2141 22.7199 99.0559 22.0279 99.0559 21.0876V19.8498ZM104.761 14.504C104.167 14.504 103.705 14.0415 103.705 13.4311C103.705 12.8207 104.183 12.3752 104.795 12.3752C105.405 12.3752 105.9 12.8207 105.883 13.4311C105.883 14.0755 105.422 14.504 104.761 14.504ZM105.685 23.8439H103.904V15.8251H105.685V23.8439ZM110.633 23.8439H108.851V12.1456H110.633V23.8439ZM118.207 23.8439L118.074 22.9204H118.025C117.481 23.6635 116.688 24.0257 115.682 24.0257C114.247 24.0257 113.223 23.0191 113.223 21.6656C113.223 19.6864 114.939 18.6628 117.909 18.6628V18.5149C117.909 17.459 117.348 16.9302 116.243 16.9302C115.45 16.9302 114.757 17.1291 114.148 17.5253L113.784 16.3521C114.527 15.8896 115.45 15.6584 116.54 15.6584C118.635 15.6584 119.693 16.7636 119.693 18.9757V21.9292C119.693 22.7385 119.728 23.3659 119.807 23.8437H118.207V23.8439ZM117.958 19.8498C115.978 19.8498 114.988 20.3293 114.988 21.4668C114.988 22.3085 115.5 22.7199 116.209 22.7199C117.117 22.7199 117.958 22.0279 117.958 21.0876V19.8498ZM126.912 24.0258C125.775 24.0258 124.935 23.5463 124.391 22.606H124.355L124.253 23.8439H122.735C122.784 23.2011 122.801 22.4734 122.801 21.6827V12.1456H124.585V16.9984H124.619C125.147 16.1074 126.003 15.6619 127.176 15.6619C129.107 15.6619 130.461 17.3129 130.461 19.7206C130.461 22.2098 128.958 24.0258 126.912 24.0258ZM126.55 17.0613C125.525 17.0613 124.586 17.9522 124.586 19.1901V20.5928C124.586 21.698 125.43 22.606 126.52 22.606C127.854 22.606 128.648 21.5178 128.648 19.7852C128.647 18.1682 127.82 17.0613 126.55 17.0613ZM134.877 23.8439H133.097V12.1456H134.877V23.8439ZM144.577 20.263H139.228C139.264 21.7814 140.267 22.6383 141.753 22.6383C142.545 22.6383 143.271 22.5057 143.914 22.2592L144.191 23.497C143.433 23.8269 142.542 23.9918 141.503 23.9918C138.993 23.9918 137.509 22.4071 137.509 19.9501C137.509 17.4914 139.029 15.6432 141.302 15.6432C143.348 15.6432 144.636 17.1616 144.636 19.4553C144.643 19.7682 144.628 20.0487 144.577 20.263ZM142.943 18.9928C142.943 17.755 142.315 16.881 141.176 16.881C140.153 16.881 139.347 17.772 139.228 18.9928H142.943ZM155.377 24.0258C153.034 24.0258 151.516 22.2762 151.516 19.9008C151.516 17.4251 153.067 15.6602 155.512 15.6602C157.819 15.6602 159.373 17.3265 159.373 19.7699C159.373 22.2762 157.771 24.0258 155.377 24.0258ZM155.445 16.9626C154.158 16.9626 153.334 18.1665 153.334 19.8498C153.334 21.5008 154.175 22.7046 155.429 22.7046C156.682 22.7046 157.522 21.4175 157.522 19.8158C157.523 18.1835 156.699 16.9626 155.445 16.9626ZM168.953 23.8439H167.173V19.2394C167.173 17.8213 166.628 17.1106 165.556 17.1106C164.5 17.1106 163.772 18.0185 163.772 19.0744V23.8439H161.992V18.1172C161.992 17.4081 161.973 16.6481 161.926 15.8234H163.493L163.577 17.0613H163.626C164.102 16.2043 165.078 15.6585 166.166 15.6585C167.848 15.6585 168.953 16.9456 168.953 19.0404V23.8439H168.953ZM180.612 17.1616H178.651V21.0553C178.651 22.0466 178.997 22.5414 179.689 22.5414C180.003 22.5414 180.268 22.5074 180.481 22.4581L180.53 23.8116C180.183 23.9443 179.719 24.0105 179.146 24.0105C177.742 24.0105 176.904 23.2351 176.904 21.205V17.1616H175.734V15.8251H176.904V14.3561L178.651 13.8272V15.8234H180.612V17.1616ZM190.049 23.8439H188.265V19.2734C188.265 17.8383 187.721 17.1123 186.648 17.1123C185.725 17.1123 184.868 17.7397 184.868 19.0098V23.8439H183.084V12.1456H184.868V16.9626H184.902C185.463 16.0887 186.272 15.6585 187.311 15.6585C189.01 15.6585 190.049 16.978 190.049 19.0744V23.8439ZM199.154 20.263H193.807C193.841 21.7814 194.844 22.6383 196.33 22.6383C197.124 22.6383 197.848 22.5057 198.491 22.2592L198.77 23.497C198.011 23.8269 197.119 23.9918 196.08 23.9918C193.57 23.9918 192.086 22.4071 192.086 19.9501C192.086 17.4914 193.606 15.6432 195.879 15.6432C197.925 15.6432 199.214 17.1616 199.214 19.4553C199.22 19.7682 199.203 20.0487 199.154 20.263ZM197.52 18.9928C197.52 17.755 196.894 16.881 195.755 16.881C194.73 16.881 193.924 17.772 193.806 18.9928H197.52Z" fill="white"/>
</g>
<rect x="0.5" y="0.5" width="230.42" height="69" rx="12.5" stroke="url(#paint0_linear_1545_12895)"/>
<defs>
<linearGradient id="paint0_linear_1545_12895" x1="115.71" y1="1" x2="115.71" y2="69" gradientUnits="userSpaceOnUse">
<stop stop-color="#FFA500"/>
<stop offset="1" stop-color="#FFA500" stop-opacity="0"/>
</linearGradient>
<clipPath id="clip0_1545_12895">
<rect x="1" y="1" width="229.42" height="68" rx="12" fill="white"/>
</clipPath>
</defs>
</svg>
