<svg width="387" height="77" viewBox="0 0 387 77" fill="none" xmlns="http://www.w3.org/2000/svg">
<path d="M137.5 7L137.453 7.49779L137.5 7ZM-1.87083e-05 7L5.15367 9.60249L4.83064 3.83803L-1.87083e-05 7ZM386 76C386.186 75.536 386.186 75.536 386.186 75.536C386.186 75.536 386.186 75.536 386.186 75.536C386.186 75.536 386.186 75.536 386.186 75.536C386.186 75.5359 386.186 75.5358 386.186 75.5358C386.185 75.5356 386.185 75.5353 386.184 75.5349C386.182 75.5342 386.179 75.5331 386.176 75.5317C386.168 75.5288 386.158 75.5245 386.144 75.5188C386.115 75.5075 386.073 75.4905 386.016 75.468C385.904 75.423 385.736 75.356 385.514 75.2678C385.07 75.0914 384.411 74.8302 383.548 74.4908L383.182 75.4215C384.044 75.7604 384.702 76.0211 385.145 76.1971C385.366 76.285 385.533 76.3518 385.645 76.3966C385.701 76.419 385.743 76.4358 385.772 76.4471C385.786 76.4527 385.796 76.457 385.803 76.4598C385.807 76.4612 385.809 76.4622 385.811 76.4629C385.812 76.4633 385.813 76.4635 385.813 76.4637C385.813 76.4638 385.813 76.4639 385.813 76.4639C385.814 76.4639 385.814 76.4639 385.814 76.4639C385.814 76.464 385.814 76.464 385.814 76.464C385.814 76.464 385.814 76.464 386 76ZM378.058 72.3543C376.434 71.7276 374.583 71.0182 372.522 70.2348L372.167 71.1696C374.226 71.9523 376.075 72.6612 377.698 73.2873L378.058 72.3543ZM366.982 68.1425C365.247 67.4915 363.408 66.8057 361.473 66.0883L361.125 67.026C363.059 67.7429 364.896 68.4283 366.63 69.0788L366.982 68.1425ZM355.979 64.0643C354.209 63.4161 352.375 62.7479 350.48 62.0616L350.139 63.0019C352.034 63.6877 353.867 64.3555 355.635 65.0033L355.979 64.0643ZM344.959 60.074C343.154 59.4279 341.303 58.7688 339.407 58.098L339.073 59.0407C340.968 59.7111 342.818 60.3698 344.622 61.0155L344.959 60.074ZM333.819 56.1322C332.015 55.5011 330.176 54.8614 328.304 54.2143L327.977 55.1594C329.848 55.8061 331.686 56.4454 333.489 57.0761L333.819 56.1322ZM322.746 52.3043C320.906 51.6755 319.037 51.0409 317.142 50.4015L316.822 51.349C318.716 51.988 320.583 52.6222 322.423 53.2506L322.746 52.3043ZM311.598 48.5423C309.758 47.9288 307.895 47.3118 306.012 46.6921L305.699 47.642C307.581 48.2613 309.443 48.8779 311.282 49.4909L311.598 48.5423ZM300.406 44.8595C298.565 44.2615 296.705 43.6618 294.83 43.061L294.525 44.0134C296.399 44.6137 298.257 45.213 300.097 45.8106L300.406 44.8595ZM289.205 41.2716C287.354 40.6869 285.488 40.1019 283.61 39.5172L283.313 40.4721C285.19 41.0563 287.054 41.6409 288.904 42.2252L289.205 41.2716ZM277.985 37.7798C276.121 37.2081 274.244 36.6374 272.357 36.0681L272.069 37.0255C273.954 37.5943 275.829 38.1646 277.692 38.7359L277.985 37.7798ZM266.728 34.3837C264.852 33.8272 262.968 33.2727 261.075 32.7209L260.795 33.6809C262.686 34.2323 264.569 34.7863 266.444 35.3424L266.728 34.3837ZM255.436 31.0913C253.552 30.5521 251.662 30.0161 249.767 29.4839L249.496 30.4466C251.39 30.9784 253.279 31.514 255.16 32.0526L255.436 31.0913ZM244.109 27.9112C242.22 27.3915 240.327 26.876 238.429 26.3652L238.169 27.3309C240.065 27.8411 241.957 28.3562 243.844 28.8753L244.109 27.9112ZM232.749 24.8532C230.853 24.3545 228.954 23.861 227.054 23.3732L226.806 24.3418C228.704 24.8291 230.6 25.3221 232.494 25.8203L232.749 24.8532ZM221.354 21.9288C219.45 21.4528 217.545 20.9832 215.641 20.5203L215.405 21.4921C217.307 21.9543 219.209 22.4235 221.111 22.8989L221.354 21.9288ZM209.923 19.1515C208.01 18.7005 206.098 18.257 204.188 17.8216L203.966 18.7965C205.873 19.2315 207.783 19.6744 209.694 20.1248L209.923 19.1515ZM198.456 16.5375C196.532 16.1144 194.612 15.7 192.695 15.2949L192.489 16.2733C194.402 16.6778 196.32 17.0916 198.241 17.5142L198.456 16.5375ZM186.948 14.1056C185.013 13.7142 183.084 13.333 181.162 12.9624L180.973 13.9443C182.892 14.3143 184.818 14.695 186.749 15.0858L186.948 14.1056ZM175.387 11.8785C173.446 11.5243 171.513 11.1817 169.588 10.8515L169.419 11.8371C171.34 12.1667 173.27 12.5086 175.207 12.8623L175.387 11.8785ZM163.78 9.88835C161.835 9.57738 159.901 9.2799 157.978 8.99657L157.832 9.98589C159.751 10.2686 161.681 10.5655 163.622 10.8758L163.78 9.88835ZM152.13 8.17446C150.178 7.91344 148.238 7.6681 146.314 7.43916L146.196 8.43216C148.115 8.66051 150.05 8.90524 151.998 9.16564L152.13 8.17446ZM140.444 6.78771C139.474 6.68801 138.508 6.59281 137.547 6.5022L137.453 7.49779C138.412 7.58813 139.375 7.68305 140.342 7.78247L140.444 6.78771ZM137.547 6.5022C136.524 6.40585 135.491 6.31318 134.447 6.2241L134.362 7.22047C135.403 7.30932 136.434 7.40172 137.453 7.49779L137.547 6.5022ZM128.195 5.74064C126.139 5.59714 124.051 5.46582 121.937 5.34597L121.88 6.34437C123.99 6.46399 126.073 6.59503 128.125 6.73821L128.195 5.74064ZM115.687 5.02755C113.62 4.93356 111.534 4.84942 109.434 4.77448L109.398 5.77385C111.495 5.84867 113.578 5.93268 115.641 6.02652L115.687 5.02755ZM103.177 4.57885C101.098 4.52268 99.0104 4.47473 96.918 4.4344L96.8987 5.43421C98.9887 5.4745 101.074 5.52239 103.15 5.57848L103.177 4.57885ZM90.658 4.33599C88.5699 4.31035 86.4816 4.29168 84.3977 4.27938L84.3918 5.27936C86.4737 5.29165 88.5598 5.3103 90.6457 5.33591L90.658 4.33599ZM78.1379 4.26103C76.0412 4.26094 73.9534 4.26679 71.8793 4.27795L71.8847 5.27794C73.9571 5.26678 76.043 5.26094 78.1378 5.26103L78.1379 4.26103ZM65.6232 4.32763C63.5182 4.3496 61.4326 4.37658 59.3715 4.40789L59.3867 5.40777C61.4463 5.37649 63.5303 5.34953 65.6337 5.32757L65.6232 4.32763ZM53.1059 4.51729C50.9823 4.55911 48.8921 4.60502 46.8411 4.65422L46.8651 5.65393C48.9147 5.60476 51.0035 5.55889 53.1256 5.5171L53.1059 4.51729ZM40.5829 4.81733C38.4463 4.8774 36.3636 4.9404 34.3426 5.0053L34.3747 6.00479C36.3944 5.93993 38.4758 5.87697 40.611 5.81694L40.5829 4.81733ZM28.0722 5.21907C25.8919 5.29771 23.8056 5.37744 21.8257 5.45665L21.8656 6.45585C23.8444 6.37669 25.9293 6.29702 28.1082 6.21842L28.0722 5.21907ZM15.5559 5.72016C13.2464 5.82196 11.1516 5.91963 9.30066 6.00935L9.34908 7.00818C11.1987 6.91853 13.292 6.82092 15.5999 6.71919L15.5559 5.72016ZM137.5 7L137.406 7.99559L137.5 7ZM-1.87083e-05 7L10.3074 12.205L9.66131 0.676058L-1.87083e-05 7ZM386 76C386.373 75.0721 386.373 75.0721 386.373 75.0721C386.373 75.0721 386.373 75.0721 386.373 75.0721C386.373 75.072 386.373 75.072 386.373 75.072C386.372 75.0719 386.372 75.0719 386.372 75.0718C386.372 75.0716 386.371 75.0713 386.37 75.0709C386.368 75.0702 386.365 75.0691 386.362 75.0677C386.355 75.0648 386.344 75.0604 386.33 75.0547C386.301 75.0433 386.258 75.0263 386.202 75.0037C386.089 74.9586 385.921 74.8915 385.699 74.8032C385.255 74.6266 384.595 74.3652 383.731 74.0255L382.999 75.8868C383.86 76.2255 384.518 76.486 384.96 76.6617C385.181 76.7496 385.348 76.8162 385.46 76.8609C385.516 76.8832 385.558 76.9 385.586 76.9112C385.6 76.9168 385.61 76.921 385.617 76.9238C385.62 76.9252 385.623 76.9262 385.625 76.9269C385.626 76.9273 385.626 76.9275 385.627 76.9277C385.627 76.9278 385.627 76.9278 385.627 76.9279C385.627 76.9279 385.627 76.9279 385.627 76.9279C385.627 76.9279 385.627 76.9279 385.627 76.9279C385.627 76.9279 385.627 76.9279 386 76ZM378.238 71.8878C376.613 71.2609 374.762 70.5511 372.7 69.7675L371.989 71.6369C374.048 72.4194 375.896 73.128 377.518 73.7538L378.238 71.8878ZM367.157 67.6744C365.422 67.0232 363.583 66.3371 361.646 65.6195L360.951 67.4949C362.885 68.2115 364.721 68.8966 366.455 69.5469L367.157 67.6744ZM356.151 63.5948C354.381 62.9464 352.546 62.278 350.65 61.5915L349.969 63.472C351.863 64.1577 353.695 64.8253 355.463 65.4728L356.151 63.5948ZM345.128 59.6033C343.322 58.957 341.47 58.2976 339.574 57.6266L338.907 59.5121C340.801 60.1822 342.65 60.8408 344.454 61.4863L345.128 59.6033ZM333.984 55.6602C332.179 55.0289 330.34 54.389 328.467 53.7417L327.814 55.632C329.684 56.2785 331.521 56.9175 333.324 57.5481L333.984 55.6602ZM322.908 51.8312C321.067 51.2022 319.197 50.5674 317.302 49.9278L316.663 51.8228C318.556 52.4616 320.422 53.0956 322.261 53.7238L322.908 51.8312ZM311.757 48.0679C309.915 47.4542 308.052 46.837 306.168 46.2171L305.543 48.1169C307.424 48.736 309.285 49.3524 311.124 49.9653L311.757 48.0679ZM300.56 44.3839C298.718 43.7858 296.859 43.1858 294.983 42.5849L294.372 44.4895C296.246 45.0897 298.103 45.6888 299.943 46.2862L300.56 44.3839ZM289.355 40.7948C287.504 40.2099 285.638 39.6247 283.758 39.0398L283.164 40.9495C285.04 41.5335 286.904 42.1179 288.753 42.702L289.355 40.7948ZM278.132 37.3018C276.266 36.7299 274.389 36.1589 272.502 35.5895L271.924 37.5042C273.809 38.0728 275.683 38.6429 277.546 39.2139L278.132 37.3018ZM266.87 33.9043C264.994 33.3476 263.109 32.7929 261.215 32.2409L260.656 34.1609C262.546 34.712 264.428 35.2658 266.301 35.8217L266.87 33.9043ZM255.573 30.6106C253.689 30.0712 251.798 29.535 249.902 29.0025L249.361 30.928C251.254 31.4596 253.142 31.9949 255.023 32.5333L255.573 30.6106ZM244.242 27.4291C242.352 26.9092 240.458 26.3934 238.559 25.8824L238.039 27.8137C239.934 28.3237 241.825 28.8385 243.711 29.3574L244.242 27.4291ZM232.876 24.3697C230.979 23.8707 229.08 23.3769 227.179 22.8889L226.681 24.8261C228.579 25.3131 230.474 25.8059 232.367 26.3039L232.876 24.3697ZM221.475 21.4437C219.57 20.9675 217.664 20.4976 215.759 20.0345L215.287 21.9779C217.188 22.4399 219.089 22.9088 220.99 23.384L221.475 21.4437ZM210.038 18.6648C208.123 18.2136 206.21 17.7698 204.299 17.3341L203.855 19.284C205.761 19.7187 207.669 20.1613 209.579 20.6115L210.038 18.6648ZM198.564 16.0492C196.639 15.6258 194.717 15.2111 192.799 14.8057L192.385 16.7625C194.297 17.1667 196.214 17.5802 198.134 18.0025L198.564 16.0492ZM187.047 13.6156C185.111 13.2239 183.181 12.8423 181.257 12.4714L180.878 14.4353C182.796 14.8049 184.72 15.1853 186.65 15.5758L187.047 13.6156ZM175.477 11.3866C173.534 11.0321 171.599 10.6892 169.673 10.3587L169.335 12.3299C171.254 12.6592 173.182 13.0008 175.117 13.3541L175.477 11.3866ZM163.859 9.39462C161.912 9.08333 159.976 8.78555 158.051 8.50191L157.759 10.4805C159.676 10.763 161.604 11.0595 163.543 11.3695L163.859 9.39462ZM152.197 7.67887C150.242 7.41754 148.3 7.1719 146.373 6.94266L146.137 8.92866C148.054 9.15671 149.986 9.40114 151.932 9.66123L152.197 7.67887ZM140.495 6.29033C139.524 6.19049 138.557 6.09515 137.594 6.00441L137.406 7.99559C138.363 8.08579 139.325 8.18057 140.291 8.27985L140.495 6.29033ZM137.594 6.00441C136.57 5.90791 135.535 5.81512 134.489 5.72591L134.319 7.71866C135.359 7.80739 136.388 7.89966 137.406 7.99559L137.594 6.00441ZM128.229 5.24185C126.171 5.09819 124.081 4.96674 121.965 4.84677L121.852 6.84357C123.96 6.96308 126.041 7.09398 128.09 7.237L128.229 5.24185ZM115.709 4.52806C113.641 4.434 111.553 4.34979 109.452 4.2748L109.38 6.27353C111.476 6.3483 113.557 6.43225 115.619 6.526L115.709 4.52806ZM103.19 4.07903C101.11 4.02283 99.0213 3.97485 96.9276 3.93449L96.8891 5.93412C98.9778 5.97438 101.062 6.02225 103.136 6.07831L103.19 4.07903ZM90.6641 3.83603C88.5749 3.81038 86.4856 3.79169 84.4006 3.77939L84.3888 5.77936C86.4698 5.79164 88.5548 5.81028 90.6396 5.83588L90.6641 3.83603ZM78.1379 3.76103C76.0402 3.76094 73.9516 3.76679 71.8766 3.77796L71.8874 5.77793C73.9589 5.76678 76.0439 5.76094 78.1378 5.76103L78.1379 3.76103ZM65.618 3.82765C63.5122 3.84964 61.4258 3.87663 59.3639 3.90794L59.3943 5.90771C61.4531 5.87644 63.5364 5.8495 65.6389 5.82754L65.618 3.82765ZM53.096 4.01739C50.9718 4.05923 48.8808 4.10515 46.8291 4.15436L46.8771 6.15379C48.926 6.10464 51.0141 6.05878 53.1354 6.017L53.096 4.01739ZM40.5689 4.31753C38.4315 4.37762 36.3482 4.44064 34.3266 4.50556L34.3908 6.50453C36.4098 6.43969 38.4905 6.37675 40.6251 6.31674L40.5689 4.31753ZM28.0542 4.7194C25.8732 4.79806 23.7863 4.87781 21.8057 4.95706L21.8856 6.95546C23.8637 6.87631 25.948 6.79666 28.1263 6.7181L28.0542 4.7194ZM15.5339 5.22065C13.2236 5.32248 11.1281 5.42019 9.27644 5.50993L9.37327 7.50759C11.2222 7.41797 13.3148 7.3204 15.622 7.21871L15.5339 5.22065Z" fill="#FFA500"/>
</svg>
