<svg width="225" height="66" viewBox="0 0 225 66" fill="none" xmlns="http://www.w3.org/2000/svg">
<path d="M125 24.5L125.144 24.0213L125 24.5ZM224.5 64.5001L221.183 59.7746L218.749 65.0101L224.5 64.5001ZM1.00004 0.999992C0.940075 1.49638 0.940076 1.49638 0.94008 1.49638C0.940087 1.49639 0.940095 1.49639 0.940108 1.49639C0.940134 1.49639 0.940175 1.4964 0.940232 1.4964C0.940344 1.49642 0.940516 1.49644 0.940749 1.49647C0.941214 1.49652 0.941919 1.49661 0.942864 1.49672C0.944753 1.49695 0.947601 1.4973 0.951403 1.49775C0.959006 1.49868 0.970424 1.50006 0.985619 1.50191C1.01601 1.5056 1.06151 1.51115 1.12181 1.51853C1.24242 1.53329 1.42225 1.5554 1.65888 1.58476C2.13214 1.64348 2.83261 1.73119 3.74092 1.8471L3.86751 0.855148C2.95799 0.739078 2.25637 0.651222 1.782 0.592368C1.54482 0.562942 1.36444 0.540765 1.2433 0.525938C1.18273 0.518524 1.13697 0.512948 1.10632 0.50922C1.09099 0.507357 1.07945 0.505956 1.07171 0.505019C1.06785 0.50455 1.06493 0.504197 1.06298 0.503961C1.062 0.503843 1.06127 0.503754 1.06077 0.503694C1.06052 0.503664 1.06033 0.503641 1.0602 0.503625C1.06014 0.503618 1.06009 0.503612 1.06006 0.503608C1.06004 0.503605 1.06002 0.503604 1.06002 0.503603C1.06001 0.503602 1.06 0.5036 1.00004 0.999992ZM9.43585 2.59253C11.1208 2.81798 13.0269 3.07702 15.1275 3.36857L15.265 2.37807C13.1627 2.08628 11.2549 1.82702 9.56847 1.60137L9.43585 2.59253ZM20.8281 4.17313C22.6275 4.43122 24.5227 4.70694 26.5025 4.99983L26.6489 4.01059C24.6676 3.71748 22.7709 3.44155 20.9701 3.18326L20.8281 4.17313ZM32.1951 5.8548C34.0289 6.13438 35.9179 6.42641 37.8549 6.7306L38.01 5.74271C36.0715 5.43828 34.181 5.14602 32.3458 4.86623L32.1951 5.8548ZM43.5262 7.63457C45.3841 7.93514 47.2767 8.24573 49.1985 8.56611L49.3629 7.57973C47.4395 7.25907 45.5453 6.94822 43.6859 6.64741L43.5262 7.63457ZM54.8663 9.52561C56.73 9.84599 58.6148 10.1749 60.5161 10.5122L60.6908 9.52756C58.7877 9.18996 56.9011 8.86073 55.0357 8.54007L54.8663 9.52561ZM66.1634 11.5303C68.0347 11.8732 69.9171 12.2238 71.8064 12.5819L71.9926 11.5994C70.1013 11.2409 68.2169 10.89 66.3437 10.5467L66.1634 11.5303ZM77.4433 13.6693C79.3187 14.0375 81.1966 14.4129 83.0728 14.7953L83.2725 13.8154C81.3938 13.4325 79.5136 13.0567 77.636 12.688L77.4433 13.6693ZM88.6933 15.9633C90.5704 16.3613 92.4418 16.7661 94.303 17.1775L94.5189 16.2011C92.6547 15.789 90.7805 15.3836 88.9007 14.9851L88.6933 15.9633ZM99.8998 18.4429C101.777 18.8769 103.638 19.3178 105.481 19.7652L105.717 18.7935C103.871 18.3451 102.005 17.9034 100.125 17.4686L99.8998 18.4429ZM111.044 21.1526C112.923 21.634 114.776 22.1225 116.597 22.6177L116.86 21.6528C115.033 21.1562 113.175 20.6665 111.292 20.1839L111.044 21.1526ZM122.124 24.1705C123.045 24.4381 123.956 24.7075 124.856 24.9787L125.144 24.0213C124.241 23.7491 123.327 23.4787 122.403 23.2102L122.124 24.1705ZM124.856 24.9787C125.79 25.2603 126.735 25.5504 127.689 25.8487L127.987 24.8942C127.03 24.595 126.082 24.3038 125.144 24.0213L124.856 24.9787ZM133.359 27.6766C135.213 28.2914 137.094 28.931 138.996 29.5915L139.324 28.6469C137.418 27.9849 135.533 27.3439 133.674 26.7274L133.359 27.6766ZM144.618 31.5833C146.47 32.2518 148.336 32.9363 150.208 33.6334L150.557 32.6963C148.682 31.998 146.813 31.3124 144.957 30.6427L144.618 31.5833ZM155.783 35.7385C157.636 36.4476 159.49 37.1659 161.34 37.8904L161.705 36.9593C159.853 36.2339 157.996 35.5146 156.14 34.8045L155.783 35.7385ZM166.883 40.0845C168.738 40.8262 170.583 41.571 172.411 42.3157L172.788 41.3896C170.958 40.6441 169.112 39.8985 167.254 39.1559L166.883 40.0845ZM177.918 44.578C179.78 45.3495 181.619 46.1173 183.427 46.878L183.815 45.9562C182.005 45.1949 180.165 44.4263 178.301 43.6541L177.918 44.578ZM188.912 49.2016C190.785 50.0009 192.615 50.7874 194.394 51.5567L194.791 50.6388C193.011 49.869 191.179 49.0818 189.304 48.2819L188.912 49.2016ZM199.85 53.9315C201.756 54.7661 203.582 55.5716 205.318 56.3415L205.724 55.4273C203.986 54.6569 202.158 53.8507 200.252 53.0155L199.85 53.9315ZM210.765 58.7723C212.763 59.6695 214.58 60.4917 216.188 61.2232L216.603 60.3129C214.993 59.5808 213.175 58.758 211.175 57.86L210.765 58.7723ZM125 24.5L125.289 23.5425L125 24.5ZM224.5 64.5001L217.866 55.0492L212.998 65.5201L224.5 64.5001ZM1.00004 0.999992C0.880113 1.99278 0.880111 1.99278 0.880112 1.99278C0.880118 1.99278 0.880123 1.99278 0.880134 1.99278C0.880156 1.99278 0.880193 1.99278 0.880245 1.99279C0.880349 1.9928 0.880514 1.99282 0.880739 1.99285C0.881187 1.99291 0.881876 1.99299 0.882805 1.9931C0.884663 1.99333 0.887478 1.99367 0.891248 1.99412C0.898786 1.99504 0.910139 1.99641 0.925269 1.99825C0.955529 2.00193 1.00089 2.00746 1.06107 2.01483C1.18141 2.02956 1.36096 2.05163 1.59732 2.08096C2.07002 2.1396 2.76991 2.22724 3.67762 2.34308L3.9308 0.35917C3.02069 0.243024 2.31849 0.155095 1.84356 0.0961724C1.6061 0.0667114 1.42546 0.0445016 1.30405 0.0296414C1.24335 0.0222113 1.19745 0.0166185 1.16667 0.0128757C1.15128 0.0110043 1.13967 0.00959571 1.13187 0.00865104C1.12797 0.00817827 1.12502 0.00782193 1.12304 0.00758164C1.12205 0.00746149 1.12129 0.0073699 1.12078 0.00730794C1.12052 0.00727697 1.12033 0.0072534 1.12019 0.00723727C1.12012 0.00722829 1.12007 0.00722208 1.12003 0.00721773C1.12001 0.00721556 1.11999 0.00721301 1.11998 0.00721193C1.11997 0.00721052 1.11996 0.00720936 1.00004 0.999992ZM9.36954 3.08812C11.0537 3.31346 12.9591 3.57239 15.0587 3.86382L15.3337 1.88282C13.2306 1.59091 11.322 1.33154 9.63478 1.10578L9.36954 3.08812ZM20.7572 4.66806C22.5558 4.92606 24.4503 5.20167 26.4294 5.49444L26.7221 3.51598C24.74 3.22276 22.8426 2.94672 21.0411 2.68832L20.7572 4.66806ZM32.1197 6.34909C33.9528 6.62857 35.8411 6.92048 37.7773 7.22455L38.0876 5.24876C36.1483 4.94421 34.2571 4.65184 32.4211 4.37194L32.1197 6.34909ZM43.4463 8.12815C45.3035 8.42859 47.1953 8.73906 49.1162 9.05931L49.4451 7.08653C47.5209 6.76574 45.6259 6.45476 43.7657 6.15382L43.4463 8.12815ZM54.7816 10.0184C56.6444 10.3386 58.5284 10.6674 60.4288 11.0045L60.7781 9.03524C58.8741 8.69749 56.9866 8.36811 55.1204 8.0473L54.7816 10.0184ZM66.0733 12.0221C67.9436 12.3649 69.8251 12.7153 71.7133 13.0732L72.0857 11.1081C70.1934 10.7495 68.308 10.3983 66.4338 10.0549L66.0733 12.0221ZM77.347 14.1599C79.2212 14.5279 81.0979 14.9031 82.9729 15.2852L83.3723 13.3255C81.4924 12.9424 79.6111 12.5663 77.7324 12.1974L77.347 14.1599ZM88.5896 16.4525C90.4654 16.8501 92.3353 17.2546 94.1951 17.6658L94.6268 15.7129C92.7611 15.3004 90.8855 14.8947 89.0043 14.4959L88.5896 16.4525ZM99.7871 18.93C101.662 19.3637 103.522 19.8041 105.363 20.2511L105.835 18.3076C103.987 17.8588 102.12 17.4167 100.238 16.9814L99.7871 18.93ZM110.92 21.6369C112.797 22.1178 114.647 22.6057 116.466 23.1002L116.991 21.1703C115.162 20.673 113.302 20.1827 111.416 19.6995L110.92 21.6369ZM121.985 24.6507C122.904 24.9178 123.813 25.1868 124.711 25.4574L125.289 23.5425C124.384 23.2698 123.468 22.999 122.543 22.7301L121.985 24.6507ZM124.711 25.4574C125.644 25.7385 126.587 26.0281 127.54 26.3259L128.137 24.417C127.178 24.1173 126.228 23.8256 125.289 23.5425L124.711 25.4574ZM133.202 28.1511C135.053 28.7652 136.932 29.404 138.831 30.0638L139.488 28.1746C137.58 27.5119 135.693 26.8701 133.831 26.2528L133.202 28.1511ZM144.448 32.0537C146.299 32.7215 148.163 33.4054 150.033 34.102L150.731 32.2277C148.855 31.5289 146.985 30.8427 145.127 30.1724L144.448 32.0537ZM155.604 36.2055C157.456 36.9141 159.309 37.6319 161.158 38.356L161.887 36.4937C160.034 35.7679 158.176 35.0481 156.319 34.3375L155.604 36.2055ZM166.698 40.5487C168.552 41.29 170.395 42.0344 172.222 42.7788L172.977 40.9265C171.146 40.1807 169.298 39.4346 167.44 38.6917L166.698 40.5487ZM177.727 45.0399C179.588 45.8111 181.426 46.5786 183.233 47.3388L184.009 45.4953C182.198 44.7337 180.357 43.9648 178.492 43.1922L177.727 45.0399ZM188.716 49.6615C190.588 50.4605 192.417 51.2467 194.195 52.0156L194.989 50.1799C193.208 49.4097 191.376 48.6222 189.5 47.822L188.716 49.6615ZM199.65 54.3895C201.554 55.2237 203.38 56.029 205.115 56.7985L205.926 54.9703C204.188 54.1996 202.36 53.393 200.452 52.5575L199.65 54.3895ZM210.56 59.2284C212.558 60.1253 214.374 60.9471 215.981 61.6783L216.81 59.8578C215.2 59.1254 213.38 58.3022 211.38 57.4039L210.56 59.2284Z" fill="#FFA500"/>
</svg>
