<svg width="156" height="205" viewBox="0 0 156 205" fill="none" xmlns="http://www.w3.org/2000/svg">
<path d="M83.3382 91.4003L82.9429 91.7064L83.3382 91.4003ZM155.289 204.661L155.364 198.888L150.327 201.71L155.289 204.661ZM0.857719 1.62557C0.508242 1.98316 0.508243 1.98316 0.508247 1.98316C0.508252 1.98317 0.508259 1.98317 0.508269 1.98318C0.50829 1.9832 0.508323 1.98324 0.508367 1.98328C0.508454 1.98337 0.508589 1.9835 0.50877 1.98367C0.509132 1.98403 0.509679 1.98456 0.510412 1.98528C0.511877 1.98671 0.514082 1.98887 0.517023 1.99174C0.522906 1.9975 0.531734 2.00613 0.543473 2.01762C0.566953 2.0406 0.602083 2.07499 0.648603 2.12058C0.741644 2.21176 0.880249 2.34771 1.06235 2.52666C1.42655 2.88455 1.96472 3.41444 2.66032 4.10209L3.36335 3.39094C2.66702 2.70255 2.12813 2.17197 1.76326 1.81341C1.58082 1.63412 1.44188 1.49785 1.34852 1.40635C1.30183 1.3606 1.26654 1.32605 1.2429 1.30292C1.23108 1.29135 1.22218 1.28264 1.21621 1.27681C1.21323 1.27389 1.21099 1.2717 1.20948 1.27023C1.20873 1.26949 1.20816 1.26894 1.20778 1.26856C1.20759 1.26838 1.20745 1.26824 1.20735 1.26814C1.2073 1.26809 1.20726 1.26806 1.20724 1.26803C1.20723 1.26802 1.20721 1.26801 1.20721 1.268C1.2072 1.268 1.2072 1.26799 0.857719 1.62557ZM6.9853 8.40126C8.26698 9.68156 9.7136 11.1318 11.3019 12.7319L12.0117 12.0275C10.4223 10.4262 8.97465 8.97502 7.69202 7.69377L6.9853 8.40126ZM15.5778 17.0567C16.9356 18.4355 18.3622 19.8893 19.848 21.4098L20.5632 20.7109C19.0765 19.1895 17.6489 17.7347 16.2903 16.3551L15.5778 17.0567ZM24.1076 25.7859C25.4841 27.2057 26.8982 28.6697 28.3435 30.1725L29.0642 29.4793C27.6179 27.9755 26.2029 26.5105 24.8255 25.0899L24.1076 25.7859ZM32.5586 34.5735C33.9404 36.0222 35.3434 37.4994 36.7628 39.0008L37.4895 38.3138C36.0691 36.8113 34.665 35.333 33.2823 33.8833L32.5586 34.5735ZM40.9444 43.4445C42.3203 44.9136 43.7066 46.4008 45.0989 47.9024L45.8322 47.2225C44.4387 45.7196 43.0513 44.2312 41.6743 42.7609L40.9444 43.4445ZM49.2332 52.385C50.6028 53.8781 51.974 55.3815 53.343 56.8916L54.0839 56.22C52.7136 54.7083 51.341 53.2035 49.9701 51.709L49.2332 52.385ZM57.424 61.4226C58.7816 62.9398 60.1328 64.4603 61.4735 65.9806L62.2235 65.3191C60.8811 63.797 59.5283 62.2747 58.1693 60.7558L57.424 61.4226ZM65.4898 70.5711C66.8316 72.1175 68.1583 73.66 69.4657 75.1951L70.227 74.5467C68.9175 73.0092 67.5888 71.4643 66.2451 69.9157L65.4898 70.5711ZM73.3929 79.8546C74.7095 81.434 76.0004 83.0013 77.2608 84.5521L78.0368 83.9215C76.7736 82.3671 75.4801 80.7967 74.161 79.2143L73.3929 79.8546ZM81.0779 89.3191C81.7098 90.1209 82.3317 90.9169 82.9429 91.7064L83.7336 91.0943C83.1206 90.3023 82.4969 89.5041 81.8633 88.7001L81.0779 89.3191ZM82.9429 91.7064C83.5546 92.4965 84.1691 93.2978 84.7862 94.1095L85.5823 93.5043C84.9635 92.6904 84.3471 91.8868 83.7336 91.0943L82.9429 91.7064ZM88.4424 98.9977C89.6324 100.614 90.8293 102.262 92.0308 103.938L92.8436 103.356C91.6398 101.676 90.4403 100.024 89.2476 98.4047L88.4424 98.9977ZM95.554 108.913C96.7101 110.564 97.8683 112.236 99.0266 113.925L99.8513 113.359C98.6913 111.668 97.5313 109.993 96.3732 108.339L95.554 108.913ZM102.455 118.971C103.587 120.652 104.717 122.344 105.844 124.045L106.677 123.493C105.549 121.79 104.418 120.095 103.285 118.412L102.455 118.971ZM109.196 129.145C110.308 130.85 111.415 132.558 112.514 134.267L113.355 133.726C112.254 132.016 111.147 130.305 110.033 128.598L109.196 129.145ZM115.801 139.409C116.898 141.134 117.984 142.856 119.06 144.568L119.907 144.037C118.83 142.322 117.743 140.6 116.645 138.873L115.801 139.409ZM122.29 149.743C123.373 151.487 124.442 153.217 125.494 154.93L126.346 154.407C125.293 152.693 124.223 150.961 123.14 149.215L122.29 149.743ZM128.681 160.144C129.757 161.913 130.813 163.658 131.846 165.371L132.702 164.855C131.669 163.14 130.613 161.395 129.535 159.624L128.681 160.144ZM134.986 170.607C136.054 172.397 137.092 174.144 138.096 175.841L138.957 175.332C137.952 173.634 136.913 171.886 135.844 170.094L134.986 170.607ZM141.201 181.113C142.277 182.949 143.304 184.707 144.275 186.378L145.139 185.876C144.168 184.204 143.141 182.444 142.064 180.607L141.201 181.113ZM147.339 191.675C148.464 193.629 149.48 195.404 150.375 196.974L151.244 196.479C150.348 194.907 149.331 193.131 148.206 191.176L147.339 191.675ZM83.3382 91.4003L82.5475 92.0125L83.3382 91.4003ZM155.289 204.661L155.439 193.115L145.365 198.759L155.289 204.661ZM0.857719 1.62557C0.158765 2.34074 0.158764 2.34074 0.158766 2.34074C0.15877 2.34075 0.158775 2.34075 0.158784 2.34076C0.158803 2.34078 0.158833 2.34081 0.158875 2.34085C0.158958 2.34093 0.159087 2.34106 0.159264 2.34123C0.159615 2.34157 0.160154 2.3421 0.160875 2.3428C0.162321 2.34422 0.164507 2.34635 0.167428 2.34921C0.173271 2.35493 0.182059 2.36352 0.193759 2.37497C0.217159 2.39787 0.252208 2.43219 0.298647 2.4777C0.391525 2.56871 0.529964 2.7045 0.711893 2.88328C1.07575 3.24085 1.61357 3.77038 2.3088 4.45767L3.71487 3.03536C3.01817 2.34661 2.47893 1.81568 2.11371 1.45678C1.9311 1.27733 1.792 1.14089 1.69847 1.04924C1.65171 1.00341 1.61634 0.968779 1.59262 0.945567C1.58076 0.93396 1.57181 0.925209 1.56581 0.91934C1.56281 0.916405 1.56054 0.914192 1.55902 0.912702C1.55826 0.911957 1.55768 0.911393 1.55729 0.91101C1.55709 0.910819 1.55694 0.910673 1.55684 0.910573C1.55679 0.910523 1.55675 0.910484 1.55672 0.910456C1.55671 0.910443 1.5567 0.91043 1.55669 0.910423C1.55668 0.910414 1.55667 0.910408 0.857719 1.62557ZM6.63193 8.75501C7.91314 10.0348 9.35926 11.4845 10.9471 13.0842L12.3665 11.6752C10.7766 10.0735 9.32849 8.62175 8.04538 7.34003L6.63193 8.75501ZM15.2215 17.4076C16.5789 18.7859 18.0051 20.2393 19.4904 21.7592L20.9208 20.3614C19.4337 18.8395 18.0056 17.3843 16.6465 16.0042L15.2215 17.4076ZM23.7486 26.134C25.1246 27.5533 26.5383 29.0168 27.9831 30.5191L29.4246 29.1327C27.9778 27.6284 26.5623 26.1629 25.1845 24.7418L23.7486 26.134ZM32.1968 34.9185C33.5781 36.3668 34.9806 37.8435 36.3995 39.3443L37.8528 37.9703C36.4319 36.4673 35.0273 34.9885 33.6441 33.5382L32.1968 34.9185ZM40.5795 43.7863C41.9549 45.2549 43.3406 46.7414 44.7323 48.2424L46.1988 46.8825C44.8048 45.379 43.4168 43.89 42.0392 42.4192L40.5795 43.7863ZM48.8647 52.7229C50.2337 54.2154 51.6043 55.718 52.9725 57.2274L54.4543 55.8842C53.0833 54.3718 51.7101 52.8662 50.3386 51.371L48.8647 52.7229ZM57.0514 61.756C58.4082 63.2724 59.7586 64.792 61.0985 66.3113L62.5985 64.9884C61.2553 63.4653 59.9017 61.9421 58.5419 60.4224L57.0514 61.756ZM65.1122 70.8988C66.453 72.4441 67.7787 73.9855 69.0851 75.5193L70.6077 74.2225C69.2971 72.6837 67.9674 71.1377 66.6228 69.588L65.1122 70.8988ZM73.0088 80.1747C74.3242 81.7527 75.6138 83.3183 76.8728 84.8675L78.4249 83.6061C77.1602 82.0501 75.8653 80.478 74.545 78.8941L73.0088 80.1747ZM80.6852 89.6286C81.3162 90.4293 81.9372 91.2241 82.5475 92.0125L84.129 90.7882C83.515 89.9951 82.8904 89.1957 82.256 88.3906L80.6852 89.6286ZM82.5475 92.0125C83.1583 92.8014 83.7719 93.6015 84.3882 94.4121L85.9803 93.2017C85.3607 92.3867 84.7434 91.5819 84.129 90.7882L82.5475 92.0125ZM88.0398 99.2942C89.2285 100.908 90.4241 102.555 91.6244 104.23L93.2499 103.064C92.045 101.383 90.8443 99.7297 89.6502 98.1082L88.0398 99.2942ZM95.1445 109.2C96.2996 110.85 97.4568 112.52 98.6143 114.208L100.264 113.077C99.1028 111.384 97.9418 109.708 96.7828 108.053L95.1445 109.2ZM102.04 119.25C103.172 120.93 104.301 122.622 105.427 124.321L107.094 123.217C105.966 121.513 104.833 119.817 103.699 118.133L102.04 119.25ZM108.777 129.418C109.888 131.122 110.995 132.83 112.094 134.538L113.775 133.455C112.674 131.744 111.566 130.033 110.452 128.325L108.777 129.418ZM115.379 139.677C116.475 141.402 117.561 143.122 118.636 144.834L120.33 143.771C119.253 142.056 118.165 140.332 117.067 138.605L115.379 139.677ZM121.865 150.007C122.948 151.75 124.016 153.48 125.068 155.192L126.772 154.145C125.718 152.43 124.649 150.698 123.565 148.952L121.865 150.007ZM128.254 160.404C129.33 162.173 130.385 163.916 131.417 165.629L133.13 164.597C132.097 162.882 131.04 161.136 129.963 159.364L128.254 160.404ZM134.556 170.863C135.624 172.653 136.662 174.399 137.666 176.096L139.387 175.077C138.382 173.378 137.343 171.63 136.274 169.838L134.556 170.863ZM140.77 181.366C141.846 183.201 142.872 184.959 143.842 186.629L145.572 185.624C144.6 183.952 143.572 182.192 142.495 180.355L140.77 181.366ZM146.906 191.925C148.03 193.878 149.046 195.652 149.94 197.221L151.678 196.231C150.782 194.659 149.765 192.883 148.639 190.927L146.906 191.925Z" fill="#FFA500"/>
</svg>
