<svg width="237" height="249" viewBox="0 0 237 249" fill="none" xmlns="http://www.w3.org/2000/svg">
<path d="M97.5 116L97.8666 116.34L97.5 116ZM237 1.47397e-05L231.252 0.533661L234.588 5.24544L237 1.47397e-05ZM1.00029 248C1.42465 248.264 1.42465 248.264 1.42465 248.264C1.42466 248.264 1.42466 248.264 1.42467 248.264C1.42468 248.264 1.42471 248.264 1.42474 248.264C1.4248 248.264 1.42489 248.264 1.42502 248.264C1.42527 248.263 1.42565 248.263 1.42616 248.262C1.42718 248.26 1.42872 248.258 1.43078 248.255C1.43489 248.248 1.44106 248.238 1.44929 248.225C1.46574 248.199 1.49039 248.159 1.52311 248.107C1.58856 248.002 1.6863 247.846 1.81535 247.64C2.07346 247.229 2.4568 246.619 2.95752 245.827L2.11224 245.293C1.61091 246.086 1.22697 246.697 0.96829 247.109C0.838951 247.315 0.740929 247.472 0.675208 247.577C0.642348 247.629 0.617563 247.669 0.600976 247.695C0.592682 247.709 0.586439 247.719 0.58226 247.725C0.580171 247.729 0.578598 247.731 0.577543 247.733C0.577015 247.734 0.576618 247.734 0.576349 247.735C0.576215 247.735 0.576113 247.735 0.576044 247.735C0.57601 247.735 0.575984 247.736 0.575965 247.736C0.575956 247.736 0.575949 247.736 0.575943 247.736C0.575939 247.736 0.575934 247.736 1.00029 248ZM6.0909 240.904C7.02085 239.451 8.07829 237.806 9.25271 235.99L8.41294 235.447C7.23766 237.265 6.17941 238.911 5.24869 240.365L6.0909 240.904ZM12.4564 231.057C13.4634 229.513 14.5293 227.886 15.65 226.182L14.8146 225.633C13.6932 227.337 12.6265 228.966 11.6189 230.511L12.4564 231.057ZM18.8676 221.312C19.9117 219.738 20.9932 218.115 22.1095 216.446L21.2783 215.89C20.1613 217.56 19.0791 219.185 18.0343 220.759L18.8676 221.312ZM25.3708 211.591C26.4382 210.008 27.5321 208.393 28.6503 206.749L27.8234 206.187C26.7045 207.832 25.6099 209.448 24.5417 211.032L25.3708 211.591ZM31.9485 201.921C33.0353 200.337 34.1418 198.731 35.2662 197.107L34.444 196.538C33.3187 198.163 32.2115 199.77 31.1239 201.355L31.9485 201.921ZM38.6046 192.306C39.7101 190.724 40.8306 189.127 41.9646 187.519L41.1474 186.943C40.0125 188.552 38.8912 190.15 37.7848 191.733L38.6046 192.306ZM45.3468 182.747C46.4708 181.169 47.6063 179.583 48.752 177.991L47.9404 177.407C46.7937 179 45.6573 180.587 44.5323 182.167L45.3468 182.747ZM52.18 173.254C53.3218 171.685 54.4721 170.113 55.6298 168.54L54.8244 167.947C53.6656 169.522 52.5142 171.095 51.3714 172.666L52.18 173.254ZM59.1081 163.844C60.2717 162.282 61.4413 160.723 62.6158 159.167L61.8178 158.565C60.6419 160.122 59.471 161.683 58.3063 163.246L59.1081 163.844ZM66.154 154.514C67.3407 152.964 68.531 151.421 69.7239 149.886L68.9344 149.273C67.74 150.809 66.5481 152.354 65.36 153.906L66.154 154.514ZM73.3272 145.289C74.5397 143.754 75.7536 142.231 76.9675 140.723L76.1884 140.096C74.9725 141.607 73.7569 143.132 72.5427 144.669L73.3272 145.289ZM80.6543 136.184C81.9001 134.666 83.1446 133.165 84.3866 131.684L83.6204 131.041C82.376 132.525 81.1291 134.029 79.8812 135.55L80.6543 136.184ZM88.1689 127.227C89.453 125.733 90.7328 124.263 92.0068 122.82L91.2572 122.158C89.9801 123.604 88.6973 125.078 87.4104 126.575L88.1689 127.227ZM95.9073 118.471C96.5625 117.752 97.2156 117.042 97.8666 116.34L97.1334 115.66C96.4804 116.364 95.8253 117.077 95.1682 117.798L95.9073 118.471ZM97.8666 116.34C98.541 115.613 99.2239 114.883 99.9149 114.152L99.1878 113.465C98.4948 114.199 97.8099 114.931 97.1334 115.66L97.8666 116.34ZM104.108 109.785C105.502 108.357 106.923 106.922 108.369 105.482L107.664 104.773C106.214 106.216 104.789 107.655 103.392 109.087L104.108 109.785ZM112.691 101.234C114.126 99.8412 115.581 98.4453 117.055 97.0473L116.366 96.3218C114.89 97.7223 113.432 99.1209 111.995 100.516L112.691 101.234ZM121.463 92.9087C122.933 91.5426 124.418 90.1758 125.916 88.8097L125.243 88.0708C123.742 89.439 122.255 90.8078 120.782 92.1761L121.463 92.9087ZM130.409 84.7486C131.908 83.405 133.418 82.0631 134.935 80.7242L134.274 79.9743C132.754 81.3148 131.243 82.6585 129.741 84.004L130.409 84.7486ZM139.49 76.7367C141.012 75.4137 142.541 74.0949 144.073 72.7813L143.422 72.0221C141.888 73.3371 140.358 74.6574 138.834 75.9819L139.49 76.7367ZM148.684 68.8548C150.227 67.5487 151.773 66.2491 153.318 64.9573L152.677 64.19C151.13 65.4831 149.583 66.784 148.038 68.0914L148.684 68.8548ZM157.973 61.0893C159.534 59.7987 161.094 58.5173 162.649 57.2461L162.016 56.4719C160.46 57.7441 158.899 59.0267 157.336 60.3184L157.973 61.0893ZM167.352 53.4223C168.933 52.1432 170.508 50.8763 172.073 49.6228L171.448 48.8423C169.881 50.0968 168.306 51.3647 166.723 52.6448L167.352 53.4223ZM176.809 45.8478C178.406 44.5813 179.99 43.3305 181.559 42.097L180.941 41.3108C179.371 42.5452 177.785 43.7969 176.188 45.0644L176.809 45.8478ZM186.323 38.3698C187.935 37.1135 189.528 35.8779 191.099 34.6646L190.488 33.8732C188.916 35.0873 187.322 36.3237 185.708 37.5809L186.323 38.3698ZM195.9 30.9724C197.537 29.7191 199.144 28.4936 200.718 27.298L200.113 26.5017C198.538 27.698 196.93 28.9243 195.292 30.1785L195.9 30.9724ZM205.546 23.6459C207.205 22.3965 208.818 21.1864 210.382 20.0184L209.783 19.2173C208.219 20.3861 206.604 21.597 204.944 22.8472L205.546 23.6459ZM215.258 16.39C216.969 15.1223 218.602 13.9175 220.15 12.7803L219.558 11.9744C218.009 13.1124 216.375 14.318 214.663 15.5865L215.258 16.39ZM225.023 9.21634C226.846 7.88936 228.494 6.69576 229.949 5.6471L229.365 4.83587C227.908 5.88545 226.258 7.07997 224.434 8.40794L225.023 9.21634ZM97.5 116L98.2332 116.68L97.5 116ZM237 1.47397e-05L225.503 1.06733L232.176 10.4909L237 1.47397e-05ZM1.00029 248C1.84901 248.529 1.84901 248.529 1.84901 248.529C1.84901 248.529 1.84902 248.529 1.84902 248.529C1.84903 248.529 1.84906 248.529 1.84908 248.529C1.84914 248.529 1.84923 248.529 1.84935 248.528C1.84959 248.528 1.84997 248.527 1.85047 248.527C1.85147 248.525 1.853 248.522 1.85504 248.519C1.85911 248.513 1.86526 248.503 1.87345 248.49C1.88983 248.463 1.91441 248.424 1.94706 248.372C2.01237 248.267 2.10997 248.111 2.23888 247.906C2.4967 247.495 2.87975 246.886 3.38015 246.095L1.68961 245.026C1.18797 245.819 0.803724 246.43 0.544761 246.843C0.415277 247.049 0.317115 247.206 0.251255 247.312C0.218327 247.364 0.193472 247.404 0.176819 247.431C0.168491 247.444 0.162214 247.454 0.158002 247.461C0.155896 247.464 0.154306 247.467 0.153234 247.468C0.152698 247.469 0.152292 247.47 0.152016 247.47C0.151877 247.471 0.151771 247.471 0.151698 247.471C0.151661 247.471 0.151633 247.471 0.151612 247.471C0.151602 247.471 0.151593 247.471 0.151588 247.471C0.151582 247.471 0.151576 247.471 1.00029 248ZM6.512 241.173C7.44156 239.721 8.4986 238.077 9.6726 236.261L7.99305 235.175C6.81735 236.994 5.75869 238.641 4.82758 240.095L6.512 241.173ZM12.8752 231.33C13.8818 229.787 14.9474 228.16 16.0677 226.457L14.3969 225.358C13.2751 227.063 12.2081 228.692 11.2001 230.237L12.8752 231.33ZM19.2843 221.589C20.328 220.015 21.4092 218.392 22.5251 216.724L20.8627 215.612C19.7454 217.282 18.6628 218.908 17.6177 220.483L19.2843 221.589ZM25.7853 211.87C26.8524 210.288 27.9459 208.674 29.0637 207.03L27.41 205.905C26.2907 207.551 25.1957 209.168 24.1272 210.752L25.7853 211.87ZM32.3608 202.204C33.4472 200.621 34.5533 199.015 35.6774 197.391L34.0329 196.253C32.9072 197.879 31.7996 199.487 30.7116 201.073L32.3608 202.204ZM39.0145 192.592C40.1196 191.01 41.2396 189.415 42.3732 187.807L40.7388 186.655C39.6034 188.264 38.4817 189.863 37.375 191.447L39.0145 192.592ZM45.7541 183.037C46.8776 181.46 48.0126 179.874 49.1578 178.283L47.5345 177.115C46.3874 178.709 45.2505 180.297 44.1251 181.877L45.7541 183.037ZM52.5843 173.548C53.7255 171.98 54.8753 170.409 56.0324 168.837L54.4218 167.651C53.2624 169.226 52.1105 170.8 50.9671 172.371L52.5843 173.548ZM59.509 164.143C60.672 162.582 61.841 161.023 63.0149 159.469L61.4187 158.263C60.2423 159.821 59.0707 161.384 57.9053 162.947L59.509 164.143ZM66.551 154.818C67.7369 153.269 68.9266 151.727 70.1187 150.193L68.5397 148.966C67.3445 150.503 66.1518 152.049 64.9631 153.602L66.551 154.818ZM73.7195 145.599C74.9312 144.065 76.1441 142.544 77.3571 141.036L75.7988 139.782C74.582 141.295 73.3655 142.821 72.1504 144.359L73.7195 145.599ZM81.0408 136.501C82.2855 134.984 83.529 133.485 84.7697 132.005L83.2372 130.72C81.9917 132.205 80.7437 133.71 79.4947 135.233L81.0408 136.501ZM88.5481 127.553C89.8308 126.06 91.1091 124.592 92.3815 123.151L90.8825 121.827C89.6037 123.275 88.3195 124.75 87.0312 126.249L88.5481 127.553ZM96.2769 118.808C96.9311 118.09 97.5833 117.381 98.2332 116.68L96.7668 115.32C96.1128 116.025 95.4567 116.739 94.7987 117.461L96.2769 118.808ZM98.2332 116.68C98.9065 115.954 99.5884 115.226 100.278 114.495L98.8243 113.122C98.1303 113.857 97.4443 114.589 96.7668 115.32L98.2332 116.68ZM104.466 110.135C105.858 108.708 107.277 107.275 108.722 105.836L107.311 104.419C105.86 105.864 104.433 107.304 103.034 108.738L104.466 110.135ZM113.039 101.593C114.473 100.201 115.927 98.8068 117.399 97.41L116.022 95.9591C114.545 97.3608 113.085 98.7607 111.646 100.158L113.039 101.593ZM121.804 93.2749C123.272 91.9099 124.756 90.5443 126.253 89.1792L124.906 87.7014C123.404 89.0705 121.916 90.4404 120.442 91.8099L121.804 93.2749ZM130.743 85.121C132.241 83.7782 133.749 82.4372 135.266 81.0992L133.943 79.5993C132.422 80.9407 130.91 82.2852 129.408 83.6316L130.743 85.121ZM139.818 77.1141C141.339 75.7919 142.867 74.4738 144.398 73.161L143.097 71.6425C141.562 72.9582 140.031 74.2793 138.506 75.6046L139.818 77.1141ZM149.007 69.2365C150.55 67.931 152.094 66.6321 153.639 65.3409L152.356 63.8064C150.809 65.1001 149.261 66.4016 147.715 67.7097L149.007 69.2365ZM158.291 61.4747C159.852 60.1847 161.411 58.9038 162.966 57.6333L161.7 56.0847C160.143 57.3575 158.581 58.6407 157.017 59.933L158.291 61.4747ZM167.666 53.811C169.247 52.5325 170.821 51.2661 172.385 50.0131L171.135 48.452C169.568 49.707 167.992 50.9754 166.409 52.2561L167.666 53.811ZM177.12 46.2395C178.716 44.9735 180.3 43.7232 181.868 42.4901L180.632 40.9177C179.061 42.1525 177.475 43.4047 175.877 44.6727L177.12 46.2395ZM186.63 38.7642C188.242 37.5084 189.835 36.2732 191.405 35.0603L190.182 33.4775C188.61 34.692 187.015 35.9289 185.401 37.1865L186.63 38.7642ZM196.204 31.3694C197.84 30.1164 199.447 28.8913 201.02 27.6962L199.811 26.1035C198.235 27.3002 196.626 28.5269 194.988 29.7815L196.204 31.3694ZM205.847 24.0453C207.505 22.7963 209.118 21.5866 210.681 20.419L209.484 18.8168C207.919 19.9859 206.304 21.1972 204.644 22.4478L205.847 24.0453ZM215.556 16.7917C217.266 15.5245 218.899 14.3201 220.446 13.1832L219.262 11.5714C217.713 12.7099 216.078 13.9159 214.365 15.1848L215.556 16.7917ZM225.317 9.62055C227.139 8.29407 228.787 7.10092 230.242 6.05269L229.072 4.43028C227.615 5.48029 225.965 6.67529 224.14 8.00373L225.317 9.62055Z" fill="#FFA500"/>
</svg>
