<svg width="305" height="197" viewBox="0 0 305 197" fill="none" xmlns="http://www.w3.org/2000/svg">
<path d="M128.5 84.9999L128.778 85.4155L128.5 84.9999ZM2.62658e-05 197L5.5651 195.463L1.45117 191.412L2.62658e-05 197ZM304 1.4998C303.828 1.03048 303.828 1.03049 303.828 1.03049C303.828 1.03049 303.828 1.0305 303.828 1.0305C303.827 1.03052 303.827 1.03054 303.827 1.03056C303.827 1.03061 303.827 1.03068 303.827 1.03077C303.826 1.03095 303.826 1.03123 303.825 1.03159C303.823 1.03232 303.82 1.0334 303.816 1.03483C303.808 1.0377 303.796 1.04199 303.781 1.04769C303.75 1.05909 303.704 1.07614 303.642 1.09876C303.52 1.144 303.338 1.21154 303.097 1.30087C302.616 1.47953 301.904 1.74532 300.976 2.09403L301.328 3.03006C302.254 2.68181 302.966 2.41648 303.445 2.23825C303.685 2.14914 303.867 2.08181 303.989 2.03678C304.05 2.01426 304.096 1.99732 304.127 1.98603C304.142 1.98038 304.153 1.97614 304.161 1.97332C304.165 1.97191 304.168 1.97085 304.17 1.97015C304.171 1.9698 304.171 1.96954 304.172 1.96937C304.172 1.96928 304.172 1.96922 304.172 1.96918C304.172 1.96916 304.172 1.96914 304.172 1.96913C304.172 1.96913 304.172 1.96912 304.172 1.96912C304.172 1.96912 304.172 1.96912 304 1.4998ZM295.335 4.23722C293.649 4.88341 291.736 5.62128 289.619 6.44533L289.981 7.37725C292.097 6.55384 294.008 5.81658 295.692 5.17097L295.335 4.23722ZM283.981 8.65433C282.194 9.35904 280.307 10.1075 278.329 10.8977L278.699 11.8263C280.677 11.0368 282.562 10.2888 284.348 9.58459L283.981 8.65433ZM272.675 13.1692C270.853 13.9057 268.971 14.671 267.033 15.4637L267.411 16.3893C269.348 15.5971 271.229 14.8323 273.05 14.0963L272.675 13.1692ZM261.402 17.7807C259.568 18.5399 257.693 19.3203 255.781 20.121L256.167 21.0433C258.078 20.2432 259.952 19.4633 261.785 18.7047L261.402 17.7807ZM250.168 22.4858C248.326 23.2662 246.456 24.0633 244.561 24.8763L244.955 25.7953C246.849 24.9829 248.718 24.1864 250.558 23.4065L250.168 22.4858ZM238.96 27.2932C237.119 28.0926 235.258 28.9056 233.38 29.7316L233.782 30.647C235.659 29.8217 237.519 29.0093 239.359 28.2105L238.96 27.2932ZM227.823 32.1903C225.985 33.0089 224.133 33.8389 222.269 34.6797L222.68 35.5912C224.542 34.7511 226.393 33.9217 228.23 33.1038L227.823 32.1903ZM216.722 37.1998C214.884 38.0406 213.037 38.891 211.184 39.7507L211.605 40.6578C213.456 39.7989 215.301 38.9492 217.138 38.1092L216.722 37.1998ZM205.673 42.326C203.843 43.1874 202.009 44.0572 200.173 44.9347L200.605 45.8369C202.439 44.9603 204.271 44.0913 206.099 43.2307L205.673 42.326ZM194.686 47.5787C192.862 48.4647 191.038 49.3579 189.216 50.2577L189.659 51.1543C191.478 50.2555 193.3 49.3633 195.123 48.4782L194.686 47.5787ZM183.766 52.9731C181.951 53.8859 180.139 54.8049 178.334 55.7295L178.79 56.6196C180.593 55.6961 182.402 54.7783 184.216 53.8665L183.766 52.9731ZM172.924 58.5277C171.121 59.4696 169.327 60.4167 167.543 61.3684L168.014 62.2507C169.795 61.3003 171.587 60.3546 173.387 59.4141L172.924 58.5277ZM162.18 64.2623C160.387 65.2407 158.607 66.2234 156.843 67.2099L157.331 68.0828C159.092 67.098 160.869 66.1169 162.659 65.14L162.18 64.2623ZM151.542 70.2123C149.77 71.2294 148.017 72.2498 146.284 73.273L146.793 74.1341C148.522 73.1131 150.271 72.0947 152.04 71.0796L151.542 70.2123ZM141.063 76.4037C139.307 77.4735 137.576 78.5456 135.873 79.6194L136.407 80.4653C138.105 79.3944 139.832 78.3249 141.584 77.2577L141.063 76.4037ZM130.74 82.9177C129.893 83.4729 129.053 84.0285 128.222 84.5843L128.778 85.4155C129.606 84.8615 130.443 84.3077 131.288 83.7541L130.74 82.9177ZM128.222 84.5843C127.39 85.141 126.553 85.7063 125.713 86.2797L126.277 87.1056C127.115 86.5339 127.948 85.9704 128.778 85.4155L128.222 84.5843ZM120.699 89.7674C119.057 90.9299 117.403 92.1199 115.741 93.3346L116.331 94.142C117.99 92.9301 119.639 91.7431 121.277 90.5836L120.699 89.7674ZM110.833 96.9708C109.218 98.1835 107.597 99.4166 105.971 100.668L106.581 101.46C108.204 100.211 109.822 98.9807 111.434 97.7705L110.833 96.9708ZM101.151 104.418C99.5612 105.668 97.9687 106.933 96.3755 108.211L97.0012 108.991C98.5919 107.715 100.182 106.452 101.769 105.204L101.151 104.418ZM91.634 112.048C90.062 113.331 88.4911 114.624 86.9229 115.926L87.5614 116.695C89.1277 115.395 90.6965 114.104 92.2664 112.822L91.634 112.048ZM82.2409 119.84C80.6847 121.151 79.133 122.468 77.5874 123.788L78.2369 124.548C79.7808 123.229 81.3308 121.914 82.8851 120.605L82.2409 119.84ZM72.9617 127.765C71.4204 129.099 69.8871 130.434 68.3635 131.768L69.0224 132.521C70.5445 131.187 72.0764 129.853 73.6161 128.521L72.9617 127.765ZM63.7847 135.802C62.2528 137.159 60.7328 138.514 59.2267 139.863L59.8938 140.608C61.3987 139.26 62.9174 137.907 64.4479 136.551L63.7847 135.802ZM54.6902 143.947C53.1678 145.325 51.6621 146.694 50.175 148.053L50.8496 148.791C52.3355 147.433 53.84 146.065 55.3612 144.688L54.6902 143.947ZM45.6804 152.18C44.1651 153.578 42.6726 154.961 41.2053 156.327L41.8867 157.059C43.3529 155.694 44.8443 154.312 46.3584 152.915L45.6804 152.18ZM36.7488 160.494C35.2367 161.914 33.756 163.311 32.3099 164.68L32.9975 165.406C34.4427 164.038 35.9223 162.642 37.4334 161.223L36.7488 160.494ZM27.888 168.886C26.3733 170.333 24.9043 171.743 23.4849 173.11L24.1786 173.83C25.5971 172.464 27.065 171.055 28.5787 169.61L27.888 168.886ZM19.1072 177.344C17.5808 178.826 16.1275 180.244 14.7535 181.59L15.4532 182.305C16.8263 180.96 18.2786 179.543 19.8039 178.061L19.1072 177.344ZM10.379 185.894C8.77361 187.481 7.32618 188.919 6.05203 190.191L6.75846 190.899C8.03151 189.628 9.47775 188.191 11.082 186.605L10.379 185.894ZM128.5 84.9999L129.056 85.8311L128.5 84.9999ZM2.62658e-05 197L11.1301 193.925L2.90232 185.824L2.62658e-05 197ZM304 1.4998C303.655 0.561164 303.655 0.561168 303.655 0.561173C303.655 0.561176 303.655 0.561183 303.655 0.56119C303.655 0.561205 303.655 0.561224 303.655 0.56125C303.655 0.561301 303.655 0.561374 303.654 0.561469C303.654 0.56166 303.653 0.56194 303.652 0.562309C303.65 0.563046 303.647 0.56414 303.643 0.565588C303.635 0.568485 303.623 0.5728 303.608 0.578526C303.577 0.589978 303.531 0.607073 303.469 0.629745C303.346 0.67509 303.164 0.742743 302.923 0.832181C302.442 1.01106 301.728 1.27707 300.8 1.62602L301.504 3.49807C302.43 3.15006 303.14 2.88495 303.62 2.70695C303.859 2.61794 304.041 2.55072 304.162 2.50579C304.223 2.48333 304.269 2.46644 304.299 2.45519C304.315 2.44957 304.326 2.44536 304.334 2.44256C304.338 2.44116 304.34 2.44012 304.342 2.43943C304.343 2.43909 304.344 2.43883 304.344 2.43867C304.345 2.43859 304.345 2.43853 304.345 2.43849C304.345 2.43847 304.345 2.43845 304.345 2.43845C304.345 2.43844 304.345 2.43844 304.345 2.43844C304.345 2.43844 304.345 2.43844 304 1.4998ZM295.156 3.77034C293.469 4.41683 291.556 5.15501 289.437 5.97937L290.163 7.84321C292.278 7.02012 294.188 6.28316 295.871 5.63784L295.156 3.77034ZM283.797 8.18919C282.01 8.89416 280.122 9.64292 278.143 10.4333L278.885 12.2907C280.861 11.5014 282.746 10.7537 284.531 10.0497L283.797 8.18919ZM272.488 12.7056C270.665 13.4424 268.782 14.2079 266.844 15.0009L267.601 16.852C269.537 16.0601 271.417 15.2956 273.238 14.5598L272.488 12.7056ZM261.211 17.3187C259.376 18.0782 257.5 18.8588 255.588 19.6598L256.361 21.5045C258.27 20.7047 260.143 19.9251 261.976 19.1667L261.211 17.3187ZM249.973 22.0254C248.131 22.8061 246.26 23.6035 244.364 24.4168L245.152 26.2548C247.046 25.4427 248.914 24.6464 250.753 23.8669L249.973 22.0254ZM238.761 26.8346C236.919 27.6343 235.058 28.4476 233.178 29.2738L233.983 31.1047C235.86 30.2797 237.719 29.4676 239.558 28.6691L238.761 26.8346ZM227.619 31.7335C225.78 32.5524 223.928 33.3828 222.063 34.2239L222.886 36.0469C224.747 35.2072 226.597 34.3782 228.433 33.5605L227.619 31.7335ZM216.514 36.7452C214.675 37.5863 212.827 38.4371 210.974 39.2971L211.815 41.1114C213.666 40.2529 215.51 39.4036 217.346 38.5639L216.514 36.7452ZM205.46 41.8736C203.629 42.7354 201.794 43.6056 199.958 44.4836L200.82 46.288C202.653 45.4118 204.485 44.5433 206.312 43.6831L205.46 41.8736ZM194.467 47.129C192.642 48.0155 190.817 48.9091 188.994 49.8094L189.88 51.6026C191.699 50.7043 193.52 49.8126 195.341 48.928L194.467 47.129ZM183.542 52.5264C181.725 53.4397 179.912 54.3593 178.106 55.2845L179.018 57.0646C180.819 56.1417 182.628 55.2245 184.44 54.3133L183.542 52.5264ZM172.693 58.0846C170.889 59.0271 169.093 59.9748 167.308 60.9273L168.249 62.6918C170.029 61.7422 171.82 60.7971 173.619 59.8572L172.693 58.0846ZM161.94 63.8234C160.146 64.8026 158.365 65.7862 156.599 66.7735L157.575 68.5192C159.335 67.5353 161.11 66.555 162.898 65.5789L161.94 63.8234ZM151.293 69.7787C149.52 70.7967 147.764 71.8182 146.03 72.8425L147.047 74.5646C148.774 73.5447 150.522 72.5274 152.289 71.5133L151.293 69.7787ZM140.803 75.9767C139.045 77.0477 137.312 78.1212 135.607 79.1965L136.673 80.8883C138.37 79.8187 140.094 78.7507 141.844 77.6847L140.803 75.9767ZM130.466 82.4994C129.617 83.0555 128.776 83.612 127.944 84.1686L129.056 85.8311C129.883 85.2781 130.718 84.7251 131.562 84.1724L130.466 82.4994ZM127.944 84.1686C127.11 84.7263 126.273 85.2924 125.431 85.8667L126.559 87.5186C127.395 86.9477 128.228 86.3851 129.056 85.8311L127.944 84.1686ZM120.41 89.3593C118.766 90.5234 117.11 91.7148 115.446 92.9309L116.626 94.5458C118.283 93.3352 119.93 92.1496 121.566 90.9916L120.41 89.3593ZM110.533 96.571C108.917 97.7849 107.294 99.0192 105.666 100.271L106.886 101.856C108.507 100.609 110.124 99.3793 111.734 98.1703L110.533 96.571ZM100.842 104.025C99.2508 105.276 97.6571 106.542 96.0627 107.821L97.314 109.381C98.9036 108.106 100.492 106.844 102.078 105.597L100.842 104.025ZM91.3178 111.66C89.7448 112.945 88.1728 114.239 86.6036 115.541L87.8807 117.08C89.4459 115.781 91.0138 114.49 92.5826 113.21L91.3178 111.66ZM81.9188 119.458C80.3617 120.769 78.8091 122.087 77.2626 123.408L78.5616 124.928C80.1047 123.61 81.6538 122.296 83.2073 120.987L81.9188 119.458ZM72.6346 127.387C71.0925 128.721 69.5584 130.057 68.0341 131.392L69.3519 132.897C70.8733 131.564 72.4043 130.231 73.9433 128.899L72.6346 127.387ZM63.4532 135.428C61.9205 136.786 60.3999 138.141 58.8931 139.49L60.2274 140.98C61.7317 139.633 63.2496 138.28 64.7795 136.925L63.4532 135.428ZM54.3548 143.576C52.8317 144.954 51.3253 146.325 49.8377 147.684L51.1869 149.16C52.6722 147.803 54.1761 146.435 55.6967 145.059L54.3548 143.576ZM45.3413 151.813C43.8255 153.211 42.3325 154.595 40.8647 155.961L42.2274 157.425C43.6931 156.061 45.1838 154.679 46.6974 153.283L45.3413 151.813ZM36.4066 160.129C34.8938 161.55 33.4127 162.947 31.966 164.317L33.3414 165.769C34.786 164.401 36.2651 163.006 37.7757 161.587L36.4066 160.129ZM27.5426 168.525C26.0274 169.972 24.5579 171.382 23.1381 172.75L24.5255 174.19C25.9434 172.824 27.4109 171.416 28.9241 169.971L27.5426 168.525ZM18.7588 176.985C17.2319 178.468 15.7781 179.887 14.4036 181.233L15.8031 182.662C17.1757 181.317 18.6275 179.901 20.1523 178.42L18.7588 176.985ZM10.0276 185.538C8.42152 187.126 6.97352 188.565 5.69882 189.837L7.11167 191.253C8.38417 189.983 9.82984 188.546 11.4334 186.961L10.0276 185.538Z" fill="#FFA500"/>
</svg>
