<svg width="67" height="170" viewBox="0 0 67 170" fill="none" xmlns="http://www.w3.org/2000/svg">
<path d="M40.5 79.9996L40.9663 79.8193L40.5 79.9996ZM0.999978 0.499857L0.950255 6.27315L5.97493 3.42957L0.999978 0.499857ZM65.5 169.5C65.9889 169.395 65.9889 169.395 65.9889 169.395C65.9889 169.395 65.9889 169.395 65.9889 169.395C65.9889 169.395 65.9889 169.395 65.9889 169.395C65.9888 169.395 65.9888 169.394 65.9888 169.394C65.9886 169.394 65.9885 169.393 65.9883 169.392C65.9878 169.39 65.9872 169.387 65.9864 169.383C65.9847 169.375 65.9822 169.364 65.9789 169.348C65.9722 169.317 65.9622 169.271 65.949 169.21C65.9226 169.087 65.8833 168.905 65.8313 168.667C65.7274 168.19 65.5733 167.486 65.3721 166.579L64.3959 166.796C64.5967 167.702 64.7506 168.404 64.8542 168.88C64.906 169.118 64.9453 169.299 64.9715 169.421C64.9847 169.481 64.9946 169.527 65.0012 169.558C65.0045 169.574 65.007 169.585 65.0086 169.593C65.0094 169.597 65.0101 169.6 65.0105 169.601C65.0107 169.602 65.0108 169.603 65.0109 169.604C65.011 169.604 65.011 169.604 65.011 169.604C65.0111 169.604 65.0111 169.604 65.0111 169.604C65.0111 169.604 65.0111 169.604 65.0111 169.604C65.0111 169.604 65.0111 169.604 65.5 169.5ZM64.0914 160.904C63.7042 159.214 63.2627 157.308 62.7718 155.222L61.7984 155.451C62.2888 157.535 62.7298 159.439 63.1167 161.127L64.0914 160.904ZM61.4248 149.567C60.99 147.764 60.5289 145.873 60.0435 143.908L59.0727 144.148C59.5576 146.111 60.0183 148 60.4527 149.801L61.4248 149.567ZM58.6351 138.277C58.1702 136.442 57.688 134.56 57.19 132.643L56.2221 132.894C56.7196 134.809 57.2013 136.689 57.6657 138.523L58.6351 138.277ZM55.7077 127.011C55.214 125.161 54.7075 123.287 54.1894 121.4L53.2251 121.664C53.7425 123.549 54.2483 125.42 54.7415 127.269L55.7077 127.011ZM52.627 115.792C52.1005 113.932 51.5641 112.065 51.0189 110.201L50.0591 110.482C50.6034 112.343 51.139 114.207 51.6648 116.065L52.627 115.792ZM49.3582 104.626C48.7917 102.758 48.2174 100.902 47.6363 99.063L46.6827 99.3644C47.2626 101.199 47.8359 103.052 48.4013 104.916L49.3582 104.626ZM45.8471 93.53C45.2274 91.6583 44.6015 89.8152 43.9706 88.0101L43.0266 88.34C43.6555 90.1395 44.2796 91.9773 44.8978 93.8443L45.8471 93.53ZM41.9969 82.5354C41.6544 81.616 41.3108 80.7102 40.9663 79.8193L40.0336 80.1799C40.3765 81.0668 40.7187 81.9688 41.0598 82.8846L41.9969 82.5354ZM40.9663 79.8193C40.5903 78.8467 40.2013 77.8609 39.8003 76.8635L38.8725 77.2365C39.2719 78.23 39.6593 79.2117 40.0336 80.1799L40.9663 79.8193ZM37.3648 70.997C36.5465 69.082 35.6948 67.1384 34.8169 65.1766L33.9042 65.5851C34.78 67.5422 35.6293 69.4806 36.4452 71.3899L37.3648 70.997ZM32.1794 59.3939C31.292 57.4822 30.3866 55.5633 29.4696 53.6465L28.5675 54.078C29.483 55.9916 30.3867 57.9071 31.2724 59.815L32.1794 59.3939ZM26.6992 47.9306C25.7611 46.0187 24.8175 44.1185 23.875 42.2395L22.9811 42.6879C23.9225 44.5645 24.8647 46.4621 25.8015 48.3711L26.6992 47.9306ZM21.0056 36.5754C20.0252 34.6582 19.053 32.7752 18.0966 30.9372L17.2095 31.3989C18.1649 33.2348 19.136 35.1158 20.1153 37.0307L21.0056 36.5754ZM15.1446 25.3105C14.1164 23.366 13.1178 21.4931 12.1593 19.7075L11.2782 20.1804C12.2358 21.9644 13.2334 23.8354 14.2606 25.778L15.1446 25.3105ZM9.13734 14.1186C8.02323 12.073 6.99657 10.2042 6.08044 8.54678L5.20524 9.03053C6.12044 10.6863 7.1461 12.5532 8.25914 14.5969L9.13734 14.1186ZM40.5 79.9996L41.4327 79.639L40.5 79.9996ZM0.999978 0.499857L0.900527 12.0464L10.9499 6.35927L0.999978 0.499857ZM65.5 169.5C66.4778 169.29 66.4778 169.29 66.4778 169.29C66.4778 169.29 66.4778 169.29 66.4778 169.29C66.4778 169.29 66.4778 169.29 66.4778 169.29C66.4778 169.29 66.4777 169.29 66.4777 169.289C66.4776 169.289 66.4774 169.288 66.4772 169.287C66.4767 169.285 66.4761 169.282 66.4753 169.278C66.4736 169.27 66.471 169.259 66.4677 169.243C66.461 169.212 66.451 169.165 66.4378 169.104C66.4113 168.981 66.3719 168.799 66.3199 168.561C66.2159 168.083 66.0616 167.379 65.8603 166.471L63.9077 166.904C64.1085 167.809 64.2622 168.511 64.3657 168.986C64.4174 169.224 64.4566 169.405 64.4828 169.526C64.4959 169.587 64.5058 169.633 64.5124 169.663C64.5156 169.679 64.5181 169.69 64.5197 169.698C64.5206 169.701 64.5212 169.704 64.5216 169.706C64.5218 169.707 64.5219 169.708 64.522 169.708C64.5221 169.708 64.5221 169.709 64.5221 169.709C64.5221 169.709 64.5221 169.709 64.5221 169.709C64.5222 169.709 64.5222 169.709 64.5222 169.709C64.5222 169.709 64.5222 169.709 65.5 169.5ZM64.5788 160.792C64.1913 159.101 63.7497 157.195 63.2585 155.107L61.3116 155.565C61.8019 157.649 62.2427 159.552 62.6293 161.239L64.5788 160.792ZM61.9109 149.45C61.4759 147.646 61.0145 145.754 60.5289 143.788L58.5873 144.268C59.072 146.229 59.5324 148.118 59.9666 149.919L61.9109 149.45ZM59.1198 138.155C58.6547 136.318 58.1723 134.435 57.6739 132.517L55.7382 133.02C56.2354 134.934 56.7168 136.813 57.181 138.646L59.1198 138.155ZM56.1908 126.882C55.6968 125.031 55.19 123.156 54.6716 121.267L52.7429 121.797C53.26 123.681 53.7655 125.55 54.2584 127.398L56.1908 126.882ZM53.1081 115.656C52.5812 113.794 52.0444 111.927 51.4988 110.061L49.5792 110.623C50.1231 112.482 50.6583 114.344 51.1837 116.201L53.1081 115.656ZM49.8367 104.48C49.2697 102.612 48.6947 100.753 48.113 98.9123L46.206 99.5151C46.7853 101.348 47.3579 103.199 47.9228 105.061L49.8367 104.48ZM46.3218 93.3728C45.7012 91.4987 45.0744 89.6531 44.4426 87.8452L42.5546 88.505C43.1825 90.3017 43.8058 92.1369 44.4231 94.0015L46.3218 93.3728ZM42.4655 82.3609C42.1222 81.4397 41.7779 80.5319 41.4327 79.639L39.5673 80.3602C39.9094 81.2451 40.2508 82.1452 40.5913 83.0591L42.4655 82.3609ZM41.4327 79.639C41.0558 78.6642 40.666 77.6763 40.2642 76.677L38.4086 77.423C38.8072 78.4146 39.1938 79.3942 39.5673 80.3602L41.4327 79.639ZM37.8246 70.8005C37.0051 68.8827 36.1523 66.9364 35.2733 64.9724L33.4478 65.7893C34.3225 67.7441 35.1708 69.6799 35.9854 71.5864L37.8246 70.8005ZM32.6329 59.1834C31.7446 57.2698 30.8384 55.3491 29.9206 53.4307L28.1165 54.2938C29.0312 56.2058 29.934 58.1195 30.8189 60.0255L32.6329 59.1834ZM27.1481 47.7103C26.2092 45.7971 25.2651 43.8956 24.3219 42.0153L22.5342 42.912C23.4749 44.7874 24.4165 46.6837 25.3526 48.5914L27.1481 47.7103ZM21.4508 36.3477C20.4698 34.4295 19.4971 32.5453 18.5401 30.7064L16.7659 31.6297C17.7209 33.4647 18.6914 35.3446 19.6701 37.2584L21.4508 36.3477ZM15.5866 25.0768C14.5579 23.1313 13.5588 21.2575 12.5998 19.471L10.8376 20.4169C11.7948 22.2 12.7919 24.0701 13.8186 26.0117L15.5866 25.0768ZM9.57644 13.8795C8.46181 11.8329 7.43464 9.96317 6.51804 8.3049L4.76764 9.27242C5.68237 10.9273 6.70753 12.7934 7.82004 14.836L9.57644 13.8795Z" fill="#FFA500"/>
</svg>
