<svg width="18" height="176" viewBox="0 0 18 176" fill="none" xmlns="http://www.w3.org/2000/svg">
<path d="M6.35767 77.0435L5.85915 77.005L6.35767 77.0435ZM6.35767 175.043L9.01483 169.918L3.24726 170.179L6.35767 175.043ZM16.8577 1.04346C16.3654 0.955999 16.3654 0.956006 16.3654 0.956017C16.3654 0.956026 16.3654 0.956041 16.3654 0.95606C16.3654 0.956098 16.3653 0.956152 16.3653 0.956225C16.3653 0.956369 16.3653 0.956582 16.3652 0.956863C16.3651 0.957427 16.365 0.958265 16.3648 0.959377C16.3644 0.961601 16.3638 0.964922 16.363 0.96933C16.3614 0.978148 16.3591 0.99132 16.356 1.00879C16.3498 1.04372 16.3406 1.09584 16.3285 1.16468C16.3042 1.30235 16.2682 1.50689 16.2214 1.77457C16.1277 2.30992 15.9906 3.0978 15.8169 4.10834L16.8024 4.27781C16.976 3.26829 17.1129 2.48136 17.2064 1.94692C17.2532 1.67969 17.2891 1.47559 17.3133 1.33835C17.3254 1.26972 17.3346 1.21782 17.3407 1.18309C17.3438 1.16572 17.3461 1.15266 17.3476 1.14394C17.3484 1.13958 17.349 1.13631 17.3494 1.13414C17.3496 1.13305 17.3497 1.13224 17.3498 1.1317C17.3499 1.13143 17.3499 1.13123 17.3499 1.1311C17.3499 1.13104 17.3499 1.13099 17.35 1.13096C17.35 1.13094 17.35 1.13093 17.35 1.13092C17.35 1.13092 17.35 1.13092 16.8577 1.04346ZM14.7508 10.4134C14.4371 12.2984 14.0888 14.4163 13.7162 16.7215L14.7034 16.8811C15.0757 14.5775 15.4238 12.4611 15.7373 10.5776L14.7508 10.4134ZM12.7104 23.0385C12.3929 25.0634 12.0659 27.1787 11.7345 29.3626L12.7231 29.5127C13.0543 27.3305 13.381 25.2168 13.6983 23.1934L12.7104 23.0385ZM10.7905 35.6945C10.4865 37.7725 10.1826 39.8901 9.88244 42.0311L10.8728 42.1699C11.1726 40.0311 11.4763 37.9155 11.78 35.8393L10.7905 35.6945ZM9.01474 48.3733C8.73302 50.4873 8.45822 52.6086 8.1937 54.7223L9.18596 54.8465C9.45012 52.7357 9.72458 50.617 10.006 48.5054L9.01474 48.3733ZM7.4282 61.0791C7.18 63.2304 6.94638 65.3576 6.73105 67.4443L7.72577 67.5469C7.94064 65.4646 8.17382 63.3414 8.42161 61.1937L7.4282 61.0791ZM6.1217 73.8172C6.02742 74.8977 5.9397 75.9612 5.85915 77.005L6.85618 77.0819C6.93646 76.0417 7.0239 74.9816 7.11791 73.9042L6.1217 73.8172ZM5.85915 77.005C5.78172 78.0084 5.70836 79.0266 5.63891 80.0583L6.63665 80.1254C6.70589 79.0969 6.77902 78.0819 6.85618 77.0819L5.85915 77.005ZM5.27884 86.1807C5.17627 88.1933 5.08625 90.2427 5.00772 92.3194L6.00701 92.3572C6.08539 90.2845 6.17522 88.2394 6.27754 86.2316L5.27884 86.1807ZM4.81029 98.4452C4.75551 100.477 4.71035 102.525 4.67388 104.581L5.67373 104.599C5.71014 102.546 5.75523 100.501 5.80992 98.4722L4.81029 98.4452ZM4.59017 110.713C4.57021 112.76 4.55792 114.807 4.55239 116.845L5.55239 116.848C5.55791 114.812 5.57019 112.768 5.59012 110.723L4.59017 110.713ZM4.55541 122.982C4.5628 125.045 4.57637 127.09 4.59513 129.109L5.59508 129.1C5.57634 127.083 5.56279 125.039 5.5554 122.978L4.55541 122.982ZM4.66851 135.248C4.69889 137.336 4.73407 139.383 4.77289 141.379L5.7727 141.359C5.73391 139.365 5.69876 137.319 5.6684 135.233L4.66851 135.248ZM4.90613 147.496C4.95748 149.629 5.01193 151.681 5.06776 153.635L6.06736 153.606C6.01157 151.653 5.95715 149.603 5.90584 147.472L4.90613 147.496ZM5.25636 159.76C5.33094 162.018 5.4046 164.079 5.47344 165.905L6.47273 165.867C6.40394 164.043 6.33034 161.984 6.25581 159.727L5.25636 159.76ZM6.35767 77.0435L5.36063 76.9665L6.35767 77.0435ZM6.35767 175.043L11.672 164.792L0.13685 165.315L6.35767 175.043ZM16.8577 1.04346C15.8731 0.868541 15.8731 0.86855 15.8731 0.868563C15.8731 0.868573 15.8731 0.868591 15.8731 0.868611C15.8731 0.868652 15.8731 0.86871 15.873 0.868785C15.873 0.868936 15.873 0.869155 15.8729 0.869443C15.8728 0.870019 15.8727 0.87087 15.8725 0.871995C15.8721 0.874245 15.8715 0.877591 15.8707 0.882025C15.8691 0.890894 15.8668 0.904118 15.8637 0.921637C15.8575 0.956677 15.8482 1.0089 15.8361 1.07785C15.8118 1.21573 15.7757 1.42049 15.7289 1.68839C15.6351 2.22419 15.4979 3.01256 15.3241 4.0236L17.2952 4.36255C17.4687 3.35353 17.6055 2.56709 17.6989 2.03309C17.7457 1.7661 17.7815 1.56221 17.8057 1.42518C17.8178 1.35667 17.8269 1.30486 17.8331 1.27024C17.8361 1.25293 17.8384 1.23991 17.84 1.23125C17.8407 1.22691 17.8413 1.22367 17.8417 1.22152C17.8419 1.22045 17.842 1.21965 17.8421 1.21912C17.8422 1.21886 17.8422 1.21867 17.8422 1.21854C17.8422 1.21848 17.8422 1.21843 17.8422 1.21841C17.8422 1.21839 17.8422 1.21838 17.8422 1.21838C17.8422 1.21837 17.8422 1.21837 16.8577 1.04346ZM14.2576 10.3313C13.9438 12.217 13.5953 14.3357 13.2226 16.6417L15.197 16.9608C15.5692 14.6581 15.9171 12.5425 16.2305 10.6596L14.2576 10.3313ZM12.2164 22.961C11.8988 24.9867 11.5717 27.1028 11.2401 29.2876L13.2175 29.5877C13.5485 27.4064 13.8751 25.2935 14.1923 23.2708L12.2164 22.961ZM10.2958 35.6221C9.99166 37.701 9.68761 39.8196 9.38729 41.9617L11.3679 42.2394C11.6676 40.1015 11.9711 37.9869 12.2747 35.9117L10.2958 35.6221ZM8.51912 48.3072C8.23724 50.4225 7.96227 52.5451 7.69757 54.6602L9.68209 54.9086C9.94607 52.7992 10.2204 50.6818 10.5016 48.5714L8.51912 48.3072ZM6.9315 61.0218C6.68309 63.1748 6.44924 65.3041 6.23369 67.393L8.22313 67.5983C8.43777 65.5182 8.67073 63.397 8.91832 61.251L6.9315 61.0218ZM5.62359 73.7738C5.52917 74.8558 5.44132 75.9209 5.36063 76.9665L7.3547 77.1204C7.43484 76.0819 7.52214 75.0235 7.61602 73.9476L5.62359 73.7738ZM5.36063 76.9665C5.28307 77.9716 5.20959 78.9915 5.14004 80.0247L7.13552 80.159C7.20466 79.132 7.27767 78.1187 7.3547 77.1204L5.36063 76.9665ZM4.77949 86.1552C4.6768 88.1702 4.58668 90.2218 4.50808 92.3005L6.50665 92.3761C6.58495 90.3054 6.67469 88.2625 6.77689 86.257L4.77949 86.1552ZM4.31047 98.4318C4.25565 100.465 4.21045 102.515 4.17396 104.573L6.17365 104.608C6.21004 102.556 6.2551 100.512 6.30974 98.4857L4.31047 98.4318ZM4.09019 110.709C4.07023 112.757 4.05792 114.805 4.05239 116.844L6.05239 116.85C6.05791 114.815 6.07018 112.771 6.0901 110.728L4.09019 110.709ZM4.05541 122.984C4.06281 125.048 4.07638 127.094 4.09515 129.114L6.09506 129.095C6.07633 127.079 6.06278 125.037 6.0554 122.976L4.05541 122.984ZM4.16856 135.255C4.19895 137.344 4.23415 139.392 4.27298 141.388L6.2726 141.35C6.23383 139.356 6.19869 137.311 6.16835 135.226L4.16856 135.255ZM4.40627 147.508C4.45764 149.642 4.51212 151.694 4.56797 153.649L6.56715 153.592C6.51138 151.64 6.45699 149.591 6.40569 147.46L4.40627 147.508ZM4.75663 159.776C4.83124 162.036 4.90493 164.097 4.97379 165.924L6.97237 165.849C6.90362 164.024 6.83004 161.966 6.75554 159.71L4.75663 159.776Z" fill="#FFA500"/>
</svg>
