<svg width="67" height="250" viewBox="0 0 67 250" fill="none" xmlns="http://www.w3.org/2000/svg">
<path d="M20.5 104L20.9787 104.145L20.5 104ZM66.5 0.000225093L61.6024 3.05748L66.6989 5.7703L66.5 0.000225093ZM0.999975 249C1.4997 249.017 1.4997 249.017 1.4997 249.017C1.4997 249.017 1.4997 249.017 1.4997 249.017C1.4997 249.017 1.4997 249.017 1.4997 249.017C1.49971 249.017 1.49971 249.016 1.49972 249.016C1.49974 249.016 1.49976 249.015 1.4998 249.014C1.49986 249.012 1.49997 249.009 1.5001 249.005C1.50038 248.997 1.50079 248.985 1.50135 248.969C1.50246 248.936 1.50414 248.888 1.50642 248.823C1.51099 248.695 1.51794 248.503 1.5275 248.25C1.54661 247.745 1.5761 246.997 1.61764 246.025L0.618551 245.982C0.576944 246.956 0.547382 247.706 0.528213 248.212C0.518631 248.466 0.511646 248.659 0.507055 248.788C0.504758 248.853 0.50306 248.901 0.501935 248.934C0.501372 248.951 0.500953 248.963 0.500674 248.971C0.500533 248.975 0.500428 248.978 0.500359 248.98C0.500323 248.982 0.500297 248.982 0.500279 248.983C0.500269 248.983 0.500263 248.983 0.500258 248.983C0.500256 248.984 0.500255 248.984 0.500253 248.984C0.500253 248.984 0.500252 248.984 0.500251 248.984C0.500251 248.984 0.500251 248.984 0.999975 249ZM1.90748 239.897C2.00021 238.09 2.11108 236.044 2.24235 233.787L1.24404 233.729C1.11263 235.988 1.00164 238.036 0.908797 239.845L1.90748 239.897ZM2.6148 227.714C2.73952 225.778 2.8767 223.737 3.02728 221.602L2.02976 221.532C1.87903 223.669 1.74172 225.712 1.61687 227.649L2.6148 227.714ZM3.47404 215.528C3.62502 213.556 3.78651 211.523 3.95912 209.435L2.96252 209.353C2.78974 211.442 2.62808 213.478 2.47696 215.451L3.47404 215.528ZM4.48211 203.34C4.65936 201.348 4.84634 199.316 5.04351 197.25L4.04803 197.155C3.85065 199.223 3.66348 201.257 3.48605 203.252L4.48211 203.34ZM5.64365 191.174C5.84793 189.175 6.06161 187.15 6.28505 185.104L5.29096 184.996C5.06726 187.044 4.85334 189.071 4.64883 191.072L5.64365 191.174ZM6.97016 179.037C7.20436 177.03 7.44799 175.008 7.70137 172.975L6.70905 172.851C6.45533 174.887 6.21139 176.912 5.9769 178.921L6.97016 179.037ZM8.48151 166.919C8.74917 164.908 9.02654 162.89 9.31392 160.869L8.32389 160.728C8.03606 162.752 7.75829 164.773 7.49025 166.787L8.48151 166.919ZM10.2025 154.828C10.5087 152.816 10.825 150.804 11.1519 148.797L10.1649 148.636C9.83743 150.647 9.52053 152.662 9.21389 154.678L10.2025 154.828ZM12.1675 142.777C12.5191 140.765 12.8818 138.761 13.2559 136.77L12.273 136.586C11.8982 138.581 11.5348 140.589 11.1825 142.605L12.1675 142.777ZM14.4246 130.779C14.8317 128.77 15.251 126.777 15.683 124.807L14.7062 124.593C14.273 126.569 13.8526 128.566 13.4445 130.581L14.4246 130.779ZM17.0426 118.857C17.52 116.853 18.0115 114.877 18.5174 112.935L17.5497 112.682C17.0419 114.632 16.5488 116.615 16.0699 118.625L17.0426 118.857ZM20.1249 107.049C20.4054 106.07 20.69 105.102 20.9787 104.145L20.0213 103.856C19.7312 104.818 19.4454 105.79 19.1636 106.773L20.1249 107.049ZM20.9787 104.145C21.2775 103.154 21.5875 102.152 21.9079 101.142L20.9546 100.839C20.6329 101.854 20.3215 102.86 20.0213 103.856L20.9787 104.145ZM23.8913 95.1428C24.5645 93.183 25.2698 91.1972 26.0027 89.192L25.0635 88.8487C24.3285 90.8595 23.621 92.8515 22.9456 94.818L23.8913 95.1428ZM28.225 83.268C28.9744 81.318 29.7451 79.3564 30.5331 77.3892L29.6048 77.0173C28.8151 78.9886 28.0427 80.9546 27.2915 82.9093L28.225 83.268ZM32.9206 71.5356C33.7274 69.5913 34.5471 67.6473 35.3761 65.7094L34.4566 65.3161C33.6264 67.2572 32.8052 69.2045 31.997 71.1524L32.9206 71.5356ZM37.8922 59.907C38.7446 57.9668 39.6025 56.0388 40.462 54.1287L39.55 53.7183C38.6894 55.631 37.8303 57.5618 36.9767 59.5048L37.8922 59.907ZM43.0773 48.3794C43.9707 46.4362 44.8614 44.519 45.7451 42.6344L44.8397 42.2098C43.955 44.0966 43.0632 46.0161 42.1688 47.9617L43.0773 48.3794ZM48.448 36.9229C49.3791 34.973 50.2968 33.0689 51.1954 31.2189L50.2959 30.7819C49.3963 32.6339 48.4777 34.54 47.5456 36.492L48.448 36.9229ZM53.9717 25.55C54.9487 23.5711 55.893 21.6749 56.7964 19.8737L55.9025 19.4254C54.9982 21.2283 54.053 23.1264 53.075 25.1073L53.9717 25.55ZM59.6516 14.2257C60.7064 12.1555 61.6743 10.2741 62.5364 8.60987L61.6484 8.14993C60.7854 9.81602 59.8165 11.6994 58.7606 13.7717L59.6516 14.2257ZM20.5 104L21.4574 104.289L20.5 104ZM66.5 0.000225093L56.7048 6.11472L66.8977 11.5404L66.5 0.000225093ZM0.999975 249C1.99942 249.034 1.99942 249.034 1.99942 249.034C1.99942 249.034 1.99942 249.034 1.99942 249.034C1.99942 249.034 1.99943 249.033 1.99943 249.033C1.99943 249.033 1.99944 249.033 1.99944 249.033C1.99946 249.032 1.99948 249.032 1.99951 249.031C1.99958 249.029 1.99968 249.026 1.99982 249.022C2.00009 249.014 2.0005 249.002 2.00105 248.986C2.00216 248.953 2.00383 248.905 2.00611 248.841C2.01066 248.713 2.0176 248.521 2.02714 248.269C2.04622 247.765 2.07568 247.017 2.11718 246.046L0.119007 245.961C0.0773637 246.935 0.0477686 247.686 0.0285718 248.194C0.0189723 248.447 0.0119746 248.64 0.00736805 248.77C0.00506567 248.835 0.00336146 248.884 0.00223026 248.917C0.00166374 248.933 0.00124229 248.946 0.000958427 248.954C0.000818315 248.958 0.000711238 248.962 0.000640351 248.964C0.000603088 248.965 0.000575776 248.966 0.000558601 248.966C0.0005491 248.966 0.00054168 248.967 0.00053635 248.967C0.000532775 248.967 0.000532003 248.967 0.000530393 248.967C0.000529592 248.967 0.000529121 248.967 0.000527806 248.967C0.000528483 248.967 0.000526687 248.967 0.999975 249ZM2.40683 239.922C2.4995 238.116 2.6103 236.072 2.74151 233.816L0.744882 233.7C0.6134 235.96 0.502352 238.009 0.409455 239.82L2.40683 239.922ZM3.11377 227.746C3.23843 225.811 3.37554 223.771 3.52605 221.637L1.531 221.496C1.3802 223.634 1.24282 225.678 1.11791 227.617L3.11377 227.746ZM3.97258 215.566C4.12348 213.595 4.2849 211.563 4.45742 209.477L2.46422 209.312C2.29135 211.402 2.12962 213.439 1.97842 215.413L3.97258 215.566ZM4.98015 203.385C5.15731 201.393 5.34419 199.362 5.54124 197.297L3.55029 197.107C3.35281 199.177 3.16554 201.212 2.98801 203.207L4.98015 203.385ZM6.14106 191.225C6.34523 189.227 6.55878 187.203 6.78209 185.159L4.79392 184.941C4.57008 186.991 4.35604 189.019 4.15142 191.022L6.14106 191.225ZM7.46679 179.095C7.70085 177.09 7.94431 175.069 8.19753 173.037L6.21289 172.789C5.959 174.827 5.71491 176.853 5.48027 178.863L7.46679 179.095ZM8.97714 166.984C9.24461 164.975 9.52177 162.959 9.80894 160.94L7.82887 160.658C7.54083 162.683 7.26285 164.705 6.99462 166.721L8.97714 166.984ZM10.6968 154.903C11.0027 152.892 11.3188 150.883 11.6454 148.877L9.67143 148.556C9.34364 150.568 9.02647 152.585 8.71958 154.603L10.6968 154.903ZM12.6601 142.863C13.0113 140.853 13.3736 138.852 13.7473 136.863L11.7816 136.493C11.4064 138.491 11.0426 140.501 10.6899 142.519L12.6601 142.863ZM14.9146 130.879C15.3212 128.871 15.74 126.882 16.1714 124.914L14.2178 124.486C13.784 126.464 13.363 128.464 12.9544 130.482L14.9146 130.879ZM17.529 118.972C18.0057 116.972 18.4963 115 19.0013 113.061L17.0658 112.556C16.5571 114.51 16.0632 116.496 15.5835 118.509L17.529 118.972ZM20.6056 107.187C20.8855 106.21 21.1694 105.244 21.4574 104.289L19.5426 103.712C19.2518 104.676 18.9653 105.651 18.683 106.636L20.6056 107.187ZM21.4574 104.289C21.7555 103.3 22.0648 102.301 22.3845 101.293L20.478 100.688C20.1556 101.705 19.8435 102.714 19.5426 103.712L21.4574 104.289ZM24.3642 95.3053C25.0362 93.3488 25.7404 91.366 26.4723 89.3636L24.5939 88.677C23.8578 90.6907 23.1493 92.6858 22.4727 94.6556L24.3642 95.3053ZM28.6917 83.4474C29.4402 81.4997 30.21 79.5402 30.9972 77.5751L29.1406 76.8314C28.3502 78.8047 27.5769 80.7729 26.8248 82.7299L28.6917 83.4474ZM33.3825 71.7272C34.1885 69.7847 35.0075 67.8424 35.8358 65.9061L33.9969 65.1195C33.166 67.0621 32.3441 69.0111 31.5352 70.9608L33.3825 71.7272ZM38.35 60.1081C39.2018 58.1694 40.0591 56.2426 40.9179 54.3338L39.0941 53.5132C38.2329 55.4271 37.3732 57.3592 36.5189 59.3037L38.35 60.1081ZM43.5316 48.5883C44.4244 46.6463 45.3147 44.7302 46.1978 42.8467L44.387 41.9976C43.5018 43.8854 42.6095 45.8061 41.7145 47.7528L43.5316 48.5883ZM48.8992 37.1384C49.8298 35.1895 50.747 33.2864 51.6452 31.4373L49.8462 30.5635C48.9461 32.4163 48.027 34.3235 47.0944 36.2765L48.8992 37.1384ZM54.42 25.7713C55.3965 23.7934 56.3404 21.8981 57.2433 20.0979L55.4556 19.2012C54.5509 21.005 53.6051 22.9041 52.6267 24.8859L54.42 25.7713ZM60.0971 14.4527C61.1514 12.3836 62.1188 10.5031 62.9803 8.83985L61.2044 7.91996C60.341 9.58698 59.3715 11.4714 58.3151 13.5447L60.0971 14.4527Z" fill="#FFA500"/>
</svg>
