<svg width="80" height="80" viewBox="0 0 80 80" fill="none" xmlns="http://www.w3.org/2000/svg">
<circle cx="40" cy="40" r="40" fill="#FEECEB"/>
<path d="M35.1703 51.3321C34.5387 51.3321 33.9921 51.0508 33.8639 50.4328L32.0937 41.9584L30.928 43.9701C30.6887 44.3772 30.251 44.6653 29.7804 44.6653H23.3336C22.5976 44.6653 22 44.0677 22 43.334C22 42.5969 22.5976 41.9981 23.3336 41.9981H29.0183L31.5528 37.715C31.8329 37.2421 32.3704 36.9847 32.9193 37.0777C33.4625 37.1684 33.8945 37.5834 34.0057 38.1221L35.0773 43.2999L37.5211 29.7418C37.6356 29.1068 38.1879 28.6656 38.8342 28.6656C38.8354 28.6656 38.8388 28.6656 38.8399 28.6656C39.4874 28.6656 40.0397 29.1147 40.1486 29.752L42.7568 44.9715L43.5959 42.8452C43.7955 42.3349 44.2877 41.9958 44.8354 41.9958H56.6664C57.4024 41.9958 58 42.5923 58 43.3306C58 44.0654 57.4035 44.6641 56.6664 44.6641H45.7403L43.4837 50.367C43.2659 50.9227 42.7103 51.2595 42.1058 51.2028C41.5139 51.1393 41.0319 50.6902 40.9299 50.1005L38.8025 37.6662L36.4823 50.3954C36.3689 51.0247 35.8257 51.3298 35.1873 51.3298C35.1816 51.3321 35.176 51.3321 35.1703 51.3321Z" fill="#F7302B"/>
</svg>
