<svg width="80" height="80" viewBox="0 0 80 80" fill="none" xmlns="http://www.w3.org/2000/svg">
<circle cx="40" cy="40" r="40" fill="#E6FAF0"/>
<g clip-path="url(#clip0_1319_4974)">
<path d="M56.9453 55.8906H53.7812V34.6562H56.9453C57.3386 34.6562 57.6992 34.4374 57.8808 34.0886C58.0624 33.7398 58.0349 33.3189 57.8093 32.9967L50.4265 22.4499C50.2291 22.1679 49.9067 22 49.5625 22C49.2183 22 48.8959 22.1679 48.6985 22.4499L41.3157 32.9967C41.0901 33.3189 41.0626 33.7398 41.2443 34.0886C41.4259 34.4374 41.7864 34.6562 42.1797 34.6562H45.3438V55.8906H43.2344V39.9297C43.2344 39.3472 42.7622 38.875 42.1797 38.875H35.7109C35.1285 38.875 34.6562 39.3472 34.6562 39.9297V55.8906H32.5469V46.2578C32.5469 45.6753 32.0747 45.2031 31.4922 45.2031H25.1641C24.5816 45.2031 24.1094 45.6753 24.1094 46.2578V55.8906H23.0547C22.4722 55.8906 22 56.3628 22 56.9453C22 57.5278 22.4722 58 23.0547 58C23.4338 58 56.1506 58 56.9453 58C57.5278 58 58 57.5278 58 56.9453C58 56.3628 57.5278 55.8906 56.9453 55.8906ZM30.4375 55.8906H26.2188V47.3125H30.4375V55.8906ZM41.125 55.8906H36.7656V40.9844H41.125V55.8906ZM51.6719 33.6016V55.8906H47.4531V33.6016C47.4531 33.0191 46.9809 32.5469 46.3984 32.5469H44.2054L49.5625 24.8939L54.9196 32.5469H52.7266C52.1441 32.5469 51.6719 33.0191 51.6719 33.6016Z" fill="url(#paint0_linear_1319_4974)"/>
</g>
<defs>
<linearGradient id="paint0_linear_1319_4974" x1="61.5" y1="22" x2="35.5" y2="51" gradientUnits="userSpaceOnUse">
<stop stop-color="#27C078"/>
<stop offset="1" stop-color="#80E5B5"/>
</linearGradient>
<clipPath id="clip0_1319_4974">
<rect width="36" height="36" fill="white" transform="translate(22 22)"/>
</clipPath>
</defs>
</svg>
