<svg width="270" height="80" viewBox="0 0 270 80" fill="none" xmlns="http://www.w3.org/2000/svg">
<g clip-path="url(#clip0_1501_2809)">
<path d="M268.115 70.5535C268.115 74.7865 264.687 78.215 260.446 78.215H9.45981C5.22101 78.215 1.78052 74.7865 1.78052 70.5535V9.45588C1.78052 5.22508 5.22117 1.78442 9.45981 1.78442H260.444C264.686 1.78442 268.113 5.22508 268.113 9.45588L268.115 70.5535Z" fill="white"/>
<path d="M260.446 79.9981H9.4598C4.24481 79.9981 0 75.7633 0 70.5543V9.45868C0 4.24569 4.24481 0.00488281 9.4598 0.00488281H260.444C265.653 0.00488281 269.903 4.24569 269.903 9.45868V70.5543C269.907 75.7633 265.657 79.9981 260.446 79.9981Z" fill="black"/>
<path d="M268.115 70.5535C268.115 74.7865 264.687 78.215 260.446 78.215H9.45981C5.22101 78.215 1.78052 74.7865 1.78052 70.5535V9.45588C1.78052 5.22508 5.22117 1.78442 9.45981 1.78442H260.444C264.686 1.78442 268.113 5.22508 268.113 9.45588L268.115 70.5535Z" fill="black"/>
<path d="M60.2675 39.5781C60.2095 33.1309 65.5465 29.9943 65.7905 29.8483C62.7679 25.4414 58.0832 24.8393 56.4369 24.7913C52.5022 24.3772 48.6854 27.1458 46.6811 27.1458C44.6367 27.1458 41.5501 24.8313 38.2234 24.8993C33.9426 24.9654 29.938 27.4438 27.7414 31.2926C23.2088 39.1401 26.5892 50.6723 30.9322 57.0155C33.1045 60.1241 35.6431 63.5907 38.9656 63.4687C42.2162 63.3367 43.4304 61.3983 47.3532 61.3983C51.2398 61.3983 52.3801 63.4687 55.7686 63.3907C59.2575 63.3367 61.4537 60.2701 63.5503 57.1355C66.0607 53.5768 67.0688 50.0681 67.1089 49.8881C67.0288 49.8601 60.3355 47.3036 60.2675 39.5781ZM53.8663 20.6185C55.6144 18.4321 56.8108 15.4575 56.4788 12.439C53.9481 12.551 50.7837 14.1893 48.9612 16.3277C47.3488 18.2121 45.9086 21.3007 46.2806 24.2052C49.1234 24.4172 52.0419 22.7709 53.8663 20.6185Z" fill="white"/>
<path d="M107.35 63.0231H102.808L100.319 55.2036H91.6693L89.2988 63.0231H84.8762L93.4478 36.402H98.7408L107.35 63.0231ZM99.5691 51.923L97.3187 44.9717C97.0807 44.2615 96.6326 42.5892 95.9763 39.9567H95.8964C95.6324 41.0889 95.2103 42.7613 94.6322 44.9717L92.4198 51.923H99.5691ZM129.351 53.1892C129.351 56.4539 128.465 59.0344 126.69 60.9289C125.102 62.615 123.128 63.4574 120.773 63.4574C118.231 63.4574 116.402 62.551 115.292 60.7348V70.8068H111.027V50.1367C111.027 48.0861 110.973 45.9839 110.869 43.8275H114.62L114.858 46.87H114.938C116.36 44.5776 118.519 43.4312 121.415 43.4312C123.68 43.4312 125.57 44.3254 127.082 46.1157C128.592 47.9102 129.351 50.2667 129.351 53.1892ZM125.006 53.3453C125.006 51.4769 124.586 49.9366 123.742 48.7224C122.819 47.4601 121.581 46.8282 120.029 46.8282C118.977 46.8282 118.02 47.1801 117.166 47.8742C116.31 48.5744 115.75 49.4885 115.488 50.6208C115.356 51.1489 115.29 51.5789 115.29 51.9192V55.1216C115.29 56.5159 115.718 57.6943 116.574 58.6584C117.431 59.6186 118.543 60.1006 119.911 60.1006C121.517 60.1006 122.768 59.4786 123.662 58.2442C124.558 57.006 125.006 55.3737 125.006 53.3453ZM151.429 53.1892C151.429 56.4539 150.543 59.0344 148.768 60.9289C147.178 62.615 145.206 63.4574 142.849 63.4574C140.307 63.4574 138.478 62.551 137.368 60.7348V70.8068H133.103V50.1367C133.103 48.0861 133.049 45.9839 132.945 43.8275H136.696L136.934 46.87H137.014C138.434 44.5776 140.593 43.4312 143.491 43.4312C145.754 43.4312 147.644 44.3254 149.16 46.1157C150.669 47.9102 151.429 50.2667 151.429 53.1892ZM147.082 53.3453C147.082 51.4769 146.66 49.9366 145.816 48.7224C144.894 47.4601 143.659 46.8282 142.107 46.8282C141.055 46.8282 140.099 47.1801 139.241 47.8742C138.384 48.5744 137.826 49.4885 137.564 50.6208C137.434 51.1489 137.364 51.5789 137.364 51.9192V55.1216C137.364 56.5159 137.794 57.6943 138.646 58.6584C139.503 59.6166 140.615 60.1006 141.987 60.1006C143.595 60.1006 144.845 59.4786 145.738 58.2442C146.634 57.006 147.082 55.3737 147.082 53.3453ZM176.114 55.5557C176.114 57.8221 175.321 59.6645 173.747 61.0867C172.015 62.639 169.596 63.4172 166.496 63.4172C163.631 63.4172 161.335 62.8651 159.602 61.7589L160.589 58.2042C162.459 59.3124 164.513 59.8645 166.75 59.8645C168.358 59.8645 169.608 59.5004 170.5 58.7783C171.394 58.0542 171.847 57.086 171.847 55.8778C171.847 54.7957 171.473 53.8894 170.739 53.1514C170 52.4153 168.78 51.7291 167.066 51.099C162.405 49.3607 160.072 46.8182 160.072 43.4736C160.072 41.2891 160.897 39.5008 162.541 38.1025C164.185 36.7063 166.366 36.0083 169.078 36.0083C171.501 36.0083 173.519 36.4304 175.122 37.2725L174.051 40.749C172.543 39.9329 170.841 39.5248 168.936 39.5248C167.432 39.5248 166.252 39.8949 165.408 40.631C164.697 41.2891 164.337 42.0915 164.337 43.0435C164.337 44.0938 164.748 44.966 165.564 45.6501C166.272 46.2801 167.564 46.9664 169.432 47.7025C171.725 48.6267 173.409 49.7029 174.487 50.9391C175.573 52.175 176.114 53.7173 176.114 55.5557ZM190.25 47.0281H185.549V56.3478C185.549 58.7183 186.378 59.9005 188.038 59.9005C188.8 59.9005 189.432 59.8363 189.932 59.7025L190.05 62.9411C189.21 63.2553 188.104 63.4132 186.734 63.4132C185.049 63.4132 183.733 62.8991 182.783 61.8709C181.837 60.8427 181.361 59.1204 181.361 56.6959V47.0201H178.56V43.8195H181.361V40.3048L185.549 39.0405V43.8195H190.25V47.0281ZM211.418 53.2673C211.418 56.2176 210.574 58.6401 208.89 60.5346C207.127 62.485 204.783 63.4572 201.86 63.4572C199.04 63.4572 196.797 62.523 195.125 60.6567C193.453 58.7861 192.617 56.4299 192.617 53.5873C192.617 50.6126 193.481 48.1763 195.203 46.2819C196.93 44.3856 199.254 43.4375 202.177 43.4375C204.993 43.4375 207.256 44.3736 208.968 46.2419C210.604 48.0543 211.418 50.3947 211.418 53.2673ZM206.997 53.3653C206.997 51.6068 206.618 50.0985 205.855 48.8362C204.961 47.312 203.681 46.55 202.022 46.55C200.314 46.55 199.004 47.312 198.112 48.8362C197.348 50.0985 196.968 51.6328 196.968 53.4451C196.968 55.2056 197.348 56.7177 198.112 57.9762C199.034 59.5004 200.32 60.2626 201.986 60.2626C203.617 60.2626 204.895 59.4844 205.819 57.9381C206.604 56.6459 206.997 55.1276 206.997 53.3653ZM225.287 47.5782C224.865 47.5 224.413 47.46 223.943 47.46C222.443 47.46 221.282 48.0243 220.466 49.1603C219.758 50.1605 219.402 51.4247 219.402 52.951V63.0229H215.137V49.8726C215.137 47.6622 215.095 45.6458 215.013 43.8295H218.728L218.884 47.502H219.002C219.454 46.2399 220.162 45.2216 221.134 44.4594C222.085 43.7734 223.111 43.4312 224.217 43.4312C224.611 43.4312 224.967 43.4592 225.283 43.5094L225.287 47.5782ZM244.361 52.5171C244.361 53.2813 244.311 53.9252 244.205 54.4515H231.41C231.458 56.3478 232.078 57.8001 233.266 58.8003C234.345 59.6926 235.739 60.1406 237.451 60.1406C239.346 60.1406 241.074 59.8405 242.628 59.2344L243.296 62.193C241.48 62.9851 239.336 63.3792 236.861 63.3792C233.885 63.3792 231.548 62.5028 229.848 60.7547C228.151 59.0043 227.301 56.6519 227.301 53.7053C227.301 50.8126 228.092 48.4023 229.674 46.48C231.33 44.4276 233.568 43.4012 236.385 43.4012C239.152 43.4012 241.246 44.4274 242.668 46.48C243.794 48.1063 244.361 50.1227 244.361 52.5171ZM240.294 51.4109C240.324 50.1447 240.044 49.0545 239.466 48.1323C238.727 46.944 237.591 46.3519 236.069 46.3519C234.675 46.3519 233.538 46.93 232.674 48.0903C231.964 49.0124 231.542 50.1207 231.412 51.4069L240.294 51.4109Z" fill="white"/>
<path d="M97.5128 26.8752H95.2782L94.0559 23.0324H89.8051L88.6389 26.8752H86.4645L90.6773 13.7907H93.2778L97.5128 26.8752ZM93.6879 21.4201L92.5816 18.0035C92.4656 17.6534 92.2516 16.8393 91.9215 15.539H91.8815C91.7455 16.1011 91.5515 16.9173 91.2594 18.0035L90.1732 21.4201H93.6879ZM108.047 17.4414L104.474 26.8752H102.435L98.9789 17.4414H101.231L102.844 22.4303C103.116 23.2645 103.348 24.0606 103.522 24.8168H103.58C103.736 24.1386 103.968 23.3425 104.258 22.4303L105.85 17.4414H108.047ZM115.652 26.8752L115.496 25.7888H115.438C114.798 26.663 113.866 27.089 112.681 27.089C110.993 27.089 109.789 25.9048 109.789 24.3125C109.789 21.9841 111.807 20.7798 115.302 20.7798V20.6058C115.302 19.3636 114.642 18.7415 113.341 18.7415C112.409 18.7415 111.593 18.9755 110.877 19.4416L110.451 18.0633C111.325 17.5192 112.411 17.2472 113.693 17.2472C116.158 17.2472 117.402 18.5474 117.402 21.1499V24.6246C117.402 25.5768 117.442 26.3149 117.538 26.877L115.652 26.8752ZM115.36 22.1763C113.03 22.1763 111.865 22.7404 111.865 24.0786C111.865 25.0688 112.467 25.5529 113.302 25.5529C114.37 25.5529 115.36 24.7388 115.36 23.6326V22.1763ZM122.071 15.8871C121.373 15.8871 120.829 15.343 120.829 14.6248C120.829 13.9067 121.391 13.3826 122.111 13.3826C122.829 13.3826 123.412 13.9067 123.392 14.6248C123.392 15.383 122.85 15.8871 122.071 15.8871ZM123.159 26.8752H121.063V17.4414H123.159V26.8752ZM128.981 26.8752H126.884V13.1125H128.981V26.8752ZM137.89 26.8752L137.734 25.7888H137.676C137.036 26.663 136.104 27.089 134.92 27.089C133.231 27.089 132.027 25.9048 132.027 24.3125C132.027 21.9841 134.045 20.7798 137.54 20.7798V20.6058C137.54 19.3636 136.88 18.7415 135.58 18.7415C134.647 18.7415 133.831 18.9755 133.115 19.4416L132.687 18.0613C133.561 17.5172 134.648 17.2452 135.93 17.2452C138.394 17.2452 139.638 18.5454 139.638 21.1479V24.6226C139.638 25.5748 139.681 26.3129 139.773 26.875H137.89V26.8752ZM137.598 22.1763C135.268 22.1763 134.104 22.7404 134.104 24.0786C134.104 25.0688 134.705 25.5529 135.54 25.5529C136.608 25.5529 137.598 24.7388 137.598 23.6326V22.1763ZM148.132 27.0892C146.794 27.0892 145.806 26.5251 145.166 25.4189H145.124L145.004 26.8752H143.217C143.275 26.119 143.295 25.2629 143.295 24.3327V13.1125H145.394V18.8216H145.434C146.056 17.7734 147.062 17.2493 148.442 17.2493C150.715 17.2493 152.307 19.1917 152.307 22.0242C152.307 24.9528 150.539 27.0892 148.132 27.0892ZM147.706 18.8957C146.5 18.8957 145.396 19.9439 145.396 21.4001V23.0504C145.396 24.3507 146.388 25.4189 147.67 25.4189C149.241 25.4189 150.175 24.1386 150.175 22.1003C150.173 20.1979 149.2 18.8957 147.706 18.8957ZM157.502 26.8752H155.408V13.1125H157.502V26.8752ZM168.914 22.6624H162.621C162.663 24.4487 163.843 25.4569 165.592 25.4569C166.524 25.4569 167.378 25.3009 168.134 25.0108L168.46 26.4671C167.568 26.8552 166.52 27.0492 165.297 27.0492C162.345 27.0492 160.599 25.1848 160.599 22.2943C160.599 19.4017 162.387 17.2273 165.061 17.2273C167.468 17.2273 168.984 19.0137 168.984 21.7122C168.992 22.0803 168.974 22.4103 168.914 22.6624ZM166.992 21.1681C166.992 19.7118 166.253 18.6836 164.913 18.6836C163.709 18.6836 162.761 19.7318 162.621 21.1681H166.992ZM181.621 27.0892C178.864 27.0892 177.078 25.0308 177.078 22.2363C177.078 19.3237 178.902 17.2473 181.779 17.2473C184.493 17.2473 186.321 19.2077 186.321 22.0823C186.322 25.0308 184.437 27.0892 181.621 27.0892ZM181.701 18.7796C180.186 18.7796 179.216 20.1959 179.216 22.1763C179.216 24.1186 180.206 25.5349 181.681 25.5349C183.155 25.5349 184.143 24.0206 184.143 22.1363C184.145 20.2159 183.175 18.7796 181.701 18.7796ZM197.592 26.8752H195.497V21.4581C195.497 19.7898 194.857 18.9537 193.595 18.9537C192.353 18.9537 191.497 20.0219 191.497 21.2641V26.8752H189.402V20.1379C189.402 19.3037 189.38 18.4096 189.324 17.4394H191.169L191.267 18.8957H191.325C191.885 17.8875 193.033 17.2453 194.313 17.2453C196.292 17.2453 197.592 18.7596 197.592 21.2241V26.8752H197.592ZM211.308 19.0137H209.002V23.5945C209.002 24.7608 209.408 25.3429 210.222 25.3429C210.592 25.3429 210.904 25.3029 211.154 25.2449L211.212 26.8372C210.804 26.9934 210.258 27.0712 209.584 27.0712C207.932 27.0712 206.945 26.159 206.945 23.7706V19.0137H205.569V17.4414H206.945V15.713L209.002 15.0909V17.4394H211.308V19.0137ZM222.41 26.8752H220.312V21.4981C220.312 19.8098 219.672 18.9557 218.41 18.9557C217.323 18.9557 216.315 19.6938 216.315 21.1881V26.8752H214.217V13.1125H216.315V18.7796H216.355C217.015 17.7514 217.968 17.2453 219.19 17.2453C221.188 17.2453 222.41 18.7976 222.41 21.2641V26.8752ZM233.123 22.6624H226.831C226.871 24.4487 228.052 25.4569 229.8 25.4569C230.734 25.4569 231.586 25.3009 232.343 25.0108L232.671 26.4671C231.778 26.8552 230.728 27.0492 229.506 27.0492C226.553 27.0492 224.807 25.1848 224.807 22.2943C224.807 19.4017 226.596 17.2273 229.27 17.2273C231.677 17.2273 233.193 19.0137 233.193 21.7122C233.2 22.0803 233.18 22.4103 233.123 22.6624ZM231.2 21.1681C231.2 19.7118 230.464 18.6836 229.124 18.6836C227.917 18.6836 226.969 19.7318 226.831 21.1681H231.2Z" fill="white"/>
</g>
<defs>
<clipPath id="clip0_1501_2809">
<rect width="269.906" height="80" fill="white"/>
</clipPath>
</defs>
</svg>
