<svg width="270" height="80" viewBox="0 0 270 80" fill="none" xmlns="http://www.w3.org/2000/svg">
<g clip-path="url(#clip0_1501_2795)">
<path d="M259.909 79.9852H9.9965C4.39846 79.9852 0 75.5867 0 69.9887V10.0097C0 4.41164 4.39846 0.0131836 9.9965 0.0131836H259.909C265.507 0.0131836 269.906 4.41164 269.906 10.0097V69.9887C269.906 75.5867 265.507 79.9852 259.909 79.9852Z" fill="black"/>
<path d="M259.909 1.61262C264.507 1.61262 268.306 5.4113 268.306 10.0097V69.9887C268.306 74.5871 264.507 78.3858 259.909 78.3858H9.9965C5.39811 78.3858 1.59944 74.5871 1.59944 69.9887V10.0097C1.59944 5.4113 5.39811 1.61262 9.9965 1.61262H259.909ZM259.909 0.0131836H9.9965C4.39846 0.0131836 0 4.61157 0 10.0097V69.9887C0 75.5867 4.39846 79.9852 9.9965 79.9852H259.909C265.507 79.9852 269.906 75.5867 269.906 69.9887V10.0097C269.906 4.61157 265.507 0.0131836 259.909 0.0131836Z" fill="black"/>
<path d="M94.7668 20.4075C94.7668 22.0069 94.367 23.4065 93.3673 24.4061C92.1677 25.6057 90.7682 26.2055 88.9689 26.2055C87.1695 26.2055 85.77 25.6057 84.5704 24.4061C83.3708 23.2065 82.771 21.807 82.771 20.0076C82.771 18.2083 83.3708 16.8088 84.5704 15.6092C85.77 14.4096 87.1695 13.8098 88.9689 13.8098C89.7686 13.8098 90.5683 14.0097 91.368 14.4096C92.1677 14.8095 92.7675 15.2093 93.1674 15.8091L92.1677 16.8088C91.368 15.8091 90.3684 15.4093 88.9689 15.4093C87.7693 15.4093 86.5697 15.8091 85.77 16.8088C84.7703 17.6085 84.3705 18.8081 84.3705 20.2076C84.3705 21.6071 84.7703 22.8067 85.77 23.6064C86.7696 24.4061 87.7693 25.0059 88.9689 25.0059C90.3684 25.0059 91.368 24.606 92.3677 23.6064C92.9675 23.0066 93.3673 22.2069 93.3673 21.2072H88.9689V19.6078H94.7668V20.4075ZM103.964 15.4093H98.5655V19.2079H103.564V20.6074H98.5655V24.4061H103.964V26.0055H96.9661V14.0097H103.964V15.4093ZM110.561 26.0055H108.962V15.4093H105.563V14.0097H113.96V15.4093H110.561V26.0055ZM119.758 26.0055V14.0097H121.358V26.0055H119.758ZM128.155 26.0055H126.556V15.4093H123.157V14.0097H131.354V15.4093H127.955V26.0055H128.155ZM147.148 24.4061C145.949 25.6057 144.549 26.2055 142.75 26.2055C140.951 26.2055 139.551 25.6057 138.352 24.4061C137.152 23.2065 136.552 21.807 136.552 20.0076C136.552 18.2083 137.152 16.8088 138.352 15.6092C139.551 14.4096 140.951 13.8098 142.75 13.8098C144.549 13.8098 145.949 14.4096 147.148 15.6092C148.348 16.8088 148.948 18.2083 148.948 20.0076C148.948 21.807 148.348 23.2065 147.148 24.4061ZM139.551 23.4065C140.351 24.2062 141.55 24.806 142.75 24.806C143.95 24.806 145.149 24.4061 145.949 23.4065C146.749 22.6067 147.348 21.4072 147.348 20.0076C147.348 18.6081 146.949 17.4086 145.949 16.6088C145.149 15.8091 143.95 15.2093 142.75 15.2093C141.55 15.2093 140.351 15.6092 139.551 16.6088C138.751 17.4086 138.152 18.6081 138.152 20.0076C138.152 21.4072 138.551 22.6067 139.551 23.4065ZM151.147 26.0055V14.0097H152.946L158.744 23.4065V14.0097H160.344V26.0055H158.744L152.547 16.209V26.0055H151.147Z" fill="white" stroke="white" stroke-width="0.960856" stroke-miterlimit="10"/>
<path d="M136.152 43.5984C131.354 43.5984 127.555 47.1971 127.555 52.1954C127.555 56.9937 131.354 60.7924 136.152 60.7924C140.951 60.7924 144.749 57.1936 144.749 52.1954C144.749 46.9972 140.951 43.5984 136.152 43.5984ZM136.152 57.1936C133.553 57.1936 131.354 54.9944 131.354 51.9954C131.354 48.9965 133.553 46.7973 136.152 46.7973C138.751 46.7973 140.951 48.7966 140.951 51.9954C140.951 54.9944 138.751 57.1936 136.152 57.1936ZM117.559 43.5984C112.761 43.5984 108.962 47.1971 108.962 52.1954C108.962 56.9937 112.761 60.7924 117.559 60.7924C122.357 60.7924 126.156 57.1936 126.156 52.1954C126.156 46.9972 122.357 43.5984 117.559 43.5984ZM117.559 57.1936C114.96 57.1936 112.761 54.9944 112.761 51.9954C112.761 48.9965 114.96 46.7973 117.559 46.7973C120.158 46.7973 122.357 48.7966 122.357 51.9954C122.357 54.9944 120.158 57.1936 117.559 57.1936ZM95.3666 46.1975V49.7962H103.964C103.764 51.7955 102.964 53.3949 101.964 54.3946C100.765 55.5942 98.7654 56.9937 95.3666 56.9937C89.9685 56.9937 85.9699 52.7952 85.9699 47.397C85.9699 41.9989 90.1684 37.8004 95.3666 37.8004C98.1656 37.8004 100.365 39 101.964 40.3995L104.563 37.8004C102.364 35.8011 99.5651 34.2017 95.5665 34.2017C88.3691 34.2017 82.1712 40.1996 82.1712 47.397C82.1712 54.5945 88.3691 60.5924 95.5665 60.5924C99.5651 60.5924 102.364 59.3928 104.763 56.7938C107.162 54.3946 107.962 50.9958 107.962 48.3967C107.962 47.597 107.962 46.7973 107.762 46.1975H95.3666ZM186.135 48.9965C185.335 46.9972 183.336 43.5984 178.937 43.5984C174.539 43.5984 170.94 46.9972 170.94 52.1954C170.94 56.9937 174.539 60.7924 179.337 60.7924C183.136 60.7924 185.535 58.3932 186.335 56.9937L183.536 54.9944C182.536 56.3939 181.337 57.3935 179.337 57.3935C177.338 57.3935 176.138 56.5938 175.139 54.7945L186.535 49.9961L186.135 48.9965ZM174.539 51.7955C174.539 48.5966 177.138 46.7973 178.937 46.7973C180.337 46.7973 181.736 47.597 182.136 48.5966L174.539 51.7955ZM165.142 59.9926H168.941V35.0014H165.142V59.9926ZM159.144 45.3977C158.145 44.3981 156.545 43.3984 154.546 43.3984C150.347 43.3984 146.349 47.1971 146.349 51.9954C146.349 56.7938 150.147 60.3925 154.546 60.3925C156.545 60.3925 158.145 59.3928 158.944 58.3932H159.144V59.5928C159.144 62.7917 157.345 64.591 154.546 64.591C152.347 64.591 150.747 62.9916 150.347 61.5921L147.148 62.9916C148.148 65.1908 150.547 67.9898 154.746 67.9898C159.144 67.9898 162.743 65.3907 162.743 59.1929V43.9982H159.144V45.3977ZM154.746 57.1936C152.147 57.1936 149.948 54.9944 149.948 51.9954C149.948 48.9965 152.147 46.7973 154.746 46.7973C157.345 46.7973 159.344 48.9965 159.344 51.9954C159.344 54.9944 157.345 57.1936 154.746 57.1936ZM203.529 35.0014H194.532V59.9926H198.331V50.5959H203.529C207.727 50.5959 211.726 47.597 211.726 42.7987C211.726 38.0003 207.727 35.0014 203.529 35.0014ZM203.729 46.9972H198.331V38.4002H203.729C206.528 38.4002 208.127 40.7993 208.127 42.5987C207.927 44.798 206.328 46.9972 203.729 46.9972ZM226.721 43.3984C223.922 43.3984 221.123 44.598 220.123 47.1971L223.522 48.5966C224.321 47.1971 225.521 46.7973 226.921 46.7973C228.92 46.7973 230.719 47.9968 230.919 49.9961V50.1961C230.319 49.7962 228.72 49.1964 227.12 49.1964C223.522 49.1964 219.923 51.1957 219.923 54.7945C219.923 58.1933 222.922 60.3925 226.121 60.3925C228.72 60.3925 229.92 59.1929 230.919 57.9933H231.119V59.9926H234.718V50.396C234.318 45.9975 230.919 43.3984 226.721 43.3984ZM226.321 57.1936C225.121 57.1936 223.322 56.5938 223.322 54.9944C223.322 52.9951 225.521 52.3953 227.32 52.3953C228.92 52.3953 229.72 52.7952 230.719 53.195C230.319 55.5942 228.32 57.1936 226.321 57.1936ZM247.313 43.9982L243.115 54.7945H242.915L238.517 43.9982H234.518L241.116 59.1929L237.317 67.59H241.116L251.312 43.9982H247.313ZM213.725 59.9926H217.524V35.0014H213.725V59.9926Z" fill="white"/>
<path d="M20.7927 15.0088C20.1929 15.6086 19.993 16.6082 19.993 17.8078V61.9923C19.993 63.1919 20.3928 64.1916 20.9926 64.7914L21.1926 64.9913L45.9839 40.2V39.8001L20.7927 15.0088Z" fill="url(#paint0_linear_1501_2795)"/>
<path d="M53.9811 48.5971L45.784 40.3999V39.8002L53.9811 31.603L54.1811 31.803L63.9776 37.401C66.7767 39.0004 66.7767 41.5995 63.9776 43.199L53.9811 48.5971Z" fill="url(#paint1_linear_1501_2795)"/>
<path d="M54.181 48.3976L45.784 40.0005L20.7927 64.9917C21.7924 65.9914 23.1919 65.9914 24.9913 65.1917L54.181 48.3976Z" fill="url(#paint2_linear_1501_2795)"/>
<path d="M54.181 31.6035L24.9913 15.0093C23.1919 14.0096 21.7924 14.2096 20.7927 15.2092L45.784 40.0005L54.181 31.6035Z" fill="url(#paint3_linear_1501_2795)"/>
<path opacity="0.2" d="M53.9811 48.1973L24.9913 64.5915C23.3918 65.5912 21.9923 65.3912 20.9927 64.5915L20.7927 64.7915L20.9927 64.9914C21.9923 65.7911 23.3918 65.991 24.9913 64.9914L53.9811 48.1973Z" fill="black"/>
<path opacity="0.2" d="M20.7927 64.5919C20.1929 63.9921 19.993 62.9924 19.993 61.7929V61.9928C19.993 63.1924 20.3928 64.192 20.9926 64.7918V64.5919H20.7927ZM63.9776 42.5996L53.9811 48.1976L54.181 48.3975L63.9776 42.7995C65.3771 41.9998 65.9769 41.0001 65.9769 40.0005C65.9769 41.0001 65.1772 41.7999 63.9776 42.5996Z" fill="black"/>
<path opacity="0.2" d="M24.9912 15.2085L63.9776 37.4008C65.1772 38.2005 65.9769 39.0002 65.9769 39.9999C65.9769 39.0002 65.3771 38.0006 63.9776 37.2008L24.9912 15.0086C22.1922 13.4092 19.993 14.6087 19.993 17.8076V18.0075C19.993 15.0086 22.1922 13.6091 24.9912 15.2085Z" fill="white"/>
</g>
<defs>
<linearGradient id="paint0_linear_1501_2795" x1="43.5847" y1="17.4279" x2="10.0305" y2="50.9802" gradientUnits="userSpaceOnUse">
<stop stop-color="#00A0FF"/>
<stop offset="0.007" stop-color="#00A1FF"/>
<stop offset="0.26" stop-color="#00BEFF"/>
<stop offset="0.512" stop-color="#00D2FF"/>
<stop offset="0.76" stop-color="#00DFFF"/>
<stop offset="1" stop-color="#00E3FF"/>
</linearGradient>
<linearGradient id="paint1_linear_1501_2795" x1="67.6443" y1="40.0021" x2="19.2673" y2="40.0021" gradientUnits="userSpaceOnUse">
<stop stop-color="#FFE000"/>
<stop offset="0.409" stop-color="#FFBD00"/>
<stop offset="0.775" stop-color="#FFA500"/>
<stop offset="1" stop-color="#FF9C00"/>
</linearGradient>
<linearGradient id="paint2_linear_1501_2795" x1="49.6366" y1="44.5909" x2="4.13655" y2="90.091" gradientUnits="userSpaceOnUse">
<stop stop-color="#FF3A44"/>
<stop offset="1" stop-color="#C31162"/>
</linearGradient>
<linearGradient id="paint3_linear_1501_2795" x1="14.5889" y1="0.366393" x2="34.9078" y2="20.6853" gradientUnits="userSpaceOnUse">
<stop stop-color="#32A071"/>
<stop offset="0.069" stop-color="#2DA771"/>
<stop offset="0.476" stop-color="#15CF74"/>
<stop offset="0.801" stop-color="#06E775"/>
<stop offset="1" stop-color="#00F076"/>
</linearGradient>
<clipPath id="clip0_1501_2795">
<rect width="269.906" height="80" fill="white"/>
</clipPath>
</defs>
</svg>
