<svg width="268" height="268" viewBox="0 0 268 268" fill="none" xmlns="http://www.w3.org/2000/svg">
<circle cx="134" cy="134" r="132" stroke="white" stroke-width="4" stroke-dasharray="16 16"/>
<circle cx="134" cy="134" r="116" stroke="white" stroke-width="2"/>
<g clip-path="url(#clip0_2272_6790)">
<path d="M134.004 74.9629C101.397 74.9629 74.9678 101.392 74.9678 134C74.9678 157.494 88.7272 177.72 108.594 187.222L110.442 151.517C110.442 151.517 106.966 150.376 106.206 150.005C98.8334 146.757 93.4779 137.196 93.4779 124.786C93.4779 111.245 103.98 99.5809 114.133 99.4845C114.146 99.4845 114.146 99.4845 114.154 99.4845C114.159 99.4845 114.167 99.4845 114.171 99.4845C124.327 99.5805 134.829 111.244 134.829 124.786C134.829 137.196 129.467 146.753 122.11 150.005C122.052 150.03 117.839 151.56 117.839 151.56L119.903 191.259C124.431 192.374 129.14 193.028 134.012 193.028C140.584 193.028 146.877 191.909 152.781 189.93L154.61 154.55C149.791 153.491 145.681 150.423 143.104 146.574C139.913 141.793 145.561 99.4805 145.561 99.4805H149.235V139.187H152.884V99.4849H156.875V139.195H160.506V99.4849H164.647V139.195H168.291V99.4849H171.111C171.111 99.4849 176.759 141.797 173.563 146.578C171.012 150.389 166.941 153.448 162.181 154.533C162.096 154.564 162.019 154.593 162.019 154.593L163.608 185.026C181.194 174.802 193.046 155.807 193.046 134C193.037 101.393 166.607 74.9629 134.004 74.9629Z" fill="white"/>
<path d="M102.119 118.783C102.33 117.923 102.615 117.104 102.628 117.09C102.719 116.767 102.548 116.438 102.198 116.229C101.865 116.049 101.459 116.141 101.271 116.43C101.271 116.43 100.867 117.073 100.282 118.023C99.8056 118.842 99.1007 120.149 98.6197 121.777C98.2031 123.203 97.7056 125.101 97.4812 127.224C97.3853 128.339 97.3636 129.345 97.3978 130.381C97.4812 131.562 97.6603 132.573 98.0023 133.728C99.1621 137.025 100.055 140.217 103.279 143.365C104.298 144.412 105.345 145.125 106.101 145.651L106.368 145.839C106.53 145.946 106.686 146.044 106.84 146.134C107.474 146.467 107.899 146.587 107.976 146.604C108.292 146.689 108.617 146.535 108.752 146.279C108.878 146.01 108.786 145.672 108.523 145.459C108.523 145.459 108.156 145.139 107.684 144.54C107.361 144.177 107.011 143.651 106.603 143.058C106.315 142.639 105.975 142.165 105.659 141.703C104.088 139.306 103.183 135.961 101.931 132.534C101.685 131.791 101.485 130.827 101.41 130.009C101.31 129.065 101.263 128.155 101.263 127.311C101.226 125.35 101.314 123.667 101.485 122.302C101.681 120.762 101.835 119.606 102.119 118.783Z" fill="white"/>
<path d="M134.004 64C95.4091 64 64 95.4025 64 134C64 172.589 95.4091 204 134.004 204C172.598 204 204 172.589 204 134C204 95.4025 172.598 64 134.004 64ZM134.004 198.779C98.2821 198.779 69.2187 169.718 69.2187 134C69.2187 98.2777 98.2821 69.2143 134.004 69.2143C169.722 69.2143 198.788 98.2777 198.788 134C198.788 169.718 169.722 198.779 134.004 198.779Z" fill="white"/>
</g>
<defs>
<clipPath id="clip0_2272_6790">
<rect width="140" height="140" fill="white" transform="translate(64 64)"/>
</clipPath>
</defs>
</svg>
