<svg width="268" height="268" viewBox="0 0 268 268" fill="none" xmlns="http://www.w3.org/2000/svg">
<circle cx="134" cy="134" r="132" stroke="#FFA500" stroke-width="4" stroke-dasharray="16 16"/>
<circle cx="134" cy="134" r="116" stroke="#FFA500" stroke-width="2"/>
<path d="M134 64C95.3405 64 64 95.3405 64 134C64 172.66 95.3405 204 134 204C172.66 204 204 172.66 204 134C203.957 95.3587 172.641 64.0433 134 64ZM136.499 84.1808L160.833 74.4533C163.595 75.7031 166.267 77.1432 168.829 78.7633L168.893 78.8032C171.411 80.3983 173.817 82.1631 176.096 84.0851L176.292 84.256C177.314 85.1265 178.307 86.0277 179.273 86.9574C179.395 87.077 179.523 87.1909 179.645 87.3128C180.658 88.3018 181.639 89.3215 182.588 90.3708C182.666 90.4596 182.741 90.5531 182.82 90.6419C183.653 91.575 184.454 92.5412 185.231 93.5233C185.418 93.7568 185.604 93.9904 185.786 94.224C186.629 95.3154 187.444 96.4263 188.215 97.5724L183.363 118.194L159.496 126.151L136.504 107.755L136.499 84.1808ZM82.2121 94.2376C82.3932 94.0041 82.5778 93.7705 82.7646 93.5381C83.5326 92.564 84.3267 91.6138 85.147 90.6864C85.2358 90.5884 85.3179 90.4881 85.4056 90.3901C86.349 89.3385 87.3254 88.32 88.3371 87.3333C88.4533 87.2194 88.5695 87.0998 88.6914 86.995C89.6496 86.071 90.6351 85.1755 91.6479 84.3096L91.8815 84.1136C94.1396 82.2052 96.5231 80.4518 99.0159 78.8636L99.1071 78.8055C101.655 77.1888 104.309 75.751 107.055 74.5L131.501 84.1808V107.748L108.509 126.141L84.6411 118.199L79.7899 97.577C80.5669 96.4331 81.3735 95.3245 82.2121 94.2376ZM79.4002 169.805C78.7144 168.76 78.0581 167.694 77.4326 166.609L77.2811 166.347C76.659 165.266 76.07 164.168 75.5151 163.053L75.4958 163.017C74.3268 160.67 73.3003 158.255 72.423 155.784V155.761C72.0083 154.594 71.63 153.399 71.2803 152.197L71.1538 151.754C70.8337 150.625 70.5431 149.483 70.2834 148.329C70.2606 148.216 70.2321 148.109 70.2093 147.998C69.6362 145.391 69.2249 142.752 68.9766 140.094L83.2215 123.001L106.924 130.901L113.803 158.416L102.5 173.455L79.4002 169.805ZM149.538 197.45C148.371 197.739 147.174 197.989 145.977 198.213C145.809 198.246 145.638 198.274 145.471 198.305C144.451 198.487 143.42 198.643 142.387 198.771C142.111 198.806 141.837 198.843 141.563 198.876C140.604 198.988 139.635 199.072 138.664 199.142C138.359 199.162 138.057 199.193 137.752 199.213C136.511 199.289 135.26 199.333 134 199.333C132.846 199.333 131.699 199.303 130.558 199.242C130.42 199.242 130.288 199.219 130.15 199.209C129.135 199.151 128.125 199.075 127.116 198.977L127 198.955C124.791 198.716 122.594 198.365 120.42 197.906L106.619 176.296L117.744 161.461H150.256L161.564 176.394L149.538 197.45ZM197.808 148C197.784 148.112 197.757 148.22 197.733 148.332C197.472 149.485 197.181 150.626 196.862 151.756L196.737 152.2C196.386 153.402 196.009 154.592 195.593 155.763V155.786C194.716 158.257 193.69 160.673 192.52 163.02L192.501 163.055C191.943 164.172 191.355 165.27 190.735 166.349L190.583 166.611C189.961 167.7 189.306 168.763 188.619 169.803L165.598 173.433L154.216 158.407L161.092 130.899L184.794 122.999L199.039 140.092C198.792 142.751 198.381 145.392 197.808 148Z" fill="url(#paint0_linear_1409_8912)"/>
<defs>
<linearGradient id="paint0_linear_1409_8912" x1="134" y1="64" x2="126.5" y2="279.5" gradientUnits="userSpaceOnUse">
<stop stop-color="white"/>
<stop offset="0.350155" stop-color="white" stop-opacity="0.796924"/>
<stop offset="1" stop-color="white" stop-opacity="0"/>
</linearGradient>
</defs>
</svg>
