<svg width="232" height="70" viewBox="0 0 232 70" fill="none" xmlns="http://www.w3.org/2000/svg">
<g clip-path="url(#clip0_1545_12882)">
<path d="M221.923 68.9874H9.49703C4.73869 68.9874 1 65.2488 1 60.4904V9.50826C1 4.74992 4.73869 1.01123 9.49703 1.01123H221.923C226.681 1.01123 230.42 4.74992 230.42 9.50826V60.4904C230.42 65.2488 226.681 68.9874 221.923 68.9874Z" fill="black"/>
<path d="M221.923 2.37075C225.831 2.37075 229.06 5.59963 229.06 9.50826V60.4904C229.06 64.3991 225.831 67.6279 221.923 67.6279H9.49703C5.58839 67.6279 2.35952 64.3991 2.35952 60.4904V9.50826C2.35952 5.59963 5.58839 2.37075 9.49703 2.37075H221.923ZM221.923 1.01123H9.49703C4.73869 1.01123 1 4.91986 1 9.50826V60.4904C1 65.2488 4.73869 68.9874 9.49703 68.9874H221.923C226.681 68.9874 230.42 65.2488 230.42 60.4904V9.50826C230.42 4.91986 226.681 1.01123 221.923 1.01123Z" fill="black"/>
<path d="M81.5518 18.3464C81.5518 19.7059 81.2119 20.8955 80.3622 21.7452C79.3425 22.7648 78.153 23.2747 76.6235 23.2747C75.094 23.2747 73.9045 22.7648 72.8848 21.7452C71.8652 20.7255 71.3553 19.536 71.3553 18.0065C71.3553 16.477 71.8652 15.2875 72.8848 14.2678C73.9045 13.2482 75.094 12.7383 76.6235 12.7383C77.3033 12.7383 77.983 12.9083 78.6628 13.2482C79.3425 13.588 79.8524 13.9279 80.1922 14.4377L79.3425 15.2874C78.6628 14.4377 77.8131 14.0979 76.6235 14.0979C75.6039 14.0979 74.5842 14.4377 73.9045 15.2874C73.0548 15.9672 72.7149 16.9869 72.7149 18.1764C72.7149 19.366 73.0548 20.3857 73.9045 21.0654C74.7542 21.7452 75.6039 22.255 76.6235 22.255C77.8131 22.255 78.6628 21.9151 79.5125 21.0654C80.0223 20.5556 80.3622 19.8758 80.3622 19.0261H76.6235V17.6666H81.5518V18.3464ZM89.369 14.0979H84.7806V17.3267H89.0292V18.5163H84.7806V21.7452H89.369V23.1047H83.4211V12.9083H89.369V14.0979ZM94.9771 23.1047H93.6175V14.0979H90.7286V12.9083H97.8661V14.0979H94.9771V23.1047ZM102.794 23.1047V12.9083H104.154V23.1047H102.794ZM109.932 23.1047H108.572V14.0979H105.683V12.9083H112.651V14.0979H109.762V23.1047H109.932ZM126.076 21.7452C125.057 22.7648 123.867 23.2747 122.337 23.2747C120.808 23.2747 119.618 22.7648 118.599 21.7452C117.579 20.7255 117.069 19.536 117.069 18.0065C117.069 16.477 117.579 15.2875 118.599 14.2678C119.618 13.2482 120.808 12.7383 122.337 12.7383C123.867 12.7383 125.057 13.2482 126.076 14.2678C127.096 15.2875 127.606 16.477 127.606 18.0065C127.606 19.536 127.096 20.7255 126.076 21.7452ZM119.618 20.8955C120.298 21.5752 121.318 22.0851 122.337 22.0851C123.357 22.0851 124.377 21.7452 125.057 20.8955C125.736 20.2157 126.246 19.1961 126.246 18.0065C126.246 16.8169 125.906 15.7973 125.057 15.1175C124.377 14.4377 123.357 13.9279 122.337 13.9279C121.318 13.9279 120.298 14.2678 119.618 15.1175C118.939 15.7973 118.429 16.8169 118.429 18.0065C118.429 19.1961 118.769 20.2157 119.618 20.8955ZM129.475 23.1047V12.9083H131.004L135.933 20.8955V12.9083H137.292V23.1047H135.933L130.665 14.7776V23.1047H129.475Z" fill="white" stroke="white" stroke-width="0.960856" stroke-miterlimit="10"/>
<path d="M116.73 38.0586C112.651 38.0586 109.422 41.1175 109.422 45.366C109.422 49.4446 112.651 52.6734 116.73 52.6734C120.808 52.6734 124.037 49.6145 124.037 45.366C124.037 40.9475 120.808 38.0586 116.73 38.0586ZM116.73 49.6145C114.52 49.6145 112.651 47.7452 112.651 45.1961C112.651 42.6469 114.52 40.7776 116.73 40.7776C118.939 40.7776 120.808 42.477 120.808 45.1961C120.808 47.7452 118.939 49.6145 116.73 49.6145ZM100.925 38.0586C96.8465 38.0586 93.6176 41.1175 93.6176 45.366C93.6176 49.4446 96.8465 52.6734 100.925 52.6734C105.004 52.6734 108.232 49.6145 108.232 45.366C108.232 40.9475 105.004 38.0586 100.925 38.0586ZM100.925 49.6145C98.7158 49.6145 96.8465 47.7452 96.8465 45.1961C96.8465 42.6469 98.7158 40.7776 100.925 40.7776C103.134 40.7776 105.004 42.477 105.004 45.1961C105.004 47.7452 103.134 49.6145 100.925 49.6145ZM82.0617 40.2678V43.3267H89.3691C89.1992 45.0261 88.5194 46.3856 87.6697 47.2353C86.6501 48.255 84.9506 49.4446 82.0617 49.4446C77.4733 49.4446 74.0745 45.8758 74.0745 41.2874C74.0745 36.699 77.6432 33.1303 82.0617 33.1303C84.4408 33.1303 86.3102 34.1499 87.6697 35.3395L89.8789 33.1303C88.0096 31.4309 85.6304 30.0714 82.2316 30.0714C76.1137 30.0714 70.8456 35.1696 70.8456 41.2874C70.8456 47.4053 76.1137 52.5035 82.2316 52.5035C85.6304 52.5035 88.0096 51.4839 90.0489 49.2746C92.0881 47.2353 92.7679 44.3464 92.7679 42.1371C92.7679 41.4574 92.7679 40.7776 92.598 40.2678H82.0617ZM159.215 42.6469C158.535 40.9475 156.835 38.0586 153.097 38.0586C149.358 38.0586 146.299 40.9475 146.299 45.366C146.299 49.4446 149.358 52.6734 153.437 52.6734C156.666 52.6734 158.705 50.6342 159.385 49.4446L157.005 47.7452C156.156 48.9347 155.136 49.7845 153.437 49.7845C151.737 49.7845 150.718 49.1047 149.868 47.5752L159.555 43.4967L159.215 42.6469ZM149.358 45.0261C149.358 42.3071 151.567 40.7776 153.097 40.7776C154.286 40.7776 155.476 41.4574 155.816 42.3071L149.358 45.0261ZM141.371 51.9937H144.6V30.7511H141.371V51.9937ZM136.273 39.588C135.423 38.7383 134.063 37.8886 132.364 37.8886C128.795 37.8886 125.396 41.1175 125.396 45.1961C125.396 49.2746 128.625 52.3336 132.364 52.3336C134.063 52.3336 135.423 51.4839 136.103 50.6342H136.273V51.6538C136.273 54.3728 134.743 55.9023 132.364 55.9023C130.495 55.9023 129.135 54.5428 128.795 53.3532L126.076 54.5428C126.926 56.4121 128.965 58.7913 132.534 58.7913C136.273 58.7913 139.332 56.5821 139.332 51.3139V38.3984H136.273V39.588ZM132.534 49.6145C130.325 49.6145 128.455 47.7452 128.455 45.1961C128.455 42.6469 130.325 40.7776 132.534 40.7776C134.743 40.7776 136.443 42.6469 136.443 45.1961C136.443 47.7452 134.743 49.6145 132.534 49.6145ZM173.999 30.7511H166.352V51.9937H169.581V44.0065H173.999C177.568 44.0065 180.967 41.4574 180.967 37.3788C180.967 33.3002 177.568 30.7511 173.999 30.7511ZM174.169 40.9475H169.581V33.6401H174.169C176.549 33.6401 177.908 35.6794 177.908 37.2089C177.738 39.0782 176.379 40.9475 174.169 40.9475ZM193.713 37.8886C191.333 37.8886 188.954 38.9083 188.105 41.1175L190.994 42.3071C191.673 41.1175 192.693 40.7776 193.882 40.7776C195.582 40.7776 197.111 41.7972 197.281 43.4967V43.6666C196.771 43.3267 195.412 42.8169 194.052 42.8169C190.994 42.8169 187.935 44.5163 187.935 47.5752C187.935 50.4642 190.484 52.3336 193.203 52.3336C195.412 52.3336 196.432 51.3139 197.281 50.2943H197.451V51.9937H200.51V43.8365C200.17 40.0978 197.281 37.8886 193.713 37.8886ZM193.373 49.6145C192.353 49.6145 190.824 49.1047 190.824 47.7452C190.824 46.0458 192.693 45.5359 194.222 45.5359C195.582 45.5359 196.262 45.8758 197.111 46.2157C196.771 48.255 195.072 49.6145 193.373 49.6145ZM211.216 38.3984L207.648 47.5752H207.478L203.739 38.3984H200.34L205.948 51.3139L202.719 58.4514H205.948L214.615 38.3984H211.216ZM182.666 51.9937H185.895V30.7511H182.666V51.9937Z" fill="white"/>
<path d="M18.6738 13.7574C18.164 14.2672 17.994 15.1169 17.994 16.1366V53.6934C17.994 54.7131 18.3339 55.5628 18.8437 56.0726L19.0137 56.2425L40.0863 35.1699V34.83L18.6738 13.7574Z" fill="url(#paint0_linear_1545_12882)"/>
<path d="M46.8839 42.3072L39.9164 35.3396V34.8298L46.8839 27.8622L47.0539 28.0322L55.381 32.7905C57.7601 34.15 57.7601 36.3593 55.381 37.7188L46.8839 42.3072Z" fill="url(#paint1_linear_1545_12882)"/>
<path d="M47.0539 42.1377L39.9164 35.0002L18.6738 56.2428C19.5235 57.0925 20.7131 57.0925 22.2426 56.4127L47.0539 42.1377Z" fill="url(#paint2_linear_1545_12882)"/>
<path d="M47.0539 27.8628L22.2426 13.7577C20.7131 12.908 19.5235 13.078 18.6738 13.9277L39.9164 35.0003L47.0539 27.8628Z" fill="url(#paint3_linear_1545_12882)"/>
<path opacity="0.2" d="M46.884 41.9676L22.2426 55.9027C20.8831 56.7524 19.6935 56.5825 18.8438 55.9027L18.6738 56.0726L18.8438 56.2426C19.6935 56.9223 20.8831 57.0923 22.2426 56.2426L46.884 41.9676Z" fill="black"/>
<path opacity="0.2" d="M18.6738 55.9029C18.164 55.3931 17.994 54.5434 17.994 53.5238V53.6937C17.994 54.7133 18.3339 55.563 18.8437 56.0729V55.9029H18.6738ZM55.3809 37.2095L46.8839 41.9678L47.0538 42.1377L55.3809 37.3794C56.5705 36.6996 57.0803 35.8499 57.0803 35.0002C57.0803 35.8499 56.4006 36.5297 55.3809 37.2095Z" fill="black"/>
<path opacity="0.2" d="M22.2425 13.9272L55.3809 32.7906C56.4006 33.4703 57.0803 34.1501 57.0803 34.9998C57.0803 34.1501 56.5705 33.3004 55.3809 32.6206L22.2425 13.7572C19.8634 12.3977 17.994 13.4173 17.994 16.1364V16.3063C17.994 13.7572 19.8634 12.5676 22.2425 13.9272Z" fill="white"/>
</g>
<rect x="0.5" y="0.5" width="230.42" height="69" rx="12.5" stroke="url(#paint4_linear_1545_12882)"/>
<defs>
<linearGradient id="paint0_linear_1545_12882" x1="38.047" y1="15.8137" x2="9.52587" y2="44.3331" gradientUnits="userSpaceOnUse">
<stop stop-color="#00A0FF"/>
<stop offset="0.007" stop-color="#00A1FF"/>
<stop offset="0.26" stop-color="#00BEFF"/>
<stop offset="0.512" stop-color="#00D2FF"/>
<stop offset="0.76" stop-color="#00DFFF"/>
<stop offset="1" stop-color="#00E3FF"/>
</linearGradient>
<linearGradient id="paint1_linear_1545_12882" x1="58.4977" y1="35.0014" x2="17.3772" y2="35.0014" gradientUnits="userSpaceOnUse">
<stop stop-color="#FFE000"/>
<stop offset="0.409" stop-color="#FFBD00"/>
<stop offset="0.775" stop-color="#FFA500"/>
<stop offset="1" stop-color="#FF9C00"/>
</linearGradient>
<linearGradient id="paint2_linear_1545_12882" x1="43.1911" y1="38.9021" x2="4.51608" y2="77.5771" gradientUnits="userSpaceOnUse">
<stop stop-color="#FF3A44"/>
<stop offset="1" stop-color="#C31162"/>
</linearGradient>
<linearGradient id="paint3_linear_1545_12882" x1="13.4006" y1="1.31129" x2="30.6716" y2="18.5823" gradientUnits="userSpaceOnUse">
<stop stop-color="#32A071"/>
<stop offset="0.069" stop-color="#2DA771"/>
<stop offset="0.476" stop-color="#15CF74"/>
<stop offset="0.801" stop-color="#06E775"/>
<stop offset="1" stop-color="#00F076"/>
</linearGradient>
<linearGradient id="paint4_linear_1545_12882" x1="115.71" y1="1" x2="115.71" y2="69" gradientUnits="userSpaceOnUse">
<stop stop-color="#FFA500"/>
<stop offset="1" stop-color="#FFA500" stop-opacity="0"/>
</linearGradient>
<clipPath id="clip0_1545_12882">
<rect x="1" y="1" width="229.42" height="68" rx="12" fill="white"/>
</clipPath>
</defs>
</svg>
