<svg width="200" height="200" viewBox="0 0 200 200" fill="none" xmlns="http://www.w3.org/2000/svg">
<g filter="url(#filter0_d_1309_4892)">
<circle cx="100" cy="84" r="60" fill="white"/>
</g>
<circle cx="100" cy="84" r="45" fill="#27C078"/>
<g clip-path="url(#clip0_1309_4892)">
<path d="M120.347 81.357L81.2278 73.042L80.8813 74.6722C80.6975 75.537 80.8648 76.4393 81.3462 77.1807C81.8277 77.9222 82.584 78.442 83.4488 78.6258L88.3395 79.6653C89.2043 79.8491 90.1066 79.6819 90.848 79.2004C91.5894 78.7189 92.1092 77.9626 92.293 77.0979C92.1092 77.9626 92.2765 78.8649 92.758 79.6064C93.2395 80.3478 93.9958 80.8676 94.8605 81.0514L104.642 83.1305C105.507 83.3143 106.409 83.1471 107.15 82.6656C107.892 82.1841 108.412 81.4278 108.596 80.5631C108.412 81.4278 108.579 82.3301 109.06 83.0716C109.542 83.813 110.298 84.3328 111.163 84.5166L116.054 85.5562C116.918 85.74 117.821 85.5727 118.562 85.0912C119.304 84.6097 119.823 83.8534 120.007 82.9887L120.354 81.3585L120.347 81.357Z" fill="white"/>
<path d="M120.3 79.643L119.551 68.792C119.526 68.4308 119.384 68.0875 119.147 67.8141C118.909 67.5408 118.589 67.3522 118.235 67.2769L110.768 65.6898L110.625 77.5866L120.3 79.643Z" fill="white"/>
<path d="M96.3577 62.6267L88.8907 61.0395C88.5365 60.9642 88.1675 61.0063 87.8393 61.1595C87.5112 61.3126 87.2418 61.5685 87.072 61.8883L81.975 71.4969L91.6497 73.5533L96.3577 62.6267Z" fill="white"/>
<path d="M107.443 64.9831L99.6826 63.3335L94.9746 74.2601L107.3 76.8799L107.443 64.9831Z" fill="white"/>
<path d="M110.816 86.1468C109.613 85.892 108.546 85.2004 107.821 84.2054C106.755 84.8198 105.499 85.0176 104.295 84.7608L94.514 82.6816C93.31 82.4268 92.2431 81.7352 91.5188 80.7402C90.4525 81.3546 89.1965 81.5524 87.993 81.2956L83.1023 80.256C82.5468 80.1367 82.0159 79.923 81.5327 79.6242L77.6603 97.8422C77.5684 98.2746 77.652 98.7257 77.8928 99.0965C78.1335 99.4672 78.5117 99.7271 78.944 99.819L82.2045 100.512L85.3232 85.8398C85.4151 85.4074 85.675 85.0293 86.0457 84.7885C86.4164 84.5478 86.8676 84.4642 87.3 84.5561L95.4512 86.2887C95.8836 86.3806 96.2617 86.6405 96.5025 87.0112C96.7432 87.3819 96.8268 87.8331 96.7349 88.2654L93.6162 102.938L111.549 106.749C111.981 106.841 112.432 106.758 112.803 106.517C113.174 106.276 113.434 105.898 113.526 105.466L117.398 87.2476C116.835 87.3241 116.263 87.3034 115.707 87.1864L110.816 86.1468ZM110.368 96.2748C110.276 96.7072 110.016 97.0854 109.645 97.3261C109.274 97.5669 108.823 97.6505 108.391 97.5586L100.24 95.826C99.8072 95.7341 99.4291 95.4742 99.1883 95.1035C98.9476 94.7327 98.864 94.2816 98.9559 93.8492L99.9954 88.9585C100.087 88.5261 100.347 88.1479 100.718 87.9072C101.089 87.6665 101.54 87.5828 101.972 87.6747L110.123 89.4073C110.556 89.4992 110.934 89.7591 111.175 90.1299C111.415 90.5006 111.499 90.9517 111.407 91.3841L110.368 96.2748Z" fill="url(#paint0_linear_1309_4892)"/>
</g>
<defs>
<filter id="filter0_d_1309_4892" x="0" y="0" width="200" height="200" filterUnits="userSpaceOnUse" color-interpolation-filters="sRGB">
<feFlood flood-opacity="0" result="BackgroundImageFix"/>
<feColorMatrix in="SourceAlpha" type="matrix" values="0 0 0 0 0 0 0 0 0 0 0 0 0 0 0 0 0 0 127 0" result="hardAlpha"/>
<feOffset dy="16"/>
<feGaussianBlur stdDeviation="20"/>
<feComposite in2="hardAlpha" operator="out"/>
<feColorMatrix type="matrix" values="0 0 0 0 0.8 0 0 0 0 0.8 0 0 0 0 0.8 0 0 0 0.15 0"/>
<feBlend mode="normal" in2="BackgroundImageFix" result="effect1_dropShadow_1309_4892"/>
<feBlend mode="normal" in="SourceGraphic" in2="effect1_dropShadow_1309_4892" result="shape"/>
</filter>
<linearGradient id="paint0_linear_1309_4892" x1="99.6701" y1="82.4728" x2="91.0714" y2="109.277" gradientUnits="userSpaceOnUse">
<stop stop-color="white"/>
<stop offset="1" stop-color="white" stop-opacity="0"/>
</linearGradient>
<clipPath id="clip0_1309_4892">
<rect width="40" height="40" fill="white" transform="translate(84 60) rotate(12)"/>
</clipPath>
</defs>
</svg>
