<svg width="58" height="58" viewBox="0 0 58 58" fill="none" xmlns="http://www.w3.org/2000/svg">
<circle cx="29" cy="29" r="28.4" stroke="#FFA500" stroke-width="0.8"/>
<path d="M35.9765 21.4404C35.6552 21.4404 35.3938 21.7019 35.3938 22.0231C35.3938 22.3443 35.6552 22.6057 35.9765 22.6057C36.2977 22.6057 36.5591 22.3444 36.5591 22.0231C36.5591 21.7018 36.2977 21.4404 35.9765 21.4404Z" fill="#FFA500"/>
<path d="M29 23.835C26.1518 23.835 23.8345 26.1522 23.8345 29.0004C23.8345 31.8486 26.1518 34.1659 29 34.1659C31.8482 34.1659 34.1655 31.8487 34.1655 29.0004C34.1655 26.1522 31.8482 23.835 29 23.835Z" fill="#FFA500"/>
<path d="M34.4208 17H23.5792C19.9514 17 17 19.9514 17 23.5793V34.4208C17 38.0486 19.9514 41 23.5792 41H34.4208C38.0486 41 41 38.0486 41 34.4208V23.5793C41 19.9514 38.0486 17 34.4208 17ZM29 35.5828C25.3702 35.5828 22.4173 32.6298 22.4173 29C22.4173 25.3702 25.3703 22.4173 29 22.4173C32.6297 22.4173 35.5828 25.3703 35.5828 29C35.5828 32.6297 32.6297 35.5828 29 35.5828ZM35.9765 24.0236C34.8737 24.0236 33.9765 23.1264 33.9765 22.0236C33.9765 20.9208 34.8737 20.0236 35.9765 20.0236C37.0792 20.0236 37.9764 20.9208 37.9764 22.0235C37.9764 23.1263 37.0792 24.0236 35.9765 24.0236Z" fill="#FFA500"/>
</svg>
