<svg width="58" height="58" viewBox="0 0 58 58" fill="none" xmlns="http://www.w3.org/2000/svg">
<circle cx="29" cy="29" r="28.4" stroke="#FFA500" stroke-width="0.8"/>
<path d="M40.994 41.0002V40.9992H41V32.1972C41 27.8912 40.073 24.5742 35.039 24.5742C32.619 24.5742 30.995 25.9022 30.332 27.1612H30.262V24.9762H25.489V40.9992H30.459V33.0652C30.459 30.9762 30.855 28.9562 33.442 28.9562C35.991 28.9562 36.029 31.3402 36.029 33.1992V41.0002H40.994Z" fill="#FFA500"/>
<path d="M17.396 24.9766H22.372V40.9996H17.396V24.9766Z" fill="#FFA500"/>
<path d="M19.882 17C18.291 17 17 18.291 17 19.882C17 21.473 18.291 22.791 19.882 22.791C21.473 22.791 22.764 21.473 22.764 19.882C22.763 18.291 21.472 17 19.882 17V17Z" fill="#FFA500"/>
</svg>
