<svg width="200" height="200" viewBox="0 0 200 200" fill="none" xmlns="http://www.w3.org/2000/svg">
<path d="M121.094 74.2188C118.938 74.2188 117.188 75.9688 117.188 78.125C117.188 80.2812 118.938 82.0312 121.094 82.0312C123.25 82.0312 125 80.2812 125 78.125C125 75.9688 123.25 74.2188 121.094 74.2188Z" fill="#FFA500"/>
<path d="M195.422 173.328L143.282 121.187C151.776 108.393 156.25 93.5762 156.25 78.125C156.25 35.0469 121.203 0 78.125 0C35.0469 0 0 35.0469 0 78.125C0 121.203 35.0469 156.25 78.125 156.25C93.5766 156.25 108.393 151.775 121.187 143.282L135.599 157.694C135.601 157.696 135.603 157.698 135.605 157.7L173.327 195.422C176.28 198.374 180.203 200 184.375 200C188.547 200 192.47 198.374 195.421 195.423C198.374 192.473 200 188.55 200 184.375C200 180.2 198.374 176.277 195.422 173.328ZM119.35 135.05C119.35 135.05 119.35 135.05 119.349 135.05C107.292 143.808 93.0371 148.438 78.125 148.438C39.3547 148.438 7.8125 116.895 7.8125 78.125C7.8125 39.3547 39.3547 7.8125 78.125 7.8125C116.895 7.8125 148.438 39.3547 148.438 78.125C148.438 93.0371 143.808 107.292 135.05 119.35C130.668 125.386 125.386 130.668 119.35 135.05ZM127.545 138.591C131.588 135.284 135.284 131.588 138.591 127.545L149.673 138.628C146.303 142.605 142.605 146.304 138.628 149.673L127.545 138.591ZM189.898 189.898C188.421 191.375 186.46 192.188 184.375 192.188C182.29 192.188 180.329 191.375 178.852 189.898L144.166 155.212C148.122 151.818 151.818 148.123 155.212 144.167L189.899 178.854C191.375 180.328 192.188 182.288 192.188 184.375C192.188 186.462 191.375 188.422 189.898 189.898Z" fill="#FFA500"/>
<path d="M78.125 15.625C43.6621 15.625 15.625 43.6621 15.625 78.125C15.625 112.588 43.6621 140.625 78.125 140.625C112.588 140.625 140.625 112.588 140.625 78.125C140.625 43.6621 112.588 15.625 78.125 15.625ZM78.125 132.812C47.9703 132.812 23.4375 108.28 23.4375 78.125C23.4375 47.9703 47.9703 23.4375 78.125 23.4375C108.28 23.4375 132.812 47.9703 132.812 78.125C132.812 108.28 108.28 132.812 78.125 132.812Z" fill="#FFA500"/>
<path d="M121.9 61.3566C118.537 52.602 112.68 45.1168 104.963 39.7109C97.0621 34.1758 87.7816 31.25 78.125 31.25C75.968 31.25 74.2188 32.9992 74.2188 35.1563C74.2188 37.3133 75.968 39.0625 78.125 39.0625C94.1793 39.0625 108.84 49.1477 114.608 64.159C115.205 65.7121 116.685 66.6652 118.255 66.6652C118.721 66.6652 119.195 66.5812 119.655 66.4043C121.669 65.6305 122.674 63.3707 121.9 61.3566Z" fill="#FFA500"/>
</svg>
