<svg width="68" height="35" viewBox="0 0 68 35" fill="none" xmlns="http://www.w3.org/2000/svg">
<path d="M35.5001 15.9999L35.6767 15.6977L35.6587 15.6872L35.6396 15.6789L35.5001 15.9999ZM68.0001 34.9997L65.9984 31.4888L63.9587 34.9777L68.0001 34.9997ZM0.860498 1.32065L5.173 3.19568L5.45211 2.55373L1.13961 0.678701L0.860498 1.32065ZM13.798 6.94573L22.423 10.6958L22.7021 10.0538L14.0771 6.30378L13.798 6.94573ZM31.048 14.4458L35.3605 16.3209L35.6396 15.6789L31.3271 13.8039L31.048 14.4458ZM35.3234 16.302L39.3859 18.677L39.7392 18.0727L35.6767 15.6977L35.3234 16.302ZM47.5109 23.427L55.6359 28.1769L55.9892 27.5726L47.8642 22.8227L47.5109 23.427ZM63.7609 32.9269L65.104 33.712L65.4573 33.1077L64.1142 32.3225L63.7609 32.9269ZM35.5001 15.9999L35.8534 15.3956L35.8174 15.3746L35.7792 15.3579L35.5001 15.9999ZM68.0001 34.9997L63.9967 27.9778L59.9173 34.9558L68.0001 34.9997ZM0.720943 1.64162L5.03345 3.51665L5.59167 2.23275L1.27917 0.357727L0.720943 1.64162ZM13.6585 7.2667L22.2835 11.0168L22.8417 9.73286L14.2167 5.98281L13.6585 7.2667ZM30.9085 14.7668L35.221 16.6418L35.7792 15.3579L31.4667 13.4829L30.9085 14.7668ZM35.1468 16.6042L39.2093 18.9792L39.9159 17.7706L35.8534 15.3956L35.1468 16.6042ZM47.3343 23.7291L55.4593 28.4791L56.1659 27.2704L48.0409 22.5205L47.3343 23.7291Z" fill="#FFA500"/>
</svg>
