<svg width="55" height="57" viewBox="0 0 55 57" fill="none" xmlns="http://www.w3.org/2000/svg">
<path d="M21.5 25.5L21.2425 25.263L21.5 25.5ZM0.999997 57L4.42149 54.849L0.847941 52.9614L0.999997 57ZM54 1C53.8224 0.698431 53.8223 0.698437 53.8223 0.698445C53.8223 0.698451 53.8223 0.698462 53.8223 0.698474C53.8222 0.698499 53.8222 0.698533 53.8221 0.698577C53.822 0.698664 53.8217 0.698791 53.8215 0.698957C53.8209 0.699288 53.8201 0.699775 53.819 0.700418C53.8168 0.701704 53.8136 0.70361 53.8093 0.706134C53.8008 0.711181 53.7881 0.718695 53.7713 0.728637C53.7377 0.748521 53.6879 0.77812 53.6225 0.817129C53.4916 0.895148 53.2984 1.01081 53.0487 1.16168C52.5492 1.46341 51.8234 1.90599 50.917 2.46993L51.2868 3.06428C52.1904 2.5021 52.9136 2.06112 53.4107 1.76083C53.6592 1.61069 53.8512 1.49572 53.9809 1.41837C54.0458 1.37969 54.0951 1.35041 54.1281 1.33085C54.1446 1.32106 54.1571 1.31371 54.1654 1.30881C54.1695 1.30637 54.1726 1.30454 54.1747 1.30333C54.1757 1.30272 54.1764 1.30227 54.1769 1.30198C54.1772 1.30183 54.1774 1.30173 54.1775 1.30166C54.1775 1.30162 54.1776 1.3016 54.1776 1.30158C54.1776 1.30158 54.1776 1.30157 54.1776 1.30157C54.1776 1.30157 54.1776 1.30157 54 1ZM45.1804 6.15278C43.4426 7.30243 41.5368 8.59462 39.5554 9.99014L39.9584 10.5624C41.9335 9.17139 43.8336 7.88306 45.5666 6.73659L45.1804 6.15278ZM34.0494 14.0105C32.2431 15.3816 30.4424 16.8061 28.7112 18.257L29.1608 18.7935C30.882 17.3511 32.6737 15.9336 34.4726 14.5681L34.0494 14.0105ZM23.6293 22.8174C22.7891 23.6341 21.9899 24.4508 21.2425 25.263L21.7575 25.737C22.495 24.9356 23.2851 24.1282 24.1172 23.3194L23.6293 22.8174ZM21.2425 25.263C20.2216 26.3723 19.1955 27.5841 18.176 28.865L18.7238 29.3009C19.7349 28.0304 20.7501 26.8318 21.7575 25.737L21.2425 25.263ZM12.635 36.5172C10.8295 39.2149 9.12259 41.9482 7.59449 44.4977L8.1949 44.8575C9.71846 42.3156 11.4191 39.5925 13.2168 36.9065L12.635 36.5172ZM2.90694 52.6799C2.63691 53.1729 2.38845 53.6306 2.16329 54.0484L2.77948 54.3805C3.00393 53.9641 3.25164 53.5077 3.52088 53.0161L2.90694 52.6799ZM21.5 25.5L20.9849 25.026L21.5 25.5ZM0.999997 57L7.85971 52.7248L0.727387 48.9217L0.999997 57ZM54 1C53.6447 0.396862 53.6447 0.396871 53.6447 0.396883C53.6447 0.39689 53.6446 0.396905 53.6446 0.396919C53.6446 0.396948 53.6445 0.396987 53.6444 0.397036C53.6443 0.397133 53.644 0.397269 53.6437 0.397444C53.6431 0.397795 53.6423 0.398301 53.6412 0.398963C53.6389 0.400287 53.6356 0.402232 53.6313 0.404794C53.6226 0.409919 53.6098 0.417511 53.5929 0.427532C53.559 0.447575 53.5089 0.477336 53.4432 0.51651C53.3118 0.594859 53.1181 0.710867 52.8677 0.862097C52.3671 1.16455 51.6399 1.60794 50.7321 2.17276L51.4717 3.36145C52.3739 2.80015 53.0957 2.35998 53.5916 2.06041C53.8396 1.91063 54.031 1.79601 54.1602 1.71899C54.2248 1.68047 54.2738 1.65136 54.3066 1.63195C54.3229 1.62225 54.3352 1.61497 54.3434 1.61015C54.3475 1.60775 54.3505 1.60595 54.3525 1.60478C54.3535 1.6042 54.3542 1.60377 54.3547 1.60349C54.3549 1.60336 54.3551 1.60326 54.3552 1.6032C54.3552 1.60317 54.3553 1.60315 54.3553 1.60314C54.3553 1.60313 54.3553 1.60313 54.3553 1.60313C54.3553 1.60313 54.3553 1.60314 54 1ZM44.9873 5.86087C43.247 7.01211 41.3384 8.30623 39.3538 9.70398L40.16 10.8486C42.1319 9.45978 44.0291 8.17337 45.7597 7.0285L44.9873 5.86087ZM33.8377 13.7317C32.0278 15.1056 30.2226 16.5337 28.4864 17.9888L29.3856 19.0618C31.1018 17.6235 32.889 16.2096 34.6842 14.8469L33.8377 13.7317ZM23.3853 22.5664C22.5412 23.387 21.7373 24.2084 20.9849 25.026L22.0151 25.974C22.7476 25.178 23.5331 24.3753 24.3612 23.5703L23.3853 22.5664ZM20.9849 25.026C19.9573 26.1426 18.9258 27.3609 17.9022 28.6471L18.9976 29.5189C20.0046 28.2536 21.0143 27.0615 22.0151 25.974L20.9849 25.026ZM12.3442 36.3225C10.5347 39.0261 8.82465 41.7645 7.29428 44.3177L8.4951 45.0375C10.0164 42.4993 11.7139 39.7813 13.5076 37.1012L12.3442 36.3225Z" fill="#FFA500"/>
</svg>
