<svg width="86" height="147" viewBox="0 0 86 147" fill="none" xmlns="http://www.w3.org/2000/svg">
<path d="M37 68.9997L36.6976 68.8235L37 68.9997ZM86 6.61116e-05L82.2428 1.48905L85.4109 3.99835L86 6.61116e-05ZM0.999995 146C1.32506 146.13 1.32506 146.13 1.32506 146.13C1.32506 146.13 1.32507 146.13 1.32508 146.13C1.32509 146.13 1.32512 146.13 1.32515 146.13C1.32522 146.129 1.32532 146.129 1.32545 146.129C1.32572 146.128 1.32613 146.127 1.32668 146.126C1.32777 146.123 1.32941 146.119 1.3316 146.113C1.33597 146.102 1.34253 146.086 1.35125 146.064C1.36868 146.021 1.39475 145.956 1.42923 145.87C1.4982 145.698 1.60083 145.443 1.73541 145.11C2.00457 144.444 2.40153 143.466 2.91253 142.219L2.2648 141.954C1.75334 143.202 1.35596 144.181 1.0864 144.848C0.951625 145.181 0.848801 145.437 0.77965 145.609C0.745075 145.695 0.718917 145.76 0.701393 145.804C0.692631 145.826 0.686027 145.843 0.681608 145.854C0.679399 145.859 0.677736 145.863 0.676623 145.866C0.676066 145.867 0.675646 145.869 0.675365 145.869C0.675224 145.87 0.675118 145.87 0.675046 145.87C0.67501 145.87 0.674983 145.87 0.674964 145.87C0.674955 145.87 0.674948 145.87 0.674943 145.87C0.674937 145.87 0.674934 145.87 0.999995 146ZM6.18141 134.35C7.17157 131.996 8.28948 129.363 9.51268 126.521L8.86972 126.244C7.64568 129.088 6.527 131.722 5.53616 134.078L6.18141 134.35ZM12.9081 118.725C14.0122 116.22 15.1705 113.621 16.3719 110.963L15.734 110.675C14.5317 113.334 13.3724 115.936 12.2675 118.443L12.9081 118.725ZM19.917 103.228C21.1029 100.678 22.3167 98.1055 23.5493 95.54L22.9184 95.2368C21.6844 97.8053 20.4693 100.38 19.2823 102.933L19.917 103.228ZM27.2886 87.9028C28.5718 85.3341 29.865 82.8017 31.1584 80.3355L30.5385 80.0104C29.2427 82.4811 27.9474 85.0176 26.6623 87.59L27.2886 87.9028ZM35.2029 72.856C35.9063 71.5983 36.6066 70.37 37.3024 69.176L36.6976 68.8235C35.9996 70.0214 35.2972 71.2534 34.592 72.5143L35.2029 72.856ZM37.3024 69.176C37.9952 67.9872 38.7153 66.7775 39.4594 65.5509L38.8609 65.1878C38.1149 66.4177 37.3926 67.6309 36.6976 68.8235L37.3024 69.176ZM43.9519 58.3755C45.4527 56.0443 47.0109 53.6807 48.6054 51.3078L48.0244 50.9174C46.4277 53.2936 44.8669 55.661 43.3633 57.9966L43.9519 58.3755ZM53.3831 44.3185C54.9996 41.9909 56.6309 39.6763 58.257 37.3966L57.6871 36.9901C56.0595 39.272 54.4264 41.589 52.8081 43.9192L53.3831 44.3185ZM63.2139 30.5269C64.9252 28.1809 66.6068 25.901 68.2338 23.7141L67.6722 23.2963C66.044 25.4848 64.3611 27.7665 62.6483 30.1143L63.2139 30.5269ZM73.3168 16.9436C75.1765 14.4882 76.907 12.2265 78.459 10.2124L77.9045 9.78517C76.3515 11.8007 74.6197 14.0638 72.7587 16.5209L73.3168 16.9436ZM83.6671 3.51505C83.8984 3.22042 84.116 2.9438 84.3191 2.68591L83.7692 2.25279C83.5659 2.51094 83.3481 2.78782 83.1165 3.0827L83.6671 3.51505ZM37 68.9997L36.3952 68.6473L37 68.9997ZM86 6.61116e-05L78.4883 2.98455L84.8288 7.99766L86 6.61116e-05ZM0.999995 146C1.65012 146.26 1.65012 146.26 1.65012 146.26C1.65012 146.26 1.65013 146.26 1.65014 146.26C1.65015 146.259 1.65017 146.259 1.6502 146.259C1.65027 146.259 1.65037 146.259 1.6505 146.259C1.65076 146.258 1.65117 146.257 1.65171 146.256C1.65279 146.253 1.65442 146.249 1.65659 146.243C1.66095 146.232 1.66748 146.216 1.67618 146.194C1.69357 146.151 1.71959 146.086 1.75402 146C1.8229 145.829 1.92543 145.574 2.05991 145.241C2.32888 144.576 2.72562 143.598 3.23639 142.352L1.94094 141.821C1.42925 143.07 1.03166 144.049 0.761902 144.717C0.627023 145.05 0.524103 145.306 0.454859 145.479C0.420237 145.565 0.394034 145.63 0.376465 145.674C0.36768 145.696 0.361054 145.713 0.356613 145.724C0.354393 145.729 0.352719 145.733 0.351594 145.736C0.351032 145.738 0.350607 145.739 0.35032 145.739C0.350177 145.74 0.350068 145.74 0.349993 145.74C0.349956 145.74 0.349927 145.74 0.349907 145.74C0.349897 145.741 0.349889 145.741 0.349884 145.741C0.349877 145.741 0.349873 145.741 0.999995 146ZM6.50404 134.485C7.49385 132.132 8.61138 129.5 9.83417 126.659L8.54824 126.106C7.32378 128.95 6.20472 131.586 5.21354 133.943L6.50404 134.485ZM13.2284 118.866C14.3321 116.362 15.49 113.764 16.6908 111.107L15.4151 110.53C14.2123 113.191 13.0526 115.793 11.9473 118.301L13.2284 118.866ZM20.2344 103.376C21.4197 100.826 22.6329 98.2557 23.8648 95.6915L22.6029 95.0853C21.3682 97.6552 20.1525 100.231 18.9649 102.785L20.2344 103.376ZM27.6017 88.0592C28.884 85.4923 30.1761 82.962 31.4684 80.4981L30.2286 79.8478C28.9315 82.3208 27.6352 84.8594 26.3492 87.4335L27.6017 88.0592ZM35.5084 73.0269C36.2108 71.7708 36.9102 70.5443 37.6048 69.3522L36.3952 68.6473C35.696 69.8471 34.9926 71.0809 34.2865 72.3435L35.5084 73.0269ZM37.6048 69.3522C38.2964 68.1653 39.0155 66.9575 39.7586 65.7324L38.5616 65.0063C37.8146 66.2378 37.0913 67.4527 36.3952 68.6473L37.6048 69.3522ZM44.2462 58.565C45.7456 56.2359 47.3026 53.8742 48.8959 51.503L47.7339 50.7222C46.1361 53.1001 44.574 55.4694 43.069 57.8071L44.2462 58.565ZM53.6706 44.5182C55.2861 42.1919 56.9166 39.8785 58.5419 37.5998L57.4022 36.7868C55.7738 39.0698 54.1399 41.3881 52.5207 43.7196L53.6706 44.5182ZM63.4966 30.7331C65.2073 28.3882 66.8882 26.1091 68.5146 23.9231L67.3914 23.0874C65.7626 25.2767 64.079 27.5592 62.3656 29.908L63.4966 30.7331ZM73.5958 17.1549C75.4548 14.7003 77.1848 12.4395 78.7362 10.4261L77.6273 9.57154C76.0737 11.5877 74.3414 13.8517 72.4797 16.3096L73.5958 17.1549Z" fill="#FFA500"/>
</svg>
