<svg width="428" height="208" viewBox="0 0 428 208" fill="none" xmlns="http://www.w3.org/2000/svg">
<circle cx="-34" cy="104" r="102" stroke="#FFA500" stroke-width="4" stroke-dasharray="16 16"/>
<circle cx="-34" cy="104" r="89.4615" stroke="#FFA500" stroke-width="2"/>
<g clip-path="url(#clip0_1545_12241)">
<path d="M-33.9967 58.5869C-59.0791 58.5869 -79.4094 78.9172 -79.4094 104C-79.4094 122.072 -68.8252 137.631 -53.5429 144.94L-52.1215 117.474C-52.1215 117.474 -54.7952 116.597 -55.3804 116.311C-61.0513 113.813 -65.1709 106.458 -65.1709 96.9125C-65.1709 86.496 -57.0926 77.5238 -49.2824 77.4497C-49.2725 77.4497 -49.2725 77.4497 -49.266 77.4497C-49.2626 77.4497 -49.2561 77.4497 -49.253 77.4497C-41.4411 77.5235 -33.3625 86.4957 -33.3625 96.9125C-33.3625 106.458 -37.4873 113.81 -43.1465 116.311C-43.1909 116.331 -46.4314 117.508 -46.4314 117.508L-44.844 148.046C-41.3605 148.903 -37.7387 149.406 -33.9905 149.406C-28.9357 149.406 -24.0948 148.545 -19.5528 147.024L-18.1462 119.808C-21.8531 118.993 -25.0149 116.633 -26.9967 113.672C-29.4517 109.995 -25.1069 77.4466 -25.1069 77.4466H-22.2805V107.99H-19.4736V77.45H-16.404V107.996H-13.6104V77.45H-10.4257V107.996H-7.62248V77.45H-5.45347C-5.45347 77.45 -1.10868 109.998 -3.56676 113.676C-5.52899 116.607 -8.66116 118.96 -12.322 119.795C-12.3876 119.818 -12.447 119.841 -12.447 119.841L-11.2245 143.251C2.30294 135.386 11.4197 120.775 11.4197 104C11.4129 78.9175 -8.91743 58.5869 -33.9967 58.5869Z" fill="url(#paint0_linear_1545_12241)"/>
<path d="M-33.9967 50.1543C-63.6853 50.1543 -87.8461 74.31 -87.8461 104C-87.8461 133.684 -63.6853 157.847 -33.9967 157.847C-4.30957 157.847 19.8465 133.684 19.8465 104C19.8462 74.31 -4.30957 50.1543 -33.9967 50.1543ZM-33.9967 153.83C-61.4753 153.83 -83.8317 131.476 -83.8317 104C-83.8317 76.5218 -61.4753 54.1653 -33.9967 54.1653C-6.52128 54.1653 15.8369 76.5218 15.8369 104C15.8366 131.476 -6.52156 153.83 -33.9967 153.83Z" fill="url(#paint1_linear_1545_12241)"/>
</g>
<circle cx="214" cy="104" r="102" stroke="white" stroke-width="4" stroke-dasharray="16 16"/>
<circle cx="214" cy="104" r="89.4615" stroke="white" stroke-width="2"/>
<g clip-path="url(#clip1_1545_12241)">
<path d="M214.127 73.8066C211.934 75.8666 207.72 75.5693 204.59 75.473L205.32 82.6205C210.684 85.2832 216.464 84.649 222.11 83.1942L222.914 75.3135C220.569 73.3482 216.08 76.4818 214.127 73.8066Z" fill="white"/>
<path d="M228.692 58.4218C227.773 56.9531 228.692 54.6576 228.692 52.6372C228.692 50.6165 227.131 51.5348 226.947 50.8009C226.762 50.0661 224.559 50.158 224.559 50.158C224.374 51.3513 218.866 57.596 216.848 59.5232C214.827 61.4511 214.92 63.3809 214.92 63.3809C214.92 63.3809 213.791 65.0483 213.746 67.9147C213.7 65.0483 212.572 63.3809 212.572 63.3809C212.572 63.3809 212.664 61.4528 210.645 59.5232C208.623 57.596 203.115 51.3513 202.932 50.158C202.932 50.158 200.729 50.0664 200.544 50.8009C200.361 51.5348 198.799 50.6181 198.799 52.6372C198.799 54.6576 199.718 56.9531 198.799 58.4218C197.88 59.8905 199.901 61.8187 199.718 63.8391C199.546 65.7382 202.052 73.3178 204.107 74.3693C207.183 74.4733 212.076 74.993 213.751 72.6066C214.041 72.1928 214.575 72.2874 214.758 72.7377C215.617 74.8626 219.703 73.5557 221.414 73.6354C222.209 73.6712 222.86 73.9328 223.423 74.35C225.472 73.2303 227.948 65.7274 227.777 63.8391C227.591 61.8183 229.61 59.8905 228.692 58.4218Z" fill="white"/>
<path d="M254.769 135.094C254.861 134.636 257.063 134.818 257.063 133.534C257.063 132.25 258.442 131.422 258.256 130.778C258.074 130.134 254.493 123.525 252.749 121.78C251.003 120.034 244.943 111.863 243.749 108.923C242.556 105.986 237.322 99.6494 232.362 92.9469C228.67 87.9556 224.779 85.1571 223.03 84.0526C222.974 84.0989 222.904 84.1368 222.818 84.1601C216.842 85.7416 210.719 86.417 205.036 83.6992C203.763 84.4408 199.318 87.2785 195.124 92.9486C190.166 99.6525 184.933 105.987 183.738 108.925C182.545 111.864 176.483 120.036 174.739 121.782C172.994 123.527 169.413 130.136 169.23 130.78C169.046 131.424 170.424 132.25 170.424 133.535C170.424 134.821 172.627 134.638 172.718 135.096C172.81 135.554 172.443 137.299 174.279 137.484L172.994 140.327C172.994 140.327 172.812 141.704 173.728 141.52C174.647 141.334 172.169 143.723 175.75 143.264C179.331 142.806 177.677 145.285 179.514 145.559L178.046 148.039C178.046 148.039 179.148 149.508 180.341 149.049C180.341 149.049 179.422 150.978 179.974 151.805C180.526 152.632 181.26 151.254 181.901 150.612C182.545 149.968 181.901 152.172 184.105 151.53L184.839 150.428C184.839 150.428 186.308 152.871 187.962 152.062L187.871 153.551C187.871 153.551 189.431 153.642 189.799 153.551L189.616 155.204L191.361 154.746C191.361 154.746 190.994 156.307 192.28 156.4C192.28 156.4 191.546 157.32 191.913 157.32C192.28 157.32 195.585 158.239 197.421 156.86L197.238 155.851L198.525 155.942L198.801 156.86C198.801 156.86 199.444 156.586 200.637 156.035C201.83 155.483 201.187 157.621 201.187 157.621C201.187 157.621 202.474 156.911 203.391 157.621C204.31 158.33 205.87 157.095 207.248 157.621C207.248 157.621 209.175 157.504 209.36 157.046V155.853C209.36 155.853 210.37 156.955 211.288 156.22V155.302C211.288 155.302 211.948 155.379 212.698 155.454C212.703 155.526 212.71 155.574 212.717 155.576C212.837 155.608 213.247 155.586 213.748 155.548C214.248 155.586 214.659 155.606 214.778 155.576C214.785 155.574 214.792 155.526 214.798 155.454C215.546 155.378 216.208 155.302 216.208 155.302V156.22C217.126 156.955 218.136 155.853 218.136 155.853V157.046C218.318 157.504 220.247 157.621 220.247 157.621C221.626 157.095 223.186 158.33 224.105 157.621C225.024 156.911 226.308 157.621 226.308 157.621C226.308 157.621 225.666 155.483 226.861 156.035C228.056 156.588 228.696 156.86 228.696 156.86L228.972 155.942L230.258 155.851L230.075 156.86C231.91 158.239 235.216 157.32 235.584 157.32C235.951 157.32 235.216 156.4 235.216 156.4C236.503 156.308 236.135 154.746 236.135 154.746L237.879 155.204L237.697 153.551C238.065 153.642 239.625 153.551 239.625 153.551L239.534 152.062C241.187 152.871 242.655 150.428 242.655 150.428L243.39 151.53C245.594 152.174 244.95 149.97 245.594 150.612C246.236 151.254 246.971 152.632 247.522 151.805C248.071 150.978 247.155 149.049 247.155 149.049C248.348 149.508 249.448 148.039 249.448 148.039L247.98 145.559C249.816 145.283 248.164 142.804 251.745 143.264C255.327 143.722 252.848 141.338 253.766 141.52C254.686 141.704 254.501 140.327 254.501 140.327L253.215 137.48C255.044 137.297 254.677 135.552 254.769 135.094Z" fill="white"/>
</g>
<circle cx="462" cy="104" r="102" stroke="#FFA500" stroke-width="4" stroke-dasharray="16 16"/>
<circle cx="462" cy="104" r="89.4615" stroke="#FFA500" stroke-width="2"/>
<g clip-path="url(#clip2_1545_12241)">
<path d="M470.165 58.0625H427.717C425.79 58.0625 424.228 59.6247 424.228 61.5516C424.228 63.4785 425.79 65.0406 427.717 65.0406H445.853C442.027 67.437 438.577 70.38 435.614 73.7612H411.899C409.972 73.7614 408.41 75.3238 408.41 77.2507C408.41 79.1776 409.972 80.7398 411.899 80.7398H430.567C426.541 87.5665 424.227 95.5176 424.227 104C424.227 113.87 427.357 123.022 432.675 130.519H422.775C420.848 130.519 419.286 132.081 419.286 134.008C419.286 135.934 420.848 137.497 422.775 137.497H438.765C440.94 139.537 443.314 141.369 445.853 142.959H412.259C410.332 142.959 408.77 144.521 408.77 146.448C408.77 148.375 410.332 149.937 412.259 149.937H470.165C495.495 149.937 516.102 129.33 516.102 104C516.102 78.6698 495.495 58.0625 470.165 58.0625ZM487.114 126.897C487.049 126.951 486.986 127.006 486.917 127.056C486.839 127.113 486.759 127.165 486.678 127.215C482.017 130.54 476.315 132.499 470.165 132.499C464.015 132.499 458.314 130.54 453.652 127.215C453.571 127.165 453.491 127.113 453.414 127.056C453.345 127.006 453.281 126.951 453.217 126.897C446.213 121.7 441.666 113.371 441.666 104C441.666 88.2854 454.451 75.5007 470.165 75.5007C485.88 75.5007 498.664 88.2854 498.664 104C498.664 113.371 494.117 121.7 487.114 126.897Z" fill="url(#paint2_linear_1545_12241)"/>
</g>
<defs>
<linearGradient id="paint0_linear_1545_12241" x1="-33.9949" y1="58.5869" x2="-33.9949" y2="149.406" gradientUnits="userSpaceOnUse">
<stop stop-color="white"/>
<stop offset="0.284375" stop-color="white" stop-opacity="0.632407"/>
<stop offset="0.565625" stop-color="white" stop-opacity="0.528125"/>
<stop offset="1" stop-color="white" stop-opacity="0"/>
</linearGradient>
<linearGradient id="paint1_linear_1545_12241" x1="-33.9998" y1="50.1543" x2="-33.9998" y2="157.847" gradientUnits="userSpaceOnUse">
<stop stop-color="white"/>
<stop offset="0.284375" stop-color="white" stop-opacity="0.632407"/>
<stop offset="0.565625" stop-color="white" stop-opacity="0.528125"/>
<stop offset="1" stop-color="white" stop-opacity="0"/>
</linearGradient>
<linearGradient id="paint2_linear_1545_12241" x1="462.256" y1="58.0625" x2="462.256" y2="149.937" gradientUnits="userSpaceOnUse">
<stop stop-color="white"/>
<stop offset="0.180208" stop-color="white" stop-opacity="0.922201"/>
<stop offset="0.367708" stop-color="white" stop-opacity="0.845833"/>
<stop offset="0.570833" stop-color="white" stop-opacity="0.725265"/>
<stop offset="0.763542" stop-color="white" stop-opacity="0.61088"/>
<stop offset="1" stop-color="white" stop-opacity="0"/>
</linearGradient>
<clipPath id="clip0_1545_12241">
<rect width="107.692" height="107.692" fill="white" transform="translate(-87.8461 50.1543)"/>
</clipPath>
<clipPath id="clip1_1545_12241">
<rect width="107.692" height="107.692" fill="white" transform="translate(159.897 50.1543)"/>
</clipPath>
<clipPath id="clip2_1545_12241">
<rect width="107.692" height="107.692" fill="white" transform="translate(408.41 50.1543)"/>
</clipPath>
</defs>
</svg>
