<svg width="17" height="123" viewBox="0 0 17 123" fill="none" xmlns="http://www.w3.org/2000/svg">
<path d="M9.99994 56.5003L9.65197 56.538L9.99994 56.5003ZM13 123L14.9893 119.482L10.948 119.519L13 123ZM0.99999 1.00045C0.656599 1.06814 0.6566 1.06814 0.656601 1.06815C0.656603 1.06816 0.656606 1.06817 0.656609 1.06819C0.656616 1.06823 0.656627 1.06828 0.656642 1.06835C0.656671 1.0685 0.656715 1.06873 0.656774 1.06903C0.656893 1.06963 0.657072 1.07054 0.657311 1.07175C0.657788 1.07418 0.658505 1.07782 0.659459 1.08266C0.661367 1.09236 0.664223 1.10688 0.668007 1.12615C0.675577 1.16468 0.686861 1.2222 0.701708 1.29807C0.731401 1.4498 0.775342 1.67491 0.832301 1.96828C0.946219 2.55501 1.11221 3.41476 1.32045 4.50654L2.00805 4.37539C1.79966 3.2828 1.63352 2.42229 1.51947 1.83486C1.46244 1.54114 1.41843 1.31569 1.38868 1.16363C1.3738 1.0876 1.36248 1.02992 1.35488 0.991227C1.35108 0.97188 1.34821 0.95728 1.34629 0.947507C1.34533 0.942621 1.3446 0.938942 1.34412 0.936479C1.34387 0.935247 1.34369 0.93432 1.34357 0.933699C1.34351 0.933388 1.34346 0.933153 1.34343 0.932995C1.34341 0.932916 1.3434 0.932856 1.34339 0.932816C1.34339 0.932795 1.34339 0.932779 1.34339 0.932769C1.34338 0.932758 1.34338 0.932751 0.99999 1.00045ZM2.61459 11.4178C2.99892 13.5068 3.42162 15.8369 3.86548 18.3363L4.55469 18.2139C4.11056 15.7129 3.6876 13.3814 3.30304 11.2912L2.61459 11.4178ZM5.07144 25.2605C5.45574 27.513 5.84411 29.8372 6.227 32.1932L6.91793 32.081C6.53472 29.7229 6.14604 27.3969 5.76147 25.1428L5.07144 25.2605ZM7.32203 39.1359C7.67857 41.473 8.02084 43.8034 8.3398 46.0892L9.03309 45.9925C8.71365 43.7033 8.37095 41.37 8.01403 39.0304L7.32203 39.1359ZM9.25197 53.057C9.3958 54.2451 9.52963 55.4075 9.65197 56.538L10.3479 56.4627C10.2252 55.329 10.091 54.1636 9.9469 52.9729L9.25197 53.057ZM9.65197 56.538C9.79683 57.8766 9.93475 59.2552 10.0661 60.6661L10.763 60.6012C10.6314 59.1872 10.4932 57.8051 10.3479 56.4627L9.65197 56.538ZM10.7418 68.9593C10.9364 71.6852 11.1113 74.4685 11.2685 77.2635L11.9674 77.2242C11.81 74.4262 11.6349 71.6393 11.44 68.9095L10.7418 68.9593ZM11.6861 85.5752C11.8123 88.3987 11.9222 91.1867 12.0178 93.8907L12.7173 93.8659C12.6216 91.16 12.5117 88.3698 12.3854 85.544L11.6861 85.5752ZM12.2778 102.209C12.36 105.213 12.4243 108.017 12.4747 110.531L13.1745 110.517C13.1242 108.001 13.0598 105.196 12.9776 102.19L12.2778 102.209ZM12.6101 118.856C12.6144 119.209 12.6183 119.542 12.6218 119.854L13.3218 119.846C13.3183 119.534 13.3144 119.201 13.31 118.847L12.6101 118.856ZM9.99994 56.5003L9.304 56.5756L9.99994 56.5003ZM13 123L16.9739 115.962L8.89135 116.04L13 123ZM0.99999 1.00045C0.313208 1.13583 0.313209 1.13583 0.31321 1.13584C0.313211 1.13585 0.313213 1.13586 0.313216 1.13588C0.313223 1.13591 0.313234 1.13596 0.313248 1.13603C0.313276 1.13618 0.31332 1.1364 0.313378 1.13669C0.313495 1.13729 0.313672 1.13819 0.313908 1.13939C0.314382 1.14179 0.315095 1.14541 0.316045 1.15024C0.317945 1.1599 0.320793 1.17438 0.32457 1.19361C0.332124 1.23206 0.343393 1.2895 0.358223 1.36529C0.387885 1.51685 0.431792 1.7418 0.488717 2.03499C0.602567 2.62137 0.768485 3.48074 0.976644 4.57211L2.35185 4.30981C2.14339 3.21682 1.97717 2.35593 1.86305 1.76815C1.80599 1.47426 1.76195 1.24864 1.73216 1.09641C1.71727 1.0203 1.70593 0.962539 1.69832 0.923766C1.69451 0.90438 1.69163 0.889741 1.6897 0.879929C1.68874 0.875023 1.68801 0.871324 1.68752 0.868842C1.68727 0.867601 1.68709 0.866664 1.68697 0.866033C1.6869 0.865717 1.68686 0.865478 1.68682 0.865315C1.68681 0.865234 1.6868 0.865172 1.68679 0.865129C1.68678 0.865107 1.68678 0.865089 1.68678 0.865078C1.68677 0.865065 1.68677 0.865057 0.99999 1.00045ZM2.27037 11.4812C2.65458 13.5695 3.07715 15.8989 3.52087 18.3975L4.8993 18.1527C4.45503 15.6509 4.03194 13.3187 3.64726 11.2278L2.27037 11.4812ZM4.72643 25.3194C5.11059 27.571 5.4988 29.8943 5.88153 32.2494L7.2634 32.0248C6.88002 29.6657 6.49119 27.3388 6.10648 25.0839L4.72643 25.3194ZM6.97604 39.1887C7.33238 41.5246 7.67443 43.8534 7.99316 46.1376L9.37973 45.9441C9.06006 43.6532 8.71714 41.3185 8.36002 38.9776L6.97604 39.1887ZM8.90451 53.0991C9.04817 54.2858 9.18184 55.4468 9.304 56.5756L10.6959 56.425C10.573 55.2897 10.4387 54.1228 10.2944 52.9308L8.90451 53.0991ZM9.304 56.5756C9.44866 57.9123 9.5864 59.2892 9.71756 60.6985L11.1115 60.5688C10.9798 59.1532 10.8414 57.7693 10.6959 56.425L9.304 56.5756ZM10.3927 68.9842C10.5872 71.7081 10.7619 74.4897 10.919 77.2832L12.3168 77.2046C12.1594 74.4051 11.9842 71.6164 11.7892 68.8846L10.3927 68.9842ZM11.3364 85.5909C11.4626 88.4131 11.5724 91.2 11.668 93.903L13.0671 93.8536C12.9714 91.1467 12.8614 88.3554 12.735 85.5284L11.3364 85.5909ZM11.928 102.218C12.0101 105.222 12.0744 108.024 12.1247 110.538L13.5244 110.51C13.4741 107.993 13.4097 105.188 13.3274 102.18L11.928 102.218Z" fill="#FFA500"/>
</svg>
