<svg width="97" height="53" viewBox="0 0 97 53" fill="none" xmlns="http://www.w3.org/2000/svg">
<path d="M48.5 19.9994L48.6608 20.3103L48.5 19.9994ZM96.5 2L92.5761 1.0324L93.7001 4.91441L96.5 2ZM0.99999 51.9995C1.21631 52.2746 1.21631 52.2746 1.21632 52.2746C1.21632 52.2746 1.21633 52.2746 1.21634 52.2746C1.21637 52.2746 1.21641 52.2746 1.21647 52.2745C1.21659 52.2744 1.21677 52.2743 1.21701 52.2741C1.2175 52.2737 1.21823 52.2731 1.21921 52.2724C1.22118 52.2708 1.22414 52.2685 1.22808 52.2654C1.23598 52.2592 1.24782 52.2499 1.26355 52.2376C1.29502 52.2129 1.34203 52.1761 1.4041 52.1276C1.52823 52.0306 1.71258 51.8869 1.95319 51.7001C2.4344 51.3265 3.14061 50.7809 4.04012 50.0928L3.61483 49.5368C2.7139 50.226 2.00637 50.7726 1.52395 51.1471C1.28274 51.3344 1.0978 51.4786 0.973098 51.576C0.910748 51.6247 0.863457 51.6618 0.83172 51.6866C0.815852 51.6991 0.803872 51.7085 0.795843 51.7148C0.791829 51.7179 0.788802 51.7203 0.78677 51.7219C0.785755 51.7227 0.784988 51.7233 0.784471 51.7237C0.784212 51.7239 0.784016 51.7241 0.783882 51.7242C0.783816 51.7242 0.783764 51.7243 0.783729 51.7243C0.783711 51.7243 0.783697 51.7243 0.783688 51.7243C0.783677 51.7243 0.78367 51.7243 0.99999 51.9995ZM9.76368 45.7801C11.5018 44.4889 13.4468 43.0602 15.5432 41.546L15.1334 40.9786C13.0342 42.4947 11.0866 43.9253 9.34625 45.2182L9.76368 45.7801ZM21.3809 37.3932C23.2891 36.0571 25.2665 34.6943 27.282 33.334L26.8904 32.7538C24.8712 34.1166 22.8905 35.4816 20.9794 36.8198L21.3809 37.3932ZM33.2587 29.3879C35.284 28.0826 37.3167 26.8071 39.3272 25.589L38.9645 24.9903C36.9476 26.2122 34.9095 27.4912 32.8795 28.7996L33.2587 29.3879ZM45.5161 21.9946C46.5823 21.4052 47.6322 20.8423 48.6608 20.3103L48.3392 19.6885C47.3043 20.2237 46.2487 20.7898 45.1774 21.3819L45.5161 21.9946ZM48.6608 20.3103C49.9008 19.6689 51.1778 19.0362 52.4821 18.4135L52.1806 17.7818C50.8702 18.4074 49.5865 19.0434 48.3392 19.6885L48.6608 20.3103ZM60.2779 14.9284C62.9149 13.8186 65.5823 12.7572 68.2113 11.7548L67.9619 11.1007C65.3267 12.1056 62.6517 13.1699 60.0064 14.2832L60.2779 14.9284ZM76.2377 8.82112C79.1286 7.80682 81.8679 6.88844 84.3453 6.08293L84.1288 5.41724C81.647 6.22419 78.9026 7.14429 76.0059 8.16059L76.2377 8.82112ZM92.5077 3.52951C92.8864 3.41589 93.2422 3.30988 93.5736 3.21168L93.3747 2.54053C93.0426 2.63894 92.686 2.74519 92.3065 2.85905L92.5077 3.52951ZM48.5 19.9994L48.8216 20.6211L48.5 19.9994ZM96.5 2L88.6482 0.0811394L90.9123 7.84046L96.5 2ZM0.99999 51.9995C1.43263 52.5498 1.43263 52.5498 1.43263 52.5498C1.43264 52.5498 1.43264 52.5498 1.43265 52.5498C1.43268 52.5497 1.43271 52.5497 1.43277 52.5497C1.43288 52.5496 1.43305 52.5495 1.43328 52.5493C1.43375 52.5489 1.43447 52.5483 1.43543 52.5476C1.43736 52.5461 1.44029 52.5438 1.4442 52.5407C1.45203 52.5345 1.46381 52.5253 1.47947 52.513C1.5108 52.4885 1.55767 52.4518 1.6196 52.4034C1.74345 52.3066 1.9275 52.1631 2.1678 51.9766C2.64841 51.6035 3.35396 51.0583 4.25277 50.3708L3.40218 49.2588C2.50055 49.9485 1.79236 50.4957 1.30933 50.8707C1.06781 51.0581 0.882582 51.2026 0.757598 51.3002C0.695107 51.3491 0.647676 51.3862 0.615803 51.4112C0.599866 51.4237 0.587819 51.4331 0.579723 51.4395C0.575675 51.4427 0.572614 51.4451 0.570549 51.4467C0.569517 51.4475 0.568734 51.4481 0.5682 51.4485C0.567933 51.4487 0.567729 51.4489 0.567587 51.449C0.567516 51.4491 0.567461 51.4491 0.567421 51.4491C0.567402 51.4492 0.567383 51.4492 0.567373 51.4492C0.567359 51.4492 0.567349 51.4492 0.99999 51.9995ZM9.97239 46.061C11.7094 44.7707 13.6532 43.3429 15.7481 41.8298L14.9284 40.6948C12.8278 42.212 10.879 43.6436 9.13753 44.9372L9.97239 46.061ZM21.5816 37.6799C23.4884 36.3448 25.4641 34.9832 27.4779 33.6241L26.6946 32.4637C24.6736 33.8277 22.6912 35.1939 20.7787 36.533L21.5816 37.6799ZM33.4484 29.6821C35.4713 28.3782 37.5012 27.1045 39.5086 25.8884L38.7831 24.691C36.7631 25.9148 34.7222 27.1955 32.6899 28.5054L33.4484 29.6821ZM45.6854 22.3009C46.7491 21.7129 47.7961 21.1515 48.8216 20.6211L48.1784 19.3776C47.1403 19.9145 46.0819 20.4821 45.0081 21.0756L45.6854 22.3009ZM48.8216 20.6211C50.0579 19.9817 51.3316 19.3506 52.6329 18.7294L52.0298 17.466C50.7164 18.093 49.4293 18.7307 48.1784 19.3776L48.8216 20.6211ZM60.4137 15.251C63.0465 14.143 65.7102 13.0831 68.336 12.0818L67.8372 10.7737C65.1988 11.7797 62.5201 12.8456 59.8706 13.9606L60.4137 15.251ZM76.3535 9.15138C79.2416 8.13809 81.9784 7.22057 84.4535 6.41578L84.0206 5.08439C81.5366 5.89206 78.7896 6.81302 75.89 7.83033L76.3535 9.15138Z" fill="#FFA500"/>
</svg>
