<svg width="84" height="36" viewBox="0 0 84 36" fill="none" xmlns="http://www.w3.org/2000/svg">
<path d="M0.500004 3.50017L3.53061 6.17389L4.33081 2.21245L0.500004 3.50017ZM83.196 34.7099C82.143 33.9981 81.1124 33.3075 80.1025 32.6373L79.7155 33.2206C80.7236 33.8896 81.7525 34.579 82.804 35.2898L83.196 34.7099ZM73.8488 28.5812C71.6423 27.1869 69.5325 25.8966 67.4971 24.6983L67.1419 25.3015C69.1704 26.4957 71.2738 27.7821 73.4748 29.1729L73.8488 28.5812ZM61.0012 21.0521C58.7194 19.8386 56.5092 18.7388 54.3318 17.7319L54.038 18.3672C56.2028 19.3683 58.4014 20.4623 60.6725 21.6702L61.0012 21.0521ZM47.472 14.8182C45.1538 13.9202 42.8266 13.1046 40.4417 12.3452L40.2293 13.0122C42.6014 13.7676 44.9151 14.5784 47.2192 15.4709L47.472 14.8182ZM33.2869 10.2676C30.977 9.65413 28.5807 9.06598 26.0617 8.4834L25.904 9.1654C28.4172 9.74665 30.806 10.333 33.1073 10.9441L33.2869 10.2676ZM18.799 6.88053C16.4862 6.38961 14.0647 5.88993 11.5135 5.37013L11.3737 6.05604C13.924 6.57564 16.3435 7.0749 18.6536 7.56527L18.799 6.88053ZM4.2152 3.89344C4.02976 3.85602 3.84366 3.81848 3.6569 3.78079L3.51845 4.46696C3.70522 4.50465 3.89132 4.5422 4.07677 4.57961L4.2152 3.89344ZM0.500004 3.50017L6.5614 8.8474L8.16154 0.924467L0.500004 3.50017ZM83.392 34.4199C82.3382 33.7076 81.3068 33.0165 80.2961 32.3457L79.5219 33.5122C80.5292 34.1806 81.5573 34.8695 82.608 35.5798L83.392 34.4199ZM74.0357 28.2853C71.8266 26.8893 69.7136 25.597 67.6746 24.3967L66.9644 25.6032C68.9893 26.7952 71.0896 28.0797 73.2878 29.4688L74.0357 28.2853ZM61.1655 20.7431C58.8784 19.5267 56.6624 18.424 54.4787 17.4142L53.8911 18.6849C56.0497 19.6831 58.2424 20.7742 60.5082 21.9792L61.1655 20.7431ZM47.5984 14.4918C45.2731 13.5911 42.9392 12.7732 40.5479 12.0117L40.1231 13.3457C42.4889 14.099 44.7958 14.9075 47.0927 15.7973L47.5984 14.4918ZM33.3768 9.92931C31.0625 9.3147 28.6624 8.72564 26.1406 8.1424L25.8251 9.5064C28.3355 10.087 30.7206 10.6724 33.0174 11.2824L33.3768 9.92931ZM18.8716 6.53816C16.5576 6.04697 14.1351 5.54707 11.5834 5.02717L11.3039 6.39899C13.8536 6.91849 16.2721 7.41755 18.5809 7.90765L18.8716 6.53816Z" fill="#FFA500"/>
</svg>
