<svg width="93" height="134" viewBox="0 0 93 134" fill="none" xmlns="http://www.w3.org/2000/svg">
<path d="M48 57.0001L48.2878 56.8009L48 57.0001ZM0.499995 8.52481e-05L1.41607 3.93635L4.36693 1.17488L0.499995 8.52481e-05ZM92 133C92.3117 132.841 92.3117 132.841 92.3117 132.841C92.3117 132.841 92.3117 132.841 92.3117 132.841C92.3117 132.841 92.3116 132.84 92.3116 132.84C92.3115 132.84 92.3114 132.84 92.3112 132.84C92.3108 132.839 92.3103 132.838 92.3096 132.836C92.3082 132.834 92.3061 132.83 92.3033 132.824C92.2977 132.813 92.2893 132.797 92.2782 132.775C92.2561 132.732 92.223 132.667 92.1793 132.582C92.0918 132.412 91.9618 132.159 91.7916 131.828C91.4511 131.168 90.9496 130.199 90.3052 128.963L89.6845 129.286C90.3283 130.521 90.8294 131.49 91.1694 132.149C91.3394 132.479 91.4692 132.731 91.5564 132.902C91.6 132.987 91.633 133.051 91.6551 133.094C91.6661 133.116 91.6744 133.132 91.68 133.143C91.6828 133.148 91.6848 133.152 91.6862 133.155C91.6869 133.156 91.6874 133.157 91.6878 133.158C91.6879 133.158 91.6881 133.159 91.6882 133.159C91.6882 133.159 91.6882 133.159 91.6882 133.159C91.6883 133.159 91.6883 133.159 91.6883 133.159C91.6883 133.159 91.6883 133.159 92 133ZM86.1972 121.167C84.9581 118.838 83.5619 116.235 82.0382 113.424L81.4229 113.758C82.9456 116.567 84.3409 119.169 85.5793 121.496L86.1972 121.167ZM77.816 105.709C76.4486 103.233 75.0169 100.665 73.5358 98.0381L72.926 98.3819C74.406 101.007 75.8367 103.574 77.2033 106.047L77.816 105.709ZM69.1782 90.3949C67.7265 87.8781 66.2443 85.3387 64.7436 82.8044L64.1413 83.1611C65.6405 85.6929 67.1214 88.2299 68.5718 90.7446L69.1782 90.3949ZM60.2117 75.2677C58.6646 72.7364 57.1106 70.2385 55.562 67.8026L54.9713 68.1782C56.5174 70.6102 58.0693 73.1046 59.6144 75.6327L60.2117 75.2677ZM50.7573 60.4296C49.9281 59.1913 49.1042 57.9802 48.2878 56.8009L47.7122 57.1993C48.5265 58.3754 49.3483 59.5836 50.1757 60.8191L50.7573 60.4296ZM48.2878 56.8009C47.5929 55.7973 46.8795 54.7846 46.1499 53.7652L45.5806 54.1726C46.3083 55.1893 47.0196 56.1989 47.7122 57.1993L48.2878 56.8009ZM41.7432 47.776C40.2647 45.8164 38.7461 43.848 37.2046 41.8861L36.6542 42.3185C38.1932 44.2772 39.7089 46.242 41.1843 48.1976L41.7432 47.776ZM32.5645 36.0794C30.9902 34.1404 29.4099 32.223 27.8408 30.3427L27.3033 30.7912C28.8706 32.6693 30.4489 34.5842 32.021 36.5206L32.5645 36.0794ZM23.0446 24.6646C21.3842 22.7216 19.758 20.8411 18.1881 19.0427L17.6607 19.503C19.2291 21.2997 20.8537 23.1784 22.5124 25.1194L23.0446 24.6646ZM13.2705 13.465C11.4731 11.4461 9.80457 9.59325 8.30984 7.94639L7.79151 8.41685C9.28487 10.0622 10.9519 11.9134 12.7477 13.9305L13.2705 13.465ZM3.27578 2.45718C3.14903 2.32052 3.02659 2.18863 2.90856 2.06161L2.39577 2.53811C2.51365 2.66497 2.63595 2.7967 2.76253 2.93319L3.27578 2.45718ZM48 57.0001L48.5755 56.6016L48 57.0001ZM0.499995 8.52481e-05L2.32753 7.87368L8.23249 2.35419L0.499995 8.52481e-05ZM92 133C92.6234 132.682 92.6234 132.681 92.6234 132.681C92.6234 132.681 92.6234 132.681 92.6234 132.681C92.6234 132.681 92.6233 132.681 92.6233 132.681C92.6232 132.681 92.6231 132.681 92.6229 132.68C92.6225 132.68 92.622 132.679 92.6213 132.677C92.6199 132.674 92.6177 132.67 92.6149 132.665C92.6093 132.654 92.6009 132.637 92.5898 132.616C92.5676 132.572 92.5345 132.508 92.4907 132.422C92.4031 132.252 92.273 131.998 92.1027 131.668C91.7619 131.007 91.2602 130.037 90.6156 128.801L89.3741 129.448C90.0177 130.682 90.5185 131.65 90.8583 132.309C91.0282 132.639 91.1579 132.891 91.245 133.061C91.2886 133.146 91.3215 133.21 91.3435 133.254C91.3545 133.275 91.3628 133.291 91.3683 133.302C91.3711 133.307 91.3732 133.311 91.3745 133.314C91.3752 133.315 91.3757 133.316 91.3761 133.317C91.3762 133.317 91.3764 133.318 91.3764 133.318C91.3765 133.318 91.3765 133.318 91.3765 133.318C91.3765 133.318 91.3765 133.318 91.3765 133.318C91.3765 133.318 91.3766 133.318 92 133ZM86.5062 121.002C85.2667 118.673 83.8701 116.069 82.3459 113.257L81.1152 113.925C82.6374 116.733 84.0324 119.334 85.2703 121.66L86.5062 121.002ZM78.1224 105.539C76.7545 103.063 75.3223 100.494 73.8406 97.8662L72.6211 98.5538C74.1006 101.178 75.5308 103.744 76.8969 106.216L78.1224 105.539ZM69.4814 90.22C68.0291 87.7021 66.5462 85.1616 65.0447 82.6261L63.8401 83.3395C65.3386 85.87 66.8188 88.4058 68.2686 90.9195L69.4814 90.22ZM60.5103 75.0851C58.9623 72.5524 57.4072 70.0527 55.8574 67.6149L54.6759 68.366C56.2208 70.796 57.7716 73.2886 59.3158 75.8152L60.5103 75.0851ZM51.0482 60.2348C50.218 58.9952 49.3931 57.7826 48.5755 56.6016L47.4245 57.3985C48.2376 58.5731 49.0584 59.7797 49.8849 61.0138L51.0482 60.2348ZM48.5755 56.6016C47.8796 55.5964 47.1651 54.5823 46.4345 53.5615L45.296 54.3763C46.0226 55.3916 46.733 56.3997 47.4245 57.3985L48.5755 56.6016ZM42.0226 47.5653C40.5426 45.6036 39.0226 43.6333 37.4799 41.6698L36.379 42.5348C37.9167 44.4918 39.431 46.4548 40.9049 48.4084L42.0226 47.5653ZM32.8362 35.8588C31.2608 33.9185 29.6795 31.9999 28.1095 30.1184L27.0346 31.0154C28.6009 32.8925 30.1783 34.8062 31.7493 36.7413L32.8362 35.8588ZM23.3106 24.4372C21.6494 22.4933 20.0224 20.6118 18.4517 18.8125L17.397 19.7332C18.9647 21.529 20.5885 23.4068 22.2463 25.3467L23.3106 24.4372ZM13.5319 13.2323C11.7337 11.2125 10.0644 9.35878 8.56901 7.71117L7.53234 8.65208C9.02502 10.2967 10.6913 12.147 12.4863 14.1632L13.5319 13.2323Z" fill="#FFA500"/>
</svg>
