<svg width="9" height="170" viewBox="0 0 9 170" fill="none" xmlns="http://www.w3.org/2000/svg">
<path d="M3.96386 0.000429179L1.98545 3.52452L6.02661 3.47583L3.96386 0.000429179ZM6.34997 168.996L6.3037 165.155L5.60375 165.163L5.65003 169.004L6.34997 168.996ZM6.21115 157.473L6.1186 149.791L5.41865 149.8L5.5112 157.482L6.21115 157.473ZM6.02604 142.109L5.93349 134.428L5.23354 134.436L5.32609 142.118L6.02604 142.109ZM5.84094 126.746L5.74839 119.064L5.04844 119.073L5.14099 126.754L5.84094 126.746ZM5.65584 111.382L5.56328 103.7L4.86334 103.709L4.95589 111.391L5.65584 111.382ZM5.47073 96.0187L5.37818 88.3369L4.67823 88.3453L4.77078 96.0271L5.47073 96.0187ZM5.28563 80.6551L5.19308 72.9733L4.49313 72.9817L4.58568 80.6635L5.28563 80.6551ZM5.10053 65.2915L5.00797 57.6097L4.30802 57.6181L4.40058 65.2999L5.10053 65.2915ZM4.91542 49.9279L4.82287 42.2461L4.12292 42.2545L4.21547 49.9363L4.91542 49.9279ZM4.73032 34.5643L4.63777 26.8825L3.93782 26.8909L4.03037 34.5727L4.73032 34.5643ZM4.54521 19.2007L4.45266 11.5189L3.75271 11.5273L3.84527 19.2091L4.54521 19.2007ZM4.36011 3.83709L4.35178 3.14598L3.65183 3.15441L3.66016 3.84552L4.36011 3.83709ZM3.96386 0.000429179L0.00703319 7.04861L8.08935 6.95123L3.96386 0.000429179ZM6.69995 168.992L6.65367 165.151L5.25377 165.168L5.30005 169.008L6.69995 168.992ZM6.56112 157.469L6.46857 149.787L5.06867 149.804L5.16122 157.486L6.56112 157.469ZM6.37602 142.105L6.28347 134.423L4.88357 134.44L4.97612 142.122L6.37602 142.105ZM6.19091 126.742L6.09836 119.06L4.69846 119.077L4.79102 126.759L6.19091 126.742ZM6.00581 111.378L5.91326 103.696L4.51336 103.713L4.60591 111.395L6.00581 111.378ZM5.82071 96.0145L5.72816 88.3327L4.32826 88.3495L4.42081 96.0313L5.82071 96.0145ZM5.6356 80.6509L5.54305 72.9691L4.14315 72.9859L4.23571 80.6677L5.6356 80.6509ZM5.4505 65.2873L5.35795 57.6055L3.95805 57.6223L4.0506 65.3041L5.4505 65.2873ZM5.2654 49.9237L5.17284 42.2419L3.77295 42.2587L3.8655 49.9405L5.2654 49.9237ZM5.08029 34.5601L4.98774 26.8783L3.58784 26.8951L3.68039 34.5769L5.08029 34.5601ZM4.89519 19.1965L4.80264 11.5147L3.40274 11.5315L3.49529 19.2133L4.89519 19.1965Z" fill="#FFA500"/>
</svg>
