<svg width="200" height="200" viewBox="0 0 200 200" fill="none" xmlns="http://www.w3.org/2000/svg">
<path d="M182.812 161.25C202.187 129.844 192.5 88.5937 161.094 69.2187C154.375 65.1562 147.031 62.1875 139.375 60.625C132.031 24.375 96.7187 1.09372 60.4687 8.43747C24.2187 15.7812 1.09374 51.4062 8.43748 87.5C9.99998 95.1562 12.9687 102.5 17.0312 109.219L7.18748 137.344C6.71873 138.75 7.49998 140.312 8.90623 140.781C9.53123 140.937 10.1562 140.937 10.7812 140.781L38.9062 130.937C45.625 135 52.9687 137.969 60.625 139.531C68.125 175.781 103.437 198.906 139.687 191.562C147.344 190 154.687 187.031 161.406 182.969L189.531 192.812C190.937 193.281 192.5 192.5 192.969 191.094C193.125 190.469 193.125 189.844 192.969 189.219L182.812 161.25ZM39.2187 125.156C38.9062 125.156 38.5937 125.156 38.2812 125.312L14.375 133.75L22.8125 109.844C23.125 109.062 22.9687 108.125 22.5 107.5C4.06248 78.9062 12.1875 40.7812 40.625 22.3437C69.0625 3.90622 107.187 12.1875 125.625 40.625C144.062 69.0625 135.937 107.187 107.344 125.625C87.0312 138.75 60.9375 138.75 40.625 125.625C40.1562 125.312 39.6875 125.156 39.2187 125.156V125.156ZM161.719 177.187C160.937 176.875 160 177.031 159.375 177.5C130.937 195.937 92.8125 187.812 74.5312 159.375C70.7812 153.594 67.9687 147.187 66.4062 140.469C102.812 144.844 135.937 118.75 140.469 82.1875C140.781 79.5312 140.937 76.7187 140.937 73.9062C140.937 71.25 140.781 68.75 140.469 66.25C173.437 74.2187 193.75 107.344 185.781 140.312C184.219 147.031 181.406 153.437 177.656 159.219C177.187 160 177.031 160.781 177.344 161.562L185.781 185.469L161.719 177.187Z" fill="#FFA500"/>
<path d="M49.2188 84.0625H39.0625V73.9062V61.0937C39.0625 59.5312 37.8125 58.2812 36.25 58.2812C34.6875 58.2812 33.4375 59.5312 33.4375 61.0937V73.9062V86.7188C33.4375 88.2813 34.6875 89.5312 36.25 89.5312H49.0625C50.625 89.5312 51.875 88.2813 51.875 86.7188C51.875 85.1563 50.625 84.0625 49.2188 84.0625V84.0625Z" fill="#FFA500"/>
<path d="M60.1562 58.4375C58.5937 58.4375 57.3438 59.6875 57.3438 61.25V74.0625V86.875C57.3438 88.4375 58.5937 89.6875 60.1562 89.6875C61.7187 89.6875 62.9687 88.4375 62.9687 86.875V74.0625V61.25C62.8125 59.6875 61.7187 58.4375 60.1562 58.4375V58.4375Z" fill="#FFA500"/>
<path d="M88.75 58.5938C87.3438 58.125 85.7813 58.9063 85.3125 60.3125L79.5313 78.125L73.75 60.3125C73.2813 58.9063 71.7188 58.125 70.3125 58.5938C68.9063 59.0625 68.125 60.625 68.5938 62.0313L77.0313 87.6563C77.3438 88.75 78.4375 89.5313 79.6875 89.5313C80.9375 89.5313 81.875 88.75 82.3438 87.6563L90.7813 62.0313C90.9375 60.625 90.1563 59.0625 88.75 58.5938V58.5938Z" fill="#FFA500"/>
<path d="M111.719 76.7187C113.281 76.7187 114.531 75.4687 114.531 73.9062C114.531 72.3437 113.281 71.0937 111.719 71.0937H101.562V63.75H111.719C113.281 63.75 114.531 62.5 114.531 60.9375C114.531 59.375 113.281 58.125 111.719 58.125H98.9062C97.3437 58.125 96.0938 59.375 96.0938 60.9375V73.75V86.5625C96.0938 88.125 97.3437 89.375 98.9062 89.375H111.719C113.281 89.375 114.531 88.125 114.531 86.5625C114.531 85 113.281 83.75 111.719 83.75H101.562V76.4063H111.719V76.7187Z" fill="#FFA500"/>
</svg>
