<svg width="200" height="200" viewBox="0 0 200 200" fill="none" xmlns="http://www.w3.org/2000/svg">
<g clip-path="url(#clip0_1426_3026)">
<path d="M166.014 0H33.8856C31.1568 0 28.9417 2.21315 28.9417 4.94386V190.105C28.9378 193.815 31.01 197.214 34.3085 198.909C37.6089 200.603 41.5794 200.307 44.5902 198.143L99.9498 158.458L155.311 198.141C158.324 200.302 162.291 200.595 165.589 198.901C168.886 197.208 170.96 193.811 170.96 190.105V4.94386C170.96 2.21315 168.745 0 166.014 0V0ZM161.07 190.103L102.833 148.356C101.11 147.122 98.793 147.122 97.0723 148.356L38.8333 190.105V9.88772H161.07V190.103Z" fill="#FFA500"/>
</g>
<defs>
<clipPath id="clip0_1426_3026">
<rect width="200" height="200" fill="white"/>
</clipPath>
</defs>
</svg>
