<svg width="195" height="195" viewBox="0 0 195 195" fill="none" xmlns="http://www.w3.org/2000/svg">
<g filter="url(#filter0_d_1309_4898)">
<circle cx="97.5" cy="81.5" r="57.5" fill="white"/>
</g>
<circle cx="97.5" cy="81.5" r="43.125" fill="#F7302B"/>
<g clip-path="url(#clip0_1309_4898)">
<path d="M118.275 74.3369L78.6715 79.9028L78.9035 81.5533C79.0265 82.4287 79.4923 83.2194 80.1983 83.7515C80.9044 84.2835 81.7928 84.5133 82.6683 84.3903L87.6196 83.6944C88.4951 83.5714 89.2858 83.1056 89.8178 82.3996C90.3499 81.6935 90.5796 80.805 90.4566 79.9296C90.5796 80.805 91.0454 81.5958 91.7514 82.1278C92.4575 82.6598 93.346 82.8896 94.2214 82.7666L104.124 81.3748C105 81.2518 105.79 80.786 106.322 80.08C106.854 79.374 107.084 78.4855 106.961 77.61C107.084 78.4855 107.55 79.2762 108.256 79.8082C108.962 80.3403 109.85 80.5701 110.726 80.447L115.677 79.7512C116.553 79.6281 117.343 79.1624 117.875 78.4563C118.407 77.7503 118.637 76.8618 118.514 75.9864L118.282 74.3359L118.275 74.3369Z" fill="white"/>
<path d="M117.645 72.7425L113.23 62.8018C113.083 62.4709 112.832 62.1968 112.516 62.0212C112.199 61.8455 111.834 61.7778 111.475 61.8282L103.916 62.8906L107.85 74.119L117.645 72.7425Z" fill="white"/>
<path d="M89.3267 64.941L81.7672 66.0034C81.4086 66.0538 81.0762 66.2196 80.8202 66.4757C80.5642 66.7318 80.3986 67.0644 80.3485 67.423L78.8452 78.1954L88.6397 76.8189L89.3267 64.941Z" fill="white"/>
<path d="M100.55 63.3637L92.6928 64.4679L92.0058 76.3458L104.484 74.5921L100.55 63.3637Z" fill="white"/>
<path d="M110.958 82.0975C109.739 82.2698 108.5 81.9848 107.479 81.2976C106.687 82.2396 105.575 82.855 104.356 83.0253L94.4534 84.417C93.2349 84.5893 91.9957 84.3044 90.9749 83.6171C90.183 84.5591 89.0704 85.1746 87.8516 85.3449L82.9002 86.0407C82.3375 86.1186 81.7655 86.0994 81.2092 85.9839L83.8013 104.428C83.8628 104.865 84.0957 105.261 84.4487 105.527C84.8017 105.793 85.246 105.908 85.6837 105.846L88.9846 105.382L86.897 90.5282C86.8355 90.0904 86.9504 89.6462 87.2164 89.2932C87.4824 88.9402 87.8778 88.7073 88.3155 88.6458L96.5677 87.486C97.0055 87.4245 97.4497 87.5393 97.8027 87.8054C98.1557 88.0714 98.3886 88.4667 98.4501 88.9045L100.538 103.758L118.693 101.207C119.13 101.145 119.526 100.913 119.792 100.56C120.058 100.207 120.173 99.7623 120.111 99.3246L117.519 80.8808C117.016 81.1452 116.472 81.3214 115.909 81.4016L110.958 82.0975ZM114 91.7682C114.062 92.2059 113.947 92.6502 113.681 93.0032C113.415 93.3562 113.019 93.5891 112.582 93.6506L104.329 94.8104C103.892 94.8719 103.447 94.757 103.094 94.491C102.741 94.225 102.508 93.8296 102.447 93.3919L101.751 88.4406C101.69 88.0028 101.804 87.5586 102.07 87.2056C102.336 86.8526 102.732 86.6197 103.17 86.5582L111.422 85.3984C111.859 85.3369 112.304 85.4517 112.657 85.7178C113.01 85.9838 113.243 86.3791 113.304 86.8169L114 91.7682Z" fill="url(#paint0_linear_1309_4898)"/>
</g>
<defs>
<filter id="filter0_d_1309_4898" x="0" y="0" width="195" height="195" filterUnits="userSpaceOnUse" color-interpolation-filters="sRGB">
<feFlood flood-opacity="0" result="BackgroundImageFix"/>
<feColorMatrix in="SourceAlpha" type="matrix" values="0 0 0 0 0 0 0 0 0 0 0 0 0 0 0 0 0 0 127 0" result="hardAlpha"/>
<feOffset dy="16"/>
<feGaussianBlur stdDeviation="20"/>
<feComposite in2="hardAlpha" operator="out"/>
<feColorMatrix type="matrix" values="0 0 0 0 0.8 0 0 0 0 0.8 0 0 0 0 0.8 0 0 0 0.15 0"/>
<feBlend mode="normal" in2="BackgroundImageFix" result="effect1_dropShadow_1309_4898"/>
<feBlend mode="normal" in="SourceGraphic" in2="effect1_dropShadow_1309_4898" result="shape"/>
</filter>
<linearGradient id="paint0_linear_1309_4898" x1="99.2271" y1="82.4573" x2="100.314" y2="110.586" gradientUnits="userSpaceOnUse">
<stop stop-color="white"/>
<stop offset="1" stop-color="white" stop-opacity="0"/>
</linearGradient>
<clipPath id="clip0_1309_4898">
<rect width="40" height="40" fill="white" transform="translate(76.8159 66.6993) rotate(-8)"/>
</clipPath>
</defs>
</svg>
