<svg width="140" height="140" viewBox="0 0 140 140" fill="none" xmlns="http://www.w3.org/2000/svg">
<g clip-path="url(#clip0_2419_3303)">
<path d="M70.0042 10.9629C37.3971 10.9629 10.9677 37.3923 10.9677 69.9998C10.9677 93.494 24.7272 113.72 44.5942 123.222L46.442 87.5166C46.442 87.5166 42.9663 86.376 42.2054 86.0046C34.8333 82.7572 29.4778 73.1957 29.4778 60.7861C29.4778 47.2447 39.9796 35.5809 50.1328 35.4845C50.1457 35.4845 50.1457 35.4845 50.1542 35.4845C50.1586 35.4845 50.167 35.4845 50.1711 35.4845C60.3265 35.5805 70.8287 47.2443 70.8287 60.7861C70.8287 73.1957 65.4665 82.7532 58.1095 86.0046C58.0517 86.0299 53.8391 87.5597 53.8391 87.5597L55.9028 127.259C60.4313 128.374 65.1396 129.028 70.0123 129.028C76.5835 129.028 82.8767 127.909 88.7813 125.93L90.61 90.5504C85.791 89.4906 81.6805 86.4227 79.1043 82.5737C75.9128 77.7929 81.561 35.4805 81.561 35.4805H85.2353V75.1865H88.8842V35.4849H92.8748V75.1953H96.5064V35.4849H100.647V75.1953H104.291V35.4849H107.11C107.11 35.4849 112.759 77.7973 109.563 82.5781C107.012 86.3892 102.94 89.4483 98.1814 90.5334C98.0961 90.5636 98.0189 90.593 98.0189 90.593L99.6082 121.026C117.194 110.802 129.046 91.8069 129.046 70.0001C129.037 37.3926 102.607 10.9629 70.0042 10.9629Z" fill="white"/>
<path d="M38.1189 54.7832C38.3304 53.9224 38.6146 53.1042 38.6275 53.0895C38.7194 52.767 38.5484 52.4379 38.198 52.2286C37.8648 52.0492 37.4589 52.1411 37.271 52.4294C37.271 52.4294 36.8672 53.0726 36.2818 54.0231C35.8056 54.8413 35.1007 56.1486 34.6197 57.7765C34.2031 59.2032 33.7055 61.1003 33.4812 63.2236C33.3852 64.3389 33.3635 65.345 33.3977 66.3808C33.4812 67.562 33.6603 68.5725 34.0023 69.7282C35.1621 73.0245 36.0553 76.2163 39.2787 79.3648C40.2977 80.4117 41.3446 81.1251 42.1006 81.6505L42.3676 81.8384C42.5302 81.9455 42.6861 82.044 42.8398 82.1337C43.4745 82.4669 43.8992 82.5864 43.9764 82.6033C44.2923 82.6886 44.6173 82.5349 44.7516 82.2786C44.8777 82.0094 44.7858 81.6719 44.5232 81.4586C44.5232 81.4586 44.1555 81.1383 43.6837 80.54C43.3612 80.1767 43.0108 79.6512 42.603 79.0577C42.3147 78.6389 41.9749 78.1645 41.6586 77.703C40.0885 75.3062 39.1831 71.961 37.931 68.5342C37.6854 67.7907 37.4846 66.8272 37.4096 66.0091C37.3096 65.0647 37.2625 64.155 37.2625 63.3111C37.2261 61.35 37.3136 59.6666 37.4846 58.3016C37.681 56.7616 37.8347 55.6058 38.1189 54.7832Z" fill="white"/>
<path d="M70.0042 0C31.4091 0 0 31.4025 0 69.9998C0 108.589 31.4091 140 70.0042 140C108.598 140 140 108.589 140 69.9998C140 31.4025 108.598 0 70.0042 0ZM70.0042 134.779C34.2821 134.779 5.21873 105.718 5.21873 69.9998C5.21873 34.2777 34.2821 5.21432 70.0042 5.21432C105.722 5.21432 134.788 34.2777 134.788 69.9998C134.788 105.718 105.722 134.779 70.0042 134.779Z" fill="white"/>
</g>
<defs>
<clipPath id="clip0_2419_3303">
<rect width="140" height="140" fill="white"/>
</clipPath>
</defs>
</svg>
