<svg width="52" height="52" viewBox="0 0 52 52" fill="none" xmlns="http://www.w3.org/2000/svg">
<circle cx="26" cy="26" r="26" fill="#FBFAF9"/>
<path d="M22.8997 30.7485V33.2871H19.1409C18.6985 33.2871 18.3386 33.647 18.3386 34.0894V35.5144H14.5798C14.1375 35.5144 13.7776 35.874 13.7776 36.3164V41.0623H13.4062C13.1472 41.0623 12.9375 41.272 12.9375 41.531C12.9375 41.7898 13.1472 41.9998 13.4062 41.9998H37.8918C38.1509 41.9998 38.3606 41.7898 38.3606 41.531C38.3606 41.272 38.1509 41.0623 37.8918 41.0623H37.5205V32.584C37.5205 32.3252 37.3108 32.1152 37.0518 32.1152C36.7927 32.1152 36.583 32.3252 36.583 32.584V41.0623H32.9595C32.9595 40.6594 32.9595 21.3328 32.9595 20.8616H36.583V30.3965C36.583 30.6553 36.7927 30.8652 37.0518 30.8652C37.3108 30.8652 37.5205 30.6553 37.5205 30.3965V20.7261C37.5205 20.2839 37.1606 19.9238 36.7183 19.9238H32.824C32.3818 19.9238 32.022 20.2837 32.022 20.7261V25.4919H28.2629C27.8206 25.4919 27.4609 25.8518 27.4609 26.2939V29.9463H23.7019C23.2595 29.9463 22.8997 30.3062 22.8997 30.7485ZM14.7153 36.4519H18.3389V41.0623H14.7153V36.4519ZM19.2764 34.2246H22.8999V41.0623H19.2764C19.2764 39.9487 19.2764 35.822 19.2764 34.2246ZM28.3984 26.4294H32.022V41.0623H28.3984C28.3984 39.9856 28.3984 26.9502 28.3984 26.4294ZM23.8374 30.8838H27.4609V41.0623H23.8374C23.8374 40.5132 23.8374 31.196 23.8374 30.8838Z" fill="#27C078"/>
<path d="M34.8152 16.3704C34.9114 16.3704 35.0078 16.3047 35.0078 16.2336V16.0867C35.6008 15.9902 36.0063 15.6101 36.0063 14.9814C36.0063 14.2971 35.469 14.0588 35.0078 13.8865V13.1465C35.3372 13.1719 35.4336 13.334 35.6008 13.334C35.8237 13.334 35.915 13.0554 35.915 12.9185C35.915 12.5686 35.322 12.4875 35.0078 12.4773V12.3508C35.0078 12.2798 34.9114 12.2139 34.8152 12.2139C34.7036 12.2139 34.6226 12.2798 34.6226 12.3508V12.4927C34.0852 12.5686 33.6086 12.8779 33.6086 13.5217C33.6086 14.1704 34.156 14.3884 34.6226 14.5659V15.3872C34.2473 15.3213 34.075 15.0222 33.8621 15.0222C33.6694 15.0222 33.5173 15.2756 33.5173 15.448C33.5173 15.7725 34.0142 16.0867 34.6226 16.1069V16.2336C34.6226 16.3047 34.7036 16.3704 34.8152 16.3704ZM34.957 14.7026C35.1396 14.7888 35.2664 14.8953 35.2664 15.0627C35.2664 15.2451 35.1294 15.3413 34.957 15.3818V14.7026ZM34.3489 13.4456C34.3489 13.324 34.4451 13.2073 34.6731 13.1616V13.7649C34.4807 13.6838 34.3489 13.5925 34.3489 13.4456Z" fill="#27C078"/>
<path d="M25.3601 14.065H26.5798V17.7782C26.5798 18.0372 26.7895 18.2469 27.0486 18.2469C27.3074 18.2469 27.5173 18.0372 27.5173 17.7782V14.065H28.7368C29.2246 14.065 29.5093 13.5135 29.2268 13.1156L27.5386 10.7401C27.2993 10.4037 26.7988 10.4024 26.5586 10.7401L24.8701 13.1158C24.5876 13.5133 24.8723 14.065 25.3601 14.065ZM27.0483 11.669L28.085 13.1273H26.012L27.0483 11.669Z" fill="#27C078"/>
<path d="M34.7712 10C32.3633 10 30.4043 11.959 30.4043 14.3669C30.4043 16.2949 31.6963 18.0186 33.5461 18.5586C33.7949 18.6309 34.0549 18.4883 34.1274 18.24C34.2 17.9915 34.0574 17.731 33.8088 17.6584C32.3562 17.2346 31.3418 15.8811 31.3418 14.3669C31.3418 12.4761 32.8801 10.9375 34.7712 10.9375C36.6621 10.9375 38.2007 12.4761 38.2007 14.3669C38.2007 15.8809 37.186 17.2344 35.7336 17.6584C35.4851 17.731 35.3425 17.9912 35.415 18.2397C35.4875 18.4883 35.7478 18.6309 35.9963 18.5583C37.8462 18.0183 39.1382 16.2949 39.1382 14.3669C39.1382 11.959 37.1792 10 34.7712 10Z" fill="#27C078"/>
</svg>
