<svg width="547" height="549" viewBox="0 0 547 549" fill="none" xmlns="http://www.w3.org/2000/svg">
<path d="M40.8503 449.979L39.1499 429.978C248.12 411.868 427.11 273.028 496.6 75.1183L520.6 6.67969L539.48 13.2797L515.48 81.7195C443.41 287.089 257.689 431.189 40.8503 449.979Z" fill="#115535"/>
<path d="M50.0005 489.979H120V549.98H50.0005V489.979Z" fill="#115535"/>
<path d="M160 459.979H229.999V549.98H160V459.979Z" fill="#115535"/>
<path d="M270 409.979H340V549.98H270V409.979Z" fill="#115535"/>
<path d="M380 339.979H450V549.98H380V339.979Z" fill="#115535"/>
<path d="M490 199.979H559.999V549.98H490V199.979Z" fill="#115535"/>
<path d="M570 99.9795C566.19 99.9994 562.7 97.8596 561 94.4494L525.48 23.449L454.471 58.9791C449.531 61.4494 443.521 59.4396 441.05 54.499C438.58 49.5596 440.59 43.549 445.53 41.0787L525.531 1.07908C530.47 -1.39123 536.481 0.609162 538.951 5.54861V5.55916L578.951 85.5595C581.391 90.5096 579.35 96.5095 574.4 98.9494C573.03 99.6185 571.53 99.9795 570 99.9795Z" fill="#115535"/>
<path d="M214.536 289.258C208.564 295.259 202.233 298.834 195.542 299.982C188.85 301.036 182.623 299.024 176.859 293.948L193.505 277.218C196.623 279.85 199.334 280.009 201.638 277.693C202.484 276.842 203.001 275.945 203.187 275.002C203.373 273.965 203.041 273.023 202.19 272.176C201.009 271.001 199.429 270.698 197.45 271.269C195.424 271.792 192.599 272.931 188.973 274.684C184.642 276.769 180.874 278.334 177.671 279.379C174.515 280.377 171.145 280.597 167.561 280.041C163.977 279.484 160.578 277.56 157.364 274.268C154.104 271.023 152.162 267.445 151.539 263.534C150.917 259.529 151.449 255.497 153.136 251.439C154.87 247.333 157.547 243.461 161.168 239.822C167.281 233.679 173.542 230.222 179.951 229.452C186.407 228.634 192.305 230.694 197.644 235.63L180.786 252.572C179.322 251.208 177.953 250.552 176.68 250.602C175.408 250.653 174.301 251.15 173.361 252.095C172.702 252.757 172.398 253.536 172.447 254.431C172.449 255.28 172.852 256.104 173.655 256.903C174.79 258.032 176.346 258.358 178.325 257.881C180.303 257.311 183.176 256.172 186.943 254.466C191.275 252.475 194.995 251.004 198.104 250.054C201.26 249.056 204.559 248.765 208.002 249.181C211.444 249.596 214.63 251.262 217.56 254.177C220.632 257.234 222.644 260.741 223.597 264.698C224.502 268.609 224.206 272.687 222.708 276.933C221.21 281.18 218.486 285.288 214.536 289.258ZM260.202 227.201L243.556 243.93L248.672 253.958L232.238 270.475L200.319 202.177L218.375 184.03L286.761 215.68L270.256 232.267L260.202 227.201ZM244.555 219.25L226.076 209.891L235.527 228.323L244.555 219.25ZM291.247 187.353L306.341 172.183L318.25 184.033L287.497 214.94L237.309 165.002L252.968 149.265L291.247 187.353ZM298.374 128.726L304.541 134.863L320.059 119.267L331.897 131.047L316.379 146.642L323.468 153.695L341.101 135.974L353.648 148.458L320.356 181.917L270.168 131.978L303.461 98.5198L316.008 111.004L298.374 128.726ZM376.762 126.221C370.79 132.223 364.459 135.798 357.768 136.946C351.077 138 344.849 135.988 339.085 130.911L355.731 114.182C358.849 116.814 361.56 116.972 363.864 114.657C364.711 113.806 365.227 112.909 365.413 111.966C365.599 110.928 365.267 109.986 364.416 109.14C363.235 107.964 361.655 107.662 359.676 108.232C357.65 108.756 354.825 109.894 351.199 111.648C346.868 113.733 343.1 115.298 339.897 116.343C336.741 117.34 333.371 117.561 329.787 117.004C326.203 116.448 322.804 114.523 319.591 111.231C316.33 107.987 314.388 104.409 313.766 100.498C313.143 96.4924 313.675 92.4606 315.362 88.4023C317.096 84.2967 319.773 80.4245 323.394 76.7857C329.507 70.6422 335.768 67.1853 342.177 66.4151C348.633 65.5976 354.531 67.6571 359.87 72.5936L343.013 89.5355C341.548 88.1721 340.179 87.5155 338.906 87.5658C337.634 87.6161 336.527 88.1139 335.587 89.059C334.928 89.7206 334.624 90.4992 334.673 91.3947C334.675 92.2433 335.078 93.0672 335.882 93.8666C337.016 94.9952 338.572 95.3213 340.551 94.8449C342.529 94.2743 345.402 93.1358 349.169 91.4293C353.501 89.4386 357.222 87.968 360.33 87.0175C363.486 86.0196 366.786 85.7286 370.228 86.1443C373.67 86.56 376.856 88.2255 379.786 91.1409C382.858 94.1974 384.87 97.7044 385.823 101.662C386.728 105.572 386.432 109.651 384.934 113.897C383.436 118.143 380.712 122.251 376.762 126.221Z" fill="white"/>
<path d="M195.542 299.982L197.408 311.836L197.49 311.823L197.571 311.809L195.542 299.982ZM176.859 293.948L168.353 285.483L159.358 294.523L168.927 302.953L176.859 293.948ZM193.505 277.218L201.246 268.049L192.797 260.917L184.999 268.754L193.505 277.218ZM203.187 275.002L214.96 277.326L214.98 277.223L214.999 277.119L203.187 275.002ZM197.45 271.269L200.453 282.887L200.615 282.845L200.775 282.799L197.45 271.269ZM188.973 274.684L194.178 285.497L194.188 285.492L194.198 285.487L188.973 274.684ZM177.671 279.379L181.289 290.821L181.341 290.804L181.393 290.787L177.671 279.379ZM167.561 280.041L169.403 268.183L169.403 268.183L167.561 280.041ZM157.364 274.268L165.951 265.885L165.89 265.823L165.829 265.761L157.364 274.268ZM151.539 263.534L139.682 265.378L139.685 265.399L139.689 265.421L151.539 263.534ZM153.136 251.439L142.081 246.77L142.068 246.801L142.055 246.833L153.136 251.439ZM179.951 229.452L181.383 241.366L181.421 241.361L181.458 241.356L179.951 229.452ZM197.644 235.63L206.151 244.094L214.931 235.27L205.791 226.819L197.644 235.63ZM180.786 252.572L172.61 261.356L181.106 269.264L189.293 261.036L180.786 252.572ZM172.447 254.431L184.447 254.401L184.446 254.086L184.429 253.771L172.447 254.431ZM178.325 257.881L181.133 269.548L181.393 269.486L181.65 269.411L178.325 257.881ZM186.943 254.466L191.895 265.397L191.924 265.383L191.954 265.37L186.943 254.466ZM198.104 250.054L201.613 261.529L201.668 261.513L201.722 261.496L198.104 250.054ZM208.002 249.181L206.563 261.094L206.563 261.094L208.002 249.181ZM223.597 264.698L235.287 261.991L235.276 261.941L235.263 261.89L223.597 264.698ZM222.708 276.933L211.391 272.942L222.708 276.933ZM206.03 280.793C201.377 285.47 197.199 287.523 193.512 288.155L197.571 311.809C207.267 310.146 215.752 305.049 223.043 297.722L206.03 280.793ZM193.675 288.128C191.009 288.548 188.278 288.014 184.791 284.943L168.927 302.953C176.968 310.034 186.691 313.524 197.408 311.836L193.675 288.128ZM185.365 302.412L202.011 285.682L184.999 268.754L168.353 285.483L185.365 302.412ZM185.764 286.388C188.359 288.578 192.222 291.001 197.177 291.291C202.656 291.61 207.105 289.212 210.144 286.157L193.132 269.229C193.428 268.931 194.065 268.384 195.092 267.943C196.17 267.479 197.38 267.262 198.576 267.331C200.82 267.462 201.769 268.49 201.246 268.049L185.764 286.388ZM210.144 286.157C212.246 284.045 214.213 281.111 214.96 277.326L191.414 272.678C191.789 270.78 192.722 269.64 193.132 269.229L210.144 286.157ZM214.999 277.119C215.984 271.623 213.848 266.848 210.654 263.67L193.726 280.683C193.127 280.087 192.303 279.047 191.761 277.51C191.197 275.912 191.123 274.294 191.375 272.885L214.999 277.119ZM210.654 263.67C205.612 258.653 199.129 258.295 194.125 259.739L200.775 282.799C200.443 282.895 199.373 283.143 197.863 282.854C196.214 282.538 194.766 281.718 193.726 280.683L210.654 263.67ZM194.447 259.651C191.246 260.478 187.561 262.037 183.749 263.881L194.198 285.487C197.636 283.824 199.603 283.107 200.453 282.887L194.447 259.651ZM183.769 263.871C179.733 265.814 176.482 267.145 173.949 267.971L181.393 290.787C185.266 289.524 189.55 287.724 194.178 285.497L183.769 263.871ZM174.054 267.937C172.825 268.326 171.338 268.483 169.403 268.183L165.719 291.898C170.953 292.712 176.205 292.428 181.289 290.821L174.054 267.937ZM169.403 268.183C169.002 268.121 167.843 267.823 165.951 265.885L148.778 282.651C153.313 287.296 158.953 290.847 165.719 291.898L169.403 268.183ZM165.829 265.761C164.068 264.01 163.551 262.66 163.39 261.648L139.689 265.421C140.773 272.231 144.139 278.037 148.9 282.774L165.829 265.761ZM163.397 261.691C163.142 260.048 163.303 258.243 164.216 256.045L142.055 246.833C139.595 252.751 138.692 259.009 139.682 265.378L163.397 261.691ZM164.19 256.108C165.242 253.617 166.975 250.999 169.674 248.286L152.661 231.358C148.119 235.923 144.497 241.049 142.081 246.77L164.19 256.108ZM169.674 248.286C174.534 243.402 178.443 241.719 181.383 241.366L178.519 217.537C168.641 218.724 160.028 223.955 152.661 231.358L169.674 248.286ZM181.458 241.356C183.958 241.04 186.417 241.593 189.498 244.441L205.791 226.819C198.192 219.794 188.857 216.228 178.444 217.547L181.458 241.356ZM189.138 227.166L172.28 244.108L189.293 261.036L206.151 244.094L189.138 227.166ZM188.962 243.788C186.455 241.454 182.093 238.379 176.206 238.612L177.154 262.593C175.493 262.659 174.214 262.233 173.471 261.877C172.779 261.544 172.5 261.253 172.61 261.356L188.962 243.788ZM176.206 238.612C171.754 238.788 167.821 240.65 164.854 243.631L181.867 260.56C181.406 261.023 180.727 261.548 179.818 261.957C178.901 262.37 177.977 262.56 177.154 262.593L176.206 238.612ZM164.854 243.631C161.907 246.593 160.22 250.646 160.465 255.092L184.429 253.771C184.492 254.911 184.333 256.221 183.814 257.546C183.301 258.859 182.564 259.86 181.867 260.56L164.854 243.631ZM160.447 254.461C160.46 259.447 162.914 263.143 165.191 265.409L182.12 248.397C182.79 249.064 184.439 251.112 184.447 254.401L160.447 254.461ZM165.191 265.409C170.095 270.289 176.364 270.696 181.133 269.548L175.516 246.215C175.789 246.149 176.756 245.96 178.134 246.249C179.643 246.565 181.052 247.334 182.12 248.397L165.191 265.409ZM181.65 269.411C184.496 268.591 188.015 267.154 191.895 265.397L181.991 243.535C178.337 245.19 176.111 246.031 174.999 246.351L181.65 269.411ZM191.954 265.37C196.001 263.51 199.193 262.269 201.613 261.529L194.596 238.578C190.798 239.74 186.549 241.44 181.932 243.562L191.954 265.37ZM201.722 261.496C203.168 261.038 204.738 260.874 206.563 261.094L209.44 237.267C204.381 236.656 199.353 237.074 194.487 238.612L201.722 261.496ZM206.563 261.094C206.865 261.131 207.685 261.28 209.096 262.684L226.024 245.671C221.575 241.244 216.023 238.062 209.44 237.267L206.563 261.094ZM209.096 262.684C210.7 264.279 211.531 265.849 211.93 267.507L235.263 261.89C233.757 255.632 230.564 250.188 226.024 245.671L209.096 262.684ZM211.906 267.405C212.236 268.829 212.226 270.577 211.391 272.942L234.025 280.925C236.186 274.797 236.769 268.388 235.287 261.991L211.906 267.405ZM211.391 272.942C210.613 275.149 209.021 277.787 206.03 280.793L223.043 297.722C227.951 292.789 231.807 287.211 234.025 280.925L211.391 272.942ZM260.202 227.201L265.602 216.485L257.833 212.569L251.696 218.737L260.202 227.201ZM243.556 243.93L235.05 235.466L228.913 241.634L232.867 249.384L243.556 243.93ZM248.672 253.958L257.179 262.423L263.316 256.255L259.362 248.505L248.672 253.958ZM232.238 270.475L221.367 275.556L228.635 291.109L240.744 278.939L232.238 270.475ZM200.319 202.177L191.812 193.713L185.896 199.659L189.447 207.258L200.319 202.177ZM218.375 184.03L223.415 173.14L215.793 169.612L209.869 175.566L218.375 184.03ZM286.761 215.68L295.267 224.144L307.36 211.99L291.801 204.789L286.761 215.68ZM270.256 232.267L264.856 242.983L272.625 246.899L278.762 240.731L270.256 232.267ZM244.555 219.25L253.062 227.714L264.711 216.006L249.977 208.544L244.555 219.25ZM226.076 209.891L231.498 199.186L198.546 182.497L215.398 215.366L226.076 209.891ZM235.527 228.323L224.849 233.798L232.384 248.495L244.033 236.787L235.527 228.323ZM251.696 218.737L235.05 235.466L252.063 252.394L268.709 235.665L251.696 218.737ZM232.867 249.384L237.983 259.412L259.362 248.505L254.245 238.477L232.867 249.384ZM240.166 245.494L223.731 262.011L240.744 278.939L257.179 262.423L240.166 245.494ZM243.109 265.394L211.19 197.096L189.447 207.258L221.367 275.556L243.109 265.394ZM208.825 210.641L226.882 192.494L209.869 175.566L191.812 193.713L208.825 210.641ZM213.335 194.92L281.721 226.57L291.801 204.789L223.415 173.14L213.335 194.92ZM278.254 207.216L261.749 223.803L278.762 240.731L295.267 224.144L278.254 207.216ZM275.656 221.551L265.602 216.485L254.802 237.917L264.856 242.983L275.656 221.551ZM249.977 208.544L231.498 199.186L220.655 220.597L239.134 229.955L249.977 208.544ZM215.398 215.366L224.849 233.798L246.205 222.848L236.755 204.416L215.398 215.366ZM244.033 236.787L253.062 227.714L236.049 210.786L227.021 219.859L244.033 236.787ZM291.247 187.353L282.783 195.86L291.289 204.324L299.753 195.817L291.247 187.353ZM306.341 172.183L314.805 163.677L306.299 155.213L297.835 163.719L306.341 172.183ZM318.25 184.033L326.756 192.497L335.221 183.991L326.714 175.527L318.25 184.033ZM287.497 214.94L279.033 223.446L287.539 231.91L296.003 223.404L287.497 214.94ZM237.309 165.002L228.803 156.537L220.339 165.044L228.845 173.508L237.309 165.002ZM252.968 149.265L261.432 140.758L252.926 132.294L244.462 140.801L252.968 149.265ZM299.753 195.817L314.847 180.648L297.835 163.719L282.74 178.889L299.753 195.817ZM297.877 180.69L309.786 192.54L326.714 175.527L314.805 163.677L297.877 180.69ZM309.744 175.569L278.991 206.476L296.003 223.404L326.756 192.497L309.744 175.569ZM295.961 206.433L245.773 156.495L228.845 173.508L279.033 223.446L295.961 206.433ZM245.816 173.466L261.474 157.729L244.462 140.801L228.803 156.537L245.816 173.466ZM244.504 157.771L282.783 195.86L299.711 178.847L261.432 140.758L244.504 157.771ZM298.374 128.726L289.868 120.262L281.403 128.768L289.91 137.232L298.374 128.726ZM304.541 134.863L296.077 143.369L304.583 151.833L313.047 143.327L304.541 134.863ZM320.059 119.267L328.523 110.761L320.016 102.297L311.552 110.803L320.059 119.267ZM331.897 131.047L340.403 139.511L348.867 131.004L340.361 122.54L331.897 131.047ZM316.379 146.642L307.873 138.178L299.409 146.684L307.915 155.148L316.379 146.642ZM323.468 153.695L315.004 162.202L323.51 170.666L331.974 162.159L323.468 153.695ZM341.101 135.974L349.566 127.467L341.059 119.003L332.595 127.509L341.101 135.974ZM353.648 148.458L362.155 156.922L370.619 148.416L362.112 139.952L353.648 148.458ZM320.356 181.917L311.892 190.423L320.398 198.887L328.863 190.381L320.356 181.917ZM270.168 131.978L261.662 123.514L253.198 132.021L261.704 140.485L270.168 131.978ZM303.461 98.5198L311.925 90.0134L303.418 81.5493L294.954 90.0557L303.461 98.5198ZM316.008 111.004L324.514 119.469L332.978 110.962L324.472 102.498L316.008 111.004ZM289.91 137.232L296.077 143.369L313.005 126.356L306.838 120.22L289.91 137.232ZM313.047 143.327L328.565 127.732L311.552 110.803L296.035 126.398L313.047 143.327ZM311.595 127.774L323.433 139.553L340.361 122.54L328.523 110.761L311.595 127.774ZM323.39 122.583L307.873 138.178L324.886 155.106L340.403 139.511L323.39 122.583ZM307.915 155.148L315.004 162.202L331.932 145.189L324.843 138.135L307.915 155.148ZM331.974 162.159L349.608 144.438L332.595 127.509L314.961 145.231L331.974 162.159ZM332.637 144.48L345.184 156.965L362.112 139.952L349.566 127.467L332.637 144.48ZM345.142 139.994L311.85 173.452L328.863 190.381L362.155 156.922L345.142 139.994ZM328.82 173.41L278.633 123.472L261.704 140.485L311.892 190.423L328.82 173.41ZM278.675 140.442L311.967 106.984L294.954 90.0557L261.662 123.514L278.675 140.442ZM294.996 107.026L307.543 119.511L324.472 102.498L311.925 90.0134L294.996 107.026ZM307.501 102.54L289.868 120.262L306.88 137.19L324.514 119.469L307.501 102.54ZM357.768 136.946L359.635 148.8L359.716 148.787L359.797 148.773L357.768 136.946ZM339.085 130.911L330.579 122.447L321.584 131.487L331.153 139.916L339.085 130.911ZM355.731 114.182L363.472 105.012L355.024 97.8801L347.225 105.718L355.731 114.182ZM365.413 111.966L377.186 114.29L377.206 114.187L377.225 114.083L365.413 111.966ZM359.676 108.232L362.679 119.851L362.841 119.809L363.002 119.762L359.676 108.232ZM351.199 111.648L356.404 122.46L356.414 122.456L356.424 122.451L351.199 111.648ZM339.897 116.343L343.515 127.784L343.567 127.768L343.62 127.751L339.897 116.343ZM329.787 117.004L331.629 105.146L331.629 105.146L329.787 117.004ZM319.591 111.231L328.177 102.849L328.116 102.786L328.055 102.725L319.591 111.231ZM313.766 100.498L301.908 102.342L301.911 102.363L301.915 102.384L313.766 100.498ZM315.362 88.4023L304.307 83.7334L304.294 83.7648L304.281 83.7962L315.362 88.4023ZM342.177 66.4151L343.609 78.3294L343.647 78.3248L343.685 78.32L342.177 66.4151ZM359.87 72.5936L368.377 81.0577L377.157 72.2334L368.017 63.7825L359.87 72.5936ZM343.013 89.5355L334.837 98.3191L343.332 106.227L351.519 97.9996L343.013 89.5355ZM334.673 91.3947L346.673 91.3649L346.673 91.0493L346.655 90.7342L334.673 91.3947ZM340.551 94.8449L343.359 106.512L343.619 106.449L343.876 106.375L340.551 94.8449ZM349.169 91.4293L354.121 102.36L354.15 102.347L354.18 102.333L349.169 91.4293ZM360.33 87.0175L363.839 98.4931L363.894 98.4764L363.948 98.4592L360.33 87.0175ZM370.228 86.1443L368.789 98.0577L368.789 98.0577L370.228 86.1443ZM385.823 101.662L397.514 98.955L397.502 98.9041L397.49 98.8533L385.823 101.662ZM384.934 113.897L373.618 109.905L384.934 113.897ZM368.256 117.757C363.603 122.433 359.425 124.486 355.739 125.119L359.797 148.773C369.493 147.109 377.978 142.013 385.269 134.685L368.256 117.757ZM355.901 125.092C353.235 125.512 350.504 124.978 347.017 121.906L331.153 139.916C339.194 146.998 348.918 150.487 359.635 148.8L355.901 125.092ZM347.592 139.375L364.238 122.646L347.225 105.718L330.579 122.447L347.592 139.375ZM347.99 123.351C350.585 125.542 354.448 127.965 359.404 128.254C364.882 128.574 369.331 126.175 372.371 123.121L355.358 106.193C355.654 105.895 356.291 105.348 357.318 104.906C358.396 104.442 359.606 104.225 360.802 104.295C363.046 104.426 363.995 105.454 363.472 105.012L347.99 123.351ZM372.371 123.121C374.473 121.008 376.439 118.075 377.186 114.29L353.64 109.642C354.015 107.743 354.949 106.604 355.358 106.193L372.371 123.121ZM377.225 114.083C378.21 108.586 376.074 103.811 372.88 100.633L355.952 117.646C355.353 117.051 354.529 116.01 353.987 114.474C353.423 112.876 353.349 111.258 353.601 109.849L377.225 114.083ZM372.88 100.633C367.838 95.6165 361.355 95.259 356.351 96.7023L363.002 119.762C362.669 119.858 361.599 120.106 360.089 119.817C358.441 119.502 356.992 118.681 355.952 117.646L372.88 100.633ZM356.673 96.6142C353.472 97.4417 349.788 99.0009 345.975 100.845L356.424 122.451C359.862 120.788 361.829 120.07 362.679 119.851L356.673 96.6142ZM345.995 100.835C341.959 102.778 338.708 104.108 336.175 104.935L343.62 127.751C347.492 126.487 351.776 124.688 356.404 122.46L345.995 100.835ZM336.28 104.901C335.051 105.289 333.564 105.447 331.629 105.146L327.945 128.862C333.179 129.675 338.432 129.392 343.515 127.784L336.28 104.901ZM331.629 105.146C331.228 105.084 330.069 104.787 328.177 102.849L311.004 119.614C315.54 124.26 321.179 127.811 327.945 128.862L331.629 105.146ZM328.055 102.725C326.294 100.973 325.777 99.6235 325.616 98.6114L301.915 102.384C302.999 109.194 306.366 115.001 311.126 119.738L328.055 102.725ZM325.623 98.6541C325.368 97.012 325.529 95.2069 326.443 93.0083L304.281 83.7962C301.821 89.7142 300.918 95.9729 301.908 102.342L325.623 98.6541ZM326.416 93.0711C327.468 90.5805 329.201 87.9622 331.9 85.2498L314.888 68.3216C310.345 72.8868 306.723 78.0129 304.307 83.7334L326.416 93.0711ZM331.9 85.2498C336.76 80.3658 340.669 78.6827 343.609 78.3294L340.745 54.5008C330.867 55.6879 322.254 60.9185 314.888 68.3216L331.9 85.2498ZM343.685 78.32C346.184 78.0036 348.644 78.5568 351.724 81.4047L368.017 63.7825C360.419 56.7574 351.083 53.1917 340.67 54.5101L343.685 78.32ZM351.364 64.1295L334.506 81.0714L351.519 97.9996L368.377 81.0577L351.364 64.1295ZM351.189 80.7518C348.681 78.4176 344.319 75.3425 338.432 75.5752L339.38 99.5564C337.719 99.6221 336.44 99.1964 335.697 98.8401C335.005 98.5081 334.726 98.2166 334.837 98.3191L351.189 80.7518ZM338.432 75.5752C333.981 75.7512 330.047 77.6134 327.08 80.5949L344.093 97.5231C343.632 97.9862 342.953 98.512 342.045 98.9207C341.127 99.3336 340.203 99.5239 339.38 99.5564L338.432 75.5752ZM327.08 80.5949C324.133 83.5568 322.446 87.6096 322.692 92.0553L346.655 90.7342C346.718 91.8747 346.559 93.1845 346.04 94.5096C345.527 95.8229 344.79 96.8231 344.093 97.5231L327.08 80.5949ZM322.673 91.4246C322.686 96.4109 325.14 100.107 327.417 102.373L344.346 85.3602C345.017 86.0277 346.665 88.0756 346.673 91.3649L322.673 91.4246ZM327.417 102.373C332.321 107.252 338.59 107.66 343.359 106.512L337.742 83.1782C338.015 83.1127 338.982 82.9238 340.36 83.2126C341.869 83.5287 343.278 84.2977 344.346 85.3602L327.417 102.373ZM343.876 106.375C346.722 105.554 350.241 104.118 354.121 102.36L344.218 80.4986C340.564 82.1538 338.337 82.9944 337.226 83.3149L343.876 106.375ZM354.18 102.333C358.227 100.473 361.419 99.2329 363.839 98.4931L356.822 75.5419C353.024 76.7031 348.775 78.4039 344.158 80.5255L354.18 102.333ZM363.948 98.4592C365.394 98.002 366.964 97.8373 368.789 98.0577L371.667 74.2308C366.607 73.6199 361.579 74.0373 356.713 75.5757L363.948 98.4592ZM368.789 98.0577C369.091 98.0942 369.911 98.2436 371.322 99.6473L388.25 82.6345C383.801 78.2074 378.249 75.0257 371.666 74.2308L368.789 98.0577ZM371.322 99.6473C372.926 101.243 373.757 102.813 374.156 104.47L397.49 98.8533C395.983 92.596 392.79 87.1519 388.25 82.6345L371.322 99.6473ZM374.132 104.369C374.462 105.792 374.452 107.54 373.618 109.905L396.251 117.889C398.412 111.761 398.995 105.352 397.514 98.955L374.132 104.369ZM373.618 109.905C372.839 112.112 371.247 114.751 368.256 117.757L385.269 134.685C390.177 129.752 394.033 124.175 396.251 117.889L373.618 109.905Z" fill="#27C078"/>
</svg>
