<svg width="80" height="80" viewBox="0 0 80 80" fill="none" xmlns="http://www.w3.org/2000/svg">
<circle cx="40" cy="40" r="40" fill="#FFF8EB"/>
<g clip-path="url(#clip0_1319_5000)">
<path d="M44.6399 22C37.2731 22 31.2798 27.9933 31.2798 35.3601C31.2798 37.9015 31.9933 40.2793 33.2302 42.3041C26.2185 47.8152 25.4438 48.5896 25.1826 48.8508L23.2337 50.7997C21.5887 52.4447 21.5887 55.1213 23.2337 56.7663C24.0562 57.5887 25.1366 58 26.2169 58C27.2973 58 28.3777 57.5887 29.2002 56.7663L31.1491 54.8174C31.4088 54.5577 32.1854 53.7809 37.6638 46.7498C39.6956 47.9988 42.085 48.7202 44.6399 48.7202C46.6473 48.7202 48.5778 48.2856 50.3776 47.4284C51.0789 47.0945 51.3766 46.2553 51.0427 45.5541C50.7087 44.8528 49.8695 44.5549 49.1683 44.8891C47.7491 45.5649 46.2256 45.9076 44.6399 45.9076C38.824 45.9076 34.0924 41.176 34.0924 35.3601C34.0924 29.5442 38.824 24.8127 44.6399 24.8127C50.4558 24.8127 55.1873 29.5442 55.1873 35.3601C55.1873 37.265 54.6745 39.1312 53.7042 40.7569C53.3062 41.4238 53.5242 42.2872 54.1911 42.6852C54.8581 43.0833 55.7214 42.8653 56.1195 42.1984C57.3498 40.137 58.0001 37.7724 58.0001 35.3601C58 27.9933 52.0067 22 44.6399 22ZM29.1603 52.8285L27.2114 54.7774C26.6631 55.3258 25.7709 55.3258 25.2226 54.7774C24.6743 54.2291 24.6743 53.337 25.2226 52.7886L27.1715 50.8398C27.52 50.4913 29.0025 49.205 34.94 44.5377C35.1007 44.7074 35.2656 44.8732 35.4349 45.0344C30.7829 51.0044 29.5057 52.4831 29.1603 52.8285ZM51.7383 32.2835C52.0474 32.996 51.7205 33.8242 51.008 34.1334C50.8257 34.2125 50.6357 34.25 50.4489 34.25C49.9055 34.25 49.3881 33.9332 49.1581 33.4031C48.3764 31.6018 46.603 30.438 44.6399 30.438C43.8632 30.438 43.2336 29.8083 43.2336 29.0316C43.2336 28.2549 43.8632 27.6253 44.6399 27.6253C47.7241 27.6253 50.5104 29.4537 51.7383 32.2835Z" fill="url(#paint0_linear_1319_5000)"/>
</g>
<defs>
<linearGradient id="paint0_linear_1319_5000" x1="40" y1="22" x2="40" y2="58" gradientUnits="userSpaceOnUse">
<stop stop-color="#FFA500"/>
<stop offset="1" stop-color="#FFC966"/>
</linearGradient>
<clipPath id="clip0_1319_5000">
<rect width="36" height="36" fill="white" transform="translate(22 22)"/>
</clipPath>
</defs>
</svg>
