<svg width="48" height="48" viewBox="0 0 48 48" fill="none" xmlns="http://www.w3.org/2000/svg">
<circle cx="24" cy="24" r="24" fill="#FFF4E0"/>
<path d="M37.959 19.271L37.9402 19.1659C37.9368 19.1496 37.935 19.1334 37.9316 19.1176L35.968 14.3751V12.042H11.9995V14.3752L10.0684 19.1172C10.0641 19.136 10.0615 19.1548 10.0581 19.1731L10.0401 19.271C10.0137 19.4406 10 19.6145 10 19.7918C10 21.0599 10.7075 22.1622 11.75 22.7257V35.9579H36.25V22.7257C37.2916 22.1621 38 21.0599 38 19.7918C38 19.6145 37.9855 19.4406 37.959 19.271ZM36.6405 19.042H32.3544L31.8391 15.5783H35.2297L36.6405 19.042ZM13.1667 13.2084H34.8016V14.3752H13.1667V13.2084ZM31.3486 20.2084L31.4119 20.6318L31.0667 21.091C30.6531 21.6422 30.0208 21.9583 29.3329 21.9583C28.645 21.9583 28.0127 21.6422 27.5991 21.091L27.2471 20.6219L27.2266 20.2084H31.3486ZM27.1693 19.042L26.9993 15.5783H30.6591L31.1752 19.042H27.1693ZM26.0585 20.2083L26.079 20.6313L25.7329 21.091C25.3194 21.6422 24.687 21.9583 24 21.9583C23.3113 21.9583 22.6798 21.6422 22.2654 21.091L21.9116 20.6189L21.9321 20.2083H26.0585ZM21.9911 19.042L22.1663 15.5783H25.832L26.0012 19.042H21.9911ZM16.8308 19.042L17.34 15.5783H20.999L20.8229 19.042H16.8308ZM20.7632 20.2084L20.7418 20.636L20.4 21.091C19.9856 21.6422 19.3541 21.9583 18.6662 21.9583C17.9784 21.9583 17.3469 21.6422 16.9325 21.091L16.5958 20.6429L16.6599 20.2084H20.7632ZM12.7694 15.5783H16.1609L15.6517 19.042H11.3587L12.7694 15.5783ZM11.2065 20.2084H15.4807L15.3892 20.6617L15.0671 21.0911C14.6526 21.6422 14.0212 21.9584 13.3324 21.9584C12.2806 21.9584 11.4014 21.2047 11.2065 20.2084ZM32.75 34.7924H28.0828V30.7079H28.6664C28.9885 30.7079 29.25 30.4473 29.25 30.1252C29.25 29.8031 28.9885 29.5424 28.6664 29.5424H28.0828V25.4579H32.75V34.7924ZM35.0829 34.7924H35.0828H33.9164V24.2924H26.9164V34.7924H12.9164V23.0991C13.0522 23.1162 13.1924 23.1252 13.3325 23.1252C14.4229 23.1252 15.3918 22.6014 15.9994 21.7918C16.6078 22.6014 17.5759 23.1252 18.6663 23.1252C19.7566 23.1252 20.7248 22.6014 21.3332 21.7918C21.9407 22.6014 22.9097 23.1252 24.0001 23.1252C25.0904 23.1252 26.0577 22.6014 26.6661 21.7918C27.2745 22.6014 28.2426 23.1252 29.333 23.1252C30.4233 23.1252 31.3915 22.6014 31.9999 21.7918C32.6082 22.6014 33.5755 23.1252 34.6659 23.1252C34.8077 23.1252 34.9461 23.1163 35.0829 23.0991V34.7924ZM34.6658 21.9584C33.9788 21.9584 33.3464 21.6422 32.9328 21.0911L32.5936 20.6408L32.5278 20.2084H36.7917C36.5969 21.2047 35.7185 21.9584 34.6658 21.9584Z" fill="#F7302B"/>
<path d="M14.0827 24.2925V32.458H25.75V24.2925H14.0827ZM24.5827 31.2925H15.25V25.458H24.5827V31.2925Z" fill="#F7302B"/>
<path d="M23.4121 28.375C23.2506 28.375 23.1045 28.44 22.9994 28.5459L21.833 29.7131C21.727 29.8183 21.6621 29.9644 21.6621 30.125C21.6621 30.4472 21.9236 30.7078 22.2449 30.7078C22.4064 30.7078 22.5525 30.6428 22.6576 30.5369L23.824 29.3714C23.9299 29.2654 23.9949 29.1193 23.9949 28.9578C23.9949 28.6365 23.7343 28.375 23.4121 28.375Z" fill="#F7302B"/>
<path d="M23.4121 26.0425C23.2506 26.0425 23.1045 26.1074 22.9994 26.2134L19.4994 29.7125C19.3943 29.8176 19.3285 29.9646 19.3285 30.1252C19.3285 30.4474 19.5899 30.708 19.9121 30.708C20.0728 30.708 20.2189 30.643 20.324 30.5371L23.824 27.038C23.9299 26.9328 23.9949 26.7859 23.9949 26.6252C23.9949 26.3031 23.7343 26.0425 23.4121 26.0425Z" fill="#F7302B"/>
</svg>
