<svg width="48" height="48" viewBox="0 0 48 48" fill="none" xmlns="http://www.w3.org/2000/svg">
<circle cx="24" cy="24" r="24" fill="#FFF4E0"/>
<path d="M17.936 28.712C18.48 28.28 18.728 28.08 18.68 28.112C20.248 26.816 21.48 25.752 22.376 24.92C23.288 24.088 24.056 23.216 24.68 22.304C25.304 21.392 25.616 20.504 25.616 19.64C25.616 18.984 25.464 18.472 25.16 18.104C24.856 17.736 24.4 17.552 23.792 17.552C23.184 17.552 22.704 17.784 22.352 18.248C22.016 18.696 21.848 19.336 21.848 20.168H17.888C17.92 18.808 18.208 17.672 18.752 16.76C19.312 15.848 20.04 15.176 20.936 14.744C21.848 14.312 22.856 14.096 23.96 14.096C25.864 14.096 27.296 14.584 28.256 15.56C29.232 16.536 29.72 17.808 29.72 19.376C29.72 21.088 29.136 22.68 27.968 24.152C26.8 25.608 25.312 27.032 23.504 28.424H29.984V31.76H17.936V28.712Z" fill="#0A0C14"/>
</svg>
