<svg width="48" height="48" viewBox="0 0 48 48" fill="none" xmlns="http://www.w3.org/2000/svg">
<circle cx="24" cy="24" r="24" fill="#FFF4E0"/>
<path d="M35.0125 15.3559H35.8776C36.1794 15.3559 36.4241 15.1112 36.4241 14.8094C36.4241 14.5076 36.1794 14.2629 35.8776 14.2629H33.8008C33.4991 14.2629 33.2543 14.5076 33.2543 14.8094V16.8862C33.2543 17.1879 33.4991 17.4327 33.8008 17.4327C34.1026 17.4327 34.3474 17.1879 34.3474 16.8862V16.2848C36.0056 18.5048 36.907 21.1984 36.907 24C36.907 31.117 31.117 36.907 24 36.907C16.883 36.907 11.093 31.117 11.093 24C11.093 16.883 16.883 11.093 24 11.093C24.5264 11.093 25.0561 11.125 25.5746 11.188C25.8738 11.2242 26.1467 11.0111 26.1831 10.7115C26.2196 10.4119 26.0062 10.1394 25.7066 10.103C25.1444 10.0346 24.5703 10 24 10C20.2605 10 16.7447 11.4562 14.1005 14.1005C11.4562 16.7447 10 20.2605 10 24C10 27.7395 11.4562 31.2553 14.1005 33.8995C16.7447 36.5438 20.2605 38 24 38C27.7395 38 31.2553 36.5438 33.8995 33.8995C36.5438 31.2553 38 27.7395 38 24C38 20.8444 36.9458 17.8149 35.0125 15.3559Z" fill="#FFA500"/>
<path d="M15.9282 18.2529C15.6731 18.0915 15.3355 18.1675 15.174 18.4224C13.9264 20.3929 13.3741 22.7627 13.6189 25.0953C13.8673 27.4625 14.9327 29.6948 16.6189 31.381C18.6539 33.416 21.3269 34.4335 24.0001 34.4335C26.6732 34.4335 29.3462 33.416 31.3812 31.381C35.4512 27.3111 35.4512 20.6887 31.3812 16.6188C29.6975 14.9352 27.4689 13.8702 25.1057 13.6199C22.7774 13.3731 20.4102 13.9211 18.4405 15.1626C18.1851 15.3236 18.1086 15.661 18.2695 15.9164C18.4305 16.1718 18.7679 16.2482 19.0233 16.0873C22.7362 13.7471 27.5 14.2834 30.6083 17.3917C34.252 21.0355 34.252 26.9643 30.6083 30.6081C26.9645 34.2519 21.0356 34.2519 17.3919 30.6081C14.3266 27.5428 13.7822 22.6639 16.0976 19.0071C16.259 18.7521 16.1832 18.4144 15.9282 18.2529Z" fill="#FFA500"/>
<path d="M31.1048 24.5554H31.7787C32.0805 24.5554 32.3252 24.3107 32.3252 24.0089C32.3252 23.7071 32.0805 23.4624 31.7787 23.4624H31.1048C30.803 23.4624 30.5583 23.7071 30.5583 24.0089C30.5583 24.3107 30.8029 24.5554 31.1048 24.5554Z" fill="#FFA500"/>
<path d="M15.6748 23.9913C15.6748 24.2931 15.9195 24.5379 16.2213 24.5379H16.8952C17.197 24.5379 17.4417 24.2931 17.4417 23.9913C17.4417 23.6896 17.197 23.4448 16.8952 23.4448H16.2213C15.9195 23.4448 15.6748 23.6895 15.6748 23.9913Z" fill="#FFA500"/>
<path d="M24.5554 16.8953V16.2213C24.5554 15.9195 24.3106 15.6748 24.0089 15.6748C23.7071 15.6748 23.4623 15.9195 23.4623 16.2213V16.8953C23.4623 17.1971 23.7071 17.4418 24.0089 17.4418C24.3106 17.4418 24.5554 17.1971 24.5554 16.8953Z" fill="#FFA500"/>
<path d="M23.4446 31.1046V31.7786C23.4446 32.0804 23.6894 32.3251 23.9911 32.3251C24.2929 32.3251 24.5377 32.0804 24.5377 31.7786V31.1046C24.5377 30.8028 24.2929 30.5581 23.9911 30.5581C23.6894 30.5581 23.4446 30.8028 23.4446 31.1046Z" fill="#FFA500"/>
<path d="M21.2606 20.4879C21.0472 20.2746 20.7012 20.2746 20.4877 20.4879C20.2743 20.7014 20.2743 21.0474 20.4877 21.2609L22.3399 23.1131C22.198 23.3776 22.1173 23.6796 22.1173 24.0002C22.1173 25.0384 22.9618 25.883 24 25.883C25.0382 25.883 25.8828 25.0384 25.8828 24.0002C25.8828 23.6796 25.802 23.3776 25.6601 23.1131L29.3973 19.3758C29.6108 19.1624 29.6108 18.8164 29.3973 18.6029C29.1839 18.3895 28.8379 18.3895 28.6244 18.6029L24.8872 22.3401C24.6226 22.1982 24.3206 22.1175 24 22.1175C23.6794 22.1175 23.3774 22.1983 23.1128 22.3401L21.2606 20.4879ZM24.7897 24.0002C24.7897 24.4357 24.4355 24.7899 24 24.7899C23.5645 24.7899 23.2103 24.4357 23.2103 24.0002C23.2103 23.5648 23.5645 23.2105 24 23.2105C24.4355 23.2105 24.7897 23.5648 24.7897 24.0002Z" fill="#FFA500"/>
<path d="M17.3915 17.3914C17.4937 17.2897 17.5521 17.1487 17.5521 17.005C17.5521 16.8613 17.4937 16.7208 17.3915 16.6186C17.2899 16.517 17.1494 16.4585 17.0051 16.4585C16.8614 16.4585 16.7204 16.517 16.6188 16.6186C16.5172 16.7203 16.4586 16.8613 16.4586 17.005C16.4586 17.1493 16.5171 17.2897 16.6188 17.3914C16.7204 17.493 16.8614 17.5515 17.0051 17.5515C17.1494 17.5515 17.2899 17.493 17.3915 17.3914Z" fill="#FFA500"/>
<path d="M27.7857 11.6331C27.9301 11.6331 28.0711 11.5751 28.1727 11.4729C28.2743 11.3713 28.3328 11.2308 28.3328 11.0866C28.3328 10.9428 28.2744 10.8018 28.1727 10.7002C28.0711 10.5986 27.9301 10.54 27.7857 10.54C27.642 10.54 27.501 10.5985 27.3994 10.7002C27.2977 10.8018 27.2392 10.9428 27.2392 11.0866C27.2392 11.2308 27.2977 11.3713 27.3994 11.4729C27.501 11.5751 27.642 11.6331 27.7857 11.6331Z" fill="#FFA500"/>
</svg>
