<svg width="58" height="58" viewBox="0 0 58 58" fill="none" xmlns="http://www.w3.org/2000/svg">
<circle cx="29" cy="29" r="28.4" stroke="#FFA500" stroke-width="0.8"/>
<g clip-path="url(#clip0_1416_2908)">
<path d="M40.8555 21.4007C40.7244 21.2737 40.5367 21.2318 40.3657 21.2912L39.5564 21.5705C40.0331 20.9936 40.3849 20.3911 40.5701 19.8199C40.6239 19.6535 40.575 19.469 40.4459 19.3505C40.3161 19.2312 40.1276 19.1975 39.9639 19.2659C38.8289 19.7418 37.8245 20.1562 37.0258 20.4042C36.9961 20.4135 36.9656 20.4095 36.935 20.3923C36.2983 20.0357 34.7045 19.2166 33.5723 19.2296C30.7091 19.2821 28.3793 21.7289 28.3793 24.6841V24.8457C24.1632 24.0294 21.8334 22.8166 19.3105 20.1701L18.9165 19.7564L18.6543 20.2641C17.2848 22.9131 18.2558 25.2874 19.8561 26.8865C19.1469 26.7778 18.6319 26.5494 18.1983 26.1712C18.0318 26.0271 17.7957 26.0092 17.6101 26.1273C17.4273 26.2437 17.3438 26.4615 17.4028 26.6691C17.9414 28.5748 19.3838 30.1397 20.9064 31.0748C20.1708 31.074 19.5654 30.9922 18.9568 30.601C18.7797 30.487 18.5492 30.4988 18.384 30.6294C18.2199 30.7597 18.1568 30.9796 18.2268 31.177C18.969 33.2614 20.3568 34.3577 22.6566 34.6309C21.4743 35.3222 19.9404 35.8685 17.5453 35.9186C17.3116 35.9235 17.1048 36.0753 17.0299 36.2959C16.9551 36.5158 17.0235 36.7519 17.2038 36.8968C18.6592 38.0701 21.9238 38.7708 25.9366 38.7708C33.1201 38.7708 38.9641 32.3788 38.9641 24.522V24.384C39.8935 23.9398 40.6027 23.0634 40.9776 21.8848C41.0322 21.713 40.9854 21.5273 40.8555 21.4007Z" fill="#FFA500"/>
</g>
<defs>
<clipPath id="clip0_1416_2908">
<rect width="24" height="24" fill="white" transform="translate(17 17)"/>
</clipPath>
</defs>
</svg>
