<svg width="587" height="823" viewBox="0 0 587 823" fill="none" xmlns="http://www.w3.org/2000/svg">
<path d="M0 20C0 8.95432 8.95431 0 20 0H587V823H0V20Z" fill="#072215"/>
<g clip-path="url(#clip0_1428_3103)">
<path d="M2 0H0V2H2V0Z" fill="white" fill-opacity="0.08"/>
<path d="M0 141.95V95.762M0 76.05L22.93 62.81V-13.238L40 -26.48L17.07 -13.238V13.238L40 26.48M40 72.666L0 95.76M0 95.76V141.948M0 141.948L40 165.044L80 141.948V95.76M80 95.76L40 72.666M40 72.666L80 95.764M0 23.094L-22.93 36.332V62.81L0 76.05L22.93 62.81V36.33L0 23.096V-23.092L40 -46.186L80 -23.092V23.096M40 72.666V26.48M40 92.378L17.07 105.616V132.094L40 145.334L62.93 132.094V105.616L40 92.378ZM57.07 36.334V62.81L80 76.048L102.93 62.808V36.332L80 23.092L57.07 36.334Z" stroke="white" stroke-opacity="0.08" stroke-linecap="square"/>
</g>
<g clip-path="url(#clip1_1428_3103)">
<path d="M82 0H80V2H82V0Z" fill="white" fill-opacity="0.08"/>
<path d="M80 141.95V95.762M80 76.05L102.93 62.81V-13.238L120 -26.48L97.07 -13.238V13.238L120 26.48M120 72.666L80 95.76M80 95.76V141.948M80 141.948L120 165.044L160 141.948V95.76M160 95.76L120 72.666M120 72.666L160 95.764M80 23.094L57.07 36.332V62.81L80 76.05L102.93 62.81V36.33L80 23.096V-23.092L120 -46.186L160 -23.092V23.096M120 72.666V26.48M120 92.378L97.07 105.616V132.094L120 145.334L142.93 132.094V105.616L120 92.378ZM137.07 36.334V62.81L160 76.048L182.93 62.808V36.332L160 23.092L137.07 36.334Z" stroke="white" stroke-opacity="0.08" stroke-linecap="square"/>
</g>
<g clip-path="url(#clip2_1428_3103)">
<path d="M162 0H160V2H162V0Z" fill="white" fill-opacity="0.08"/>
<path d="M160 141.95V95.762M160 76.05L182.93 62.81V-13.238L200 -26.48L177.07 -13.238V13.238L200 26.48M200 72.666L160 95.76M160 95.76V141.948M160 141.948L200 165.044L240 141.948V95.76M240 95.76L200 72.666M200 72.666L240 95.764M160 23.094L137.07 36.332V62.81L160 76.05L182.93 62.81V36.33L160 23.096V-23.092L200 -46.186L240 -23.092V23.096M200 72.666V26.48M200 92.378L177.07 105.616V132.094L200 145.334L222.93 132.094V105.616L200 92.378ZM217.07 36.334V62.81L240 76.048L262.93 62.808V36.332L240 23.092L217.07 36.334Z" stroke="white" stroke-opacity="0.08" stroke-linecap="square"/>
</g>
<g clip-path="url(#clip3_1428_3103)">
<path d="M242 0H240V2H242V0Z" fill="white" fill-opacity="0.08"/>
<path d="M240 141.95V95.762M240 76.05L262.93 62.81V-13.238L280 -26.48L257.07 -13.238V13.238L280 26.48M280 72.666L240 95.76M240 95.76V141.948M240 141.948L280 165.044L320 141.948V95.76M320 95.76L280 72.666M280 72.666L320 95.764M240 23.094L217.07 36.332V62.81L240 76.05L262.93 62.81V36.33L240 23.096V-23.092L280 -46.186L320 -23.092V23.096M280 72.666V26.48M280 92.378L257.07 105.616V132.094L280 145.334L302.93 132.094V105.616L280 92.378ZM297.07 36.334V62.81L320 76.048L342.93 62.808V36.332L320 23.092L297.07 36.334Z" stroke="white" stroke-opacity="0.08" stroke-linecap="square"/>
</g>
<g clip-path="url(#clip4_1428_3103)">
<path d="M322 0H320V2H322V0Z" fill="white" fill-opacity="0.08"/>
<path d="M320 141.95V95.762M320 76.05L342.93 62.81V-13.238L360 -26.48L337.07 -13.238V13.238L360 26.48M360 72.666L320 95.76M320 95.76V141.948M320 141.948L360 165.044L400 141.948V95.76M400 95.76L360 72.666M360 72.666L400 95.764M320 23.094L297.07 36.332V62.81L320 76.05L342.93 62.81V36.33L320 23.096V-23.092L360 -46.186L400 -23.092V23.096M360 72.666V26.48M360 92.378L337.07 105.616V132.094L360 145.334L382.93 132.094V105.616L360 92.378ZM377.07 36.334V62.81L400 76.048L422.93 62.808V36.332L400 23.092L377.07 36.334Z" stroke="white" stroke-opacity="0.08" stroke-linecap="square"/>
</g>
<g clip-path="url(#clip5_1428_3103)">
<path d="M402 0H400V2H402V0Z" fill="white" fill-opacity="0.08"/>
<path d="M400 141.95V95.762M400 76.05L422.93 62.81V-13.238L440 -26.48L417.07 -13.238V13.238L440 26.48M440 72.666L400 95.76M400 95.76V141.948M400 141.948L440 165.044L480 141.948V95.76M480 95.76L440 72.666M440 72.666L480 95.764M400 23.094L377.07 36.332V62.81L400 76.05L422.93 62.81V36.33L400 23.096V-23.092L440 -46.186L480 -23.092V23.096M440 72.666V26.48M440 92.378L417.07 105.616V132.094L440 145.334L462.93 132.094V105.616L440 92.378ZM457.07 36.334V62.81L480 76.048L502.93 62.808V36.332L480 23.092L457.07 36.334Z" stroke="white" stroke-opacity="0.08" stroke-linecap="square"/>
</g>
<g clip-path="url(#clip6_1428_3103)">
<path d="M482 0H480V2H482V0Z" fill="white" fill-opacity="0.08"/>
<path d="M480 141.95V95.762M480 76.05L502.93 62.81V-13.238L520 -26.48L497.07 -13.238V13.238L520 26.48M520 72.666L480 95.76M480 95.76V141.948M480 141.948L520 165.044L560 141.948V95.76M560 95.76L520 72.666M520 72.666L560 95.764M480 23.094L457.07 36.332V62.81L480 76.05L502.93 62.81V36.33L480 23.096V-23.092L520 -46.186L560 -23.092V23.096M520 72.666V26.48M520 92.378L497.07 105.616V132.094L520 145.334L542.93 132.094V105.616L520 92.378ZM537.07 36.334V62.81L560 76.048L582.93 62.808V36.332L560 23.092L537.07 36.334Z" stroke="white" stroke-opacity="0.08" stroke-linecap="square"/>
</g>
<g clip-path="url(#clip7_1428_3103)">
<path d="M562 0H560V2H562V0Z" fill="white" fill-opacity="0.08"/>
<path d="M560 141.95V95.762M560 76.05L582.93 62.81V-13.238L600 -26.48L577.07 -13.238V13.238L600 26.48M600 72.666L560 95.76M560 95.76V141.948M560 141.948L600 165.044L640 141.948V95.76M640 95.76L600 72.666M600 72.666L640 95.764M560 23.094L537.07 36.332V62.81L560 76.05L582.93 62.81V36.33L560 23.096V-23.092L600 -46.186L640 -23.092V23.096M600 72.666V26.48M600 92.378L577.07 105.616V132.094L600 145.334L622.93 132.094V105.616L600 92.378ZM617.07 36.334V62.81L640 76.048L662.93 62.808V36.332L640 23.092L617.07 36.334Z" stroke="white" stroke-opacity="0.08" stroke-linecap="square"/>
</g>
<g clip-path="url(#clip8_1428_3103)">
<path d="M2 118.856H0V120.856H2V118.856Z" fill="white" fill-opacity="0.08"/>
<path d="M0 260.806V214.618M0 194.906L22.93 181.666V105.618L40 92.3759L17.07 105.618V132.094L40 145.336M40 191.522L0 214.616M0 214.616V260.804M0 260.804L40 283.9L80 260.804V214.616M80 214.616L40 191.522M40 191.522L80 214.62M0 141.95L-22.93 155.188V181.666L0 194.906L22.93 181.666V155.186L0 141.952V95.7639L40 72.6699L80 95.7639V141.952M40 191.522V145.336M40 211.234L17.07 224.472V250.95L40 264.19L62.93 250.95V224.472L40 211.234ZM57.07 155.19V181.666L80 194.904L102.93 181.664V155.188L80 141.948L57.07 155.19Z" stroke="white" stroke-opacity="0.08" stroke-linecap="square"/>
</g>
<g clip-path="url(#clip9_1428_3103)">
<path d="M82 118.856H80V120.856H82V118.856Z" fill="white" fill-opacity="0.08"/>
<path d="M80 260.806V214.618M80 194.906L102.93 181.666V105.618L120 92.3759L97.07 105.618V132.094L120 145.336M120 191.522L80 214.616M80 214.616V260.804M80 260.804L120 283.9L160 260.804V214.616M160 214.616L120 191.522M120 191.522L160 214.62M80 141.95L57.07 155.188V181.666L80 194.906L102.93 181.666V155.186L80 141.952V95.7639L120 72.6699L160 95.7639V141.952M120 191.522V145.336M120 211.234L97.07 224.472V250.95L120 264.19L142.93 250.95V224.472L120 211.234ZM137.07 155.19V181.666L160 194.904L182.93 181.664V155.188L160 141.948L137.07 155.19Z" stroke="white" stroke-opacity="0.08" stroke-linecap="square"/>
</g>
<g clip-path="url(#clip10_1428_3103)">
<path d="M162 118.856H160V120.856H162V118.856Z" fill="white" fill-opacity="0.08"/>
<path d="M160 260.806V214.618M160 194.906L182.93 181.666V105.618L200 92.3759L177.07 105.618V132.094L200 145.336M200 191.522L160 214.616M160 214.616V260.804M160 260.804L200 283.9L240 260.804V214.616M240 214.616L200 191.522M200 191.522L240 214.62M160 141.95L137.07 155.188V181.666L160 194.906L182.93 181.666V155.186L160 141.952V95.7639L200 72.6699L240 95.7639V141.952M200 191.522V145.336M200 211.234L177.07 224.472V250.95L200 264.19L222.93 250.95V224.472L200 211.234ZM217.07 155.19V181.666L240 194.904L262.93 181.664V155.188L240 141.948L217.07 155.19Z" stroke="white" stroke-opacity="0.08" stroke-linecap="square"/>
</g>
<g clip-path="url(#clip11_1428_3103)">
<path d="M242 118.856H240V120.856H242V118.856Z" fill="white" fill-opacity="0.08"/>
<path d="M240 260.806V214.618M240 194.906L262.93 181.666V105.618L280 92.3759L257.07 105.618V132.094L280 145.336M280 191.522L240 214.616M240 214.616V260.804M240 260.804L280 283.9L320 260.804V214.616M320 214.616L280 191.522M280 191.522L320 214.62M240 141.95L217.07 155.188V181.666L240 194.906L262.93 181.666V155.186L240 141.952V95.7639L280 72.6699L320 95.7639V141.952M280 191.522V145.336M280 211.234L257.07 224.472V250.95L280 264.19L302.93 250.95V224.472L280 211.234ZM297.07 155.19V181.666L320 194.904L342.93 181.664V155.188L320 141.948L297.07 155.19Z" stroke="white" stroke-opacity="0.08" stroke-linecap="square"/>
</g>
<g clip-path="url(#clip12_1428_3103)">
<path d="M322 118.856H320V120.856H322V118.856Z" fill="white" fill-opacity="0.08"/>
<path d="M320 260.806V214.618M320 194.906L342.93 181.666V105.618L360 92.3759L337.07 105.618V132.094L360 145.336M360 191.522L320 214.616M320 214.616V260.804M320 260.804L360 283.9L400 260.804V214.616M400 214.616L360 191.522M360 191.522L400 214.62M320 141.95L297.07 155.188V181.666L320 194.906L342.93 181.666V155.186L320 141.952V95.7639L360 72.6699L400 95.7639V141.952M360 191.522V145.336M360 211.234L337.07 224.472V250.95L360 264.19L382.93 250.95V224.472L360 211.234ZM377.07 155.19V181.666L400 194.904L422.93 181.664V155.188L400 141.948L377.07 155.19Z" stroke="white" stroke-opacity="0.08" stroke-linecap="square"/>
</g>
<g clip-path="url(#clip13_1428_3103)">
<path d="M402 118.856H400V120.856H402V118.856Z" fill="white" fill-opacity="0.08"/>
<path d="M400 260.806V214.618M400 194.906L422.93 181.666V105.618L440 92.3759L417.07 105.618V132.094L440 145.336M440 191.522L400 214.616M400 214.616V260.804M400 260.804L440 283.9L480 260.804V214.616M480 214.616L440 191.522M440 191.522L480 214.62M400 141.95L377.07 155.188V181.666L400 194.906L422.93 181.666V155.186L400 141.952V95.7639L440 72.6699L480 95.7639V141.952M440 191.522V145.336M440 211.234L417.07 224.472V250.95L440 264.19L462.93 250.95V224.472L440 211.234ZM457.07 155.19V181.666L480 194.904L502.93 181.664V155.188L480 141.948L457.07 155.19Z" stroke="white" stroke-opacity="0.08" stroke-linecap="square"/>
</g>
<g clip-path="url(#clip14_1428_3103)">
<path d="M482 118.856H480V120.856H482V118.856Z" fill="white" fill-opacity="0.08"/>
<path d="M480 260.806V214.618M480 194.906L502.93 181.666V105.618L520 92.3759L497.07 105.618V132.094L520 145.336M520 191.522L480 214.616M480 214.616V260.804M480 260.804L520 283.9L560 260.804V214.616M560 214.616L520 191.522M520 191.522L560 214.62M480 141.95L457.07 155.188V181.666L480 194.906L502.93 181.666V155.186L480 141.952V95.7639L520 72.6699L560 95.7639V141.952M520 191.522V145.336M520 211.234L497.07 224.472V250.95L520 264.19L542.93 250.95V224.472L520 211.234ZM537.07 155.19V181.666L560 194.904L582.93 181.664V155.188L560 141.948L537.07 155.19Z" stroke="white" stroke-opacity="0.08" stroke-linecap="square"/>
</g>
<g clip-path="url(#clip15_1428_3103)">
<path d="M562 118.856H560V120.856H562V118.856Z" fill="white" fill-opacity="0.08"/>
<path d="M560 260.806V214.618M560 194.906L582.93 181.666V105.618L600 92.3759L577.07 105.618V132.094L600 145.336M600 191.522L560 214.616M560 214.616V260.804M560 260.804L600 283.9L640 260.804V214.616M640 214.616L600 191.522M600 191.522L640 214.62M560 141.95L537.07 155.188V181.666L560 194.906L582.93 181.666V155.186L560 141.952V95.7639L600 72.6699L640 95.7639V141.952M600 191.522V145.336M600 211.234L577.07 224.472V250.95L600 264.19L622.93 250.95V224.472L600 211.234ZM617.07 155.19V181.666L640 194.904L662.93 181.664V155.188L640 141.948L617.07 155.19Z" stroke="white" stroke-opacity="0.08" stroke-linecap="square"/>
</g>
<g clip-path="url(#clip16_1428_3103)">
<path d="M2 237.712H0V239.712H2V237.712Z" fill="white" fill-opacity="0.08"/>
<path d="M0 379.662V333.474M0 313.762L22.93 300.522V224.474L40 211.232L17.07 224.474V250.95L40 264.192M40 310.378L0 333.472M0 333.472V379.66M0 379.66L40 402.756L80 379.66V333.472M80 333.472L40 310.378M40 310.378L80 333.476M0 260.806L-22.93 274.044V300.522L0 313.762L22.93 300.522V274.042L0 260.808V214.62L40 191.526L80 214.62V260.808M40 310.378V264.192M40 330.09L17.07 343.328V369.806L40 383.046L62.93 369.806V343.328L40 330.09ZM57.07 274.046V300.522L80 313.76L102.93 300.52V274.044L80 260.804L57.07 274.046Z" stroke="white" stroke-opacity="0.08" stroke-linecap="square"/>
</g>
<g clip-path="url(#clip17_1428_3103)">
<path d="M82 237.712H80V239.712H82V237.712Z" fill="white" fill-opacity="0.08"/>
<path d="M80 379.662V333.474M80 313.762L102.93 300.522V224.474L120 211.232L97.07 224.474V250.95L120 264.192M120 310.378L80 333.472M80 333.472V379.66M80 379.66L120 402.756L160 379.66V333.472M160 333.472L120 310.378M120 310.378L160 333.476M80 260.806L57.07 274.044V300.522L80 313.762L102.93 300.522V274.042L80 260.808V214.62L120 191.526L160 214.62V260.808M120 310.378V264.192M120 330.09L97.07 343.328V369.806L120 383.046L142.93 369.806V343.328L120 330.09ZM137.07 274.046V300.522L160 313.76L182.93 300.52V274.044L160 260.804L137.07 274.046Z" stroke="white" stroke-opacity="0.08" stroke-linecap="square"/>
</g>
<g clip-path="url(#clip18_1428_3103)">
<path d="M162 237.712H160V239.712H162V237.712Z" fill="white" fill-opacity="0.08"/>
<path d="M160 379.662V333.474M160 313.762L182.93 300.522V224.474L200 211.232L177.07 224.474V250.95L200 264.192M200 310.378L160 333.472M160 333.472V379.66M160 379.66L200 402.756L240 379.66V333.472M240 333.472L200 310.378M200 310.378L240 333.476M160 260.806L137.07 274.044V300.522L160 313.762L182.93 300.522V274.042L160 260.808V214.62L200 191.526L240 214.62V260.808M200 310.378V264.192M200 330.09L177.07 343.328V369.806L200 383.046L222.93 369.806V343.328L200 330.09ZM217.07 274.046V300.522L240 313.76L262.93 300.52V274.044L240 260.804L217.07 274.046Z" stroke="white" stroke-opacity="0.08" stroke-linecap="square"/>
</g>
<g clip-path="url(#clip19_1428_3103)">
<path d="M242 237.712H240V239.712H242V237.712Z" fill="white" fill-opacity="0.08"/>
<path d="M240 379.662V333.474M240 313.762L262.93 300.522V224.474L280 211.232L257.07 224.474V250.95L280 264.192M280 310.378L240 333.472M240 333.472V379.66M240 379.66L280 402.756L320 379.66V333.472M320 333.472L280 310.378M280 310.378L320 333.476M240 260.806L217.07 274.044V300.522L240 313.762L262.93 300.522V274.042L240 260.808V214.62L280 191.526L320 214.62V260.808M280 310.378V264.192M280 330.09L257.07 343.328V369.806L280 383.046L302.93 369.806V343.328L280 330.09ZM297.07 274.046V300.522L320 313.76L342.93 300.52V274.044L320 260.804L297.07 274.046Z" stroke="white" stroke-opacity="0.08" stroke-linecap="square"/>
</g>
<g clip-path="url(#clip20_1428_3103)">
<path d="M322 237.712H320V239.712H322V237.712Z" fill="white" fill-opacity="0.08"/>
<path d="M320 379.662V333.474M320 313.762L342.93 300.522V224.474L360 211.232L337.07 224.474V250.95L360 264.192M360 310.378L320 333.472M320 333.472V379.66M320 379.66L360 402.756L400 379.66V333.472M400 333.472L360 310.378M360 310.378L400 333.476M320 260.806L297.07 274.044V300.522L320 313.762L342.93 300.522V274.042L320 260.808V214.62L360 191.526L400 214.62V260.808M360 310.378V264.192M360 330.09L337.07 343.328V369.806L360 383.046L382.93 369.806V343.328L360 330.09ZM377.07 274.046V300.522L400 313.76L422.93 300.52V274.044L400 260.804L377.07 274.046Z" stroke="white" stroke-opacity="0.08" stroke-linecap="square"/>
</g>
<g clip-path="url(#clip21_1428_3103)">
<path d="M402 237.712H400V239.712H402V237.712Z" fill="white" fill-opacity="0.08"/>
<path d="M400 379.662V333.474M400 313.762L422.93 300.522V224.474L440 211.232L417.07 224.474V250.95L440 264.192M440 310.378L400 333.472M400 333.472V379.66M400 379.66L440 402.756L480 379.66V333.472M480 333.472L440 310.378M440 310.378L480 333.476M400 260.806L377.07 274.044V300.522L400 313.762L422.93 300.522V274.042L400 260.808V214.62L440 191.526L480 214.62V260.808M440 310.378V264.192M440 330.09L417.07 343.328V369.806L440 383.046L462.93 369.806V343.328L440 330.09ZM457.07 274.046V300.522L480 313.76L502.93 300.52V274.044L480 260.804L457.07 274.046Z" stroke="white" stroke-opacity="0.08" stroke-linecap="square"/>
</g>
<g clip-path="url(#clip22_1428_3103)">
<path d="M482 237.712H480V239.712H482V237.712Z" fill="white" fill-opacity="0.08"/>
<path d="M480 379.662V333.474M480 313.762L502.93 300.522V224.474L520 211.232L497.07 224.474V250.95L520 264.192M520 310.378L480 333.472M480 333.472V379.66M480 379.66L520 402.756L560 379.66V333.472M560 333.472L520 310.378M520 310.378L560 333.476M480 260.806L457.07 274.044V300.522L480 313.762L502.93 300.522V274.042L480 260.808V214.62L520 191.526L560 214.62V260.808M520 310.378V264.192M520 330.09L497.07 343.328V369.806L520 383.046L542.93 369.806V343.328L520 330.09ZM537.07 274.046V300.522L560 313.76L582.93 300.52V274.044L560 260.804L537.07 274.046Z" stroke="white" stroke-opacity="0.08" stroke-linecap="square"/>
</g>
<g clip-path="url(#clip23_1428_3103)">
<path d="M562 237.712H560V239.712H562V237.712Z" fill="white" fill-opacity="0.08"/>
<path d="M560 379.662V333.474M560 313.762L582.93 300.522V224.474L600 211.232L577.07 224.474V250.95L600 264.192M600 310.378L560 333.472M560 333.472V379.66M560 379.66L600 402.756L640 379.66V333.472M640 333.472L600 310.378M600 310.378L640 333.476M560 260.806L537.07 274.044V300.522L560 313.762L582.93 300.522V274.042L560 260.808V214.62L600 191.526L640 214.62V260.808M600 310.378V264.192M600 330.09L577.07 343.328V369.806L600 383.046L622.93 369.806V343.328L600 330.09ZM617.07 274.046V300.522L640 313.76L662.93 300.52V274.044L640 260.804L617.07 274.046Z" stroke="white" stroke-opacity="0.08" stroke-linecap="square"/>
</g>
<g clip-path="url(#clip24_1428_3103)">
<path d="M2 356.568H0V358.568H2V356.568Z" fill="white" fill-opacity="0.08"/>
<path d="M0 498.518V452.33M0 432.618L22.93 419.378V343.33L40 330.088L17.07 343.33V369.806L40 383.048M40 429.234L0 452.328M0 452.328V498.516M0 498.516L40 521.612L80 498.516V452.328M80 452.328L40 429.234M40 429.234L80 452.332M0 379.662L-22.93 392.9V419.378L0 432.618L22.93 419.378V392.898L0 379.664V333.476L40 310.382L80 333.476V379.664M40 429.234V383.048M40 448.946L17.07 462.184V488.662L40 501.902L62.93 488.662V462.184L40 448.946ZM57.07 392.902V419.378L80 432.616L102.93 419.376V392.9L80 379.66L57.07 392.902Z" stroke="white" stroke-opacity="0.08" stroke-linecap="square"/>
</g>
<g clip-path="url(#clip25_1428_3103)">
<path d="M82 356.568H80V358.568H82V356.568Z" fill="white" fill-opacity="0.08"/>
<path d="M80 498.518V452.33M80 432.618L102.93 419.378V343.33L120 330.088L97.07 343.33V369.806L120 383.048M120 429.234L80 452.328M80 452.328V498.516M80 498.516L120 521.612L160 498.516V452.328M160 452.328L120 429.234M120 429.234L160 452.332M80 379.662L57.07 392.9V419.378L80 432.618L102.93 419.378V392.898L80 379.664V333.476L120 310.382L160 333.476V379.664M120 429.234V383.048M120 448.946L97.07 462.184V488.662L120 501.902L142.93 488.662V462.184L120 448.946ZM137.07 392.902V419.378L160 432.616L182.93 419.376V392.9L160 379.66L137.07 392.902Z" stroke="white" stroke-opacity="0.08" stroke-linecap="square"/>
</g>
<g clip-path="url(#clip26_1428_3103)">
<path d="M162 356.568H160V358.568H162V356.568Z" fill="white" fill-opacity="0.08"/>
<path d="M160 498.518V452.33M160 432.618L182.93 419.378V343.33L200 330.088L177.07 343.33V369.806L200 383.048M200 429.234L160 452.328M160 452.328V498.516M160 498.516L200 521.612L240 498.516V452.328M240 452.328L200 429.234M200 429.234L240 452.332M160 379.662L137.07 392.9V419.378L160 432.618L182.93 419.378V392.898L160 379.664V333.476L200 310.382L240 333.476V379.664M200 429.234V383.048M200 448.946L177.07 462.184V488.662L200 501.902L222.93 488.662V462.184L200 448.946ZM217.07 392.902V419.378L240 432.616L262.93 419.376V392.9L240 379.66L217.07 392.902Z" stroke="white" stroke-opacity="0.08" stroke-linecap="square"/>
</g>
<g clip-path="url(#clip27_1428_3103)">
<path d="M242 356.568H240V358.568H242V356.568Z" fill="white" fill-opacity="0.08"/>
<path d="M240 498.518V452.33M240 432.618L262.93 419.378V343.33L280 330.088L257.07 343.33V369.806L280 383.048M280 429.234L240 452.328M240 452.328V498.516M240 498.516L280 521.612L320 498.516V452.328M320 452.328L280 429.234M280 429.234L320 452.332M240 379.662L217.07 392.9V419.378L240 432.618L262.93 419.378V392.898L240 379.664V333.476L280 310.382L320 333.476V379.664M280 429.234V383.048M280 448.946L257.07 462.184V488.662L280 501.902L302.93 488.662V462.184L280 448.946ZM297.07 392.902V419.378L320 432.616L342.93 419.376V392.9L320 379.66L297.07 392.902Z" stroke="white" stroke-opacity="0.08" stroke-linecap="square"/>
</g>
<g clip-path="url(#clip28_1428_3103)">
<path d="M322 356.568H320V358.568H322V356.568Z" fill="white" fill-opacity="0.08"/>
<path d="M320 498.518V452.33M320 432.618L342.93 419.378V343.33L360 330.088L337.07 343.33V369.806L360 383.048M360 429.234L320 452.328M320 452.328V498.516M320 498.516L360 521.612L400 498.516V452.328M400 452.328L360 429.234M360 429.234L400 452.332M320 379.662L297.07 392.9V419.378L320 432.618L342.93 419.378V392.898L320 379.664V333.476L360 310.382L400 333.476V379.664M360 429.234V383.048M360 448.946L337.07 462.184V488.662L360 501.902L382.93 488.662V462.184L360 448.946ZM377.07 392.902V419.378L400 432.616L422.93 419.376V392.9L400 379.66L377.07 392.902Z" stroke="white" stroke-opacity="0.08" stroke-linecap="square"/>
</g>
<g clip-path="url(#clip29_1428_3103)">
<path d="M402 356.568H400V358.568H402V356.568Z" fill="white" fill-opacity="0.08"/>
<path d="M400 498.518V452.33M400 432.618L422.93 419.378V343.33L440 330.088L417.07 343.33V369.806L440 383.048M440 429.234L400 452.328M400 452.328V498.516M400 498.516L440 521.612L480 498.516V452.328M480 452.328L440 429.234M440 429.234L480 452.332M400 379.662L377.07 392.9V419.378L400 432.618L422.93 419.378V392.898L400 379.664V333.476L440 310.382L480 333.476V379.664M440 429.234V383.048M440 448.946L417.07 462.184V488.662L440 501.902L462.93 488.662V462.184L440 448.946ZM457.07 392.902V419.378L480 432.616L502.93 419.376V392.9L480 379.66L457.07 392.902Z" stroke="white" stroke-opacity="0.08" stroke-linecap="square"/>
</g>
<g clip-path="url(#clip30_1428_3103)">
<path d="M482 356.568H480V358.568H482V356.568Z" fill="white" fill-opacity="0.08"/>
<path d="M480 498.518V452.33M480 432.618L502.93 419.378V343.33L520 330.088L497.07 343.33V369.806L520 383.048M520 429.234L480 452.328M480 452.328V498.516M480 498.516L520 521.612L560 498.516V452.328M560 452.328L520 429.234M520 429.234L560 452.332M480 379.662L457.07 392.9V419.378L480 432.618L502.93 419.378V392.898L480 379.664V333.476L520 310.382L560 333.476V379.664M520 429.234V383.048M520 448.946L497.07 462.184V488.662L520 501.902L542.93 488.662V462.184L520 448.946ZM537.07 392.902V419.378L560 432.616L582.93 419.376V392.9L560 379.66L537.07 392.902Z" stroke="white" stroke-opacity="0.08" stroke-linecap="square"/>
</g>
<g clip-path="url(#clip31_1428_3103)">
<path d="M562 356.568H560V358.568H562V356.568Z" fill="white" fill-opacity="0.08"/>
<path d="M560 498.518V452.33M560 432.618L582.93 419.378V343.33L600 330.088L577.07 343.33V369.806L600 383.048M600 429.234L560 452.328M560 452.328V498.516M560 498.516L600 521.612L640 498.516V452.328M640 452.328L600 429.234M600 429.234L640 452.332M560 379.662L537.07 392.9V419.378L560 432.618L582.93 419.378V392.898L560 379.664V333.476L600 310.382L640 333.476V379.664M600 429.234V383.048M600 448.946L577.07 462.184V488.662L600 501.902L622.93 488.662V462.184L600 448.946ZM617.07 392.902V419.378L640 432.616L662.93 419.376V392.9L640 379.66L617.07 392.902Z" stroke="white" stroke-opacity="0.08" stroke-linecap="square"/>
</g>
<g clip-path="url(#clip32_1428_3103)">
<path d="M2 475.424H0V477.424H2V475.424Z" fill="white" fill-opacity="0.08"/>
<path d="M0 617.374V571.186M0 551.474L22.93 538.234V462.186L40 448.944L17.07 462.186V488.662L40 501.904M40 548.09L0 571.184M0 571.184V617.372M0 617.372L40 640.468L80 617.372V571.184M80 571.184L40 548.09M40 548.09L80 571.188M0 498.518L-22.93 511.756V538.234L0 551.474L22.93 538.234V511.754L0 498.52V452.332L40 429.238L80 452.332V498.52M40 548.09V501.904M40 567.802L17.07 581.04V607.518L40 620.758L62.93 607.518V581.04L40 567.802ZM57.07 511.758V538.234L80 551.472L102.93 538.232V511.756L80 498.516L57.07 511.758Z" stroke="white" stroke-opacity="0.08" stroke-linecap="square"/>
</g>
<g clip-path="url(#clip33_1428_3103)">
<path d="M82 475.424H80V477.424H82V475.424Z" fill="white" fill-opacity="0.08"/>
<path d="M80 617.374V571.186M80 551.474L102.93 538.234V462.186L120 448.944L97.07 462.186V488.662L120 501.904M120 548.09L80 571.184M80 571.184V617.372M80 617.372L120 640.468L160 617.372V571.184M160 571.184L120 548.09M120 548.09L160 571.188M80 498.518L57.07 511.756V538.234L80 551.474L102.93 538.234V511.754L80 498.52V452.332L120 429.238L160 452.332V498.52M120 548.09V501.904M120 567.802L97.07 581.04V607.518L120 620.758L142.93 607.518V581.04L120 567.802ZM137.07 511.758V538.234L160 551.472L182.93 538.232V511.756L160 498.516L137.07 511.758Z" stroke="white" stroke-opacity="0.08" stroke-linecap="square"/>
</g>
<g clip-path="url(#clip34_1428_3103)">
<path d="M162 475.424H160V477.424H162V475.424Z" fill="white" fill-opacity="0.08"/>
<path d="M160 617.374V571.186M160 551.474L182.93 538.234V462.186L200 448.944L177.07 462.186V488.662L200 501.904M200 548.09L160 571.184M160 571.184V617.372M160 617.372L200 640.468L240 617.372V571.184M240 571.184L200 548.09M200 548.09L240 571.188M160 498.518L137.07 511.756V538.234L160 551.474L182.93 538.234V511.754L160 498.52V452.332L200 429.238L240 452.332V498.52M200 548.09V501.904M200 567.802L177.07 581.04V607.518L200 620.758L222.93 607.518V581.04L200 567.802ZM217.07 511.758V538.234L240 551.472L262.93 538.232V511.756L240 498.516L217.07 511.758Z" stroke="white" stroke-opacity="0.08" stroke-linecap="square"/>
</g>
<g clip-path="url(#clip35_1428_3103)">
<path d="M242 475.424H240V477.424H242V475.424Z" fill="white" fill-opacity="0.08"/>
<path d="M240 617.374V571.186M240 551.474L262.93 538.234V462.186L280 448.944L257.07 462.186V488.662L280 501.904M280 548.09L240 571.184M240 571.184V617.372M240 617.372L280 640.468L320 617.372V571.184M320 571.184L280 548.09M280 548.09L320 571.188M240 498.518L217.07 511.756V538.234L240 551.474L262.93 538.234V511.754L240 498.52V452.332L280 429.238L320 452.332V498.52M280 548.09V501.904M280 567.802L257.07 581.04V607.518L280 620.758L302.93 607.518V581.04L280 567.802ZM297.07 511.758V538.234L320 551.472L342.93 538.232V511.756L320 498.516L297.07 511.758Z" stroke="white" stroke-opacity="0.08" stroke-linecap="square"/>
</g>
<g clip-path="url(#clip36_1428_3103)">
<path d="M322 475.424H320V477.424H322V475.424Z" fill="white" fill-opacity="0.08"/>
<path d="M320 617.374V571.186M320 551.474L342.93 538.234V462.186L360 448.944L337.07 462.186V488.662L360 501.904M360 548.09L320 571.184M320 571.184V617.372M320 617.372L360 640.468L400 617.372V571.184M400 571.184L360 548.09M360 548.09L400 571.188M320 498.518L297.07 511.756V538.234L320 551.474L342.93 538.234V511.754L320 498.52V452.332L360 429.238L400 452.332V498.52M360 548.09V501.904M360 567.802L337.07 581.04V607.518L360 620.758L382.93 607.518V581.04L360 567.802ZM377.07 511.758V538.234L400 551.472L422.93 538.232V511.756L400 498.516L377.07 511.758Z" stroke="white" stroke-opacity="0.08" stroke-linecap="square"/>
</g>
<g clip-path="url(#clip37_1428_3103)">
<path d="M402 475.424H400V477.424H402V475.424Z" fill="white" fill-opacity="0.08"/>
<path d="M400 617.374V571.186M400 551.474L422.93 538.234V462.186L440 448.944L417.07 462.186V488.662L440 501.904M440 548.09L400 571.184M400 571.184V617.372M400 617.372L440 640.468L480 617.372V571.184M480 571.184L440 548.09M440 548.09L480 571.188M400 498.518L377.07 511.756V538.234L400 551.474L422.93 538.234V511.754L400 498.52V452.332L440 429.238L480 452.332V498.52M440 548.09V501.904M440 567.802L417.07 581.04V607.518L440 620.758L462.93 607.518V581.04L440 567.802ZM457.07 511.758V538.234L480 551.472L502.93 538.232V511.756L480 498.516L457.07 511.758Z" stroke="white" stroke-opacity="0.08" stroke-linecap="square"/>
</g>
<g clip-path="url(#clip38_1428_3103)">
<path d="M482 475.424H480V477.424H482V475.424Z" fill="white" fill-opacity="0.08"/>
<path d="M480 617.374V571.186M480 551.474L502.93 538.234V462.186L520 448.944L497.07 462.186V488.662L520 501.904M520 548.09L480 571.184M480 571.184V617.372M480 617.372L520 640.468L560 617.372V571.184M560 571.184L520 548.09M520 548.09L560 571.188M480 498.518L457.07 511.756V538.234L480 551.474L502.93 538.234V511.754L480 498.52V452.332L520 429.238L560 452.332V498.52M520 548.09V501.904M520 567.802L497.07 581.04V607.518L520 620.758L542.93 607.518V581.04L520 567.802ZM537.07 511.758V538.234L560 551.472L582.93 538.232V511.756L560 498.516L537.07 511.758Z" stroke="white" stroke-opacity="0.08" stroke-linecap="square"/>
</g>
<g clip-path="url(#clip39_1428_3103)">
<path d="M562 475.424H560V477.424H562V475.424Z" fill="white" fill-opacity="0.08"/>
<path d="M560 617.374V571.186M560 551.474L582.93 538.234V462.186L600 448.944L577.07 462.186V488.662L600 501.904M600 548.09L560 571.184M560 571.184V617.372M560 617.372L600 640.468L640 617.372V571.184M640 571.184L600 548.09M600 548.09L640 571.188M560 498.518L537.07 511.756V538.234L560 551.474L582.93 538.234V511.754L560 498.52V452.332L600 429.238L640 452.332V498.52M600 548.09V501.904M600 567.802L577.07 581.04V607.518L600 620.758L622.93 607.518V581.04L600 567.802ZM617.07 511.758V538.234L640 551.472L662.93 538.232V511.756L640 498.516L617.07 511.758Z" stroke="white" stroke-opacity="0.08" stroke-linecap="square"/>
</g>
<g clip-path="url(#clip40_1428_3103)">
<path d="M2 594.28H0V596.28H2V594.28Z" fill="white" fill-opacity="0.08"/>
<path d="M0 736.23V690.042M0 670.33L22.93 657.09V581.042L40 567.8L17.07 581.042V607.518L40 620.76M40 666.946L0 690.04M0 690.04V736.228M0 736.228L40 759.324L80 736.228V690.04M80 690.04L40 666.946M40 666.946L80 690.044M0 617.374L-22.93 630.612V657.09L0 670.33L22.93 657.09V630.61L0 617.376V571.188L40 548.094L80 571.188V617.376M40 666.946V620.76M40 686.658L17.07 699.896V726.374L40 739.614L62.93 726.374V699.896L40 686.658ZM57.07 630.614V657.09L80 670.328L102.93 657.088V630.612L80 617.372L57.07 630.614Z" stroke="white" stroke-opacity="0.08" stroke-linecap="square"/>
</g>
<g clip-path="url(#clip41_1428_3103)">
<path d="M82 594.28H80V596.28H82V594.28Z" fill="white" fill-opacity="0.08"/>
<path d="M80 736.23V690.042M80 670.33L102.93 657.09V581.042L120 567.8L97.07 581.042V607.518L120 620.76M120 666.946L80 690.04M80 690.04V736.228M80 736.228L120 759.324L160 736.228V690.04M160 690.04L120 666.946M120 666.946L160 690.044M80 617.374L57.07 630.612V657.09L80 670.33L102.93 657.09V630.61L80 617.376V571.188L120 548.094L160 571.188V617.376M120 666.946V620.76M120 686.658L97.07 699.896V726.374L120 739.614L142.93 726.374V699.896L120 686.658ZM137.07 630.614V657.09L160 670.328L182.93 657.088V630.612L160 617.372L137.07 630.614Z" stroke="white" stroke-opacity="0.08" stroke-linecap="square"/>
</g>
<g clip-path="url(#clip42_1428_3103)">
<path d="M162 594.28H160V596.28H162V594.28Z" fill="white" fill-opacity="0.08"/>
<path d="M160 736.23V690.042M160 670.33L182.93 657.09V581.042L200 567.8L177.07 581.042V607.518L200 620.76M200 666.946L160 690.04M160 690.04V736.228M160 736.228L200 759.324L240 736.228V690.04M240 690.04L200 666.946M200 666.946L240 690.044M160 617.374L137.07 630.612V657.09L160 670.33L182.93 657.09V630.61L160 617.376V571.188L200 548.094L240 571.188V617.376M200 666.946V620.76M200 686.658L177.07 699.896V726.374L200 739.614L222.93 726.374V699.896L200 686.658ZM217.07 630.614V657.09L240 670.328L262.93 657.088V630.612L240 617.372L217.07 630.614Z" stroke="white" stroke-opacity="0.08" stroke-linecap="square"/>
</g>
<g clip-path="url(#clip43_1428_3103)">
<path d="M242 594.28H240V596.28H242V594.28Z" fill="white" fill-opacity="0.08"/>
<path d="M240 736.23V690.042M240 670.33L262.93 657.09V581.042L280 567.8L257.07 581.042V607.518L280 620.76M280 666.946L240 690.04M240 690.04V736.228M240 736.228L280 759.324L320 736.228V690.04M320 690.04L280 666.946M280 666.946L320 690.044M240 617.374L217.07 630.612V657.09L240 670.33L262.93 657.09V630.61L240 617.376V571.188L280 548.094L320 571.188V617.376M280 666.946V620.76M280 686.658L257.07 699.896V726.374L280 739.614L302.93 726.374V699.896L280 686.658ZM297.07 630.614V657.09L320 670.328L342.93 657.088V630.612L320 617.372L297.07 630.614Z" stroke="white" stroke-opacity="0.08" stroke-linecap="square"/>
</g>
<g clip-path="url(#clip44_1428_3103)">
<path d="M322 594.28H320V596.28H322V594.28Z" fill="white" fill-opacity="0.08"/>
<path d="M320 736.23V690.042M320 670.33L342.93 657.09V581.042L360 567.8L337.07 581.042V607.518L360 620.76M360 666.946L320 690.04M320 690.04V736.228M320 736.228L360 759.324L400 736.228V690.04M400 690.04L360 666.946M360 666.946L400 690.044M320 617.374L297.07 630.612V657.09L320 670.33L342.93 657.09V630.61L320 617.376V571.188L360 548.094L400 571.188V617.376M360 666.946V620.76M360 686.658L337.07 699.896V726.374L360 739.614L382.93 726.374V699.896L360 686.658ZM377.07 630.614V657.09L400 670.328L422.93 657.088V630.612L400 617.372L377.07 630.614Z" stroke="white" stroke-opacity="0.08" stroke-linecap="square"/>
</g>
<g clip-path="url(#clip45_1428_3103)">
<path d="M402 594.28H400V596.28H402V594.28Z" fill="white" fill-opacity="0.08"/>
<path d="M400 736.23V690.042M400 670.33L422.93 657.09V581.042L440 567.8L417.07 581.042V607.518L440 620.76M440 666.946L400 690.04M400 690.04V736.228M400 736.228L440 759.324L480 736.228V690.04M480 690.04L440 666.946M440 666.946L480 690.044M400 617.374L377.07 630.612V657.09L400 670.33L422.93 657.09V630.61L400 617.376V571.188L440 548.094L480 571.188V617.376M440 666.946V620.76M440 686.658L417.07 699.896V726.374L440 739.614L462.93 726.374V699.896L440 686.658ZM457.07 630.614V657.09L480 670.328L502.93 657.088V630.612L480 617.372L457.07 630.614Z" stroke="white" stroke-opacity="0.08" stroke-linecap="square"/>
</g>
<g clip-path="url(#clip46_1428_3103)">
<path d="M482 594.28H480V596.28H482V594.28Z" fill="white" fill-opacity="0.08"/>
<path d="M480 736.23V690.042M480 670.33L502.93 657.09V581.042L520 567.8L497.07 581.042V607.518L520 620.76M520 666.946L480 690.04M480 690.04V736.228M480 736.228L520 759.324L560 736.228V690.04M560 690.04L520 666.946M520 666.946L560 690.044M480 617.374L457.07 630.612V657.09L480 670.33L502.93 657.09V630.61L480 617.376V571.188L520 548.094L560 571.188V617.376M520 666.946V620.76M520 686.658L497.07 699.896V726.374L520 739.614L542.93 726.374V699.896L520 686.658ZM537.07 630.614V657.09L560 670.328L582.93 657.088V630.612L560 617.372L537.07 630.614Z" stroke="white" stroke-opacity="0.08" stroke-linecap="square"/>
</g>
<g clip-path="url(#clip47_1428_3103)">
<path d="M562 594.28H560V596.28H562V594.28Z" fill="white" fill-opacity="0.08"/>
<path d="M560 736.23V690.042M560 670.33L582.93 657.09V581.042L600 567.8L577.07 581.042V607.518L600 620.76M600 666.946L560 690.04M560 690.04V736.228M560 736.228L600 759.324L640 736.228V690.04M640 690.04L600 666.946M600 666.946L640 690.044M560 617.374L537.07 630.612V657.09L560 670.33L582.93 657.09V630.61L560 617.376V571.188L600 548.094L640 571.188V617.376M600 666.946V620.76M600 686.658L577.07 699.896V726.374L600 739.614L622.93 726.374V699.896L600 686.658ZM617.07 630.614V657.09L640 670.328L662.93 657.088V630.612L640 617.372L617.07 630.614Z" stroke="white" stroke-opacity="0.08" stroke-linecap="square"/>
</g>
<g clip-path="url(#clip48_1428_3103)">
<path d="M2 713.136H0V715.136H2V713.136Z" fill="white" fill-opacity="0.08"/>
<path d="M0 855.086V808.898M0 789.186L22.93 775.946V699.898L40 686.656L17.07 699.898V726.374L40 739.616M40 785.802L0 808.896M0 808.896V855.084M0 855.084L40 878.18L80 855.084V808.896M80 808.896L40 785.802M40 785.802L80 808.9M0 736.23L-22.93 749.468V775.946L0 789.186L22.93 775.946V749.466L0 736.232V690.044L40 666.95L80 690.044V736.232M40 785.802V739.616M40 805.514L17.07 818.752V845.23L40 858.47L62.93 845.23V818.752L40 805.514ZM57.07 749.47V775.946L80 789.184L102.93 775.944V749.468L80 736.228L57.07 749.47Z" stroke="white" stroke-opacity="0.08" stroke-linecap="square"/>
</g>
<g clip-path="url(#clip49_1428_3103)">
<path d="M82 713.136H80V715.136H82V713.136Z" fill="white" fill-opacity="0.08"/>
<path d="M80 855.086V808.898M80 789.186L102.93 775.946V699.898L120 686.656L97.07 699.898V726.374L120 739.616M120 785.802L80 808.896M80 808.896V855.084M80 855.084L120 878.18L160 855.084V808.896M160 808.896L120 785.802M120 785.802L160 808.9M80 736.23L57.07 749.468V775.946L80 789.186L102.93 775.946V749.466L80 736.232V690.044L120 666.95L160 690.044V736.232M120 785.802V739.616M120 805.514L97.07 818.752V845.23L120 858.47L142.93 845.23V818.752L120 805.514ZM137.07 749.47V775.946L160 789.184L182.93 775.944V749.468L160 736.228L137.07 749.47Z" stroke="white" stroke-opacity="0.08" stroke-linecap="square"/>
</g>
<g clip-path="url(#clip50_1428_3103)">
<path d="M162 713.136H160V715.136H162V713.136Z" fill="white" fill-opacity="0.08"/>
<path d="M160 855.086V808.898M160 789.186L182.93 775.946V699.898L200 686.656L177.07 699.898V726.374L200 739.616M200 785.802L160 808.896M160 808.896V855.084M160 855.084L200 878.18L240 855.084V808.896M240 808.896L200 785.802M200 785.802L240 808.9M160 736.23L137.07 749.468V775.946L160 789.186L182.93 775.946V749.466L160 736.232V690.044L200 666.95L240 690.044V736.232M200 785.802V739.616M200 805.514L177.07 818.752V845.23L200 858.47L222.93 845.23V818.752L200 805.514ZM217.07 749.47V775.946L240 789.184L262.93 775.944V749.468L240 736.228L217.07 749.47Z" stroke="white" stroke-opacity="0.08" stroke-linecap="square"/>
</g>
<g clip-path="url(#clip51_1428_3103)">
<path d="M242 713.136H240V715.136H242V713.136Z" fill="white" fill-opacity="0.08"/>
<path d="M240 855.086V808.898M240 789.186L262.93 775.946V699.898L280 686.656L257.07 699.898V726.374L280 739.616M280 785.802L240 808.896M240 808.896V855.084M240 855.084L280 878.18L320 855.084V808.896M320 808.896L280 785.802M280 785.802L320 808.9M240 736.23L217.07 749.468V775.946L240 789.186L262.93 775.946V749.466L240 736.232V690.044L280 666.95L320 690.044V736.232M280 785.802V739.616M280 805.514L257.07 818.752V845.23L280 858.47L302.93 845.23V818.752L280 805.514ZM297.07 749.47V775.946L320 789.184L342.93 775.944V749.468L320 736.228L297.07 749.47Z" stroke="white" stroke-opacity="0.08" stroke-linecap="square"/>
</g>
<g clip-path="url(#clip52_1428_3103)">
<path d="M322 713.136H320V715.136H322V713.136Z" fill="white" fill-opacity="0.08"/>
<path d="M320 855.086V808.898M320 789.186L342.93 775.946V699.898L360 686.656L337.07 699.898V726.374L360 739.616M360 785.802L320 808.896M320 808.896V855.084M320 855.084L360 878.18L400 855.084V808.896M400 808.896L360 785.802M360 785.802L400 808.9M320 736.23L297.07 749.468V775.946L320 789.186L342.93 775.946V749.466L320 736.232V690.044L360 666.95L400 690.044V736.232M360 785.802V739.616M360 805.514L337.07 818.752V845.23L360 858.47L382.93 845.23V818.752L360 805.514ZM377.07 749.47V775.946L400 789.184L422.93 775.944V749.468L400 736.228L377.07 749.47Z" stroke="white" stroke-opacity="0.08" stroke-linecap="square"/>
</g>
<g clip-path="url(#clip53_1428_3103)">
<path d="M402 713.136H400V715.136H402V713.136Z" fill="white" fill-opacity="0.08"/>
<path d="M400 855.086V808.898M400 789.186L422.93 775.946V699.898L440 686.656L417.07 699.898V726.374L440 739.616M440 785.802L400 808.896M400 808.896V855.084M400 855.084L440 878.18L480 855.084V808.896M480 808.896L440 785.802M440 785.802L480 808.9M400 736.23L377.07 749.468V775.946L400 789.186L422.93 775.946V749.466L400 736.232V690.044L440 666.95L480 690.044V736.232M440 785.802V739.616M440 805.514L417.07 818.752V845.23L440 858.47L462.93 845.23V818.752L440 805.514ZM457.07 749.47V775.946L480 789.184L502.93 775.944V749.468L480 736.228L457.07 749.47Z" stroke="white" stroke-opacity="0.08" stroke-linecap="square"/>
</g>
<g clip-path="url(#clip54_1428_3103)">
<path d="M482 713.136H480V715.136H482V713.136Z" fill="white" fill-opacity="0.08"/>
<path d="M480 855.086V808.898M480 789.186L502.93 775.946V699.898L520 686.656L497.07 699.898V726.374L520 739.616M520 785.802L480 808.896M480 808.896V855.084M480 855.084L520 878.18L560 855.084V808.896M560 808.896L520 785.802M520 785.802L560 808.9M480 736.23L457.07 749.468V775.946L480 789.186L502.93 775.946V749.466L480 736.232V690.044L520 666.95L560 690.044V736.232M520 785.802V739.616M520 805.514L497.07 818.752V845.23L520 858.47L542.93 845.23V818.752L520 805.514ZM537.07 749.47V775.946L560 789.184L582.93 775.944V749.468L560 736.228L537.07 749.47Z" stroke="white" stroke-opacity="0.08" stroke-linecap="square"/>
</g>
<g clip-path="url(#clip55_1428_3103)">
<path d="M562 713.136H560V715.136H562V713.136Z" fill="white" fill-opacity="0.08"/>
<path d="M560 855.086V808.898M560 789.186L582.93 775.946V699.898L600 686.656L577.07 699.898V726.374L600 739.616M600 785.802L560 808.896M560 808.896V855.084M560 855.084L600 878.18L640 855.084V808.896M640 808.896L600 785.802M600 785.802L640 808.9M560 736.23L537.07 749.468V775.946L560 789.186L582.93 775.946V749.466L560 736.232V690.044L600 666.95L640 690.044V736.232M600 785.802V739.616M600 805.514L577.07 818.752V845.23L600 858.47L622.93 845.23V818.752L600 805.514ZM617.07 749.47V775.946L640 789.184L662.93 775.944V749.468L640 736.228L617.07 749.47Z" stroke="white" stroke-opacity="0.08" stroke-linecap="square"/>
</g>
<defs>
<clipPath id="clip0_1428_3103">
<rect width="80" height="118.856" fill="white"/>
</clipPath>
<clipPath id="clip1_1428_3103">
<rect width="80" height="118.856" fill="white" transform="translate(80)"/>
</clipPath>
<clipPath id="clip2_1428_3103">
<rect width="80" height="118.856" fill="white" transform="translate(160)"/>
</clipPath>
<clipPath id="clip3_1428_3103">
<rect width="80" height="118.856" fill="white" transform="translate(240)"/>
</clipPath>
<clipPath id="clip4_1428_3103">
<rect width="80" height="118.856" fill="white" transform="translate(320)"/>
</clipPath>
<clipPath id="clip5_1428_3103">
<rect width="80" height="118.856" fill="white" transform="translate(400)"/>
</clipPath>
<clipPath id="clip6_1428_3103">
<rect width="80" height="118.856" fill="white" transform="translate(480)"/>
</clipPath>
<clipPath id="clip7_1428_3103">
<rect width="80" height="118.856" fill="white" transform="translate(560)"/>
</clipPath>
<clipPath id="clip8_1428_3103">
<rect width="80" height="118.856" fill="white" transform="translate(0 118.856)"/>
</clipPath>
<clipPath id="clip9_1428_3103">
<rect width="80" height="118.856" fill="white" transform="translate(80 118.856)"/>
</clipPath>
<clipPath id="clip10_1428_3103">
<rect width="80" height="118.856" fill="white" transform="translate(160 118.856)"/>
</clipPath>
<clipPath id="clip11_1428_3103">
<rect width="80" height="118.856" fill="white" transform="translate(240 118.856)"/>
</clipPath>
<clipPath id="clip12_1428_3103">
<rect width="80" height="118.856" fill="white" transform="translate(320 118.856)"/>
</clipPath>
<clipPath id="clip13_1428_3103">
<rect width="80" height="118.856" fill="white" transform="translate(400 118.856)"/>
</clipPath>
<clipPath id="clip14_1428_3103">
<rect width="80" height="118.856" fill="white" transform="translate(480 118.856)"/>
</clipPath>
<clipPath id="clip15_1428_3103">
<rect width="80" height="118.856" fill="white" transform="translate(560 118.856)"/>
</clipPath>
<clipPath id="clip16_1428_3103">
<rect width="80" height="118.856" fill="white" transform="translate(0 237.712)"/>
</clipPath>
<clipPath id="clip17_1428_3103">
<rect width="80" height="118.856" fill="white" transform="translate(80 237.712)"/>
</clipPath>
<clipPath id="clip18_1428_3103">
<rect width="80" height="118.856" fill="white" transform="translate(160 237.712)"/>
</clipPath>
<clipPath id="clip19_1428_3103">
<rect width="80" height="118.856" fill="white" transform="translate(240 237.712)"/>
</clipPath>
<clipPath id="clip20_1428_3103">
<rect width="80" height="118.856" fill="white" transform="translate(320 237.712)"/>
</clipPath>
<clipPath id="clip21_1428_3103">
<rect width="80" height="118.856" fill="white" transform="translate(400 237.712)"/>
</clipPath>
<clipPath id="clip22_1428_3103">
<rect width="80" height="118.856" fill="white" transform="translate(480 237.712)"/>
</clipPath>
<clipPath id="clip23_1428_3103">
<rect width="80" height="118.856" fill="white" transform="translate(560 237.712)"/>
</clipPath>
<clipPath id="clip24_1428_3103">
<rect width="80" height="118.856" fill="white" transform="translate(0 356.568)"/>
</clipPath>
<clipPath id="clip25_1428_3103">
<rect width="80" height="118.856" fill="white" transform="translate(80 356.568)"/>
</clipPath>
<clipPath id="clip26_1428_3103">
<rect width="80" height="118.856" fill="white" transform="translate(160 356.568)"/>
</clipPath>
<clipPath id="clip27_1428_3103">
<rect width="80" height="118.856" fill="white" transform="translate(240 356.568)"/>
</clipPath>
<clipPath id="clip28_1428_3103">
<rect width="80" height="118.856" fill="white" transform="translate(320 356.568)"/>
</clipPath>
<clipPath id="clip29_1428_3103">
<rect width="80" height="118.856" fill="white" transform="translate(400 356.568)"/>
</clipPath>
<clipPath id="clip30_1428_3103">
<rect width="80" height="118.856" fill="white" transform="translate(480 356.568)"/>
</clipPath>
<clipPath id="clip31_1428_3103">
<rect width="80" height="118.856" fill="white" transform="translate(560 356.568)"/>
</clipPath>
<clipPath id="clip32_1428_3103">
<rect width="80" height="118.856" fill="white" transform="translate(0 475.424)"/>
</clipPath>
<clipPath id="clip33_1428_3103">
<rect width="80" height="118.856" fill="white" transform="translate(80 475.424)"/>
</clipPath>
<clipPath id="clip34_1428_3103">
<rect width="80" height="118.856" fill="white" transform="translate(160 475.424)"/>
</clipPath>
<clipPath id="clip35_1428_3103">
<rect width="80" height="118.856" fill="white" transform="translate(240 475.424)"/>
</clipPath>
<clipPath id="clip36_1428_3103">
<rect width="80" height="118.856" fill="white" transform="translate(320 475.424)"/>
</clipPath>
<clipPath id="clip37_1428_3103">
<rect width="80" height="118.856" fill="white" transform="translate(400 475.424)"/>
</clipPath>
<clipPath id="clip38_1428_3103">
<rect width="80" height="118.856" fill="white" transform="translate(480 475.424)"/>
</clipPath>
<clipPath id="clip39_1428_3103">
<rect width="80" height="118.856" fill="white" transform="translate(560 475.424)"/>
</clipPath>
<clipPath id="clip40_1428_3103">
<rect width="80" height="118.856" fill="white" transform="translate(0 594.28)"/>
</clipPath>
<clipPath id="clip41_1428_3103">
<rect width="80" height="118.856" fill="white" transform="translate(80 594.28)"/>
</clipPath>
<clipPath id="clip42_1428_3103">
<rect width="80" height="118.856" fill="white" transform="translate(160 594.28)"/>
</clipPath>
<clipPath id="clip43_1428_3103">
<rect width="80" height="118.856" fill="white" transform="translate(240 594.28)"/>
</clipPath>
<clipPath id="clip44_1428_3103">
<rect width="80" height="118.856" fill="white" transform="translate(320 594.28)"/>
</clipPath>
<clipPath id="clip45_1428_3103">
<rect width="80" height="118.856" fill="white" transform="translate(400 594.28)"/>
</clipPath>
<clipPath id="clip46_1428_3103">
<rect width="80" height="118.856" fill="white" transform="translate(480 594.28)"/>
</clipPath>
<clipPath id="clip47_1428_3103">
<rect width="80" height="118.856" fill="white" transform="translate(560 594.28)"/>
</clipPath>
<clipPath id="clip48_1428_3103">
<rect width="80" height="118.856" fill="white" transform="translate(0 713.136)"/>
</clipPath>
<clipPath id="clip49_1428_3103">
<rect width="80" height="118.856" fill="white" transform="translate(80 713.136)"/>
</clipPath>
<clipPath id="clip50_1428_3103">
<rect width="80" height="118.856" fill="white" transform="translate(160 713.136)"/>
</clipPath>
<clipPath id="clip51_1428_3103">
<rect width="80" height="118.856" fill="white" transform="translate(240 713.136)"/>
</clipPath>
<clipPath id="clip52_1428_3103">
<rect width="80" height="118.856" fill="white" transform="translate(320 713.136)"/>
</clipPath>
<clipPath id="clip53_1428_3103">
<rect width="80" height="118.856" fill="white" transform="translate(400 713.136)"/>
</clipPath>
<clipPath id="clip54_1428_3103">
<rect width="80" height="118.856" fill="white" transform="translate(480 713.136)"/>
</clipPath>
<clipPath id="clip55_1428_3103">
<rect width="80" height="118.856" fill="white" transform="translate(560 713.136)"/>
</clipPath>
</defs>
</svg>
