<svg width="428" height="764" viewBox="0 0 428 764" fill="none" xmlns="http://www.w3.org/2000/svg">
<g clip-path="url(#clip0_1545_8138)">
<rect width="428" height="764" fill="#072215"/>
<g clip-path="url(#clip1_1545_8138)">
<path d="M-66 73.8064V27.6184M-66 7.90642L-43.07 -5.33359V-81.3816L-26 -94.6236L-48.93 -81.3816V-54.9056L-26 -41.6636M-26 4.52242L-66 27.6164M-66 27.6164V73.8044M-66 73.8044L-26 96.9004L14 73.8044V27.6164M14 27.6164L-26 4.52242M-26 4.52242L14 27.6204M-66 -45.0496L-88.93 -31.8116V-5.33359L-66 7.90642L-43.07 -5.33359V-31.8136L-66 -45.0476V-91.2356L-26 -114.33L14 -91.2356V-45.0476M-26 4.52242V-41.6636M-26 24.2344L-48.93 37.4724V63.9504L-26 77.1904L-3.06999 63.9504V37.4724L-26 24.2344ZM-8.92999 -31.8096V-5.33359L14 7.9044L36.93 -5.33559V-31.8116L14 -45.0516L-8.92999 -31.8096Z" stroke="white" stroke-opacity="0.08" stroke-linecap="square"/>
</g>
<g clip-path="url(#clip2_1545_8138)">
<path d="M14 73.8064V27.6184M14 7.90642L36.93 -5.33359V-81.3816L54 -94.6236L31.07 -81.3816V-54.9056L54 -41.6636M54 4.52242L14 27.6164M14 27.6164V73.8044M14 73.8044L54 96.9004L94 73.8044V27.6164M94 27.6164L54 4.52242M54 4.52242L94 27.6204M14 -45.0496L-8.92999 -31.8116V-5.33359L14 7.90642L36.93 -5.33359V-31.8136L14 -45.0476V-91.2356L54 -114.33L94 -91.2356V-45.0476M54 4.52242V-41.6636M54 24.2344L31.07 37.4724V63.9504L54 77.1904L76.93 63.9504V37.4724L54 24.2344ZM71.07 -31.8096V-5.33359L94 7.9044L116.93 -5.33559V-31.8116L94 -45.0516L71.07 -31.8096Z" stroke="white" stroke-opacity="0.08" stroke-linecap="square"/>
</g>
<g clip-path="url(#clip3_1545_8138)">
<path d="M94 73.8064V27.6184M94 7.90642L116.93 -5.33359V-81.3816L134 -94.6236L111.07 -81.3816V-54.9056L134 -41.6636M134 4.52242L94 27.6164M94 27.6164V73.8044M94 73.8044L134 96.9004L174 73.8044V27.6164M174 27.6164L134 4.52242M134 4.52242L174 27.6204M94 -45.0496L71.07 -31.8116V-5.33359L94 7.90642L116.93 -5.33359V-31.8136L94 -45.0476V-91.2356L134 -114.33L174 -91.2356V-45.0476M134 4.52242V-41.6636M134 24.2344L111.07 37.4724V63.9504L134 77.1904L156.93 63.9504V37.4724L134 24.2344ZM151.07 -31.8096V-5.33359L174 7.9044L196.93 -5.33559V-31.8116L174 -45.0516L151.07 -31.8096Z" stroke="white" stroke-opacity="0.08" stroke-linecap="square"/>
</g>
<g clip-path="url(#clip4_1545_8138)">
<path d="M174 73.8064V27.6184M174 7.90642L196.93 -5.33359V-81.3816L214 -94.6236L191.07 -81.3816V-54.9056L214 -41.6636M214 4.52242L174 27.6164M174 27.6164V73.8044M174 73.8044L214 96.9004L254 73.8044V27.6164M254 27.6164L214 4.52242M214 4.52242L254 27.6204M174 -45.0496L151.07 -31.8116V-5.33359L174 7.90642L196.93 -5.33359V-31.8136L174 -45.0476V-91.2356L214 -114.33L254 -91.2356V-45.0476M214 4.52242V-41.6636M214 24.2344L191.07 37.4724V63.9504L214 77.1904L236.93 63.9504V37.4724L214 24.2344ZM231.07 -31.8096V-5.33359L254 7.9044L276.93 -5.33559V-31.8116L254 -45.0516L231.07 -31.8096Z" stroke="white" stroke-opacity="0.08" stroke-linecap="square"/>
</g>
<g clip-path="url(#clip5_1545_8138)">
<path d="M254 73.8064V27.6184M254 7.90642L276.93 -5.33359V-81.3816L294 -94.6236L271.07 -81.3816V-54.9056L294 -41.6636M294 4.52242L254 27.6164M254 27.6164V73.8044M254 73.8044L294 96.9004L334 73.8044V27.6164M334 27.6164L294 4.52242M294 4.52242L334 27.6204M254 -45.0496L231.07 -31.8116V-5.33359L254 7.90642L276.93 -5.33359V-31.8136L254 -45.0476V-91.2356L294 -114.33L334 -91.2356V-45.0476M294 4.52242V-41.6636M294 24.2344L271.07 37.4724V63.9504L294 77.1904L316.93 63.9504V37.4724L294 24.2344ZM311.07 -31.8096V-5.33359L334 7.9044L356.93 -5.33559V-31.8116L334 -45.0516L311.07 -31.8096Z" stroke="white" stroke-opacity="0.08" stroke-linecap="square"/>
</g>
<g clip-path="url(#clip6_1545_8138)">
<path d="M334 73.8064V27.6184M334 7.90642L356.93 -5.33359V-81.3816L374 -94.6236L351.07 -81.3816V-54.9056L374 -41.6636M374 4.52242L334 27.6164M334 27.6164V73.8044M334 73.8044L374 96.9004L414 73.8044V27.6164M414 27.6164L374 4.52242M374 4.52242L414 27.6204M334 -45.0496L311.07 -31.8116V-5.33359L334 7.90642L356.93 -5.33359V-31.8136L334 -45.0476V-91.2356L374 -114.33L414 -91.2356V-45.0476M374 4.52242V-41.6636M374 24.2344L351.07 37.4724V63.9504L374 77.1904L396.93 63.9504V37.4724L374 24.2344ZM391.07 -31.8096V-5.33359L414 7.9044L436.93 -5.33559V-31.8116L414 -45.0516L391.07 -31.8096Z" stroke="white" stroke-opacity="0.08" stroke-linecap="square"/>
</g>
<g clip-path="url(#clip7_1545_8138)">
<path d="M414 73.8064V27.6184M414 7.90642L436.93 -5.33359V-81.3816L454 -94.6236L431.07 -81.3816V-54.9056L454 -41.6636M454 4.52242L414 27.6164M414 27.6164V73.8044M414 73.8044L454 96.9004L494 73.8044V27.6164M494 27.6164L454 4.52242M454 4.52242L494 27.6204M414 -45.0496L391.07 -31.8116V-5.33359L414 7.90642L436.93 -5.33359V-31.8136L414 -45.0476V-91.2356L454 -114.33L494 -91.2356V-45.0476M454 4.52242V-41.6636M454 24.2344L431.07 37.4724V63.9504L454 77.1904L476.93 63.9504V37.4724L454 24.2344ZM471.07 -31.8096V-5.33359L494 7.9044L516.93 -5.33559V-31.8116L494 -45.0516L471.07 -31.8096Z" stroke="white" stroke-opacity="0.08" stroke-linecap="square"/>
</g>
<g clip-path="url(#clip8_1545_8138)">
<path d="M-66 192.662V146.474M-66 126.762L-43.07 113.522V37.4744L-26 24.2324L-48.93 37.4744V63.9504L-26 77.1924M-26 123.378L-66 146.472M-66 146.472V192.66M-66 192.66L-26 215.756L14 192.66V146.472M14 146.472L-26 123.378M-26 123.378L14 146.476M-66 73.8064L-88.93 87.0444V113.522L-66 126.762L-43.07 113.522V87.0424L-66 73.8084V27.6204L-26 4.52637L14 27.6204V73.8084M-26 123.378V77.1924M-26 143.09L-48.93 156.328V182.806L-26 196.046L-3.06999 182.806V156.328L-26 143.09ZM-8.92999 87.0464V113.522L14 126.76L36.93 113.52V87.0444L14 73.8044L-8.92999 87.0464Z" stroke="white" stroke-opacity="0.08" stroke-linecap="square"/>
</g>
<g clip-path="url(#clip9_1545_8138)">
<path d="M16 50.7119H14V52.7119H16V50.7119Z" fill="white" fill-opacity="0.08"/>
<path d="M14 192.662V146.474M14 126.762L36.93 113.522V37.4744L54 24.2324L31.07 37.4744V63.9504L54 77.1924M54 123.378L14 146.472M14 146.472V192.66M14 192.66L54 215.756L94 192.66V146.472M94 146.472L54 123.378M54 123.378L94 146.476M14 73.8064L-8.92999 87.0444V113.522L14 126.762L36.93 113.522V87.0424L14 73.8084V27.6204L54 4.52637L94 27.6204V73.8084M54 123.378V77.1924M54 143.09L31.07 156.328V182.806L54 196.046L76.93 182.806V156.328L54 143.09ZM71.07 87.0464V113.522L94 126.76L116.93 113.52V87.0444L94 73.8044L71.07 87.0464Z" stroke="white" stroke-opacity="0.08" stroke-linecap="square"/>
</g>
<g clip-path="url(#clip10_1545_8138)">
<path d="M96 50.7119H94V52.7119H96V50.7119Z" fill="white" fill-opacity="0.08"/>
<path d="M94 192.662V146.474M94 126.762L116.93 113.522V37.4744L134 24.2324L111.07 37.4744V63.9504L134 77.1924M134 123.378L94 146.472M94 146.472V192.66M94 192.66L134 215.756L174 192.66V146.472M174 146.472L134 123.378M134 123.378L174 146.476M94 73.8064L71.07 87.0444V113.522L94 126.762L116.93 113.522V87.0424L94 73.8084V27.6204L134 4.52637L174 27.6204V73.8084M134 123.378V77.1924M134 143.09L111.07 156.328V182.806L134 196.046L156.93 182.806V156.328L134 143.09ZM151.07 87.0464V113.522L174 126.76L196.93 113.52V87.0444L174 73.8044L151.07 87.0464Z" stroke="white" stroke-opacity="0.08" stroke-linecap="square"/>
</g>
<g clip-path="url(#clip11_1545_8138)">
<path d="M176 50.7119H174V52.7119H176V50.7119Z" fill="white" fill-opacity="0.08"/>
<path d="M174 192.662V146.474M174 126.762L196.93 113.522V37.4744L214 24.2324L191.07 37.4744V63.9504L214 77.1924M214 123.378L174 146.472M174 146.472V192.66M174 192.66L214 215.756L254 192.66V146.472M254 146.472L214 123.378M214 123.378L254 146.476M174 73.8064L151.07 87.0444V113.522L174 126.762L196.93 113.522V87.0424L174 73.8084V27.6204L214 4.52637L254 27.6204V73.8084M214 123.378V77.1924M214 143.09L191.07 156.328V182.806L214 196.046L236.93 182.806V156.328L214 143.09ZM231.07 87.0464V113.522L254 126.76L276.93 113.52V87.0444L254 73.8044L231.07 87.0464Z" stroke="white" stroke-opacity="0.08" stroke-linecap="square"/>
</g>
<g clip-path="url(#clip12_1545_8138)">
<path d="M256 50.7119H254V52.7119H256V50.7119Z" fill="white" fill-opacity="0.08"/>
<path d="M254 192.662V146.474M254 126.762L276.93 113.522V37.4744L294 24.2324L271.07 37.4744V63.9504L294 77.1924M294 123.378L254 146.472M254 146.472V192.66M254 192.66L294 215.756L334 192.66V146.472M334 146.472L294 123.378M294 123.378L334 146.476M254 73.8064L231.07 87.0444V113.522L254 126.762L276.93 113.522V87.0424L254 73.8084V27.6204L294 4.52637L334 27.6204V73.8084M294 123.378V77.1924M294 143.09L271.07 156.328V182.806L294 196.046L316.93 182.806V156.328L294 143.09ZM311.07 87.0464V113.522L334 126.76L356.93 113.52V87.0444L334 73.8044L311.07 87.0464Z" stroke="white" stroke-opacity="0.08" stroke-linecap="square"/>
</g>
<g clip-path="url(#clip13_1545_8138)">
<path d="M336 50.7119H334V52.7119H336V50.7119Z" fill="white" fill-opacity="0.08"/>
<path d="M334 192.662V146.474M334 126.762L356.93 113.522V37.4744L374 24.2324L351.07 37.4744V63.9504L374 77.1924M374 123.378L334 146.472M334 146.472V192.66M334 192.66L374 215.756L414 192.66V146.472M414 146.472L374 123.378M374 123.378L414 146.476M334 73.8064L311.07 87.0444V113.522L334 126.762L356.93 113.522V87.0424L334 73.8084V27.6204L374 4.52637L414 27.6204V73.8084M374 123.378V77.1924M374 143.09L351.07 156.328V182.806L374 196.046L396.93 182.806V156.328L374 143.09ZM391.07 87.0464V113.522L414 126.76L436.93 113.52V87.0444L414 73.8044L391.07 87.0464Z" stroke="white" stroke-opacity="0.08" stroke-linecap="square"/>
</g>
<g clip-path="url(#clip14_1545_8138)">
<path d="M416 50.7119H414V52.7119H416V50.7119Z" fill="white" fill-opacity="0.08"/>
<path d="M414 192.662V146.474M414 126.762L436.93 113.522V37.4744L454 24.2324L431.07 37.4744V63.9504L454 77.1924M454 123.378L414 146.472M414 146.472V192.66M414 192.66L454 215.756L494 192.66V146.472M494 146.472L454 123.378M454 123.378L494 146.476M414 73.8064L391.07 87.0444V113.522L414 126.762L436.93 113.522V87.0424L414 73.8084V27.6204L454 4.52637L494 27.6204V73.8084M454 123.378V77.1924M454 143.09L431.07 156.328V182.806L454 196.046L476.93 182.806V156.328L454 143.09ZM471.07 87.0464V113.522L494 126.76L516.93 113.52V87.0444L494 73.8044L471.07 87.0464Z" stroke="white" stroke-opacity="0.08" stroke-linecap="square"/>
</g>
<g clip-path="url(#clip15_1545_8138)">
<path d="M-66 311.519V265.331M-66 245.619L-43.07 232.379V156.331L-26 143.089L-48.93 156.331V182.807L-26 196.049M-26 242.235L-66 265.329M-66 265.329V311.517M-66 311.517L-26 334.613L14 311.517V265.329M14 265.329L-26 242.235M-26 242.235L14 265.333M-66 192.663L-88.93 205.901V232.379L-66 245.619L-43.07 232.379V205.899L-66 192.665V146.477L-26 123.383L14 146.477V192.665M-26 242.235V196.049M-26 261.947L-48.93 275.185V301.663L-26 314.903L-3.06999 301.663V275.185L-26 261.947ZM-8.92999 205.903V232.379L14 245.617L36.93 232.377V205.901L14 192.661L-8.92999 205.903Z" stroke="white" stroke-opacity="0.08" stroke-linecap="square"/>
</g>
<g clip-path="url(#clip16_1545_8138)">
<path d="M16 169.568H14V171.568H16V169.568Z" fill="white" fill-opacity="0.08"/>
<path d="M14 311.519V265.331M14 245.619L36.93 232.379V156.331L54 143.089L31.07 156.331V182.807L54 196.049M54 242.235L14 265.329M14 265.329V311.517M14 311.517L54 334.613L94 311.517V265.329M94 265.329L54 242.235M54 242.235L94 265.333M14 192.663L-8.92999 205.901V232.379L14 245.619L36.93 232.379V205.899L14 192.665V146.477L54 123.383L94 146.477V192.665M54 242.235V196.049M54 261.947L31.07 275.185V301.663L54 314.903L76.93 301.663V275.185L54 261.947ZM71.07 205.903V232.379L94 245.617L116.93 232.377V205.901L94 192.661L71.07 205.903Z" stroke="white" stroke-opacity="0.08" stroke-linecap="square"/>
</g>
<g clip-path="url(#clip17_1545_8138)">
<path d="M96 169.568H94V171.568H96V169.568Z" fill="white" fill-opacity="0.08"/>
<path d="M94 311.519V265.331M94 245.619L116.93 232.379V156.331L134 143.089L111.07 156.331V182.807L134 196.049M134 242.235L94 265.329M94 265.329V311.517M94 311.517L134 334.613L174 311.517V265.329M174 265.329L134 242.235M134 242.235L174 265.333M94 192.663L71.07 205.901V232.379L94 245.619L116.93 232.379V205.899L94 192.665V146.477L134 123.383L174 146.477V192.665M134 242.235V196.049M134 261.947L111.07 275.185V301.663L134 314.903L156.93 301.663V275.185L134 261.947ZM151.07 205.903V232.379L174 245.617L196.93 232.377V205.901L174 192.661L151.07 205.903Z" stroke="white" stroke-opacity="0.08" stroke-linecap="square"/>
</g>
<g clip-path="url(#clip18_1545_8138)">
<path d="M176 169.568H174V171.568H176V169.568Z" fill="white" fill-opacity="0.08"/>
<path d="M174 311.519V265.331M174 245.619L196.93 232.379V156.331L214 143.089L191.07 156.331V182.807L214 196.049M214 242.235L174 265.329M174 265.329V311.517M174 311.517L214 334.613L254 311.517V265.329M254 265.329L214 242.235M214 242.235L254 265.333M174 192.663L151.07 205.901V232.379L174 245.619L196.93 232.379V205.899L174 192.665V146.477L214 123.383L254 146.477V192.665M214 242.235V196.049M214 261.947L191.07 275.185V301.663L214 314.903L236.93 301.663V275.185L214 261.947ZM231.07 205.903V232.379L254 245.617L276.93 232.377V205.901L254 192.661L231.07 205.903Z" stroke="white" stroke-opacity="0.08" stroke-linecap="square"/>
</g>
<g clip-path="url(#clip19_1545_8138)">
<path d="M256 169.568H254V171.568H256V169.568Z" fill="white" fill-opacity="0.08"/>
<path d="M254 311.519V265.331M254 245.619L276.93 232.379V156.331L294 143.089L271.07 156.331V182.807L294 196.049M294 242.235L254 265.329M254 265.329V311.517M254 311.517L294 334.613L334 311.517V265.329M334 265.329L294 242.235M294 242.235L334 265.333M254 192.663L231.07 205.901V232.379L254 245.619L276.93 232.379V205.899L254 192.665V146.477L294 123.383L334 146.477V192.665M294 242.235V196.049M294 261.947L271.07 275.185V301.663L294 314.903L316.93 301.663V275.185L294 261.947ZM311.07 205.903V232.379L334 245.617L356.93 232.377V205.901L334 192.661L311.07 205.903Z" stroke="white" stroke-opacity="0.08" stroke-linecap="square"/>
</g>
<g clip-path="url(#clip20_1545_8138)">
<path d="M336 169.568H334V171.568H336V169.568Z" fill="white" fill-opacity="0.08"/>
<path d="M334 311.519V265.331M334 245.619L356.93 232.379V156.331L374 143.089L351.07 156.331V182.807L374 196.049M374 242.235L334 265.329M334 265.329V311.517M334 311.517L374 334.613L414 311.517V265.329M414 265.329L374 242.235M374 242.235L414 265.333M334 192.663L311.07 205.901V232.379L334 245.619L356.93 232.379V205.899L334 192.665V146.477L374 123.383L414 146.477V192.665M374 242.235V196.049M374 261.947L351.07 275.185V301.663L374 314.903L396.93 301.663V275.185L374 261.947ZM391.07 205.903V232.379L414 245.617L436.93 232.377V205.901L414 192.661L391.07 205.903Z" stroke="white" stroke-opacity="0.08" stroke-linecap="square"/>
</g>
<g clip-path="url(#clip21_1545_8138)">
<path d="M416 169.568H414V171.568H416V169.568Z" fill="white" fill-opacity="0.08"/>
<path d="M414 311.519V265.331M414 245.619L436.93 232.379V156.331L454 143.089L431.07 156.331V182.807L454 196.049M454 242.235L414 265.329M414 265.329V311.517M414 311.517L454 334.613L494 311.517V265.329M494 265.329L454 242.235M454 242.235L494 265.333M414 192.663L391.07 205.901V232.379L414 245.619L436.93 232.379V205.899L414 192.665V146.477L454 123.383L494 146.477V192.665M454 242.235V196.049M454 261.947L431.07 275.185V301.663L454 314.903L476.93 301.663V275.185L454 261.947ZM471.07 205.903V232.379L494 245.617L516.93 232.377V205.901L494 192.661L471.07 205.903Z" stroke="white" stroke-opacity="0.08" stroke-linecap="square"/>
</g>
<g clip-path="url(#clip22_1545_8138)">
<path d="M-66 430.374V384.186M-66 364.474L-43.07 351.234V275.186L-26 261.944L-48.93 275.186V301.662L-26 314.904M-26 361.09L-66 384.184M-66 384.184V430.372M-66 430.372L-26 453.468L14 430.372V384.184M14 384.184L-26 361.09M-26 361.09L14 384.188M-66 311.518L-88.93 324.756V351.234L-66 364.474L-43.07 351.234V324.754L-66 311.52V265.332L-26 242.238L14 265.332V311.52M-26 361.09V314.904M-26 380.802L-48.93 394.04V420.518L-26 433.758L-3.06999 420.518V394.04L-26 380.802ZM-8.92999 324.758V351.234L14 364.472L36.93 351.232V324.756L14 311.516L-8.92999 324.758Z" stroke="white" stroke-opacity="0.08" stroke-linecap="square"/>
</g>
<g clip-path="url(#clip23_1545_8138)">
<path d="M16 288.424H14V290.424H16V288.424Z" fill="white" fill-opacity="0.08"/>
<path d="M14 430.374V384.186M14 364.474L36.93 351.234V275.186L54 261.944L31.07 275.186V301.662L54 314.904M54 361.09L14 384.184M14 384.184V430.372M14 430.372L54 453.468L94 430.372V384.184M94 384.184L54 361.09M54 361.09L94 384.188M14 311.518L-8.92999 324.756V351.234L14 364.474L36.93 351.234V324.754L14 311.52V265.332L54 242.238L94 265.332V311.52M54 361.09V314.904M54 380.802L31.07 394.04V420.518L54 433.758L76.93 420.518V394.04L54 380.802ZM71.07 324.758V351.234L94 364.472L116.93 351.232V324.756L94 311.516L71.07 324.758Z" stroke="white" stroke-opacity="0.08" stroke-linecap="square"/>
</g>
<g clip-path="url(#clip24_1545_8138)">
<path d="M96 288.424H94V290.424H96V288.424Z" fill="white" fill-opacity="0.08"/>
<path d="M94 430.374V384.186M94 364.474L116.93 351.234V275.186L134 261.944L111.07 275.186V301.662L134 314.904M134 361.09L94 384.184M94 384.184V430.372M94 430.372L134 453.468L174 430.372V384.184M174 384.184L134 361.09M134 361.09L174 384.188M94 311.518L71.07 324.756V351.234L94 364.474L116.93 351.234V324.754L94 311.52V265.332L134 242.238L174 265.332V311.52M134 361.09V314.904M134 380.802L111.07 394.04V420.518L134 433.758L156.93 420.518V394.04L134 380.802ZM151.07 324.758V351.234L174 364.472L196.93 351.232V324.756L174 311.516L151.07 324.758Z" stroke="white" stroke-opacity="0.08" stroke-linecap="square"/>
</g>
<g clip-path="url(#clip25_1545_8138)">
<path d="M176 288.424H174V290.424H176V288.424Z" fill="white" fill-opacity="0.08"/>
<path d="M174 430.374V384.186M174 364.474L196.93 351.234V275.186L214 261.944L191.07 275.186V301.662L214 314.904M214 361.09L174 384.184M174 384.184V430.372M174 430.372L214 453.468L254 430.372V384.184M254 384.184L214 361.09M214 361.09L254 384.188M174 311.518L151.07 324.756V351.234L174 364.474L196.93 351.234V324.754L174 311.52V265.332L214 242.238L254 265.332V311.52M214 361.09V314.904M214 380.802L191.07 394.04V420.518L214 433.758L236.93 420.518V394.04L214 380.802ZM231.07 324.758V351.234L254 364.472L276.93 351.232V324.756L254 311.516L231.07 324.758Z" stroke="white" stroke-opacity="0.08" stroke-linecap="square"/>
</g>
<g clip-path="url(#clip26_1545_8138)">
<path d="M256 288.424H254V290.424H256V288.424Z" fill="white" fill-opacity="0.08"/>
<path d="M254 430.374V384.186M254 364.474L276.93 351.234V275.186L294 261.944L271.07 275.186V301.662L294 314.904M294 361.09L254 384.184M254 384.184V430.372M254 430.372L294 453.468L334 430.372V384.184M334 384.184L294 361.09M294 361.09L334 384.188M254 311.518L231.07 324.756V351.234L254 364.474L276.93 351.234V324.754L254 311.52V265.332L294 242.238L334 265.332V311.52M294 361.09V314.904M294 380.802L271.07 394.04V420.518L294 433.758L316.93 420.518V394.04L294 380.802ZM311.07 324.758V351.234L334 364.472L356.93 351.232V324.756L334 311.516L311.07 324.758Z" stroke="white" stroke-opacity="0.08" stroke-linecap="square"/>
</g>
<g clip-path="url(#clip27_1545_8138)">
<path d="M336 288.424H334V290.424H336V288.424Z" fill="white" fill-opacity="0.08"/>
<path d="M334 430.374V384.186M334 364.474L356.93 351.234V275.186L374 261.944L351.07 275.186V301.662L374 314.904M374 361.09L334 384.184M334 384.184V430.372M334 430.372L374 453.468L414 430.372V384.184M414 384.184L374 361.09M374 361.09L414 384.188M334 311.518L311.07 324.756V351.234L334 364.474L356.93 351.234V324.754L334 311.52V265.332L374 242.238L414 265.332V311.52M374 361.09V314.904M374 380.802L351.07 394.04V420.518L374 433.758L396.93 420.518V394.04L374 380.802ZM391.07 324.758V351.234L414 364.472L436.93 351.232V324.756L414 311.516L391.07 324.758Z" stroke="white" stroke-opacity="0.08" stroke-linecap="square"/>
</g>
<g clip-path="url(#clip28_1545_8138)">
<path d="M416 288.424H414V290.424H416V288.424Z" fill="white" fill-opacity="0.08"/>
<path d="M414 430.374V384.186M414 364.474L436.93 351.234V275.186L454 261.944L431.07 275.186V301.662L454 314.904M454 361.09L414 384.184M414 384.184V430.372M414 430.372L454 453.468L494 430.372V384.184M494 384.184L454 361.09M454 361.09L494 384.188M414 311.518L391.07 324.756V351.234L414 364.474L436.93 351.234V324.754L414 311.52V265.332L454 242.238L494 265.332V311.52M454 361.09V314.904M454 380.802L431.07 394.04V420.518L454 433.758L476.93 420.518V394.04L454 380.802ZM471.07 324.758V351.234L494 364.472L516.93 351.232V324.756L494 311.516L471.07 324.758Z" stroke="white" stroke-opacity="0.08" stroke-linecap="square"/>
</g>
<g clip-path="url(#clip29_1545_8138)">
<path d="M-66 549.231V503.043M-66 483.331L-43.07 470.091V394.043L-26 380.801L-48.93 394.043V420.519L-26 433.761M-26 479.947L-66 503.041M-66 503.041V549.229M-66 549.229L-26 572.325L14 549.229V503.041M14 503.041L-26 479.947M-26 479.947L14 503.045M-66 430.375L-88.93 443.613V470.091L-66 483.331L-43.07 470.091V443.611L-66 430.377V384.189L-26 361.095L14 384.189V430.377M-26 479.947V433.761M-26 499.659L-48.93 512.897V539.375L-26 552.615L-3.06999 539.375V512.897L-26 499.659ZM-8.92999 443.615V470.091L14 483.329L36.93 470.089V443.613L14 430.373L-8.92999 443.615Z" stroke="white" stroke-opacity="0.08" stroke-linecap="square"/>
</g>
<g clip-path="url(#clip30_1545_8138)">
<path d="M16 407.28H14V409.28H16V407.28Z" fill="white" fill-opacity="0.08"/>
<path d="M14 549.231V503.043M14 483.331L36.93 470.091V394.043L54 380.801L31.07 394.043V420.519L54 433.761M54 479.947L14 503.041M14 503.041V549.229M14 549.229L54 572.325L94 549.229V503.041M94 503.041L54 479.947M54 479.947L94 503.045M14 430.375L-8.92999 443.613V470.091L14 483.331L36.93 470.091V443.611L14 430.377V384.189L54 361.095L94 384.189V430.377M54 479.947V433.761M54 499.659L31.07 512.897V539.375L54 552.615L76.93 539.375V512.897L54 499.659ZM71.07 443.615V470.091L94 483.329L116.93 470.089V443.613L94 430.373L71.07 443.615Z" stroke="white" stroke-opacity="0.08" stroke-linecap="square"/>
</g>
<g clip-path="url(#clip31_1545_8138)">
<path d="M96 407.28H94V409.28H96V407.28Z" fill="white" fill-opacity="0.08"/>
<path d="M94 549.231V503.043M94 483.331L116.93 470.091V394.043L134 380.801L111.07 394.043V420.519L134 433.761M134 479.947L94 503.041M94 503.041V549.229M94 549.229L134 572.325L174 549.229V503.041M174 503.041L134 479.947M134 479.947L174 503.045M94 430.375L71.07 443.613V470.091L94 483.331L116.93 470.091V443.611L94 430.377V384.189L134 361.095L174 384.189V430.377M134 479.947V433.761M134 499.659L111.07 512.897V539.375L134 552.615L156.93 539.375V512.897L134 499.659ZM151.07 443.615V470.091L174 483.329L196.93 470.089V443.613L174 430.373L151.07 443.615Z" stroke="white" stroke-opacity="0.08" stroke-linecap="square"/>
</g>
<g clip-path="url(#clip32_1545_8138)">
<path d="M176 407.28H174V409.28H176V407.28Z" fill="white" fill-opacity="0.08"/>
<path d="M174 549.231V503.043M174 483.331L196.93 470.091V394.043L214 380.801L191.07 394.043V420.519L214 433.761M214 479.947L174 503.041M174 503.041V549.229M174 549.229L214 572.325L254 549.229V503.041M254 503.041L214 479.947M214 479.947L254 503.045M174 430.375L151.07 443.613V470.091L174 483.331L196.93 470.091V443.611L174 430.377V384.189L214 361.095L254 384.189V430.377M214 479.947V433.761M214 499.659L191.07 512.897V539.375L214 552.615L236.93 539.375V512.897L214 499.659ZM231.07 443.615V470.091L254 483.329L276.93 470.089V443.613L254 430.373L231.07 443.615Z" stroke="white" stroke-opacity="0.08" stroke-linecap="square"/>
</g>
<g clip-path="url(#clip33_1545_8138)">
<path d="M256 407.28H254V409.28H256V407.28Z" fill="white" fill-opacity="0.08"/>
<path d="M254 549.231V503.043M254 483.331L276.93 470.091V394.043L294 380.801L271.07 394.043V420.519L294 433.761M294 479.947L254 503.041M254 503.041V549.229M254 549.229L294 572.325L334 549.229V503.041M334 503.041L294 479.947M294 479.947L334 503.045M254 430.375L231.07 443.613V470.091L254 483.331L276.93 470.091V443.611L254 430.377V384.189L294 361.095L334 384.189V430.377M294 479.947V433.761M294 499.659L271.07 512.897V539.375L294 552.615L316.93 539.375V512.897L294 499.659ZM311.07 443.615V470.091L334 483.329L356.93 470.089V443.613L334 430.373L311.07 443.615Z" stroke="white" stroke-opacity="0.08" stroke-linecap="square"/>
</g>
<g clip-path="url(#clip34_1545_8138)">
<path d="M336 407.28H334V409.28H336V407.28Z" fill="white" fill-opacity="0.08"/>
<path d="M334 549.231V503.043M334 483.331L356.93 470.091V394.043L374 380.801L351.07 394.043V420.519L374 433.761M374 479.947L334 503.041M334 503.041V549.229M334 549.229L374 572.325L414 549.229V503.041M414 503.041L374 479.947M374 479.947L414 503.045M334 430.375L311.07 443.613V470.091L334 483.331L356.93 470.091V443.611L334 430.377V384.189L374 361.095L414 384.189V430.377M374 479.947V433.761M374 499.659L351.07 512.897V539.375L374 552.615L396.93 539.375V512.897L374 499.659ZM391.07 443.615V470.091L414 483.329L436.93 470.089V443.613L414 430.373L391.07 443.615Z" stroke="white" stroke-opacity="0.08" stroke-linecap="square"/>
</g>
<g clip-path="url(#clip35_1545_8138)">
<path d="M416 407.28H414V409.28H416V407.28Z" fill="white" fill-opacity="0.08"/>
<path d="M414 549.231V503.043M414 483.331L436.93 470.091V394.043L454 380.801L431.07 394.043V420.519L454 433.761M454 479.947L414 503.041M414 503.041V549.229M414 549.229L454 572.325L494 549.229V503.041M494 503.041L454 479.947M454 479.947L494 503.045M414 430.375L391.07 443.613V470.091L414 483.331L436.93 470.091V443.611L414 430.377V384.189L454 361.095L494 384.189V430.377M454 479.947V433.761M454 499.659L431.07 512.897V539.375L454 552.615L476.93 539.375V512.897L454 499.659ZM471.07 443.615V470.091L494 483.329L516.93 470.089V443.613L494 430.373L471.07 443.615Z" stroke="white" stroke-opacity="0.08" stroke-linecap="square"/>
</g>
<g clip-path="url(#clip36_1545_8138)">
<path d="M-66 668.086V621.898M-66 602.186L-43.07 588.946V512.898L-26 499.656L-48.93 512.898V539.374L-26 552.616M-26 598.802L-66 621.896M-66 621.896V668.084M-66 668.084L-26 691.18L14 668.084V621.896M14 621.896L-26 598.802M-26 598.802L14 621.9M-66 549.23L-88.93 562.468V588.946L-66 602.186L-43.07 588.946V562.466L-66 549.232V503.044L-26 479.95L14 503.044V549.232M-26 598.802V552.616M-26 618.514L-48.93 631.752V658.23L-26 671.47L-3.06999 658.23V631.752L-26 618.514ZM-8.92999 562.47V588.946L14 602.184L36.93 588.944V562.468L14 549.228L-8.92999 562.47Z" stroke="white" stroke-opacity="0.08" stroke-linecap="square"/>
</g>
<g clip-path="url(#clip37_1545_8138)">
<path d="M16 526.136H14V528.136H16V526.136Z" fill="white" fill-opacity="0.08"/>
<path d="M14 668.086V621.898M14 602.186L36.93 588.946V512.898L54 499.656L31.07 512.898V539.374L54 552.616M54 598.802L14 621.896M14 621.896V668.084M14 668.084L54 691.18L94 668.084V621.896M94 621.896L54 598.802M54 598.802L94 621.9M14 549.23L-8.92999 562.468V588.946L14 602.186L36.93 588.946V562.466L14 549.232V503.044L54 479.95L94 503.044V549.232M54 598.802V552.616M54 618.514L31.07 631.752V658.23L54 671.47L76.93 658.23V631.752L54 618.514ZM71.07 562.47V588.946L94 602.184L116.93 588.944V562.468L94 549.228L71.07 562.47Z" stroke="white" stroke-opacity="0.08" stroke-linecap="square"/>
</g>
<g clip-path="url(#clip38_1545_8138)">
<path d="M96 526.136H94V528.136H96V526.136Z" fill="white" fill-opacity="0.08"/>
<path d="M94 668.086V621.898M94 602.186L116.93 588.946V512.898L134 499.656L111.07 512.898V539.374L134 552.616M134 598.802L94 621.896M94 621.896V668.084M94 668.084L134 691.18L174 668.084V621.896M174 621.896L134 598.802M134 598.802L174 621.9M94 549.23L71.07 562.468V588.946L94 602.186L116.93 588.946V562.466L94 549.232V503.044L134 479.95L174 503.044V549.232M134 598.802V552.616M134 618.514L111.07 631.752V658.23L134 671.47L156.93 658.23V631.752L134 618.514ZM151.07 562.47V588.946L174 602.184L196.93 588.944V562.468L174 549.228L151.07 562.47Z" stroke="white" stroke-opacity="0.08" stroke-linecap="square"/>
</g>
<g clip-path="url(#clip39_1545_8138)">
<path d="M176 526.136H174V528.136H176V526.136Z" fill="white" fill-opacity="0.08"/>
<path d="M174 668.086V621.898M174 602.186L196.93 588.946V512.898L214 499.656L191.07 512.898V539.374L214 552.616M214 598.802L174 621.896M174 621.896V668.084M174 668.084L214 691.18L254 668.084V621.896M254 621.896L214 598.802M214 598.802L254 621.9M174 549.23L151.07 562.468V588.946L174 602.186L196.93 588.946V562.466L174 549.232V503.044L214 479.95L254 503.044V549.232M214 598.802V552.616M214 618.514L191.07 631.752V658.23L214 671.47L236.93 658.23V631.752L214 618.514ZM231.07 562.47V588.946L254 602.184L276.93 588.944V562.468L254 549.228L231.07 562.47Z" stroke="white" stroke-opacity="0.08" stroke-linecap="square"/>
</g>
<g clip-path="url(#clip40_1545_8138)">
<path d="M256 526.136H254V528.136H256V526.136Z" fill="white" fill-opacity="0.08"/>
<path d="M254 668.086V621.898M254 602.186L276.93 588.946V512.898L294 499.656L271.07 512.898V539.374L294 552.616M294 598.802L254 621.896M254 621.896V668.084M254 668.084L294 691.18L334 668.084V621.896M334 621.896L294 598.802M294 598.802L334 621.9M254 549.23L231.07 562.468V588.946L254 602.186L276.93 588.946V562.466L254 549.232V503.044L294 479.95L334 503.044V549.232M294 598.802V552.616M294 618.514L271.07 631.752V658.23L294 671.47L316.93 658.23V631.752L294 618.514ZM311.07 562.47V588.946L334 602.184L356.93 588.944V562.468L334 549.228L311.07 562.47Z" stroke="white" stroke-opacity="0.08" stroke-linecap="square"/>
</g>
<g clip-path="url(#clip41_1545_8138)">
<path d="M336 526.136H334V528.136H336V526.136Z" fill="white" fill-opacity="0.08"/>
<path d="M334 668.086V621.898M334 602.186L356.93 588.946V512.898L374 499.656L351.07 512.898V539.374L374 552.616M374 598.802L334 621.896M334 621.896V668.084M334 668.084L374 691.18L414 668.084V621.896M414 621.896L374 598.802M374 598.802L414 621.9M334 549.23L311.07 562.468V588.946L334 602.186L356.93 588.946V562.466L334 549.232V503.044L374 479.95L414 503.044V549.232M374 598.802V552.616M374 618.514L351.07 631.752V658.23L374 671.47L396.93 658.23V631.752L374 618.514ZM391.07 562.47V588.946L414 602.184L436.93 588.944V562.468L414 549.228L391.07 562.47Z" stroke="white" stroke-opacity="0.08" stroke-linecap="square"/>
</g>
<g clip-path="url(#clip42_1545_8138)">
<path d="M416 526.136H414V528.136H416V526.136Z" fill="white" fill-opacity="0.08"/>
<path d="M414 668.086V621.898M414 602.186L436.93 588.946V512.898L454 499.656L431.07 512.898V539.374L454 552.616M454 598.802L414 621.896M414 621.896V668.084M414 668.084L454 691.18L494 668.084V621.896M494 621.896L454 598.802M454 598.802L494 621.9M414 549.23L391.07 562.468V588.946L414 602.186L436.93 588.946V562.466L414 549.232V503.044L454 479.95L494 503.044V549.232M454 598.802V552.616M454 618.514L431.07 631.752V658.23L454 671.47L476.93 658.23V631.752L454 618.514ZM471.07 562.47V588.946L494 602.184L516.93 588.944V562.468L494 549.228L471.07 562.47Z" stroke="white" stroke-opacity="0.08" stroke-linecap="square"/>
</g>
<g clip-path="url(#clip43_1545_8138)">
<path d="M-66 786.943V740.755M-66 721.043L-43.07 707.803V631.755L-26 618.513L-48.93 631.755V658.231L-26 671.473M-26 717.659L-66 740.753M-66 740.753V786.941M-66 786.941L-26 810.037L14 786.941V740.753M14 740.753L-26 717.659M-26 717.659L14 740.757M-66 668.087L-88.93 681.325V707.803L-66 721.043L-43.07 707.803V681.323L-66 668.089V621.901L-26 598.807L14 621.901V668.089M-26 717.659V671.473M-26 737.371L-48.93 750.609V777.087L-26 790.327L-3.06999 777.087V750.609L-26 737.371ZM-8.92999 681.327V707.803L14 721.041L36.93 707.801V681.325L14 668.085L-8.92999 681.327Z" stroke="white" stroke-opacity="0.08" stroke-linecap="square"/>
</g>
<g clip-path="url(#clip44_1545_8138)">
<path d="M16 644.992H14V646.992H16V644.992Z" fill="white" fill-opacity="0.08"/>
<path d="M14 786.943V740.755M14 721.043L36.93 707.803V631.755L54 618.513L31.07 631.755V658.231L54 671.473M54 717.659L14 740.753M14 740.753V786.941M14 786.941L54 810.037L94 786.941V740.753M94 740.753L54 717.659M54 717.659L94 740.757M14 668.087L-8.92999 681.325V707.803L14 721.043L36.93 707.803V681.323L14 668.089V621.901L54 598.807L94 621.901V668.089M54 717.659V671.473M54 737.371L31.07 750.609V777.087L54 790.327L76.93 777.087V750.609L54 737.371ZM71.07 681.327V707.803L94 721.041L116.93 707.801V681.325L94 668.085L71.07 681.327Z" stroke="white" stroke-opacity="0.08" stroke-linecap="square"/>
</g>
<g clip-path="url(#clip45_1545_8138)">
<path d="M96 644.992H94V646.992H96V644.992Z" fill="white" fill-opacity="0.08"/>
<path d="M94 786.943V740.755M94 721.043L116.93 707.803V631.755L134 618.513L111.07 631.755V658.231L134 671.473M134 717.659L94 740.753M94 740.753V786.941M94 786.941L134 810.037L174 786.941V740.753M174 740.753L134 717.659M134 717.659L174 740.757M94 668.087L71.07 681.325V707.803L94 721.043L116.93 707.803V681.323L94 668.089V621.901L134 598.807L174 621.901V668.089M134 717.659V671.473M134 737.371L111.07 750.609V777.087L134 790.327L156.93 777.087V750.609L134 737.371ZM151.07 681.327V707.803L174 721.041L196.93 707.801V681.325L174 668.085L151.07 681.327Z" stroke="white" stroke-opacity="0.08" stroke-linecap="square"/>
</g>
<g clip-path="url(#clip46_1545_8138)">
<path d="M176 644.992H174V646.992H176V644.992Z" fill="white" fill-opacity="0.08"/>
<path d="M174 786.943V740.755M174 721.043L196.93 707.803V631.755L214 618.513L191.07 631.755V658.231L214 671.473M214 717.659L174 740.753M174 740.753V786.941M174 786.941L214 810.037L254 786.941V740.753M254 740.753L214 717.659M214 717.659L254 740.757M174 668.087L151.07 681.325V707.803L174 721.043L196.93 707.803V681.323L174 668.089V621.901L214 598.807L254 621.901V668.089M214 717.659V671.473M214 737.371L191.07 750.609V777.087L214 790.327L236.93 777.087V750.609L214 737.371ZM231.07 681.327V707.803L254 721.041L276.93 707.801V681.325L254 668.085L231.07 681.327Z" stroke="white" stroke-opacity="0.08" stroke-linecap="square"/>
</g>
<g clip-path="url(#clip47_1545_8138)">
<path d="M256 644.992H254V646.992H256V644.992Z" fill="white" fill-opacity="0.08"/>
<path d="M254 786.943V740.755M254 721.043L276.93 707.803V631.755L294 618.513L271.07 631.755V658.231L294 671.473M294 717.659L254 740.753M254 740.753V786.941M254 786.941L294 810.037L334 786.941V740.753M334 740.753L294 717.659M294 717.659L334 740.757M254 668.087L231.07 681.325V707.803L254 721.043L276.93 707.803V681.323L254 668.089V621.901L294 598.807L334 621.901V668.089M294 717.659V671.473M294 737.371L271.07 750.609V777.087L294 790.327L316.93 777.087V750.609L294 737.371ZM311.07 681.327V707.803L334 721.041L356.93 707.801V681.325L334 668.085L311.07 681.327Z" stroke="white" stroke-opacity="0.08" stroke-linecap="square"/>
</g>
<g clip-path="url(#clip48_1545_8138)">
<path d="M336 644.992H334V646.992H336V644.992Z" fill="white" fill-opacity="0.08"/>
<path d="M334 786.943V740.755M334 721.043L356.93 707.803V631.755L374 618.513L351.07 631.755V658.231L374 671.473M374 717.659L334 740.753M334 740.753V786.941M334 786.941L374 810.037L414 786.941V740.753M414 740.753L374 717.659M374 717.659L414 740.757M334 668.087L311.07 681.325V707.803L334 721.043L356.93 707.803V681.323L334 668.089V621.901L374 598.807L414 621.901V668.089M374 717.659V671.473M374 737.371L351.07 750.609V777.087L374 790.327L396.93 777.087V750.609L374 737.371ZM391.07 681.327V707.803L414 721.041L436.93 707.801V681.325L414 668.085L391.07 681.327Z" stroke="white" stroke-opacity="0.08" stroke-linecap="square"/>
</g>
<g clip-path="url(#clip49_1545_8138)">
<path d="M416 644.992H414V646.992H416V644.992Z" fill="white" fill-opacity="0.08"/>
<path d="M414 786.943V740.755M414 721.043L436.93 707.803V631.755L454 618.513L431.07 631.755V658.231L454 671.473M454 717.659L414 740.753M414 740.753V786.941M414 786.941L454 810.037L494 786.941V740.753M494 740.753L454 717.659M454 717.659L494 740.757M414 668.087L391.07 681.325V707.803L414 721.043L436.93 707.803V681.323L414 668.089V621.901L454 598.807L494 621.901V668.089M454 717.659V671.473M454 737.371L431.07 750.609V777.087L454 790.327L476.93 777.087V750.609L454 737.371ZM471.07 681.327V707.803L494 721.041L516.93 707.801V681.325L494 668.085L471.07 681.327Z" stroke="white" stroke-opacity="0.08" stroke-linecap="square"/>
</g>
<g clip-path="url(#clip50_1545_8138)">
<path d="M-66 905.798V859.61M-66 839.898L-43.07 826.658V750.61L-26 737.368L-48.93 750.61V777.086L-26 790.328M-26 836.514L-66 859.608M-66 859.608V905.796M-66 905.796L-26 928.892L14 905.796V859.608M14 859.608L-26 836.514M-26 836.514L14 859.612M-66 786.942L-88.93 800.18V826.658L-66 839.898L-43.07 826.658V800.178L-66 786.944V740.756L-26 717.662L14 740.756V786.944M-26 836.514V790.328M-26 856.226L-48.93 869.464V895.942L-26 909.182L-3.06999 895.942V869.464L-26 856.226ZM-8.92999 800.182V826.658L14 839.896L36.93 826.656V800.18L14 786.94L-8.92999 800.182Z" stroke="white" stroke-opacity="0.08" stroke-linecap="square"/>
</g>
<g clip-path="url(#clip51_1545_8138)">
<path d="M16 763.848H14V765.848H16V763.848Z" fill="white" fill-opacity="0.08"/>
<path d="M14 905.798V859.61M14 839.898L36.93 826.658V750.61L54 737.368L31.07 750.61V777.086L54 790.328M54 836.514L14 859.608M14 859.608V905.796M14 905.796L54 928.892L94 905.796V859.608M94 859.608L54 836.514M54 836.514L94 859.612M14 786.942L-8.92999 800.18V826.658L14 839.898L36.93 826.658V800.178L14 786.944V740.756L54 717.662L94 740.756V786.944M54 836.514V790.328M54 856.226L31.07 869.464V895.942L54 909.182L76.93 895.942V869.464L54 856.226ZM71.07 800.182V826.658L94 839.896L116.93 826.656V800.18L94 786.94L71.07 800.182Z" stroke="white" stroke-opacity="0.08" stroke-linecap="square"/>
</g>
<g clip-path="url(#clip52_1545_8138)">
<path d="M96 763.848H94V765.848H96V763.848Z" fill="white" fill-opacity="0.08"/>
<path d="M94 905.798V859.61M94 839.898L116.93 826.658V750.61L134 737.368L111.07 750.61V777.086L134 790.328M134 836.514L94 859.608M94 859.608V905.796M94 905.796L134 928.892L174 905.796V859.608M174 859.608L134 836.514M134 836.514L174 859.612M94 786.942L71.07 800.18V826.658L94 839.898L116.93 826.658V800.178L94 786.944V740.756L134 717.662L174 740.756V786.944M134 836.514V790.328M134 856.226L111.07 869.464V895.942L134 909.182L156.93 895.942V869.464L134 856.226ZM151.07 800.182V826.658L174 839.896L196.93 826.656V800.18L174 786.94L151.07 800.182Z" stroke="white" stroke-opacity="0.08" stroke-linecap="square"/>
</g>
<g clip-path="url(#clip53_1545_8138)">
<path d="M176 763.848H174V765.848H176V763.848Z" fill="white" fill-opacity="0.08"/>
<path d="M174 905.798V859.61M174 839.898L196.93 826.658V750.61L214 737.368L191.07 750.61V777.086L214 790.328M214 836.514L174 859.608M174 859.608V905.796M174 905.796L214 928.892L254 905.796V859.608M254 859.608L214 836.514M214 836.514L254 859.612M174 786.942L151.07 800.18V826.658L174 839.898L196.93 826.658V800.178L174 786.944V740.756L214 717.662L254 740.756V786.944M214 836.514V790.328M214 856.226L191.07 869.464V895.942L214 909.182L236.93 895.942V869.464L214 856.226ZM231.07 800.182V826.658L254 839.896L276.93 826.656V800.18L254 786.94L231.07 800.182Z" stroke="white" stroke-opacity="0.08" stroke-linecap="square"/>
</g>
<g clip-path="url(#clip54_1545_8138)">
<path d="M256 763.848H254V765.848H256V763.848Z" fill="white" fill-opacity="0.08"/>
<path d="M254 905.798V859.61M254 839.898L276.93 826.658V750.61L294 737.368L271.07 750.61V777.086L294 790.328M294 836.514L254 859.608M254 859.608V905.796M254 905.796L294 928.892L334 905.796V859.608M334 859.608L294 836.514M294 836.514L334 859.612M254 786.942L231.07 800.18V826.658L254 839.898L276.93 826.658V800.178L254 786.944V740.756L294 717.662L334 740.756V786.944M294 836.514V790.328M294 856.226L271.07 869.464V895.942L294 909.182L316.93 895.942V869.464L294 856.226ZM311.07 800.182V826.658L334 839.896L356.93 826.656V800.18L334 786.94L311.07 800.182Z" stroke="white" stroke-opacity="0.08" stroke-linecap="square"/>
</g>
<g clip-path="url(#clip55_1545_8138)">
<path d="M336 763.848H334V765.848H336V763.848Z" fill="white" fill-opacity="0.08"/>
<path d="M334 905.798V859.61M334 839.898L356.93 826.658V750.61L374 737.368L351.07 750.61V777.086L374 790.328M374 836.514L334 859.608M334 859.608V905.796M334 905.796L374 928.892L414 905.796V859.608M414 859.608L374 836.514M374 836.514L414 859.612M334 786.942L311.07 800.18V826.658L334 839.898L356.93 826.658V800.178L334 786.944V740.756L374 717.662L414 740.756V786.944M374 836.514V790.328M374 856.226L351.07 869.464V895.942L374 909.182L396.93 895.942V869.464L374 856.226ZM391.07 800.182V826.658L414 839.896L436.93 826.656V800.18L414 786.94L391.07 800.182Z" stroke="white" stroke-opacity="0.08" stroke-linecap="square"/>
</g>
<g clip-path="url(#clip56_1545_8138)">
<path d="M416 763.848H414V765.848H416V763.848Z" fill="white" fill-opacity="0.08"/>
<path d="M414 905.798V859.61M414 839.898L436.93 826.658V750.61L454 737.368L431.07 750.61V777.086L454 790.328M454 836.514L414 859.608M414 859.608V905.796M414 905.796L454 928.892L494 905.796V859.608M494 859.608L454 836.514M454 836.514L494 859.612M414 786.942L391.07 800.18V826.658L414 839.898L436.93 826.658V800.178L414 786.944V740.756L454 717.662L494 740.756V786.944M454 836.514V790.328M454 856.226L431.07 869.464V895.942L454 909.182L476.93 895.942V869.464L454 856.226ZM471.07 800.182V826.658L494 839.896L516.93 826.656V800.18L494 786.94L471.07 800.182Z" stroke="white" stroke-opacity="0.08" stroke-linecap="square"/>
</g>
</g>
<defs>
<clipPath id="clip0_1545_8138">
<rect width="428" height="764" fill="white"/>
</clipPath>
<clipPath id="clip1_1545_8138">
<rect width="80" height="118.856" fill="white" transform="translate(-66 -68.1436)"/>
</clipPath>
<clipPath id="clip2_1545_8138">
<rect width="80" height="118.856" fill="white" transform="translate(14 -68.1436)"/>
</clipPath>
<clipPath id="clip3_1545_8138">
<rect width="80" height="118.856" fill="white" transform="translate(94 -68.1436)"/>
</clipPath>
<clipPath id="clip4_1545_8138">
<rect width="80" height="118.856" fill="white" transform="translate(174 -68.1436)"/>
</clipPath>
<clipPath id="clip5_1545_8138">
<rect width="80" height="118.856" fill="white" transform="translate(254 -68.1436)"/>
</clipPath>
<clipPath id="clip6_1545_8138">
<rect width="80" height="118.856" fill="white" transform="translate(334 -68.1436)"/>
</clipPath>
<clipPath id="clip7_1545_8138">
<rect width="80" height="118.856" fill="white" transform="translate(414 -68.1436)"/>
</clipPath>
<clipPath id="clip8_1545_8138">
<rect width="80" height="118.856" fill="white" transform="translate(-66 50.7119)"/>
</clipPath>
<clipPath id="clip9_1545_8138">
<rect width="80" height="118.856" fill="white" transform="translate(14 50.7119)"/>
</clipPath>
<clipPath id="clip10_1545_8138">
<rect width="80" height="118.856" fill="white" transform="translate(94 50.7119)"/>
</clipPath>
<clipPath id="clip11_1545_8138">
<rect width="80" height="118.856" fill="white" transform="translate(174 50.7119)"/>
</clipPath>
<clipPath id="clip12_1545_8138">
<rect width="80" height="118.856" fill="white" transform="translate(254 50.7119)"/>
</clipPath>
<clipPath id="clip13_1545_8138">
<rect width="80" height="118.856" fill="white" transform="translate(334 50.7119)"/>
</clipPath>
<clipPath id="clip14_1545_8138">
<rect width="80" height="118.856" fill="white" transform="translate(414 50.7119)"/>
</clipPath>
<clipPath id="clip15_1545_8138">
<rect width="80" height="118.856" fill="white" transform="translate(-66 169.568)"/>
</clipPath>
<clipPath id="clip16_1545_8138">
<rect width="80" height="118.856" fill="white" transform="translate(14 169.568)"/>
</clipPath>
<clipPath id="clip17_1545_8138">
<rect width="80" height="118.856" fill="white" transform="translate(94 169.568)"/>
</clipPath>
<clipPath id="clip18_1545_8138">
<rect width="80" height="118.856" fill="white" transform="translate(174 169.568)"/>
</clipPath>
<clipPath id="clip19_1545_8138">
<rect width="80" height="118.856" fill="white" transform="translate(254 169.568)"/>
</clipPath>
<clipPath id="clip20_1545_8138">
<rect width="80" height="118.856" fill="white" transform="translate(334 169.568)"/>
</clipPath>
<clipPath id="clip21_1545_8138">
<rect width="80" height="118.856" fill="white" transform="translate(414 169.568)"/>
</clipPath>
<clipPath id="clip22_1545_8138">
<rect width="80" height="118.856" fill="white" transform="translate(-66 288.424)"/>
</clipPath>
<clipPath id="clip23_1545_8138">
<rect width="80" height="118.856" fill="white" transform="translate(14 288.424)"/>
</clipPath>
<clipPath id="clip24_1545_8138">
<rect width="80" height="118.856" fill="white" transform="translate(94 288.424)"/>
</clipPath>
<clipPath id="clip25_1545_8138">
<rect width="80" height="118.856" fill="white" transform="translate(174 288.424)"/>
</clipPath>
<clipPath id="clip26_1545_8138">
<rect width="80" height="118.856" fill="white" transform="translate(254 288.424)"/>
</clipPath>
<clipPath id="clip27_1545_8138">
<rect width="80" height="118.856" fill="white" transform="translate(334 288.424)"/>
</clipPath>
<clipPath id="clip28_1545_8138">
<rect width="80" height="118.856" fill="white" transform="translate(414 288.424)"/>
</clipPath>
<clipPath id="clip29_1545_8138">
<rect width="80" height="118.856" fill="white" transform="translate(-66 407.28)"/>
</clipPath>
<clipPath id="clip30_1545_8138">
<rect width="80" height="118.856" fill="white" transform="translate(14 407.28)"/>
</clipPath>
<clipPath id="clip31_1545_8138">
<rect width="80" height="118.856" fill="white" transform="translate(94 407.28)"/>
</clipPath>
<clipPath id="clip32_1545_8138">
<rect width="80" height="118.856" fill="white" transform="translate(174 407.28)"/>
</clipPath>
<clipPath id="clip33_1545_8138">
<rect width="80" height="118.856" fill="white" transform="translate(254 407.28)"/>
</clipPath>
<clipPath id="clip34_1545_8138">
<rect width="80" height="118.856" fill="white" transform="translate(334 407.28)"/>
</clipPath>
<clipPath id="clip35_1545_8138">
<rect width="80" height="118.856" fill="white" transform="translate(414 407.28)"/>
</clipPath>
<clipPath id="clip36_1545_8138">
<rect width="80" height="118.856" fill="white" transform="translate(-66 526.136)"/>
</clipPath>
<clipPath id="clip37_1545_8138">
<rect width="80" height="118.856" fill="white" transform="translate(14 526.136)"/>
</clipPath>
<clipPath id="clip38_1545_8138">
<rect width="80" height="118.856" fill="white" transform="translate(94 526.136)"/>
</clipPath>
<clipPath id="clip39_1545_8138">
<rect width="80" height="118.856" fill="white" transform="translate(174 526.136)"/>
</clipPath>
<clipPath id="clip40_1545_8138">
<rect width="80" height="118.856" fill="white" transform="translate(254 526.136)"/>
</clipPath>
<clipPath id="clip41_1545_8138">
<rect width="80" height="118.856" fill="white" transform="translate(334 526.136)"/>
</clipPath>
<clipPath id="clip42_1545_8138">
<rect width="80" height="118.856" fill="white" transform="translate(414 526.136)"/>
</clipPath>
<clipPath id="clip43_1545_8138">
<rect width="80" height="118.856" fill="white" transform="translate(-66 644.992)"/>
</clipPath>
<clipPath id="clip44_1545_8138">
<rect width="80" height="118.856" fill="white" transform="translate(14 644.992)"/>
</clipPath>
<clipPath id="clip45_1545_8138">
<rect width="80" height="118.856" fill="white" transform="translate(94 644.992)"/>
</clipPath>
<clipPath id="clip46_1545_8138">
<rect width="80" height="118.856" fill="white" transform="translate(174 644.992)"/>
</clipPath>
<clipPath id="clip47_1545_8138">
<rect width="80" height="118.856" fill="white" transform="translate(254 644.992)"/>
</clipPath>
<clipPath id="clip48_1545_8138">
<rect width="80" height="118.856" fill="white" transform="translate(334 644.992)"/>
</clipPath>
<clipPath id="clip49_1545_8138">
<rect width="80" height="118.856" fill="white" transform="translate(414 644.992)"/>
</clipPath>
<clipPath id="clip50_1545_8138">
<rect width="80" height="118.856" fill="white" transform="translate(-66 763.848)"/>
</clipPath>
<clipPath id="clip51_1545_8138">
<rect width="80" height="118.856" fill="white" transform="translate(14 763.848)"/>
</clipPath>
<clipPath id="clip52_1545_8138">
<rect width="80" height="118.856" fill="white" transform="translate(94 763.848)"/>
</clipPath>
<clipPath id="clip53_1545_8138">
<rect width="80" height="118.856" fill="white" transform="translate(174 763.848)"/>
</clipPath>
<clipPath id="clip54_1545_8138">
<rect width="80" height="118.856" fill="white" transform="translate(254 763.848)"/>
</clipPath>
<clipPath id="clip55_1545_8138">
<rect width="80" height="118.856" fill="white" transform="translate(334 763.848)"/>
</clipPath>
<clipPath id="clip56_1545_8138">
<rect width="80" height="118.856" fill="white" transform="translate(414 763.848)"/>
</clipPath>
</defs>
</svg>
