<svg width="200" height="59" viewBox="0 0 200 59" fill="none" xmlns="http://www.w3.org/2000/svg">
<g clip-path="url(#clip0_1309_4927)">
<path d="M197.79 52.0327C197.79 55.1545 195.262 57.683 192.134 57.683H7.03195C3.90583 57.683 1.36847 55.1545 1.36847 52.0327V6.97319C1.36847 3.85297 3.90595 1.31549 7.03195 1.31549H192.132C195.262 1.31549 197.789 3.85297 197.789 6.97319L197.79 52.0327Z" fill="white"/>
<path d="M192.134 58.9982H7.03196C3.1859 58.9982 0.0553589 55.875 0.0553589 52.0334V6.97535C0.0553589 3.13077 3.1859 0.00317383 7.03196 0.00317383H192.132C195.974 0.00317383 199.109 3.13077 199.109 6.97535V52.0334C199.112 55.875 195.977 58.9982 192.134 58.9982Z" fill="black"/>
<path d="M197.79 52.0327C197.79 55.1545 195.262 57.683 192.134 57.683H7.03195C3.90583 57.683 1.36847 55.1545 1.36847 52.0327V6.97319C1.36847 3.85297 3.90595 1.31549 7.03195 1.31549H192.132C195.262 1.31549 197.789 3.85297 197.789 6.97319L197.79 52.0327Z" fill="black"/>
<path d="M44.5026 29.1895C44.4598 24.4346 48.3959 22.1214 48.5759 22.0137C46.3467 18.7636 42.8917 18.3196 41.6776 18.2842C38.7757 17.9788 35.9609 20.0206 34.4826 20.0206C32.9749 20.0206 30.6985 18.3137 28.2451 18.3638C25.088 18.4125 22.1347 20.2404 20.5147 23.0788C17.1718 28.8664 19.6649 37.3714 22.8679 42.0495C24.4699 44.3421 26.3421 46.8987 28.7925 46.8087C31.1898 46.7114 32.0853 45.2818 34.9783 45.2818C37.8447 45.2818 38.6857 46.8087 41.1847 46.7512C43.7577 46.7114 45.3775 44.4498 46.9237 42.138C48.7751 39.5135 49.5186 36.9258 49.5482 36.7931C49.4891 36.7724 44.5528 34.887 44.5026 29.1895ZM39.7817 15.2067C41.071 13.5943 41.9533 11.4005 41.7084 9.17432C39.8421 9.25693 37.5083 10.4652 36.1642 12.0423C34.9751 13.432 33.9129 15.7098 34.1873 17.8519C36.2838 18.0083 38.4363 16.7941 39.7817 15.2067Z" fill="white"/>
<path d="M79.2263 46.4798H75.8759L74.0407 40.7129H67.6615L65.9132 46.4798H62.6515L68.9731 26.8467H72.8767L79.2263 46.4798ZM73.4876 38.2934L71.8279 33.1668C71.6523 32.6431 71.3219 31.4098 70.8379 29.4683H70.779C70.5842 30.3033 70.2729 31.5366 69.8466 33.1668L68.2149 38.2934H73.4876ZM95.4516 39.2273C95.4516 41.6349 94.798 43.538 93.4893 44.9353C92.3181 46.1788 90.862 46.8 89.1254 46.8C87.2504 46.8 85.9019 46.1316 85.0832 44.7922V52.2202H81.9379V36.976C81.9379 35.4637 81.8982 33.9133 81.8214 32.323H84.5876L84.7632 34.5669H84.822C85.871 32.8762 87.4628 32.0307 89.599 32.0307C91.269 32.0307 92.6632 32.6902 93.7785 34.0106C94.8923 35.334 95.4516 37.0719 95.4516 39.2273ZM92.2471 39.3424C92.2471 37.9644 91.9373 36.8285 91.3148 35.933C90.6346 35.0021 89.7215 34.536 88.5766 34.536C87.8006 34.536 87.0955 34.7955 86.4655 35.3075C85.8341 35.8238 85.421 36.498 85.2279 37.333C85.1305 37.7225 85.0818 38.0397 85.0818 38.2906V40.6524C85.0818 41.6807 85.3975 42.5497 86.0289 43.2608C86.6604 43.969 87.4806 44.3244 88.4897 44.3244C89.6745 44.3244 90.5965 43.8657 91.2559 42.9553C91.9167 42.0421 92.2471 40.8383 92.2471 39.3424ZM111.734 39.2273C111.734 41.6349 111.081 43.538 109.772 44.9353C108.599 46.1788 107.145 46.8 105.407 46.8C103.532 46.8 102.183 46.1316 101.364 44.7922V52.2202H98.2191V36.976C98.2191 35.4637 98.1792 33.9133 98.1025 32.323H100.869L101.044 34.5669H101.103C102.151 32.8762 103.743 32.0307 105.88 32.0307C107.549 32.0307 108.943 32.6902 110.061 34.0106C111.174 35.334 111.734 37.0719 111.734 39.2273ZM108.528 39.3424C108.528 37.9644 108.217 36.8285 107.594 35.933C106.914 35.0021 106.004 34.536 104.859 34.536C104.083 34.536 103.378 34.7955 102.745 35.3075C102.114 35.8238 101.702 36.498 101.509 37.333C101.413 37.7225 101.361 38.0397 101.361 38.2906V40.6524C101.361 41.6807 101.679 42.5497 102.307 43.2608C102.938 43.9675 103.759 44.3244 104.771 44.3244C105.957 44.3244 106.879 43.8657 107.537 42.9553C108.198 42.0421 108.528 40.8383 108.528 39.3424ZM129.939 40.9725C129.939 42.644 129.355 44.0028 128.194 45.0517C126.916 46.1965 125.133 46.7704 122.846 46.7704C120.733 46.7704 119.04 46.3632 117.762 45.5474L118.489 42.9258C119.869 43.7431 121.384 44.1503 123.033 44.1503C124.219 44.1503 125.141 43.8818 125.799 43.3492C126.459 42.8152 126.792 42.1011 126.792 41.2101C126.792 40.4121 126.516 39.7436 125.975 39.1994C125.431 38.6565 124.531 38.1504 123.267 37.6857C119.829 36.4037 118.109 34.5286 118.109 32.062C118.109 30.451 118.717 29.1321 119.929 28.1008C121.142 27.0711 122.75 26.5563 124.751 26.5563C126.537 26.5563 128.026 26.8676 129.207 27.4887L128.418 30.0526C127.306 29.4507 126.05 29.1498 124.646 29.1498C123.536 29.1498 122.666 29.4227 122.043 29.9656C121.52 30.451 121.254 31.0427 121.254 31.7448C121.254 32.5194 121.557 33.1626 122.158 33.6672C122.681 34.1318 123.634 34.6379 125.012 35.1808C126.702 35.8624 127.944 36.6561 128.74 37.5678C129.541 38.4793 129.939 39.6168 129.939 40.9725ZM140.365 34.6834H136.898V41.5567C136.898 43.305 137.509 44.1768 138.733 44.1768C139.295 44.1768 139.762 44.1295 140.13 44.0308L140.217 46.4193C139.598 46.651 138.782 46.7674 137.771 46.7674C136.529 46.7674 135.558 46.3883 134.858 45.63C134.16 44.8717 133.809 43.6015 133.809 41.8134V34.6775H131.743V32.3171H133.809V29.725L136.898 28.7926V32.3171H140.365V34.6834ZM155.976 39.2848C155.976 41.4607 155.354 43.2473 154.112 44.6445C152.812 46.0829 151.083 46.7999 148.927 46.7999C146.847 46.7999 145.193 46.1109 143.96 44.7345C142.727 43.355 142.11 41.6172 142.11 39.5209C142.11 37.327 142.747 35.5302 144.018 34.1331C145.291 32.7346 147.005 32.0354 149.161 32.0354C151.238 32.0354 152.906 32.7257 154.169 34.1036C155.376 35.4402 155.976 37.1663 155.976 39.2848ZM152.716 39.3571C152.716 38.0602 152.436 36.9478 151.874 36.0169C151.214 34.8928 150.27 34.3308 149.047 34.3308C147.787 34.3308 146.821 34.8928 146.163 36.0169C145.599 36.9478 145.319 38.0794 145.319 39.416C145.319 40.7144 145.599 41.8296 146.163 42.7576C146.843 43.8818 147.791 44.4439 149.02 44.4439C150.223 44.4439 151.165 43.87 151.847 42.7296C152.425 41.7766 152.716 40.6568 152.716 39.3571ZM166.205 35.0891C165.893 35.0315 165.56 35.002 165.213 35.002C164.107 35.002 163.251 35.4181 162.649 36.2559C162.127 36.9936 161.864 37.926 161.864 39.0516V46.4796H158.719V36.7813C158.719 35.1511 158.688 33.664 158.628 32.3244H161.367L161.482 35.0329H161.569C161.903 34.1022 162.425 33.3511 163.142 32.789C163.843 32.2831 164.599 32.0307 165.415 32.0307C165.706 32.0307 165.969 32.0514 166.202 32.0884L166.205 35.0891ZM180.271 38.7316C180.271 39.2951 180.234 39.7701 180.156 40.1582H170.72C170.756 41.5567 171.213 42.6278 172.089 43.3654C172.885 44.0235 173.913 44.3539 175.176 44.3539C176.573 44.3539 177.847 44.1326 178.994 43.6856L179.486 45.8675C178.147 46.4517 176.565 46.7424 174.74 46.7424C172.545 46.7424 170.822 46.0961 169.568 44.8068C168.317 43.5159 167.69 41.781 167.69 39.6079C167.69 37.4745 168.273 35.6969 169.44 34.2792C170.661 32.7655 172.312 32.0086 174.389 32.0086C176.43 32.0086 177.974 32.7654 179.023 34.2792C179.854 35.4786 180.271 36.9657 180.271 38.7316ZM177.272 37.9158C177.294 36.9819 177.088 36.1779 176.661 35.4978C176.117 34.6215 175.279 34.1848 174.156 34.1848C173.128 34.1848 172.29 34.6111 171.653 35.4668C171.129 36.1469 170.818 36.9642 170.722 37.9128L177.272 37.9158Z" fill="white"/>
<path d="M71.971 19.8199H70.323L69.4216 16.9859H66.2866L65.4265 19.8199H63.8229L66.9298 10.1701H68.8477L71.971 19.8199ZM69.1501 15.7968L68.3343 13.277C68.2487 13.0189 68.0909 12.4184 67.8474 11.4595H67.8179C67.7176 11.8741 67.5745 12.476 67.3591 13.277L66.558 15.7968H69.1501ZM79.7397 12.8625L77.1048 19.8199H75.6014L73.0522 12.8625H74.7134L75.9025 16.5418C76.1031 17.157 76.2742 17.7442 76.4026 18.3019H76.4454C76.5606 17.8017 76.7316 17.2146 76.9455 16.5418L78.1198 12.8625H79.7397ZM85.3487 19.8199L85.2336 19.0187H85.1907C84.7186 19.6634 84.0312 19.9776 83.1579 19.9776C81.9126 19.9776 81.0245 19.1043 81.0245 17.93C81.0245 16.2127 82.5131 15.3246 85.0904 15.3246V15.1963C85.0904 14.2801 84.6036 13.8213 83.6446 13.8213C82.957 13.8213 82.3552 13.9939 81.8271 14.3376L81.5127 13.3212C82.1574 12.9199 82.9586 12.7193 83.9042 12.7193C85.7217 12.7193 86.6393 13.6782 86.6393 15.5975V18.1601C86.6393 18.8623 86.6688 19.4067 86.7396 19.8213L85.3487 19.8199ZM85.1333 16.3545C83.4147 16.3545 82.556 16.7705 82.556 17.7575C82.556 18.4877 83 18.8448 83.6152 18.8448C84.4029 18.8448 85.1333 18.2443 85.1333 17.4285V16.3545ZM90.0829 11.7162C89.568 11.7162 89.1667 11.3149 89.1667 10.7853C89.1667 10.2557 89.5814 9.86915 90.1124 9.86915C90.642 9.86915 91.0713 10.2557 91.0567 10.7853C91.0567 11.3444 90.6569 11.7162 90.0829 11.7162ZM90.8854 19.8199H89.3393V12.8625H90.8854V19.8199ZM95.1785 19.8199H93.6324V9.66998H95.1785V19.8199ZM101.749 19.8199L101.634 19.0187H101.592C101.119 19.6634 100.432 19.9776 99.5586 19.9776C98.3135 19.9776 97.4253 19.1043 97.4253 17.93C97.4253 16.2127 98.9138 15.3246 101.491 15.3246V15.1963C101.491 14.2801 101.004 13.8213 100.045 13.8213C99.3578 13.8213 98.7559 13.9939 98.2278 14.3376L97.9122 13.3197C98.5569 12.9184 99.358 12.7178 100.304 12.7178C102.121 12.7178 103.039 13.6767 103.039 15.5961V18.1586C103.039 18.8609 103.07 19.4052 103.138 19.8198H101.749V19.8199ZM101.534 16.3545C99.8153 16.3545 98.9567 16.7705 98.9567 17.7575C98.9567 18.4877 99.4006 18.8448 100.016 18.8448C100.804 18.8448 101.534 18.2443 101.534 17.4285V16.3545ZM109.303 19.9778C108.316 19.9778 107.587 19.5617 107.115 18.7459H107.084L106.995 19.8199H105.678C105.721 19.2623 105.736 18.6308 105.736 17.9448V9.66998H107.283V13.8804H107.313C107.771 13.1074 108.514 12.7209 109.531 12.7209C111.207 12.7209 112.382 14.1534 112.382 16.2424C112.382 18.4022 111.078 19.9778 109.303 19.9778ZM108.989 13.935C108.099 13.935 107.285 14.7081 107.285 15.7821V16.9992C107.285 17.9581 108.016 18.7459 108.962 18.7459C110.12 18.7459 110.809 17.8017 110.809 16.2984C110.808 14.8954 110.091 13.935 108.989 13.935ZM116.213 19.8199H114.669V9.66998H116.213V19.8199ZM124.63 16.713H119.988C120.019 18.0304 120.89 18.7739 122.179 18.7739C122.867 18.7739 123.497 18.6589 124.054 18.445L124.295 19.519C123.637 19.8052 122.864 19.9483 121.962 19.9483C119.785 19.9483 118.497 18.5733 118.497 16.4415C118.497 14.3083 119.816 12.7046 121.788 12.7046C123.563 12.7046 124.681 14.0221 124.681 16.0122C124.687 16.2837 124.674 16.5271 124.63 16.713ZM123.212 15.6109C123.212 14.5369 122.667 13.7786 121.679 13.7786C120.791 13.7786 120.092 14.5517 119.988 15.6109H123.212ZM134 19.9778C131.968 19.9778 130.65 18.4597 130.65 16.3987C130.65 14.2507 131.996 12.7194 134.117 12.7194C136.119 12.7194 137.467 14.1652 137.467 16.2851C137.468 18.4597 136.078 19.9778 134 19.9778ZM134.06 13.8495C132.943 13.8495 132.227 14.894 132.227 16.3545C132.227 17.787 132.958 18.8315 134.045 18.8315C135.132 18.8315 135.861 17.7147 135.861 16.325C135.862 14.9087 135.147 13.8495 134.06 13.8495ZM145.779 19.8199H144.235V15.8249C144.235 14.5945 143.762 13.9778 142.832 13.9778C141.916 13.9778 141.284 14.7656 141.284 15.6818V19.8199H139.739V14.8512C139.739 14.236 139.723 13.5765 139.682 12.861H141.042L141.114 13.935H141.157C141.57 13.1915 142.417 12.7179 143.361 12.7179C144.82 12.7179 145.779 13.8347 145.779 15.6522V19.8199H145.779ZM155.895 14.0221H154.194V17.4005C154.194 18.2605 154.494 18.6898 155.094 18.6898C155.367 18.6898 155.597 18.6603 155.782 18.6176L155.824 19.7919C155.523 19.9071 155.121 19.9645 154.623 19.9645C153.405 19.9645 152.678 19.2918 152.678 17.5303V14.0221H151.663V12.8625H152.678V11.5878L154.194 11.129V12.861H155.895V14.0221ZM164.083 19.8199H162.535V15.8544C162.535 14.6092 162.063 13.9793 161.133 13.9793C160.331 13.9793 159.588 14.5237 159.588 15.6257V19.8199H158.04V9.66998H159.588V13.8495H159.617C160.104 13.0912 160.806 12.7179 161.708 12.7179C163.182 12.7179 164.083 13.8627 164.083 15.6818V19.8199ZM171.983 16.713H167.343C167.373 18.0304 168.243 18.7739 169.533 18.7739C170.222 18.7739 170.85 18.6589 171.408 18.445L171.65 19.519C170.992 19.8052 170.217 19.9483 169.316 19.9483C167.139 19.9483 165.851 18.5733 165.851 16.4415C165.851 14.3083 167.17 12.7046 169.142 12.7046C170.917 12.7046 172.035 14.0221 172.035 16.0122C172.041 16.2837 172.026 16.5271 171.983 16.713ZM170.565 15.6109C170.565 14.5369 170.022 13.7786 169.034 13.7786C168.144 13.7786 167.445 14.5517 167.343 15.6109H170.565Z" fill="white"/>
</g>
<defs>
<clipPath id="clip0_1309_4927">
<rect width="199.055" height="59" fill="white" transform="translate(0.0553589)"/>
</clipPath>
</defs>
</svg>
