<svg width="317" height="77" viewBox="0 0 317 77" fill="none" xmlns="http://www.w3.org/2000/svg">
<path d="M155.5 17.5003L155.607 17.9888L155.5 17.5003ZM317 6.00005L312.043 3.03953L311.958 8.8124L317 6.00005ZM0.999938 76C1.2196 76.4492 1.2196 76.4492 1.2196 76.4492C1.21961 76.4492 1.21961 76.4492 1.21963 76.4492C1.21965 76.4492 1.21969 76.4492 1.21974 76.4491C1.21984 76.4491 1.22 76.449 1.22021 76.4489C1.22064 76.4487 1.2213 76.4484 1.22217 76.448C1.22392 76.4471 1.22655 76.4458 1.23008 76.4441C1.23713 76.4406 1.24772 76.4355 1.26183 76.4286C1.29005 76.4148 1.33232 76.3942 1.38843 76.3669C1.50064 76.3123 1.66816 76.2309 1.88911 76.1239C2.33102 75.9099 2.98666 75.5936 3.84103 75.1843L3.40899 74.2824C2.55331 74.6923 1.89641 75.0093 1.4533 75.2239C1.23174 75.3312 1.06362 75.4128 0.95083 75.4677C0.894433 75.4952 0.851865 75.5159 0.823362 75.5298C0.80911 75.5368 0.798374 75.542 0.791184 75.5456C0.787589 75.5473 0.78488 75.5486 0.783061 75.5495C0.782152 75.55 0.781465 75.5503 0.781001 75.5505C0.780769 75.5506 0.780593 75.5507 0.780473 75.5508C0.780412 75.5508 0.780366 75.5508 0.780334 75.5509C0.780317 75.5509 0.780304 75.5509 0.780296 75.5509C0.780285 75.5509 0.780278 75.5509 0.999938 76ZM9.17014 72.6561C10.7484 71.9138 12.5397 71.0765 14.5239 70.1568L14.1034 69.2495C12.1174 70.17 10.3244 71.0081 8.74453 71.7512L9.17014 72.6561ZM19.9233 67.6713C21.6187 66.8961 23.4103 66.0817 25.2899 65.2333L24.8785 64.3218C22.9973 65.1709 21.2043 65.986 19.5074 66.7619L19.9233 67.6713ZM30.6736 62.8187C32.4176 62.0415 34.2209 61.2427 36.0784 60.4256L35.6757 59.5102C33.8167 60.3281 32.012 61.1275 30.2665 61.9053L30.6736 62.8187ZM41.4963 58.0577C43.2666 57.289 45.0774 56.5078 46.9248 55.7165L46.5311 54.7973C44.6821 55.5893 42.8698 56.3711 41.098 57.1404L41.4963 58.0577ZM52.3642 53.4026C54.1535 52.6468 55.9715 51.8841 57.8153 51.1165L57.431 50.1934C55.5855 50.9616 53.7659 51.725 51.9751 52.4814L52.3642 53.4026ZM63.279 48.8591C65.0848 48.1188 66.9113 47.3757 68.7559 46.6315L68.3817 45.7041C66.5354 46.449 64.7071 47.1928 62.8997 47.9339L63.279 48.8591ZM74.2461 44.4351C76.0669 43.713 77.9021 42.9914 79.7494 42.272L79.3865 41.3401C77.5372 42.0604 75.7001 42.7827 73.8774 43.5056L74.2461 44.4351ZM85.2636 40.1449C87.0965 39.4449 88.9385 38.7483 90.7875 38.0568L90.4372 37.1201C88.586 37.8125 86.7417 38.5099 84.9068 39.2108L85.2636 40.1449ZM96.3289 36.0072C98.1779 35.3312 100.031 34.6616 101.887 33.9997L101.551 33.0578C99.6929 33.7206 97.8369 34.3911 95.9855 35.068L96.3289 36.0072ZM107.462 32.038C109.326 31.391 111.19 30.7533 113.052 30.1263L112.732 29.1786C110.868 29.8066 109.001 30.4453 107.134 31.0932L107.462 32.038ZM118.657 28.2696C120.537 27.6574 122.412 27.0579 124.28 26.4723L123.981 25.518C122.109 26.1048 120.231 26.7055 118.347 27.3187L118.657 28.2696ZM129.93 24.7381C131.832 24.1673 133.723 23.613 135.602 23.0766L135.327 22.115C133.444 22.6527 131.548 23.2083 129.643 23.7803L129.93 24.7381ZM141.295 21.497C143.218 20.9795 145.124 20.4832 147.011 20.01L146.768 19.04C144.875 19.5147 142.963 20.0124 141.035 20.5314L141.295 21.497ZM152.751 18.629C153.709 18.4088 154.661 18.1953 155.607 17.9888L155.393 17.0118C154.444 17.2191 153.489 17.4334 152.527 17.6545L152.751 18.629ZM155.607 17.9888C156.533 17.7864 157.468 17.5875 158.412 17.3921L158.209 16.4129C157.262 16.609 156.323 16.8087 155.393 17.0118L155.607 17.9888ZM164.089 16.2741C165.962 15.9234 167.863 15.585 169.787 15.2584L169.62 14.2725C167.69 14.6 165.784 14.9394 163.905 15.2912L164.089 16.2741ZM175.502 14.3328C177.395 14.0404 179.305 13.7587 181.232 13.4872L181.092 12.497C179.162 12.7691 177.246 13.0515 175.35 13.3445L175.502 14.3328ZM186.972 12.7135C188.875 12.4684 190.79 12.2326 192.714 12.0058L192.597 11.0127C190.669 11.2399 188.751 11.4761 186.844 11.7217L186.972 12.7135ZM198.464 11.3571C200.378 11.1506 202.298 10.9525 204.223 10.7624L204.124 9.76726C202.197 9.95759 200.274 10.156 198.357 10.3629L198.464 11.3571ZM209.988 10.2177C211.911 10.044 213.835 9.87798 215.758 9.71936L215.676 8.72275C213.751 8.88157 211.824 9.04778 209.898 9.22172L209.988 10.2177ZM221.53 9.26447C223.459 9.1194 225.384 8.98145 227.303 8.8503L227.234 7.85263C225.314 7.98393 223.387 8.12203 221.455 8.26729L221.53 9.26447ZM233.082 8.47392C235.021 8.35382 236.951 8.24044 238.867 8.13342L238.811 7.13498C236.893 7.24211 234.962 7.35561 233.02 7.47583L233.082 8.47392ZM244.654 7.82715C246.601 7.7297 248.531 7.63863 250.442 7.55354L250.397 6.55453C248.485 6.63971 246.553 6.73086 244.604 6.8284L244.654 7.82715ZM256.23 7.31119C258.186 7.23445 260.116 7.16383 262.019 7.09888L261.984 6.09947C260.081 6.16447 258.148 6.23515 256.191 6.31196L256.23 7.31119ZM267.808 6.91559C269.777 6.8581 271.709 6.80659 273.6 6.76048L273.576 5.76078C271.683 5.80692 269.75 5.85848 267.779 5.91601L267.808 6.91559ZM279.393 6.63298C281.381 6.59391 283.314 6.56075 285.185 6.53274L285.17 5.53286C283.297 5.56088 281.363 5.59407 279.373 5.63317L279.393 6.63298ZM290.966 6.45975C292.987 6.43898 294.916 6.42417 296.742 6.41411L296.737 5.41413C294.909 5.42419 292.979 5.43902 290.956 5.4598L290.966 6.45975ZM302.568 6.39659C304.711 6.3956 306.649 6.40089 308.358 6.40954L308.363 5.40955C306.652 5.4009 304.712 5.3956 302.567 5.39658L302.568 6.39659ZM155.5 17.5003L155.713 18.4773L155.5 17.5003ZM317 6.00005L307.087 0.0790196L306.915 11.6248L317 6.00005ZM0.999938 76C1.43926 76.8984 1.43925 76.8984 1.43925 76.8984C1.43926 76.8984 1.43926 76.8984 1.43927 76.8984C1.43929 76.8984 1.43933 76.8983 1.43937 76.8983C1.43947 76.8983 1.43962 76.8982 1.43982 76.8981C1.44023 76.8979 1.44087 76.8976 1.44172 76.8972C1.44344 76.8963 1.44604 76.8951 1.44953 76.8934C1.4565 76.89 1.46703 76.8848 1.48106 76.878C1.50914 76.8643 1.55127 76.8437 1.60723 76.8165C1.71915 76.762 1.88637 76.6808 2.10702 76.5739C2.54832 76.3603 3.20333 76.0442 4.05705 75.6352L3.19297 73.8315C2.33664 74.2417 1.67911 74.559 1.23539 74.7739C1.01353 74.8813 0.845116 74.9631 0.73203 75.0182C0.675487 75.0457 0.632775 75.0665 0.604128 75.0805C0.589805 75.0875 0.578998 75.0927 0.571737 75.0963C0.568106 75.0981 0.565362 75.0994 0.563508 75.1003C0.562581 75.1008 0.561876 75.1011 0.561394 75.1013C0.561153 75.1015 0.560968 75.1015 0.560839 75.1016C0.560775 75.1016 0.560724 75.1017 0.560687 75.1017C0.560669 75.1017 0.560652 75.1017 0.560642 75.1017C0.560629 75.1017 0.560619 75.1017 0.999938 76ZM9.38295 73.1085C10.9604 72.3666 12.7508 71.5297 14.7342 70.6105L13.8931 68.7959C11.9062 69.7168 10.1124 70.5553 8.53173 71.2987L9.38295 73.1085ZM20.1312 68.126C21.8259 67.3511 23.6167 66.5371 25.4957 65.689L24.6728 63.8661C22.7909 64.7156 20.9971 65.531 19.2995 66.3072L20.1312 68.126ZM30.8771 63.2754C32.6204 62.4985 34.423 61.7001 36.2798 60.8832L35.4744 59.0526C33.6146 59.8707 31.8091 60.6705 30.063 61.4486L30.8771 63.2754ZM41.6954 58.5163C43.465 57.748 45.275 56.9671 47.1217 56.1761L46.3342 54.3376C44.4844 55.13 42.6714 55.9122 40.8989 56.6818L41.6954 58.5163ZM52.5588 53.8632C54.3472 53.1077 56.1645 52.3454 58.0075 51.5781L57.2388 49.7318C55.3925 50.5004 53.5721 51.264 51.7806 52.0208L52.5588 53.8632ZM63.4687 49.3218C65.2736 48.5818 67.0993 47.839 68.943 47.0952L68.1947 45.2404C66.3474 45.9857 64.5183 46.7299 62.71 47.4713L63.4687 49.3218ZM74.4304 44.8999C76.2503 44.1781 78.0846 43.4569 79.9309 42.7379L79.2051 40.8742C77.3548 41.5948 75.5167 42.3175 73.6931 43.0408L74.4304 44.8999ZM85.442 40.612C87.2738 39.9124 89.1148 39.2162 90.9627 38.5251L90.2621 36.6518C88.4097 37.3446 86.5644 38.0424 84.7284 38.7437L85.442 40.612ZM96.5006 36.4768C98.3484 35.8012 100.201 35.132 102.055 34.4706L101.383 32.5868C99.5236 33.2501 97.6664 33.9211 95.8138 34.5984L96.5006 36.4768ZM107.626 32.5103C109.488 31.8638 111.351 31.2266 113.211 30.6002L112.573 28.7048C110.707 29.3333 108.838 29.9724 106.97 30.6209L107.626 32.5103ZM118.812 28.745C120.69 28.1334 122.563 27.5344 124.43 26.9494L123.831 25.0409C121.958 25.6282 120.077 26.2295 118.192 26.8433L118.812 28.745ZM130.074 25.217C131.973 24.6468 133.863 24.0931 135.739 23.5574L135.19 21.6343C133.304 22.1725 131.407 22.7288 129.499 23.3014L130.074 25.217ZM141.425 21.9798C143.345 21.463 145.249 20.9674 147.132 20.495L146.646 18.5551C144.75 19.0304 142.836 19.5289 140.905 20.0485L141.425 21.9798ZM152.863 19.1163C153.82 18.8965 154.77 18.6834 155.713 18.4773L155.287 16.5233C154.336 16.7311 153.378 16.9458 152.415 17.1672L152.863 19.1163ZM155.713 18.4773C156.638 18.2753 157.571 18.0768 158.513 17.8817L158.107 15.9233C157.159 16.1198 156.218 16.3198 155.287 16.5233L155.713 18.4773ZM164.181 16.7656C166.051 16.4154 167.949 16.0775 169.871 15.7514L169.536 13.7796C167.604 14.1075 165.695 14.4474 163.813 14.7997L164.181 16.7656ZM175.579 14.8269C177.469 14.5349 179.377 14.2535 181.302 13.9823L181.022 12.0018C179.09 12.2743 177.172 12.557 175.273 12.8503L175.579 14.8269ZM187.036 13.2094C188.937 12.9645 190.85 12.729 192.772 12.5024L192.538 10.5161C190.609 10.7435 188.689 10.98 186.78 11.2258L187.036 13.2094ZM198.517 11.8542C200.43 11.6479 202.349 11.4499 204.272 11.26L204.075 9.26969C202.147 9.46015 200.222 9.65874 198.303 9.86578L198.517 11.8542ZM210.033 10.7156C211.955 10.5421 213.878 10.3762 215.799 10.2177L215.635 8.22444C213.708 8.38337 211.78 8.54969 209.853 8.72374L210.033 10.7156ZM221.568 9.76306C223.496 9.61807 225.42 9.48021 227.337 9.34913L227.2 7.35379C225.279 7.48517 223.35 7.62335 221.418 7.7687L221.568 9.76306ZM233.113 8.97296C235.051 8.85293 236.979 8.73961 238.895 8.63264L238.783 6.63575C236.864 6.74294 234.932 6.8565 232.99 6.97679L233.113 8.97296ZM244.679 8.32653C246.625 8.22913 248.554 8.1381 250.464 8.05305L250.375 6.05503C248.462 6.14024 246.528 6.23144 244.579 6.32903L244.679 8.32653ZM256.249 7.81081C258.204 7.7341 260.134 7.66351 262.036 7.59859L261.967 5.59975C260.063 5.66479 258.129 5.7355 256.171 5.81234L256.249 7.81081ZM267.823 7.41538C269.791 7.35792 271.722 7.30642 273.612 7.26034L273.563 5.26093C271.67 5.30709 269.736 5.35867 267.765 5.41623L267.823 7.41538ZM279.403 7.13289C281.39 7.09383 283.322 7.06068 285.192 7.03269L285.162 5.03291C283.289 5.06095 281.354 5.09415 279.363 5.13327L279.403 7.13289ZM290.972 6.95973C292.992 6.93897 294.919 6.92416 296.745 6.9141L296.734 4.91414C294.905 4.9242 292.974 4.93904 290.951 4.95983L290.972 6.95973ZM302.568 6.89659C304.71 6.8956 306.647 6.90089 308.355 6.90953L308.365 4.90956C306.654 4.90089 304.713 4.8956 302.567 4.89658L302.568 6.89659Z" fill="#FFA500"/>
</svg>
