<svg width="389" height="190" viewBox="0 0 389 190" fill="none" xmlns="http://www.w3.org/2000/svg">
<path d="M179 74.9996L179.218 75.4497L179 74.9996ZM388.5 3.99958L382.938 2.4498L384.377 8.04119L388.5 3.99958ZM1.00004 189C1.30064 189.399 1.30064 189.399 1.30065 189.399C1.30065 189.399 1.30066 189.399 1.30067 189.399C1.30069 189.399 1.30073 189.399 1.30077 189.399C1.30086 189.399 1.30101 189.399 1.3012 189.399C1.30158 189.399 1.30215 189.398 1.30292 189.398C1.30446 189.396 1.30678 189.395 1.30988 189.392C1.31607 189.388 1.32538 189.381 1.33777 189.371C1.36255 189.353 1.39968 189.325 1.44898 189.288C1.54758 189.214 1.69487 189.103 1.88942 188.958C2.27853 188.667 2.85672 188.235 3.61267 187.673L3.01606 186.871C2.25929 187.433 1.68031 187.866 1.29044 188.157C1.0955 188.303 0.947843 188.414 0.848872 188.488C0.799386 188.525 0.762073 188.553 0.737108 188.572C0.724626 188.581 0.715231 188.588 0.708946 188.593C0.705803 188.595 0.703437 188.597 0.701852 188.598C0.701059 188.599 0.700462 188.599 0.700059 188.6C0.699858 188.6 0.699706 188.6 0.699602 188.6C0.69955 188.6 0.699511 188.6 0.699484 188.6C0.69947 188.6 0.699459 188.6 0.699452 188.6C0.699444 188.6 0.699438 188.6 1.00004 189ZM8.37851 184.15C9.75903 183.134 11.3257 181.986 13.0643 180.717L12.4747 179.909C10.7351 181.179 9.16742 182.328 7.78591 183.345L8.37851 184.15ZM17.8392 177.244C19.3471 176.152 20.9442 174.998 22.6246 173.789L22.0404 172.977C20.3591 174.187 18.7612 175.341 17.2524 176.435L17.8392 177.244ZM27.4055 170.359C28.9446 169.259 30.539 168.122 32.1852 166.953L31.606 166.137C29.959 167.307 28.3637 168.445 26.8238 169.546L27.4055 170.359ZM36.9711 163.563C38.5324 162.461 40.1328 161.335 41.7696 160.187L41.1954 159.368C39.5577 160.517 37.9565 161.644 36.3944 162.746L36.9711 163.563ZM46.5855 156.82C48.1688 155.717 49.7814 154.596 51.4212 153.461L50.852 152.639C49.2113 153.775 47.5979 154.896 46.0138 155.999L46.5855 156.82ZM56.2773 150.111C57.8678 149.017 59.4806 147.911 61.1142 146.796L60.5502 145.97C58.9157 147.086 57.302 148.192 55.7107 149.287L56.2773 150.111ZM65.9665 143.494C67.5752 142.403 69.2015 141.304 70.844 140.198L70.2855 139.369C68.6421 140.475 67.0148 141.575 65.4052 142.666L65.9665 143.494ZM75.7369 136.917C77.3506 135.838 78.9779 134.755 80.6175 133.668L80.065 132.835C78.4244 133.923 76.796 135.006 75.1813 136.085L75.7369 136.917ZM85.5246 130.429C87.1571 129.355 88.8001 128.279 90.4524 127.202L89.9062 126.364C88.2529 127.442 86.6088 128.519 84.9752 129.593L85.5246 130.429ZM95.3743 124.007C97.0151 122.947 98.6637 121.887 100.319 120.827L99.7796 119.985C98.1233 121.045 96.4735 122.106 94.8315 123.167L95.3743 124.007ZM105.281 117.666C106.932 116.619 108.588 115.574 110.249 114.533L109.717 113.686C108.056 114.728 106.398 115.774 104.745 116.821L105.281 117.666ZM115.237 111.42C116.901 110.387 118.569 109.359 120.238 108.335L119.715 107.483C118.045 108.507 116.376 109.537 114.71 110.571L115.237 111.42ZM125.258 105.275C126.938 104.258 128.617 103.247 130.296 102.244L129.783 101.386C128.102 102.39 126.421 103.402 124.74 104.42L125.258 105.275ZM135.343 99.249C137.039 98.2499 138.733 97.2594 140.424 96.2788L139.922 95.4138C138.229 96.3956 136.533 97.3872 134.835 98.3874L135.343 99.249ZM145.52 93.3474C147.227 92.374 148.929 91.4119 150.625 90.4623L150.136 89.5897C148.438 90.5407 146.733 91.5041 145.024 92.4787L145.52 93.3474ZM155.773 87.6083C157.504 86.6583 159.228 85.7227 160.942 84.8028L160.469 83.9216C158.752 84.843 157.026 85.7801 155.292 86.7316L155.773 87.6083ZM166.124 82.0563C167.874 81.1402 169.614 80.2422 171.34 79.3637L170.887 78.4724C169.157 79.3527 167.414 80.2525 165.66 81.1703L166.124 82.0563ZM176.606 76.7256C177.481 76.2947 178.351 75.8693 179.218 75.4497L178.782 74.5496C177.913 74.9703 177.041 75.3967 176.164 75.8286L176.606 76.7256ZM179.218 75.4497C180.125 75.0104 181.039 74.5718 181.961 74.1337L181.532 73.2306C180.608 73.6696 179.691 74.1093 178.782 74.5496L179.218 75.4497ZM187.546 71.5254C189.389 70.6797 191.256 69.8366 193.146 68.9965L192.739 68.0828C190.846 68.9244 188.976 69.7691 187.129 70.6166L187.546 71.5254ZM198.768 66.5339C200.637 65.7268 202.526 64.9228 204.432 64.1223L204.044 63.2003C202.136 64.0021 200.244 64.8073 198.371 65.6158L198.768 66.5339ZM210.122 61.7622C212.005 60.9912 213.902 60.2237 215.811 59.4601L215.44 58.5316C213.528 59.2962 211.629 60.0647 209.743 60.8368L210.122 61.7622ZM221.533 57.1973C223.438 56.4521 225.354 55.711 227.277 54.9742L226.92 54.0404C224.994 54.778 223.076 55.5199 221.169 56.266L221.533 57.1973ZM233.021 52.7966C234.937 52.0772 236.86 51.3622 238.788 50.652L238.443 49.7137C236.513 50.4246 234.588 51.1402 232.67 51.8604L233.021 52.7966ZM244.569 48.5418C246.496 47.8447 248.426 47.1525 250.358 46.4654L250.023 45.5232C248.089 46.2108 246.157 46.9037 244.228 47.6015L244.569 48.5418ZM256.161 44.4188C258.097 43.7414 260.034 43.0695 261.968 42.4033L261.643 41.4577C259.706 42.1245 257.768 42.7969 255.83 43.4749L256.161 44.4188ZM267.795 40.4123C269.743 39.7518 271.687 39.0974 273.627 38.4494L273.31 37.5009C271.369 38.1494 269.423 38.8043 267.474 39.4653L267.795 40.4123ZM279.455 36.5155C281.416 35.8696 283.37 35.2305 285.314 34.5986L285.005 33.6476C283.059 34.2799 281.104 34.9193 279.143 35.5657L279.455 36.5155ZM291.171 32.7084C293.132 32.0798 295.082 31.459 297.018 30.8461L296.717 29.8927C294.779 30.5059 292.828 31.1271 290.866 31.7561L291.171 32.7084ZM302.9 28.9968C304.878 28.3789 306.84 27.7698 308.784 27.1701L308.489 26.2145C306.544 26.8146 304.581 27.424 302.602 28.0423L302.9 28.9968ZM314.657 25.3691C316.637 24.7656 318.596 24.1724 320.53 23.59L320.242 22.6325C318.306 23.2152 316.347 23.8087 314.366 24.4125L314.657 25.3691ZM326.446 21.8194C328.447 21.224 330.417 20.6413 332.355 20.0716L332.073 19.1122C330.134 19.6822 328.162 20.2653 326.161 20.8609L326.446 21.8194ZM338.258 18.3462C340.268 17.7623 342.236 17.1941 344.158 16.642L343.882 15.6809C341.959 16.2332 339.99 16.8017 337.979 17.3859L338.258 18.3462ZM350.06 14.9573C352.094 14.3804 354.066 13.8244 355.973 13.2899L355.703 12.327C353.795 12.8618 351.822 13.4181 349.787 13.9953L350.06 14.9573ZM361.905 11.6374C363.993 11.0593 365.982 10.5129 367.862 9.99925L367.598 9.0346C365.717 9.54849 363.728 10.0953 361.638 10.6736L361.905 11.6374ZM373.825 8.38148C376 7.79556 377.965 7.27124 379.699 6.81156L379.443 5.84495C377.707 6.30495 375.742 6.82962 373.565 7.41588L373.825 8.38148ZM179 74.9996L179.436 75.8997L179 74.9996ZM388.5 3.99958L377.377 0.900022L380.254 12.0828L388.5 3.99958ZM1.00004 189C1.60124 189.799 1.60124 189.799 1.60124 189.799C1.60125 189.799 1.60125 189.799 1.60126 189.799C1.60128 189.799 1.60131 189.799 1.60136 189.799C1.60144 189.799 1.60158 189.799 1.60176 189.798C1.60213 189.798 1.6027 189.798 1.60345 189.797C1.60497 189.796 1.60727 189.794 1.61035 189.792C1.6165 189.787 1.62575 189.78 1.6381 189.771C1.66279 189.753 1.69983 189.725 1.74904 189.688C1.84745 189.614 1.99455 189.504 2.18891 189.358C2.57764 189.068 3.15543 188.636 3.91098 188.075L2.71776 186.469C1.96058 187.032 1.3812 187.465 0.99095 187.757C0.795823 187.903 0.647974 188.014 0.548817 188.088C0.499238 188.125 0.461833 188.153 0.436778 188.172C0.42425 188.181 0.41481 188.189 0.408479 188.193C0.405313 188.196 0.402925 188.197 0.401318 188.199C0.400513 188.199 0.399904 188.2 0.399491 188.2C0.399284 188.2 0.399127 188.2 0.399017 188.2C0.398963 188.2 0.39892 188.201 0.39889 188.201C0.398875 188.201 0.398862 188.201 0.398855 188.201C0.398844 188.201 0.398837 188.201 1.00004 189ZM8.6748 184.553C10.0548 183.537 11.621 182.389 13.359 181.121L12.18 179.505C10.4398 180.775 8.87161 181.925 7.48962 182.942L8.6748 184.553ZM18.1326 177.649C19.6401 176.557 21.2367 175.404 22.9167 174.195L21.7484 172.571C20.0666 173.782 18.4682 174.936 16.959 176.03L18.1326 177.649ZM27.6963 170.766C29.235 169.666 30.829 168.529 32.4748 167.36L31.3165 165.73C29.669 166.9 28.0733 168.038 26.533 169.139L27.6963 170.766ZM37.2594 163.972C38.8204 162.87 40.4203 161.744 42.0567 160.596L40.9083 158.959C39.2702 160.108 37.6686 161.235 36.106 162.338L37.2594 163.972ZM46.8714 157.23C48.4542 156.127 50.0664 155.007 51.7058 153.872L50.5674 152.228C48.9263 153.364 47.3124 154.485 45.7279 155.589L46.8714 157.23ZM56.5606 150.523C58.1506 149.429 59.763 148.324 61.3961 147.209L60.2682 145.557C58.6333 146.674 57.0191 147.78 55.4274 148.875L56.5606 150.523ZM66.2471 143.908C67.8554 142.817 69.4812 141.718 71.1232 140.613L70.0063 138.954C68.3624 140.06 66.7347 141.16 65.1246 142.252L66.2471 143.908ZM76.0146 137.332C77.6279 136.255 79.2547 135.172 80.8938 134.085L79.7887 132.418C78.1476 133.506 76.5188 134.59 74.9036 135.669L76.0146 137.332ZM85.7994 130.846C87.4313 129.773 89.0738 128.698 90.7254 127.621L89.6332 125.946C87.9792 127.024 86.3346 128.101 84.7005 129.175L85.7994 130.846ZM95.6456 124.427C97.2859 123.367 98.9339 122.307 100.588 121.248L99.51 119.564C97.8531 120.624 96.2028 121.686 94.5601 122.747L95.6456 124.427ZM105.548 118.088C107.199 117.042 108.855 115.997 110.515 114.956L109.452 113.262C107.789 114.305 106.131 115.351 104.478 116.399L105.548 118.088ZM115.5 111.845C117.164 110.813 118.831 109.784 120.499 108.761L119.454 107.056C117.782 108.081 116.113 109.112 114.446 110.146L115.5 111.845ZM125.517 105.703C127.196 104.686 128.874 103.676 130.552 102.673L129.526 100.957C127.845 101.961 126.163 102.974 124.481 103.992L125.517 105.703ZM135.597 99.6798C137.292 98.6812 138.985 97.6913 140.675 96.7113L139.671 94.9812C137.977 95.9636 136.28 96.9558 134.582 97.9566L135.597 99.6798ZM145.768 93.7817C147.473 92.809 149.174 91.8475 150.869 90.8985L149.892 89.1535C148.192 90.1051 146.487 91.0692 144.777 92.0444L145.768 93.7817ZM156.013 88.0466C157.743 87.0973 159.466 86.1625 161.179 85.2433L160.233 83.481C158.514 84.4032 156.786 85.3411 155.051 86.2932L156.013 88.0466ZM166.356 82.4993C168.105 81.5841 169.842 80.6869 171.567 79.8093L170.66 78.0268C168.928 78.908 167.184 79.8087 165.428 80.7273L166.356 82.4993ZM176.827 77.1741C177.701 76.7437 178.57 76.3188 179.436 75.8997L178.564 74.0996C177.694 74.5208 176.821 74.9477 175.943 75.3801L176.827 77.1741ZM179.436 75.8997C180.342 75.461 181.255 75.0228 182.176 74.5853L181.317 72.779C180.392 73.2185 179.475 73.6588 178.564 74.0996L179.436 75.8997ZM187.755 71.9799C189.596 71.135 191.461 70.2927 193.349 69.4534L192.536 67.6259C190.642 68.4683 188.769 69.3138 186.921 70.1622L187.755 71.9799ZM198.966 66.993C200.834 66.1865 202.721 65.3832 204.625 64.5833L203.851 62.7393C201.941 63.5417 200.048 64.3476 198.173 65.1568L198.966 66.993ZM210.312 62.2249C212.193 61.4544 214.089 60.6875 215.997 59.9243L215.254 58.0674C213.341 58.8324 211.441 59.6014 209.554 60.3741L210.312 62.2249ZM221.715 57.6629C223.619 56.9182 225.533 56.1776 227.456 55.4411L226.741 53.5734C224.814 54.3115 222.895 55.0538 220.987 55.8003L221.715 57.6629ZM233.197 53.2647C235.112 52.5457 237.034 51.8311 238.961 51.1212L238.27 49.2445C236.339 49.9557 234.413 50.6718 232.494 51.3923L233.197 53.2647ZM244.739 49.012C246.665 48.3152 248.594 47.6232 250.525 46.9365L249.855 45.0521C247.921 45.74 245.988 46.4332 244.058 47.1313L244.739 49.012ZM256.326 44.8907C258.261 44.2136 260.197 43.542 262.131 42.876L261.48 40.985C259.543 41.652 257.604 42.3247 255.665 43.0029L256.326 44.8907ZM267.956 40.8858C269.903 40.2256 271.846 39.5714 273.785 38.9236L273.151 37.0267C271.21 37.6754 269.263 38.3305 267.313 38.9918L267.956 40.8858ZM279.612 36.9904C281.572 36.3447 283.525 35.7058 285.469 35.0741L284.851 33.172C282.904 33.8045 280.949 34.4442 278.986 35.0908L279.612 36.9904ZM291.324 33.1845C293.284 32.5561 295.233 31.9355 297.169 31.3228L296.566 29.416C294.627 30.0294 292.676 30.6508 290.713 31.28L291.324 33.1845ZM303.049 29.4741C305.027 28.8563 306.988 28.2474 308.931 27.6478L308.342 25.7367C306.396 26.337 304.432 26.9466 302.453 27.5651L303.049 29.4741ZM314.803 25.8474C316.783 25.244 318.741 24.651 320.674 24.0687L320.098 22.1537C318.162 22.7366 316.202 23.3302 314.22 23.9342L314.803 25.8474ZM326.588 22.2986C328.589 21.7035 330.559 21.1209 332.496 20.5513L331.932 18.6325C329.993 19.2027 328.02 19.7859 326.018 20.3816L326.588 22.2986ZM338.398 18.8263C340.407 18.2426 342.374 17.6745 344.296 17.1226L343.744 15.2003C341.82 15.7528 339.851 16.3215 337.84 16.9058L338.398 18.8263ZM350.197 15.4384C352.23 14.8616 354.202 14.3057 356.108 13.7713L355.568 11.8455C353.66 12.3805 351.686 12.937 349.651 13.5143L350.197 15.4384ZM362.038 12.1193C364.126 11.5414 366.114 10.995 367.993 10.4816L367.466 8.55227C365.585 9.06631 363.595 9.61323 361.505 10.1917L362.038 12.1193ZM373.955 8.86427C376.13 8.27854 378.094 7.75437 379.827 7.29487L379.315 5.36164C377.579 5.8218 375.612 6.34664 373.435 6.93309L373.955 8.86427Z" fill="#FFA500"/>
</svg>
