<svg width="328" height="149" viewBox="0 0 328 149" fill="none" xmlns="http://www.w3.org/2000/svg">
<path d="M142.5 40.9998L142.677 40.5324L142.5 40.9998ZM0.499978 4.49976L4.88322 8.25748L5.94588 2.58262L0.499978 4.49976ZM327 148C327.294 147.595 327.294 147.595 327.294 147.595C327.294 147.595 327.294 147.595 327.294 147.595C327.294 147.595 327.294 147.595 327.293 147.595C327.293 147.595 327.293 147.595 327.293 147.595C327.293 147.594 327.292 147.594 327.291 147.593C327.29 147.592 327.287 147.59 327.284 147.588C327.277 147.583 327.268 147.576 327.255 147.567C327.229 147.549 327.191 147.521 327.141 147.484C327.039 147.411 326.888 147.302 326.689 147.158C326.29 146.871 325.697 146.445 324.923 145.892L324.342 146.706C325.115 147.258 325.706 147.683 326.104 147.97C326.303 148.113 326.454 148.222 326.555 148.295C326.605 148.331 326.643 148.359 326.668 148.377C326.681 148.386 326.69 148.393 326.697 148.398C326.7 148.4 326.702 148.402 326.704 148.403C326.705 148.403 326.705 148.404 326.706 148.404C326.706 148.404 326.706 148.404 326.706 148.404C326.706 148.404 326.706 148.404 326.706 148.404C326.706 148.404 326.706 148.404 326.706 148.404C326.706 148.404 326.706 148.404 327 148ZM320.036 142.428C318.618 141.43 317.009 140.302 315.223 139.058L314.651 139.878C316.436 141.121 318.044 142.248 319.46 143.245L320.036 142.428ZM310.32 135.66C308.771 134.591 307.13 133.464 305.403 132.284L304.839 133.11C306.565 134.289 308.205 135.415 309.753 136.483L310.32 135.66ZM300.486 128.94C298.902 127.867 297.261 126.761 295.567 125.623L295.009 126.454C296.703 127.59 298.343 128.696 299.925 129.768L300.486 128.94ZM290.638 122.33C289.029 121.259 287.38 120.167 285.693 119.054L285.142 119.889C286.828 121.001 288.476 122.093 290.084 123.162L290.638 122.33ZM280.726 115.794C279.093 114.727 277.429 113.645 275.737 112.549L275.194 113.388C276.885 114.483 278.547 115.565 280.179 116.632L280.726 115.794ZM270.724 109.318C269.083 108.265 267.419 107.203 265.732 106.131L265.196 106.975C266.881 108.046 268.544 109.108 270.184 110.16L270.724 109.318ZM260.717 102.96C259.053 101.914 257.371 100.861 255.672 99.8032L255.144 100.652C256.841 101.709 258.522 102.761 260.184 103.807L260.717 102.96ZM250.613 96.6693C248.942 95.64 247.257 94.6073 245.558 93.5724L245.038 94.4264C246.735 95.4603 248.419 96.4922 250.088 97.5207L250.613 96.6693ZM240.474 90.4919C238.782 89.4728 237.078 88.4529 235.365 87.4333L234.854 88.2927C236.565 89.3113 238.267 90.3303 239.958 91.3485L240.474 90.4919ZM230.26 84.4143C228.557 83.4136 226.846 82.4143 225.127 81.4178L224.626 82.2829C226.342 83.2784 228.052 84.2767 229.754 85.2765L230.26 84.4143ZM219.973 78.4499C218.257 77.4687 216.535 76.4913 214.808 75.5188L214.318 76.3901C216.042 77.3615 217.762 78.3379 219.477 79.318L219.973 78.4499ZM209.619 72.6189C207.887 71.6584 206.151 70.704 204.413 69.7566L203.934 70.6347C205.67 71.5808 207.404 72.5342 209.134 73.4935L209.619 72.6189ZM199.182 66.9306C197.432 65.9938 195.68 65.0652 193.929 64.1461L193.464 65.0315C195.213 65.9494 196.962 66.8766 198.71 67.8122L199.182 66.9306ZM188.663 61.4102C186.891 60.5 185.122 59.6007 183.355 58.7133L182.906 59.6069C184.67 60.4928 186.437 61.3908 188.205 62.2996L188.663 61.4102ZM178.028 56.0707C176.243 55.1966 174.462 54.336 172.687 53.4902L172.257 54.393C174.029 55.2372 175.806 56.0962 177.588 56.9688L178.028 56.0707ZM167.295 50.9595C165.481 50.1215 163.674 49.3004 161.876 48.4976L161.468 49.4107C163.262 50.2117 165.065 51.031 166.875 51.8673L167.295 50.9595ZM156.439 46.1154C154.602 45.326 152.775 44.5576 150.961 43.8116L150.58 44.7365C152.39 45.4804 154.212 46.2468 156.045 47.0342L156.439 46.1154ZM145.425 41.5914C144.506 41.232 143.59 40.8789 142.677 40.5324L142.322 41.4672C143.232 41.8126 144.145 42.1645 145.062 42.5228L145.425 41.5914ZM142.677 40.5324C141.738 40.1757 140.789 39.8203 139.829 39.4663L139.483 40.4045C140.44 40.7574 141.386 41.1117 142.322 41.4672L142.677 40.5324ZM134.061 37.3957C132.159 36.7304 130.224 36.0706 128.263 35.4166L127.946 36.3653C129.904 37.0178 131.833 37.6761 133.731 38.3396L134.061 37.3957ZM122.439 33.5169C120.511 32.901 118.562 32.2908 116.596 31.6869L116.302 32.6428C118.265 33.2457 120.211 33.8548 122.135 34.4695L122.439 33.5169ZM110.734 29.9185C108.786 29.3411 106.826 28.7699 104.857 28.2054L104.582 29.1667C106.548 29.7304 108.505 30.3008 110.45 30.8773L110.734 29.9185ZM98.9664 26.5422C97.0021 25.996 95.0331 25.4567 93.0632 24.9245L92.8024 25.8899C94.77 26.4214 96.7366 26.9601 98.6985 27.5057L98.9664 26.5422ZM87.1489 23.3486C85.1701 22.8284 83.1941 22.3159 81.2247 21.8114L80.9766 22.7801C82.944 23.2841 84.918 23.7961 86.8947 24.3158L87.1489 23.3486ZM75.2916 20.3102C73.2992 19.8122 71.3176 19.323 69.3508 18.8429L69.1136 19.8143C71.0787 20.294 73.0586 20.7829 75.0492 21.2804L75.2916 20.3102ZM63.4032 17.4075C61.3972 16.9288 59.4115 16.4604 57.4506 16.0026L57.2233 16.9764C59.1827 17.4338 61.1668 17.9019 63.1711 18.3802L63.4032 17.4075ZM51.4937 14.627C49.4661 14.1637 47.4718 13.7131 45.516 13.2755L45.2977 14.2514C47.252 14.6886 49.2449 15.139 51.2709 15.6018L51.4937 14.627ZM39.5312 11.9505C37.4805 11.5012 35.483 11.0684 33.5458 10.6526L33.336 11.6304C35.2719 12.0458 37.268 12.4784 39.3172 12.9274L39.5312 11.9505ZM27.5752 9.38464C25.4779 8.94387 23.4724 8.52732 21.5702 8.13609L21.3687 9.11558C23.2697 9.50654 25.2737 9.9228 27.3695 10.3633L27.5752 9.38464ZM15.5924 6.92033C13.3716 6.47384 11.3584 6.07496 9.57967 5.72629L9.38731 6.70762C11.1646 7.05599 13.1762 7.45455 15.3953 7.90072L15.5924 6.92033ZM142.5 40.9998L142.855 40.065L142.5 40.9998ZM0.499978 4.49976L9.26646 12.0152L11.3918 0.665483L0.499978 4.49976ZM327 148C327.587 147.191 327.587 147.191 327.587 147.191C327.587 147.191 327.587 147.191 327.587 147.191C327.587 147.191 327.587 147.191 327.587 147.19C327.587 147.19 327.587 147.19 327.587 147.19C327.586 147.19 327.586 147.189 327.585 147.189C327.583 147.188 327.581 147.186 327.577 147.183C327.571 147.179 327.561 147.172 327.548 147.162C327.523 147.144 327.484 147.116 327.434 147.079C327.332 147.006 327.181 146.897 326.981 146.753C326.582 146.465 325.989 146.039 325.213 145.485L324.051 147.113C324.824 147.665 325.415 148.089 325.812 148.375C326.011 148.519 326.161 148.627 326.262 148.7C326.312 148.736 326.35 148.764 326.375 148.782C326.387 148.791 326.397 148.798 326.403 148.802C326.406 148.805 326.409 148.806 326.41 148.807C326.411 148.808 326.412 148.808 326.412 148.809C326.412 148.809 326.412 148.809 326.412 148.809C326.412 148.809 326.412 148.809 326.412 148.809C326.412 148.809 326.412 148.809 326.412 148.809C326.412 148.809 326.412 148.809 327 148ZM320.324 142.019C318.906 141.02 317.296 139.892 315.509 138.647L314.366 140.288C316.15 141.531 317.757 142.658 319.172 143.654L320.324 142.019ZM310.604 135.248C309.054 134.179 307.413 133.052 305.685 131.871L304.557 133.522C306.282 134.701 307.921 135.827 309.469 136.894L310.604 135.248ZM300.766 128.526C299.182 127.453 297.541 126.346 295.845 125.208L294.731 126.869C296.424 128.005 298.063 129.11 299.645 130.182L300.766 128.526ZM290.915 121.913C289.305 120.843 287.656 119.75 285.968 118.637L284.867 120.307C286.552 121.418 288.2 122.509 289.807 123.579L290.915 121.913ZM281 115.376C279.366 114.308 277.702 113.225 276.009 112.129L274.922 113.808C276.612 114.903 278.274 115.984 279.906 117.05L281 115.376ZM270.994 108.897C269.352 107.844 267.687 106.781 266.001 105.709L264.928 107.398C266.612 108.468 268.275 109.529 269.914 110.581L270.994 108.897ZM260.983 102.537C259.319 101.49 257.636 100.437 255.936 99.3787L254.879 101.076C256.576 102.133 258.256 103.185 259.918 104.23L260.983 102.537ZM250.875 96.2436C249.203 95.2139 247.517 94.1807 245.818 93.1454L244.778 94.8533C246.474 95.8869 248.157 96.9183 249.826 97.9464L250.875 96.2436ZM240.732 90.0636C239.039 89.0441 237.335 88.0237 235.621 87.0036L234.598 88.7223C236.309 89.7405 238.01 90.7591 239.7 91.7768L240.732 90.0636ZM230.514 83.9833C228.81 82.982 227.097 81.9823 225.378 80.9852L224.375 82.7154C226.091 83.7105 227.8 84.7082 229.5 85.7076L230.514 83.9833ZM220.221 78.0158C218.504 77.0342 216.781 76.0562 215.054 75.0832L214.072 76.8257C215.796 77.7967 217.515 78.7725 219.228 79.7521L220.221 78.0158ZM209.862 72.1816C208.128 71.2206 206.392 70.2656 204.652 69.3176L203.695 71.0737C205.43 72.0193 207.163 72.972 208.892 73.9308L209.862 72.1816ZM199.418 66.4898C197.666 65.5523 195.914 64.6231 194.162 63.7034L193.232 65.4742C194.979 66.3914 196.727 67.3181 198.474 68.2531L199.418 66.4898ZM188.891 60.9655C187.119 60.0546 185.348 59.1546 183.579 58.2665L182.682 60.0537C184.444 60.9389 186.21 61.8362 187.977 62.7444L188.891 60.9655ZM178.248 55.6217C176.461 54.7468 174.679 53.8854 172.902 53.0388L172.042 54.8443C173.812 55.6878 175.588 56.546 177.368 57.4178L178.248 55.6217ZM167.505 50.5056C165.689 49.6667 163.88 48.8447 162.08 48.041L161.265 49.8672C163.057 50.6673 164.857 51.4858 166.666 52.3212L167.505 50.5056ZM156.637 45.656C154.797 44.8657 152.968 44.0962 151.151 43.3491L150.39 45.1989C152.197 45.9418 154.017 46.7072 155.847 47.4936L156.637 45.656ZM145.607 41.1257C144.686 40.7657 143.769 40.4121 142.855 40.065L142.145 41.9347C143.052 42.2795 143.964 42.6308 144.88 42.9885L145.607 41.1257ZM142.855 40.065C141.914 39.7077 140.963 39.3517 140.002 38.9972L139.31 40.8736C140.265 41.226 141.21 41.5797 142.145 41.9347L142.855 40.065ZM134.226 36.9237C132.321 36.2576 130.384 35.597 128.421 34.9423L127.788 36.8396C129.743 37.4914 131.671 38.1489 133.566 38.8116L134.226 36.9237ZM122.592 33.0407C120.661 32.4241 118.71 31.8134 116.743 31.2089L116.155 33.1207C118.116 33.7232 120.06 34.3317 121.983 34.9458L122.592 33.0407ZM110.876 29.4391C108.927 28.8613 106.965 28.2897 104.995 27.7248L104.444 29.6473C106.408 30.2107 108.364 30.7806 110.308 31.3567L110.876 29.4391ZM99.1004 26.0605C97.1348 25.5139 95.1646 24.9743 93.1936 24.4418L92.672 26.3726C94.6385 26.9038 96.6039 27.4422 98.5646 27.9874L99.1004 26.0605ZM87.2761 22.865C85.2962 22.3446 83.3192 21.8318 81.3488 21.327L80.8525 23.2645C82.819 23.7682 84.7919 24.28 86.7676 24.7993L87.2761 22.865ZM75.4129 19.8251C73.4196 19.3269 71.4371 18.8375 69.4694 18.3571L68.995 20.3001C70.9593 20.7796 72.9383 21.2682 74.9279 21.7655L75.4129 19.8251ZM63.5193 16.9211C61.5125 16.4423 59.526 15.9736 57.5642 15.5157L57.1096 17.4634C59.0683 17.9206 61.0516 18.3884 63.0551 18.8665L63.5193 16.9211ZM51.605 14.1395C49.5767 13.6761 47.5817 13.2253 45.6252 12.7876L45.1886 14.7394C47.1422 15.1764 49.1343 15.6266 51.1596 16.0893L51.605 14.1395ZM39.6382 11.4621C37.5868 11.0127 35.5886 10.5797 33.6507 10.1638L33.231 12.1192C35.1663 12.5346 37.1617 12.967 39.2102 13.4158L39.6382 11.4621ZM27.678 8.89532C25.58 8.45441 23.5739 8.03771 21.6709 7.64633L21.268 9.60534C23.1682 9.99615 25.1716 10.4123 27.2667 10.8526L27.678 8.89532ZM15.691 6.43014C13.4694 5.98348 11.4554 5.58444 9.67587 5.23564L9.29114 7.19828C11.0676 7.5465 13.0785 7.94491 15.2967 8.39091L15.691 6.43014Z" fill="#FFA500"/>
</svg>
