<svg width="386" height="59" viewBox="0 0 386 59" fill="none" xmlns="http://www.w3.org/2000/svg">
<path d="M126.5 15.5L126.61 15.9877L126.5 15.5ZM0.499981 56.4998L6.20529 57.3846L4.1189 52.0012L0.499981 56.4998ZM385 4.99985C385.037 4.50119 385.037 4.50119 385.037 4.50119C385.037 4.50119 385.037 4.50119 385.037 4.50118C385.037 4.50118 385.036 4.50118 385.036 4.50117C385.036 4.50116 385.036 4.50115 385.036 4.50113C385.035 4.5011 385.035 4.50104 385.034 4.50097C385.032 4.50083 385.029 4.50062 385.025 4.50033C385.017 4.49977 385.006 4.49893 384.99 4.49782C384.96 4.4956 384.914 4.4923 384.853 4.48795C384.732 4.47927 384.551 4.46642 384.312 4.44975C383.834 4.41642 383.125 4.36782 382.196 4.3067L382.13 5.30454C383.057 5.36557 383.766 5.41409 384.243 5.44733C384.481 5.46395 384.661 5.47676 384.782 5.4854C384.842 5.48972 384.888 5.493 384.918 5.4952C384.933 5.4963 384.945 5.49713 384.952 5.49768C384.956 5.49796 384.959 5.49816 384.961 5.4983C384.962 5.49837 384.962 5.49842 384.963 5.49845C384.963 5.49847 384.963 5.49848 384.963 5.49849C384.963 5.49849 384.963 5.4985 384.963 5.4985C384.963 5.4985 384.963 5.4985 384.963 5.4985C384.963 5.4985 384.963 5.4985 385 4.99985ZM376.297 3.93924C374.553 3.83597 372.568 3.72265 370.36 3.603L370.306 4.60154C372.513 4.7211 374.496 4.83431 376.238 4.93749L376.297 3.93924ZM364.426 3.29491C362.569 3.20256 360.603 3.1085 358.534 3.01411L358.488 4.01308C360.556 4.10739 362.521 4.20139 364.376 4.29368L364.426 3.29491ZM352.665 2.75794C350.776 2.67914 348.819 2.60102 346.798 2.5244L346.76 3.52368C348.78 3.60025 350.736 3.67832 352.624 3.75707L352.665 2.75794ZM340.915 2.31241C338.992 2.24675 337.021 2.18293 335.005 2.12156L334.974 3.1211C336.99 3.18243 338.959 3.2462 340.88 3.31183L340.915 2.31241ZM329.064 1.95191C327.147 1.90075 325.194 1.85212 323.208 1.80647L323.185 2.8062C325.17 2.85183 327.121 2.90043 329.037 2.95155L329.064 1.95191ZM317.313 1.68202C315.362 1.64449 313.382 1.61007 311.376 1.57916L311.36 2.57904C313.365 2.60993 315.344 2.64433 317.294 2.68183L317.313 1.68202ZM305.51 1.49997C303.564 1.47743 301.595 1.45837 299.606 1.44313L299.598 2.4431C301.586 2.45833 303.554 2.47738 305.499 2.49991L305.51 1.49997ZM293.689 1.40961C291.747 1.4025 289.787 1.39921 287.811 1.40001L287.811 2.40001C289.786 2.39921 291.744 2.4025 293.686 2.4096L293.689 1.40961ZM281.888 1.41481C279.941 1.42377 277.979 1.43688 276.006 1.45441L276.015 2.45437C277.987 2.43686 279.947 2.42375 281.893 2.41479L281.888 1.41481ZM270.1 1.51982C268.143 1.54583 266.176 1.57634 264.199 1.6116L264.217 2.61144C266.192 2.57621 268.158 2.54573 270.113 2.51973L270.1 1.51982ZM258.305 1.73048C256.342 1.77467 254.372 1.82371 252.395 1.87784L252.423 2.87747C254.398 2.82339 256.366 2.77439 258.327 2.73023L258.305 1.73048ZM246.508 2.0537C244.543 2.11733 242.574 2.18615 240.6 2.2604L240.637 3.2597C242.61 3.18551 244.578 3.11675 246.54 3.05318L246.508 2.0537ZM234.713 2.49764C232.749 2.58213 230.782 2.67218 228.813 2.76801L228.862 3.76683C230.829 3.67109 232.794 3.58113 234.756 3.49672L234.713 2.49764ZM222.923 3.07191C220.96 3.17906 218.995 3.29217 217.03 3.41147L217.091 4.40963C219.053 4.29046 221.016 4.17746 222.978 4.07042L222.923 3.07191ZM211.142 3.78789C209.178 3.91987 207.214 4.05827 205.253 4.20331L205.327 5.20058C207.286 5.05571 209.247 4.91747 211.209 4.78564L211.142 3.78789ZM199.372 4.65914C197.407 4.81855 195.445 4.98492 193.487 5.15846L193.575 6.15455C195.53 5.98124 197.49 5.81508 199.453 5.65586L199.372 4.65914ZM187.619 5.70182C185.652 5.89187 183.69 6.08948 181.736 6.29488L181.84 7.2894C183.792 7.0843 185.751 6.88698 187.715 6.69719L187.619 5.70182ZM175.882 6.93606C173.915 7.16048 171.956 7.39315 170.006 7.63434L170.129 8.62678C172.075 8.38599 174.031 8.15368 175.996 7.92961L175.882 6.93606ZM164.159 8.3874C162.197 8.65029 160.247 8.92223 158.308 9.20349L158.451 10.1931C160.386 9.91241 162.334 9.64096 164.292 9.37854L164.159 8.3874ZM152.467 10.0853C150.515 10.3919 148.577 10.7084 146.654 11.0353L146.822 12.0211C148.74 11.695 150.674 11.3792 152.622 11.0732L152.467 10.0853ZM140.82 12.0675C138.877 12.4254 136.95 12.7945 135.044 13.175L135.239 14.1557C137.141 13.7762 139.062 13.408 141.001 13.051L140.82 12.0675ZM129.242 14.3814C128.286 14.5886 127.335 14.7989 126.39 15.0123L126.61 15.9877C127.553 15.775 128.501 15.5653 129.454 15.3587L129.242 14.3814ZM126.39 15.0123C125.424 15.2302 124.45 15.4548 123.467 15.6857L123.696 16.6592C124.676 16.429 125.648 16.205 126.61 15.9877L126.39 15.0123ZM117.595 17.1137C115.669 17.5974 113.717 18.1014 111.744 18.6236L112 19.5903C113.969 19.0691 115.917 18.5662 117.839 18.0837L117.595 17.1137ZM105.923 20.1998C104.002 20.7313 102.066 21.2774 100.119 21.836L100.395 22.7972C102.338 22.2394 104.272 21.6942 106.19 21.1637L105.923 20.1998ZM94.3279 23.525C92.4066 24.0941 90.4793 24.6734 88.55 25.2609L88.8413 26.2175C90.7683 25.6307 92.6932 25.0522 94.6119 24.4838L94.3279 23.525ZM82.7847 27.0387C80.8637 27.6381 78.9447 28.2439 77.0314 28.8542L77.3353 29.8069C79.2467 29.1973 81.1637 28.5921 83.0826 27.9933L82.7847 27.0387ZM71.2898 30.7042C69.3685 31.3293 67.4571 31.9571 65.5597 32.5856L65.8742 33.5349C67.77 32.9069 69.6796 32.2796 71.5992 31.6551L71.2898 30.7042ZM59.8415 34.4958C57.9191 35.1433 56.0158 35.7896 54.1363 36.4324L54.4599 37.3786C56.338 36.7362 58.2398 36.0905 60.1607 35.4435L59.8415 34.4958ZM48.427 38.3994C46.4933 39.0703 44.5914 39.7351 42.7264 40.391L43.0582 41.3344C44.9219 40.6789 46.8225 40.0146 48.7548 39.3441L48.427 38.3994ZM37.0396 42.4043C35.0993 43.0956 33.2093 43.7735 31.3764 44.4347L31.7157 45.3754C33.5474 44.7146 35.4362 44.0372 37.3752 43.3463L37.0396 42.4043ZM25.6932 46.4974C23.7183 47.2185 21.83 47.9126 20.0389 48.5745L20.3855 49.5125C22.1755 48.851 24.0626 48.1574 26.0362 47.4367L25.6932 46.4974ZM14.3708 50.6819C12.2844 51.4625 10.3935 52.1753 8.72359 52.8082L9.07802 53.7433C10.7466 53.1108 12.6362 52.3985 14.7212 51.6185L14.3708 50.6819ZM126.5 15.5L126.72 16.4754L126.5 15.5ZM0.499981 56.4998L11.9106 58.2694L7.73782 47.5027L0.499981 56.4998ZM385 4.99985C385.073 4.00253 385.073 4.00253 385.073 4.00253C385.073 4.00253 385.073 4.00253 385.073 4.00253C385.073 4.00252 385.073 4.00252 385.073 4.00252C385.073 4.00251 385.073 4.00249 385.072 4.00247C385.072 4.00243 385.071 4.00238 385.07 4.00231C385.068 4.00216 385.065 4.00194 385.061 4.00166C385.054 4.00109 385.042 4.00025 385.027 3.99913C384.996 3.9969 384.95 3.99359 384.889 3.98923C384.768 3.98052 384.586 3.96765 384.347 3.95097C383.869 3.91759 383.158 3.86895 382.229 3.80778L382.097 5.80346C383.024 5.86445 383.732 5.91292 384.208 5.94612C384.446 5.96272 384.626 5.9755 384.746 5.98412C384.806 5.98843 384.852 5.9917 384.882 5.99389C384.897 5.99498 384.908 5.99581 384.916 5.99635C384.919 5.99663 384.922 5.99683 384.924 5.99696C384.925 5.99703 384.926 5.99708 384.926 5.99711C384.926 5.99713 384.926 5.99714 384.927 5.99715C384.927 5.99715 384.927 5.99716 384.927 5.99716C384.927 5.99716 384.927 5.99716 384.927 5.99716C384.927 5.99716 384.927 5.99716 385 4.99985ZM376.327 3.44012C374.582 3.33679 372.596 3.22343 370.387 3.10373L370.279 5.10081C372.485 5.22032 374.467 5.33349 376.208 5.43662L376.327 3.44012ZM364.451 2.79553C362.593 2.70315 360.626 2.60905 358.557 2.51463L358.465 4.51256C360.532 4.60684 362.496 4.70081 364.352 4.79306L364.451 2.79553ZM352.686 2.25837C350.796 2.17955 348.839 2.1014 346.817 2.02476L346.741 4.02332C348.76 4.09987 350.716 4.17792 352.603 4.25663L352.686 2.25837ZM340.932 1.8127C339.009 1.74702 337.037 1.68318 335.02 1.62179L334.959 3.62087C336.974 3.68218 338.943 3.74593 340.863 3.81154L340.932 1.8127ZM329.077 1.45209C327.16 1.40091 325.206 1.35226 323.22 1.3066L323.174 3.30607C325.158 3.35168 327.109 3.40027 329.024 3.45137L329.077 1.45209ZM317.323 1.18211C315.371 1.14457 313.39 1.11014 311.383 1.07922L311.353 3.07898C313.357 3.10986 315.335 3.14425 317.284 3.18174L317.323 1.18211ZM305.516 1.00001C303.569 0.977457 301.6 0.958391 299.61 0.943146L299.594 2.94309C301.582 2.95831 303.548 2.97735 305.493 2.99987L305.516 1.00001ZM293.691 0.90961C291.748 0.902504 289.787 0.899206 287.811 0.900013L287.812 2.90001C289.785 2.89921 291.743 2.9025 293.684 2.9096L293.691 0.90961ZM281.886 0.91481C279.938 0.92378 277.976 0.936894 276.001 0.954426L276.019 2.95435C277.991 2.93684 279.95 2.92375 281.895 2.91479L281.886 0.91481ZM270.093 1.01987C268.136 1.04589 266.168 1.07641 264.19 1.11168L264.226 3.11137C266.2 3.07615 268.165 3.04567 270.12 3.01969L270.093 1.01987ZM258.293 1.23061C256.33 1.27482 254.359 1.32388 252.382 1.37803L252.436 3.37728C254.411 3.32322 256.379 3.27424 258.338 3.2301L258.293 1.23061ZM246.492 1.55397C244.526 1.61762 242.556 1.68647 240.581 1.76076L240.656 3.75934C242.627 3.68519 244.595 3.61646 246.556 3.55292L246.492 1.55397ZM234.691 1.9981C232.727 2.08263 230.759 2.17272 228.789 2.2686L228.886 4.26623C230.852 4.17054 232.816 4.08062 234.777 3.99626L234.691 1.9981ZM222.896 2.57265C220.931 2.67985 218.966 2.79303 217 2.91239L217.121 4.90871C219.083 4.7896 221.044 4.67667 223.005 4.56968L222.896 2.57265ZM211.108 3.28902C209.143 3.42107 207.179 3.55954 205.217 3.70467L205.364 5.69922C207.322 5.55443 209.281 5.41627 211.243 5.28452L211.108 3.28902ZM199.332 4.16077C197.365 4.32029 195.402 4.48676 193.443 4.66041L193.62 6.6526C195.573 6.4794 197.532 6.31335 199.494 6.15423L199.332 4.16077ZM187.571 5.20414C185.602 5.39432 183.639 5.59207 181.684 5.79762L181.893 7.78666C183.843 7.58172 185.8 7.38453 187.763 7.19487L187.571 5.20414ZM175.826 6.43928C173.857 6.66387 171.896 6.89674 169.945 7.13813L170.191 9.12299C172.135 8.88241 174.09 8.65029 176.052 8.42639L175.826 6.43928ZM164.093 7.89183C162.129 8.15495 160.177 8.42715 158.236 8.70867L158.523 10.688C160.456 10.4075 162.402 10.1363 164.359 9.87411L164.093 7.89183ZM152.39 9.59139C150.435 9.89827 148.495 10.2152 146.57 10.5423L146.905 12.514C148.822 12.1883 150.754 11.8728 152.7 11.5672L152.39 9.59139ZM140.73 11.5758C138.784 11.9341 136.855 12.3037 134.946 12.6847L135.337 14.646C137.236 14.267 139.155 13.8993 141.092 13.5427L140.73 11.5758ZM129.137 13.8927C128.179 14.1002 127.227 14.3108 126.28 14.5246L126.72 16.4754C127.661 16.263 128.608 16.0537 129.56 15.8474L129.137 13.8927ZM126.28 14.5246C125.313 14.7428 124.337 14.9678 123.353 15.199L123.81 17.146C124.789 16.916 125.759 16.6924 126.72 16.4754L126.28 14.5246ZM117.474 16.6288C115.545 17.113 113.591 17.6176 111.616 18.1403L112.128 20.0737C114.095 19.553 116.041 19.0506 117.96 18.5686L117.474 16.6288ZM105.79 19.7179C103.867 20.2499 101.929 20.7963 99.981 21.3554L100.533 23.2778C102.475 22.7204 104.407 22.1757 106.323 21.6456L105.79 19.7179ZM94.1859 23.0456C92.2633 23.6151 90.3348 24.1947 88.4043 24.7826L88.987 26.6959C90.9128 26.1094 92.8365 25.5312 94.7539 24.9633L94.1859 23.0456ZM82.6357 26.5614C80.7137 27.1612 78.7937 27.7673 76.8795 28.3779L77.4873 30.2833C79.3977 29.6739 81.3137 29.0691 83.2316 28.4706L82.6357 26.5614ZM71.1351 30.2287C69.2129 30.8541 67.3007 31.4822 65.4025 32.111L66.0314 34.0095C67.9264 33.3818 69.8352 32.7548 71.7539 32.1306L71.1351 30.2287ZM59.6819 34.022C57.7587 34.6698 55.8547 35.3162 53.9745 35.9593L54.6217 37.8517C56.4991 37.2096 58.4001 36.5641 60.3203 35.9174L59.6819 34.022ZM48.2631 37.927C46.3287 38.5982 44.4261 39.2632 42.5605 39.9193L43.2241 41.806C45.0872 41.1508 46.9871 40.4867 48.9187 39.8165L48.2631 37.927ZM36.8717 41.9333C34.9308 42.6249 33.0402 43.303 31.2067 43.9644L31.8854 45.8457C33.7165 45.1852 35.6046 44.5079 37.543 43.8173L36.8717 41.9333ZM25.5217 46.0277C23.5462 46.7491 21.6572 47.4434 19.8655 48.1055L20.5588 49.9815C22.3482 49.3202 24.2347 48.6269 26.2077 47.9064L25.5217 46.0277ZM14.1956 50.2136C12.1085 50.9944 10.2169 51.7075 8.54639 52.3407L9.25525 54.2108C10.9232 53.5786 12.8121 52.8666 14.8964 52.0868L14.1956 50.2136Z" fill="#FFA500"/>
</svg>
