<svg width="120" height="197" viewBox="0 0 120 197" fill="none" xmlns="http://www.w3.org/2000/svg">
<path d="M40.5 88L40.0678 87.7486L40.5 88ZM4 196.5L7.85086 192.198L2.20009 191.014L4 196.5ZM119 1C118.675 0.619972 118.675 0.619979 118.675 0.619988C118.675 0.619994 118.675 0.620005 118.675 0.620018C118.675 0.620044 118.675 0.62008 118.675 0.620125C118.675 0.620217 118.675 0.62035 118.674 0.620523C118.674 0.62087 118.673 0.621379 118.673 0.622051C118.671 0.623394 118.669 0.625386 118.666 0.628025C118.659 0.633303 118.65 0.641168 118.638 0.651596C118.614 0.672452 118.578 0.703563 118.53 0.744749C118.434 0.82712 118.292 0.949789 118.105 1.11131C117.732 1.43436 117.182 1.91283 116.474 2.53517L117.134 3.28645C117.841 2.66572 118.389 2.18878 118.76 1.86719C118.946 1.7064 119.087 1.58444 119.182 1.50276C119.229 1.46193 119.265 1.43116 119.289 1.41064C119.301 1.40038 119.31 1.39269 119.316 1.38758C119.319 1.38502 119.321 1.38312 119.323 1.38186C119.324 1.38123 119.324 1.38076 119.324 1.38045C119.325 1.3803 119.325 1.38019 119.325 1.38012C119.325 1.38008 119.325 1.38006 119.325 1.38004C119.325 1.38004 119.325 1.38003 119.325 1.38003C119.325 1.38003 119.325 1.38003 119 1ZM112.076 6.44936C110.776 7.61964 109.313 8.94851 107.712 10.4196L108.388 11.156C109.987 9.68727 111.448 8.36067 112.745 7.19249L112.076 6.44936ZM103.406 14.4136C102.041 15.6918 100.61 17.0427 99.1241 18.4596L99.8143 19.1832C101.297 17.7686 102.726 16.4198 104.089 15.1436L103.406 14.4136ZM94.882 22.5435C93.5112 23.8756 92.1068 25.2528 90.6761 26.6702L91.3799 27.3806C92.8082 25.9655 94.2103 24.5906 95.579 23.2606L94.882 22.5435ZM86.5203 30.8289C85.1611 32.2028 83.7854 33.6074 82.3989 35.039L83.1173 35.7347C84.5012 34.3057 85.8744 32.9037 87.2312 31.5321L86.5203 30.8289ZM78.3218 39.2963C76.9854 40.7078 75.6442 42.1407 74.3032 43.5919L75.0377 44.2706C76.3758 42.8225 77.7142 41.3925 79.048 39.9838L78.3218 39.2963ZM70.3356 47.9419C69.0263 49.3968 67.7217 50.8664 66.4266 52.3477L67.1795 53.0059C68.4712 51.5283 69.7726 50.0623 71.0789 48.6108L70.3356 47.9419ZM62.5845 56.8121C61.3134 58.3134 60.0563 59.8236 58.818 61.3398L59.5925 61.9723C60.8269 60.461 62.0802 58.9553 63.3477 57.4583L62.5845 56.8121ZM55.1339 65.9412C53.9125 67.4989 52.7155 69.0597 51.5479 70.6206L52.3486 71.2196C53.5115 69.6651 54.7038 68.1103 55.9208 66.5583L55.1339 65.9412ZM48.0784 75.3844C46.9296 77.0072 45.818 78.6268 44.7492 80.2397L45.5827 80.7921C46.6455 79.1884 47.7513 77.5772 48.8946 75.9622L48.0784 75.3844ZM41.572 85.2262C41.0567 86.07 40.5551 86.911 40.0678 87.7486L40.9322 88.2514C41.4157 87.4202 41.9137 86.5854 42.4254 85.7474L41.572 85.2262ZM40.0678 87.7486C39.5919 88.5666 39.1199 89.3985 38.6518 90.2431L39.5265 90.7279C39.9913 89.889 40.4599 89.0632 40.9322 88.2514L40.0678 87.7486ZM35.9471 95.3459C35.0914 97.0309 34.2499 98.7553 33.4229 100.513L34.3278 100.938C35.1507 99.1895 35.9878 97.4741 36.8387 95.7987L35.9471 95.3459ZM31.0406 105.753C30.2743 107.496 29.5216 109.263 28.7829 111.05L29.7071 111.432C30.4431 109.652 31.1929 107.891 31.956 106.155L31.0406 105.753ZM26.636 116.392C25.9399 118.173 25.2575 119.967 24.589 121.768L25.5265 122.116C26.1931 120.32 26.8735 118.532 27.5674 116.756L26.636 116.392ZM22.6299 127.178C21.9892 128.99 21.3628 130.804 20.7509 132.615L21.6983 132.935C22.3088 131.128 22.9337 129.318 23.5727 127.511L22.6299 127.178ZM18.9457 138.075C18.3515 139.912 17.7727 141.739 17.2096 143.552L18.1646 143.849C18.7266 142.039 19.3042 140.215 19.8972 138.383L18.9457 138.075ZM15.5328 149.06C14.976 150.925 14.4369 152.769 13.9158 154.583L14.877 154.859C15.3972 153.048 15.9353 151.208 16.491 149.346L15.5328 149.06ZM12.358 160.11C11.8335 162.006 11.3308 163.86 10.8501 165.664L11.8163 165.922C12.2963 164.121 12.7982 162.27 13.3218 160.377L12.358 160.11ZM9.39463 171.229C8.89614 173.171 8.4275 175.035 7.98943 176.808L8.96025 177.048C9.39762 175.278 9.86552 173.417 10.3632 171.478L9.39463 171.229ZM6.63904 182.384C6.14859 184.45 5.71349 186.331 5.33538 187.997L6.31058 188.218C6.688 186.556 7.12235 184.678 7.61201 182.614L6.63904 182.384ZM40.5 88L39.6356 87.4972L40.5 88ZM4 196.5L11.7017 187.897L0.40018 185.528L4 196.5ZM119 1C118.35 0.239944 118.35 0.239955 118.35 0.239967C118.35 0.239975 118.35 0.239991 118.35 0.240006C118.35 0.240037 118.35 0.240078 118.35 0.240129C118.35 0.240231 118.35 0.240374 118.349 0.240558C118.349 0.240925 118.348 0.241455 118.348 0.242148C118.346 0.243533 118.344 0.245567 118.34 0.248248C118.334 0.25361 118.325 0.261559 118.313 0.272072C118.288 0.293099 118.252 0.324382 118.204 0.365741C118.107 0.44846 117.965 0.571486 117.778 0.733374C117.404 1.05715 116.853 1.53638 116.144 2.15953L117.464 3.66209C118.17 3.04216 118.717 2.56599 119.087 2.24513C119.273 2.0847 119.414 1.9631 119.508 1.88177C119.555 1.84111 119.591 1.81051 119.615 1.79017C119.627 1.77999 119.635 1.77238 119.641 1.76736C119.644 1.76484 119.646 1.76298 119.648 1.76176C119.649 1.76115 119.649 1.7607 119.649 1.76042C119.65 1.76028 119.65 1.76018 119.65 1.76012C119.65 1.76009 119.65 1.76007 119.65 1.76006C119.65 1.76005 119.65 1.76005 119.65 1.76005C119.65 1.76005 119.65 1.76006 119 1ZM111.742 6.07779C110.441 7.24913 108.976 8.57912 107.374 10.0514L108.727 11.5242C110.324 10.0567 111.784 8.73118 113.08 7.56406L111.742 6.07779ZM103.064 14.0486C101.698 15.3278 100.266 16.6798 98.779 18.0977L100.159 19.545C101.641 18.1315 103.069 16.7838 104.431 15.5086L103.064 14.0486ZM94.5336 22.1849C93.1617 23.5181 91.7561 24.8964 90.3242 26.315L91.7318 27.7358C93.159 26.3219 94.5599 24.9481 95.9274 23.6192L94.5336 22.1849ZM86.1648 30.4772C84.8044 31.8524 83.4275 33.2582 82.0398 34.6911L83.4765 36.0825C84.8591 34.6549 86.231 33.2541 87.5866 31.8838L86.1648 30.4772ZM77.9587 38.9525C76.621 40.3654 75.2784 41.7998 73.936 43.2526L75.4049 44.6099C76.7416 43.1633 78.0786 41.7348 79.411 40.3275L77.9587 38.9525ZM69.964 47.6074C68.6531 49.064 67.3469 50.5354 66.0502 52.0186L67.5559 53.335C68.846 51.8593 70.1458 50.3951 71.4506 48.9453L69.964 47.6074ZM62.2029 56.489C60.93 57.9925 59.6711 59.5049 58.4307 61.0235L59.9797 62.2886C61.2122 60.7797 62.4636 59.2763 63.7293 57.7814L62.2029 56.489ZM54.7404 65.6327C53.5169 67.1931 52.3176 68.757 51.1475 70.3211L52.749 71.5191C53.9094 69.9678 55.0995 68.416 56.3143 66.8668L54.7404 65.6327ZM47.6703 75.0955C46.5187 76.7222 45.4042 78.346 44.3324 79.9635L45.9995 81.0683C47.0592 79.4691 48.1621 77.8622 49.3027 76.2511L47.6703 75.0955ZM41.1452 84.9656C40.6282 85.8123 40.1247 86.6564 39.6356 87.4972L41.3644 88.5028C41.8461 87.6748 42.3423 86.843 42.8522 86.0079L41.1452 84.9656ZM39.6356 87.4972C39.1579 88.3183 38.6842 89.1532 38.2145 90.0008L39.9638 90.9702C40.4271 90.1343 40.894 89.3115 41.3644 88.5028L39.6356 87.4972ZM35.5013 95.1195C34.6431 96.8093 33.7994 98.5382 32.9705 100.3L34.7802 101.151C35.6012 99.4066 36.4361 97.6958 37.2845 96.0251L35.5013 95.1195ZM30.5829 105.551C29.815 107.298 29.0609 109.069 28.3209 110.859L30.1691 111.623C30.9038 109.846 31.6521 108.089 32.4137 106.356L30.5829 105.551ZM26.1703 116.21C25.4731 117.994 24.7896 119.79 24.1202 121.594L25.9953 122.29C26.6609 120.496 27.3403 118.711 28.0331 116.938L26.1703 116.21ZM22.1585 127.011C21.517 128.825 20.8898 130.642 20.2772 132.455L22.172 133.095C22.7817 131.29 23.4059 129.483 24.0441 127.678L22.1585 127.011ZM18.47 137.921C17.8751 139.76 17.2957 141.589 16.7321 143.404L18.6421 143.997C19.2035 142.189 19.7805 140.367 20.3729 138.537L18.47 137.921ZM15.0537 148.917C14.4964 150.784 13.9568 152.629 13.4353 154.445L15.3576 154.997C15.8773 153.187 16.4149 151.349 16.9701 149.489L15.0537 148.917ZM11.876 159.977C11.3512 161.874 10.848 163.73 10.3669 165.536L12.2995 166.051C12.779 164.251 13.2806 162.401 13.8037 160.51L11.876 159.977ZM8.91033 171.105C8.41144 173.048 7.94244 174.914 7.50403 176.688L9.44566 177.168C9.88268 175.399 10.3502 173.539 10.8475 171.602L8.91033 171.105ZM6.15255 182.268C5.6617 184.336 5.22623 186.219 4.84778 187.886L6.79818 188.329C7.17526 186.668 7.60925 184.791 8.09849 182.73L6.15255 182.268Z" fill="#FFA500"/>
</svg>
