<svg width="190" height="160" viewBox="0 0 190 160" fill="none" xmlns="http://www.w3.org/2000/svg">
<path d="M93.5 64.5L93.1842 64.8876L93.5 64.5ZM0.5 0.5L3.2291 5.58776L6.27069 0.680408L0.5 0.5ZM189 159C189.373 158.667 189.373 158.667 189.373 158.667C189.373 158.667 189.373 158.667 189.373 158.667C189.373 158.667 189.373 158.667 189.373 158.667C189.373 158.667 189.372 158.666 189.372 158.666C189.372 158.666 189.371 158.665 189.371 158.664C189.369 158.663 189.367 158.661 189.364 158.658C189.359 158.651 189.351 158.642 189.34 158.63C189.318 158.605 189.285 158.569 189.242 158.521C189.155 158.424 189.026 158.28 188.856 158.091C188.516 157.712 188.012 157.153 187.358 156.43L186.616 157.1C187.27 157.823 187.773 158.382 188.112 158.759C188.282 158.948 188.411 159.092 188.497 159.188C188.54 159.236 188.573 159.272 188.595 159.297C188.605 159.309 188.614 159.318 188.619 159.324C188.622 159.327 188.624 159.329 188.625 159.331C188.626 159.332 188.626 159.332 188.627 159.333C188.627 159.333 188.627 159.333 188.627 159.333C188.627 159.333 188.627 159.333 188.627 159.333C188.627 159.333 188.627 159.333 188.627 159.333C188.627 159.333 188.627 159.333 189 159ZM183.239 151.904C182.017 150.568 180.631 149.059 179.098 147.399L178.364 148.077C179.895 149.736 181.28 151.244 182.501 152.579L183.239 151.904ZM174.929 142.902C173.61 141.485 172.217 139.994 170.758 138.439L170.029 139.124C171.487 140.677 172.879 142.167 174.197 143.583L174.929 142.902ZM166.554 133.977C165.196 132.542 163.794 131.066 162.352 129.555L161.629 130.245C163.069 131.755 164.47 133.23 165.827 134.665L166.554 133.977ZM158.12 125.137C156.731 123.692 155.311 122.223 153.866 120.734L153.148 121.43C154.593 122.918 156.011 124.387 157.4 125.83L158.12 125.137ZM149.591 116.349C148.181 114.91 146.752 113.458 145.305 111.995L144.594 112.698C146.04 114.16 147.468 115.611 148.876 117.049L149.591 116.349ZM140.995 107.66C139.562 106.226 138.116 104.787 136.66 103.346L135.956 104.057C137.411 105.497 138.856 106.935 140.288 108.367L140.995 107.66ZM132.299 99.0569C130.843 97.6333 129.379 96.2113 127.911 94.7944L127.216 95.514C128.683 96.9293 130.145 98.3498 131.6 99.7719L132.299 99.0569ZM123.493 90.5619C122.011 89.1525 120.527 87.7517 119.044 86.363L118.36 87.0931C119.842 88.4798 121.324 89.8788 122.804 91.2865L123.493 90.5619ZM114.56 82.2021C113.048 80.812 111.54 79.4383 110.038 78.0848L109.369 78.8276C110.868 80.1788 112.374 81.5502 113.883 82.9382L114.56 82.2021ZM105.473 74.0163C103.92 72.6488 102.377 71.3075 100.848 69.9967L100.197 70.7559C101.723 72.0637 103.262 73.402 104.812 74.7668L105.473 74.0163ZM96.1649 66.0446C95.3771 65.3907 94.5939 64.7464 93.8158 64.1124L93.1842 64.8876C93.9598 65.5196 94.7407 66.162 95.5263 66.814L96.1649 66.0446ZM93.8158 64.1124C93.017 63.4615 92.2048 62.8061 91.3803 62.1468L90.7558 62.9278C91.578 63.5853 92.3878 64.2387 93.1842 64.8876L93.8158 64.1124ZM86.438 58.2601C84.8082 56.9982 83.1423 55.7264 81.4472 54.4483L80.8452 55.2468C82.5371 56.5225 84.1996 57.7917 85.8258 59.0508L86.438 58.2601ZM76.4041 50.6894C74.7325 49.457 73.0404 48.2223 71.3339 46.9884L70.748 47.7988C72.4521 49.0309 74.1417 50.2639 75.8107 51.4943L76.4041 50.6894ZM66.2288 43.3289C64.524 42.117 62.8112 40.9092 61.0963 39.7084L60.5228 40.5276C62.2358 41.727 63.9467 42.9335 65.6494 44.1439L66.2288 43.3289ZM55.9387 36.1222C54.2065 34.9258 52.4783 33.74 50.76 32.568L50.1965 33.3941C51.9133 34.5651 53.6399 35.7498 55.3704 36.945L55.9387 36.1222ZM45.5687 29.0474C43.8078 27.8599 42.0644 26.691 40.3453 25.5441L39.7904 26.376C41.5081 27.522 43.2501 28.69 45.0096 29.8765L45.5687 29.0474ZM35.1174 22.0739C33.3272 20.8916 31.5737 19.7394 29.8653 18.6218L29.3178 19.4587C31.0251 20.5755 32.7774 21.7269 34.5662 22.9084L35.1174 22.0739ZM24.6121 15.2013C22.7735 14.0096 21.0062 12.8699 19.3233 11.7891L18.7829 12.6305C20.4647 13.7106 22.2308 14.8496 24.0682 16.0405L24.6121 15.2013ZM14.0295 8.40482C12.0828 7.16608 10.3074 6.04276 8.733 5.05067L8.19987 5.8967C9.77314 6.88807 11.5473 8.01058 13.4926 9.24849L14.0295 8.40482ZM93.5 64.5L92.8683 65.2752L93.5 64.5ZM0.5 0.5L5.95821 10.6755L12.0414 0.860816L0.5 0.5ZM189 159C189.746 158.334 189.746 158.334 189.746 158.334C189.746 158.334 189.746 158.334 189.746 158.334C189.746 158.334 189.746 158.334 189.746 158.334C189.745 158.333 189.745 158.333 189.745 158.333C189.745 158.333 189.744 158.332 189.744 158.331C189.742 158.33 189.74 158.327 189.737 158.324C189.732 158.318 189.723 158.309 189.712 158.296C189.69 158.272 189.658 158.235 189.614 158.187C189.527 158.09 189.398 157.946 189.228 157.756C188.887 157.378 188.383 156.818 187.728 156.094L186.245 157.436C186.899 158.158 187.401 158.716 187.74 159.093C187.91 159.282 188.039 159.425 188.125 159.522C188.168 159.57 188.2 159.606 188.222 159.63C188.233 159.642 188.241 159.651 188.246 159.657C188.249 159.66 188.251 159.663 188.252 159.664C188.253 159.665 188.254 159.665 188.254 159.666C188.254 159.666 188.254 159.666 188.254 159.666C188.254 159.666 188.254 159.666 188.254 159.666C188.254 159.666 188.254 159.666 188.254 159.666C188.254 159.666 188.254 159.666 189 159ZM183.608 151.566C182.385 150.23 180.998 148.72 179.466 147.06L177.996 148.416C179.527 150.074 180.911 151.582 182.132 152.916L183.608 151.566ZM175.295 142.561C173.976 141.143 172.582 139.652 171.123 138.097L169.665 139.466C171.122 141.019 172.513 142.508 173.831 143.924L175.295 142.561ZM166.917 133.634C165.559 132.198 164.156 130.721 162.714 129.21L161.267 130.59C162.707 132.1 164.108 133.575 165.464 135.008L166.917 133.634ZM158.481 124.791C157.09 123.345 155.671 121.875 154.225 120.386L152.789 121.778C154.233 123.266 155.651 124.734 157.04 126.177L158.481 124.791ZM149.948 115.999C148.538 114.56 147.108 113.107 145.661 111.644L144.239 113.05C145.684 114.511 147.111 115.962 148.519 117.399L149.948 115.999ZM141.348 107.306C139.915 105.872 138.468 104.433 137.011 102.991L135.605 104.413C137.059 105.852 138.503 107.289 139.934 108.72L141.348 107.306ZM132.648 98.6993C131.191 97.275 129.727 95.8523 128.258 94.4346L126.869 95.8738C128.335 97.2884 129.796 98.7081 131.25 100.129L132.648 98.6993ZM123.838 90.1996C122.355 88.7893 120.87 87.3876 119.385 85.998L118.019 87.4581C119.499 88.8439 120.98 90.242 122.459 91.6488L123.838 90.1996ZM114.898 81.8341C113.386 80.4429 111.876 79.0681 110.373 77.7134L109.034 79.199C110.532 80.549 112.036 81.9193 113.545 83.3062L114.898 81.8341ZM105.803 73.641C104.249 72.2722 102.705 70.9294 101.173 69.617L99.8719 71.1355C101.396 72.4417 102.933 73.7787 104.481 75.142L105.803 73.641ZM96.4843 65.6598C95.6953 65.005 94.911 64.3598 94.1317 63.7248L92.8683 65.2752C93.6427 65.9063 94.4224 66.5476 95.2069 67.1988L96.4843 65.6598ZM94.1317 63.7248C93.3316 63.0728 92.5182 62.4165 91.6926 61.7563L90.4436 63.3183C91.2646 63.9749 92.0732 64.6274 92.8683 65.2752L94.1317 63.7248ZM86.7441 57.8647C85.1125 56.6014 83.4449 55.3283 81.7482 54.0491L80.5442 55.646C82.2345 56.9205 83.8953 58.1885 85.5197 59.4461L86.7441 57.8647ZM76.7008 50.2869C75.0278 49.0536 73.3345 47.8179 71.6269 46.5832L70.455 48.2039C72.1579 49.4353 73.8463 50.6673 75.514 51.8968L76.7008 50.2869ZM66.5185 42.9214C64.8127 41.7088 63.0989 40.5002 61.3831 39.2989L60.236 40.9372C61.9481 42.136 63.658 43.3418 65.3597 44.5515L66.5185 42.9214ZM56.2228 35.7107C54.4898 34.5138 52.7608 33.3275 51.0418 32.1549L49.9148 33.8071C51.6307 34.9776 53.3566 36.1618 55.0862 37.3564L56.2228 35.7107ZM45.8483 28.6329C44.0866 27.4449 42.3425 26.2755 40.6228 25.1282L39.5129 26.7919C41.2299 27.9374 42.9713 29.1051 44.7301 30.2911L45.8483 28.6329ZM35.3929 21.6567C33.6021 20.474 31.848 19.3213 30.139 18.2034L29.0441 19.8771C30.7508 20.9935 32.5025 22.1445 34.2907 23.3256L35.3929 21.6567ZM24.8841 14.7818C23.0448 13.5897 21.2769 12.4496 19.5935 11.3684L18.5127 13.0512C20.1939 14.131 21.9595 15.2696 23.7963 16.4601L24.8841 14.7818ZM14.2979 7.98298C12.3506 6.74382 10.5746 5.62011 8.99956 4.62765L7.93332 6.31972C9.50599 7.31071 11.2795 8.43284 13.2242 9.67032L14.2979 7.98298Z" fill="#FFA500"/>
</svg>
