<svg width="169" height="104" viewBox="0 0 169 104" fill="none" xmlns="http://www.w3.org/2000/svg">
<path d="M63.5 43L63.7813 43.4134L63.5 43ZM9.17149e-06 104L5.4471 102.086L1.06619 98.3258L9.17149e-06 104ZM168 1.00001C167.877 0.515311 167.877 0.515314 167.877 0.515319C167.877 0.515322 167.877 0.515328 167.877 0.515335C167.877 0.515348 167.877 0.515366 167.877 0.51539C167.877 0.515438 167.876 0.515507 167.876 0.515597C167.875 0.515778 167.874 0.516045 167.873 0.516396C167.87 0.5171 167.866 0.518145 167.861 0.519532C167.85 0.522304 167.834 0.526439 167.812 0.531931C167.769 0.542914 167.705 0.559323 167.62 0.581101C167.451 0.624658 167.2 0.689694 166.871 0.775768C166.214 0.947914 165.246 1.20421 164.005 1.54113L164.267 2.50621C165.505 2.17012 166.47 1.91459 167.124 1.74315C167.452 1.65744 167.702 1.59275 167.87 1.54952C167.954 1.52791 168.017 1.51167 168.059 1.50085C168.081 1.49544 168.097 1.49138 168.107 1.48869C168.112 1.48734 168.116 1.48634 168.119 1.48567C168.12 1.48534 168.121 1.48509 168.122 1.48493C168.122 1.48485 168.122 1.48479 168.123 1.48475C168.123 1.48473 168.123 1.48472 168.123 1.48471C168.123 1.48471 168.123 1.48471 168.123 1.4847C168.123 1.4847 168.123 1.4847 168 1.00001ZM156.2 3.73162C153.884 4.40104 151.283 5.16933 148.451 6.03116L148.742 6.98784C151.569 6.12747 154.166 5.3605 156.478 4.69228L156.2 3.73162ZM140.719 8.44224C138.259 9.22775 135.69 10.0663 133.037 10.9553L133.355 11.9035C136.003 11.016 138.568 10.179 141.023 9.39483L140.719 8.44224ZM125.392 13.5801C122.901 14.4564 120.362 15.3713 117.792 16.3229L118.139 17.2606C120.703 16.3111 123.238 15.3981 125.724 14.5234L125.392 13.5801ZM110.233 19.1977C107.738 20.1728 105.231 21.18 102.727 22.2176L103.109 23.1415C105.607 22.1066 108.108 21.1019 110.597 20.129L110.233 19.1977ZM95.2894 25.3989C92.8125 26.4934 90.3542 27.6168 87.9301 28.7676L88.3589 29.671C90.7743 28.5244 93.2243 27.4047 95.6936 26.3136L95.2894 25.3989ZM80.672 32.3542C78.2379 33.6082 75.8576 34.8904 73.5487 36.1991L74.0417 37.0691C76.3381 35.7676 78.7066 34.4917 81.13 33.2432L80.672 32.3542ZM66.6043 40.361C65.4489 41.0957 64.3195 41.8376 63.2188 42.5866L63.7813 43.4134C64.873 42.6705 65.9937 41.9343 67.1409 41.2048L66.6043 40.361ZM63.2188 42.5866C62.22 43.2662 61.2134 43.973 60.2008 44.7043L60.7862 45.515C61.7918 44.7888 62.7908 44.0874 63.7813 43.4134L63.2188 42.5866ZM54.3231 49.1593C52.4285 50.6589 50.5246 52.2237 48.6224 53.8364L49.2692 54.5992C51.1637 52.9929 53.0589 51.4353 54.9437 49.9433L54.3231 49.1593ZM43.0668 58.6813C41.2405 60.3162 39.4258 61.9805 37.6328 63.6589L38.3161 64.389C40.1043 62.7152 41.9135 61.0559 43.7338 59.4264L43.0668 58.6813ZM32.3029 68.7456C30.5197 70.4791 28.7697 72.2111 27.064 73.9249L27.7727 74.6303C29.4749 72.9201 31.2209 71.192 32.9999 69.4626L32.3029 68.7456ZM21.9065 79.1849C20.1413 81.0115 18.4433 82.7951 16.8269 84.5136L17.5553 85.1988C19.1688 83.4833 20.8638 81.7029 22.6256 79.8798L21.9065 79.1849ZM11.8163 89.9098C10.0012 91.8897 8.34548 93.7233 6.8795 95.3639L7.62519 96.0302C9.08856 94.3925 10.7414 92.5621 12.5534 90.5855L11.8163 89.9098ZM63.5 43L64.0626 43.8268L63.5 43ZM9.17149e-06 104L10.8942 100.172L2.13236 92.6516L9.17149e-06 104ZM168 1.00001C167.755 0.030615 167.754 0.03062 167.754 0.0306263C167.754 0.0306302 167.754 0.0306379 167.754 0.0306457C167.754 0.0306612 167.754 0.0306822 167.754 0.0307085C167.754 0.030761 167.754 0.030835 167.753 0.0309304C167.753 0.0311212 167.751 0.0313974 167.75 0.0317591C167.747 0.0324825 167.743 0.0335476 167.737 0.0349536C167.726 0.0377656 167.71 0.041941 167.688 0.0474731C167.645 0.0585372 167.581 0.0750278 167.496 0.0968895C167.326 0.140613 167.074 0.205822 166.745 0.292074C166.086 0.464577 165.117 0.72126 163.874 1.05859L164.398 2.98876C165.635 2.65307 166.598 2.39793 167.251 2.22685C167.578 2.14131 167.827 2.07679 167.994 2.03374C168.078 2.01221 168.141 1.99605 168.183 1.9853C168.204 1.97993 168.22 1.97592 168.23 1.97327C168.236 1.97194 168.239 1.97095 168.242 1.97031C168.243 1.96999 168.244 1.96975 168.245 1.9696C168.245 1.96952 168.245 1.96947 168.245 1.96943C168.245 1.96942 168.246 1.96941 168.246 1.9694C168.246 1.9694 168.246 1.9694 168.246 1.9694C168.246 1.9694 168.246 1.9694 168 1.00001ZM156.061 3.25128C153.743 3.9213 151.14 4.69026 148.305 5.55282L148.888 7.46618C151.712 6.60654 154.307 5.84024 156.616 5.17262L156.061 3.25128ZM140.567 7.96595C138.105 8.75212 135.534 9.59137 132.878 10.4812L133.514 12.3776C136.16 11.4909 138.722 10.6546 141.175 9.87113L140.567 7.96595ZM125.226 13.1084C122.733 13.9856 120.191 14.9014 117.618 15.854L118.312 17.7295C120.874 16.781 123.406 15.8689 125.89 14.9951L125.226 13.1084ZM110.051 18.732C107.553 19.7083 105.042 20.7167 102.535 21.7557L103.301 23.6034C105.795 22.5699 108.293 21.5665 110.779 20.5947L110.051 18.732ZM95.0873 24.9415C92.6066 26.0377 90.1442 27.163 87.7156 28.3159L88.5734 30.1227C90.9843 28.9781 93.4302 27.8604 95.8957 26.7709L95.0873 24.9415ZM80.443 31.9098C78.0036 33.1665 75.6174 34.4518 73.3021 35.7641L74.2883 37.5041C76.5783 36.2061 78.9409 34.9334 81.3589 33.6877L80.443 31.9098ZM66.336 39.9391C65.1765 40.6764 64.0428 41.4212 62.9375 42.1733L64.0626 43.8268C65.1497 43.087 66.2661 42.3536 67.4092 41.6268L66.336 39.9391ZM62.9375 42.1733C61.9346 42.8557 60.9242 43.5651 59.908 44.2989L61.0789 45.9204C62.081 45.1967 63.0762 44.498 64.0626 43.8268L62.9375 42.1733ZM54.0128 48.7672C52.1134 50.2707 50.2051 51.8391 48.2991 53.4551L49.5925 54.9806C51.4832 53.3775 53.3741 51.8235 55.2541 50.3354L54.0128 48.7672ZM42.7333 58.3088C40.904 59.9463 39.0866 61.6132 37.2911 63.2939L38.6578 64.754C40.4435 63.0826 42.25 61.4258 44.0673 59.7989L42.7333 58.3088ZM31.9543 68.3871C30.169 70.1226 28.4171 71.8565 26.7096 73.5722L28.1271 74.983C29.8275 73.2746 31.5716 71.5484 33.3484 69.8211L31.9543 68.3871ZM21.547 78.8374C19.7801 80.6657 18.0805 82.4511 16.4627 84.1711L17.9195 85.5413C19.5316 83.8274 21.225 82.0487 22.9852 80.2273L21.547 78.8374ZM11.4477 89.5719C9.63106 91.5535 7.97392 93.3887 6.50666 95.0308L7.99803 96.3634C9.4601 94.7271 11.1115 92.8983 12.922 90.9234L11.4477 89.5719Z" fill="black"/>
</svg>
