<svg width="195" height="195" viewBox="0 0 195 195" fill="none" xmlns="http://www.w3.org/2000/svg">
<g filter="url(#filter0_d_1309_4907)">
<circle cx="97.5" cy="81.5" r="57.5" fill="white"/>
</g>
<circle cx="97.5" cy="81.5" r="43.125" fill="#191D32"/>
<g clip-path="url(#clip0_1309_4907)">
<path d="M119.985 79.1809L80.2112 75.0005L80.0369 76.658C79.9445 77.5372 80.2052 78.4171 80.7615 79.1042C81.3179 79.7912 82.1244 80.2291 83.0036 80.3215L87.9762 80.8441C88.8554 80.9365 89.7353 80.6759 90.4224 80.1196C91.1094 79.5632 91.5473 78.7567 91.6397 77.8775C91.5473 78.7567 91.8079 79.6366 92.3643 80.3237C92.9206 81.0107 93.7271 81.4486 94.6063 81.541L104.552 82.5863C105.431 82.6787 106.311 82.418 106.998 81.8617C107.685 81.3053 108.123 80.4988 108.215 79.6196C108.123 80.4988 108.383 81.3788 108.94 82.0658C109.496 82.7528 110.302 83.1907 111.182 83.2831L116.154 83.8058C117.034 83.8982 117.913 83.6375 118.6 83.0812C119.288 82.5248 119.725 81.7183 119.818 80.8391L119.992 79.1816L119.985 79.1809Z" fill="white"/>
<path d="M119.759 77.4813L117.881 66.7679C117.818 66.4112 117.641 66.0847 117.376 65.8377C117.111 65.5906 116.773 65.4365 116.413 65.3987L108.821 64.6007L109.922 76.4474L119.759 77.4813Z" fill="white"/>
<path d="M94.1694 63.0608L86.5775 62.2628C86.2173 62.2249 85.8547 62.3054 85.5443 62.492C85.234 62.6786 84.9929 62.9612 84.8575 63.297L80.7927 73.3857L90.6294 74.4196L94.1694 63.0608Z" fill="white"/>
<path d="M105.441 64.2454L97.55 63.4161L94.0099 74.7749L106.542 76.0921L105.441 64.2454Z" fill="white"/>
<path d="M111.007 84.9407C109.783 84.813 108.65 84.2368 107.826 83.323C106.83 84.0454 105.601 84.3735 104.377 84.2438L94.4321 83.1985C93.2081 83.0709 92.0747 82.4946 91.2505 81.5808C90.2542 82.3033 89.0258 82.6313 87.802 82.5017L82.8294 81.979C82.2645 81.9184 81.7141 81.7614 81.2023 81.5147L79.2555 100.038C79.2093 100.477 79.3396 100.917 79.6178 101.261C79.8959 101.604 80.2992 101.823 80.7388 101.869L84.0539 102.218L85.6218 87.3001C85.668 86.8605 85.8869 86.4572 86.2305 86.179C86.574 85.9009 87.0139 85.7705 87.4536 85.8167L95.7412 86.6878C96.1808 86.734 96.5841 86.953 96.8623 87.2965C97.1404 87.64 97.2708 88.08 97.2246 88.5196L95.6566 103.437L113.89 105.354C114.329 105.4 114.769 105.27 115.113 104.991C115.456 104.713 115.675 104.31 115.721 103.87L117.668 85.3475C117.116 85.4823 116.545 85.5215 115.98 85.4633L111.007 84.9407ZM111.62 95.0601C111.574 95.4997 111.355 95.903 111.011 96.1811C110.668 96.4593 110.228 96.5896 109.788 96.5434L101.5 95.6724C101.061 95.6261 100.657 95.4072 100.379 95.0637C100.101 94.7202 99.9708 94.2802 100.017 93.8406L100.54 88.868C100.586 88.4284 100.805 88.0251 101.148 87.747C101.492 87.4688 101.932 87.3385 102.371 87.3847L110.659 88.2557C111.099 88.3019 111.502 88.5209 111.78 88.8644C112.058 89.2079 112.189 89.6479 112.142 90.0875L111.62 95.0601Z" fill="url(#paint0_linear_1309_4907)"/>
</g>
<defs>
<filter id="filter0_d_1309_4907" x="0" y="0" width="195" height="195" filterUnits="userSpaceOnUse" color-interpolation-filters="sRGB">
<feFlood flood-opacity="0" result="BackgroundImageFix"/>
<feColorMatrix in="SourceAlpha" type="matrix" values="0 0 0 0 0 0 0 0 0 0 0 0 0 0 0 0 0 0 127 0" result="hardAlpha"/>
<feOffset dy="16"/>
<feGaussianBlur stdDeviation="20"/>
<feComposite in2="hardAlpha" operator="out"/>
<feColorMatrix type="matrix" values="0 0 0 0 0.8 0 0 0 0 0.8 0 0 0 0 0.8 0 0 0 0.15 0"/>
<feBlend mode="normal" in2="BackgroundImageFix" result="effect1_dropShadow_1309_4907"/>
<feBlend mode="normal" in="SourceGraphic" in2="effect1_dropShadow_1309_4907" result="shape"/>
</filter>
<linearGradient id="paint0_linear_1309_4907" x1="99.5381" y1="82.4519" x2="93.7883" y2="110.008" gradientUnits="userSpaceOnUse">
<stop stop-color="white"/>
<stop offset="1" stop-color="white" stop-opacity="0"/>
</linearGradient>
<clipPath id="clip0_1309_4907">
<rect width="40" height="40" fill="white" transform="translate(81.6049 61.7402) rotate(6)"/>
</clipPath>
</defs>
</svg>
