<svg width="1440" height="1067" viewBox="0 0 1440 1067" fill="none" xmlns="http://www.w3.org/2000/svg">
<g clip-path="url(#clip0_1352_2707)">
<rect width="1440" height="1067" fill="white"/>
<g opacity="0.7" filter="url(#filter0_d_1352_2707)">
<path d="M-221.6 683.4L-276.5 894H-338.6L-372.2 755.4L-407 894H-469.1L-522.5 683.4H-467.6L-437.3 836.7L-399.8 683.4H-343.4L-307.4 836.7L-276.8 683.4H-221.6ZM-47.0727 807.6C-47.0727 812.4 -47.3727 817.4 -47.9726 822.6H-164.073C-163.273 833 -159.973 841 -154.173 846.6C-148.173 852 -140.873 854.7 -132.273 854.7C-119.473 854.7 -110.573 849.3 -105.573 838.5H-50.9726C-53.7726 849.5 -58.8726 859.4 -66.2726 868.2C-73.4726 877 -82.5726 883.9 -93.5726 888.9C-104.573 893.9 -116.873 896.4 -130.473 896.4C-146.873 896.4 -161.473 892.9 -174.273 885.9C-187.073 878.9 -197.073 868.9 -204.273 855.9C-211.473 842.9 -215.073 827.7 -215.073 810.3C-215.073 792.9 -211.573 777.7 -204.573 764.7C-197.373 751.7 -187.373 741.7 -174.573 734.7C-161.773 727.7 -147.073 724.2 -130.473 724.2C-114.273 724.2 -99.8726 727.6 -87.2726 734.4C-74.6726 741.2 -64.8726 750.9 -57.8726 763.5C-50.6727 776.1 -47.0727 790.8 -47.0727 807.6ZM-99.5727 794.1C-99.5727 785.3 -102.573 778.3 -108.573 773.1C-114.573 767.9 -122.073 765.3 -131.073 765.3C-139.673 765.3 -146.973 767.8 -152.973 772.8C-158.773 777.8 -162.373 784.9 -163.773 794.1H-99.5727ZM15.3648 810C15.3648 792.8 18.5648 777.7 24.9648 764.7C31.5648 751.7 40.4648 741.7 51.6648 734.7C62.8648 727.7 75.3648 724.2 89.1648 724.2C100.965 724.2 111.265 726.6 120.065 731.4C129.065 736.2 135.965 742.5 140.765 750.3V726.6H192.065V894H140.765V870.3C135.765 878.1 128.765 884.4 119.765 889.2C110.965 894 100.665 896.4 88.8648 896.4C75.2648 896.4 62.8648 892.9 51.6648 885.9C40.4648 878.7 31.5648 868.6 24.9648 855.6C18.5648 842.4 15.3648 827.2 15.3648 810ZM140.765 810.3C140.765 797.5 137.165 787.4 129.965 780C122.965 772.6 114.365 768.9 104.165 768.9C93.9648 768.9 85.2648 772.6 78.0648 780C71.0648 787.2 67.5648 797.2 67.5648 810C67.5648 822.8 71.0648 833 78.0648 840.6C85.2648 848 93.9648 851.7 104.165 851.7C114.365 851.7 122.965 848 129.965 840.6C137.165 833.2 140.765 823.1 140.765 810.3ZM271.478 754.5C277.478 745.3 284.978 738.1 293.978 732.9C302.978 727.5 312.978 724.8 323.978 724.8V779.1H309.878C297.078 779.1 287.478 781.9 281.078 787.5C274.678 792.9 271.478 802.5 271.478 816.3V894H220.178V726.6H271.478V754.5ZM497.298 807.6C497.298 812.4 496.998 817.4 496.398 822.6H380.298C381.098 833 384.398 841 390.198 846.6C396.198 852 403.498 854.7 412.098 854.7C424.898 854.7 433.798 849.3 438.798 838.5H493.398C490.598 849.5 485.498 859.4 478.098 868.2C470.898 877 461.798 883.9 450.798 888.9C439.798 893.9 427.498 896.4 413.898 896.4C397.498 896.4 382.898 892.9 370.098 885.9C357.298 878.9 347.298 868.9 340.098 855.9C332.898 842.9 329.298 827.7 329.298 810.3C329.298 792.9 332.798 777.7 339.798 764.7C346.998 751.7 356.998 741.7 369.798 734.7C382.598 727.7 397.298 724.2 413.898 724.2C430.098 724.2 444.498 727.6 457.098 734.4C469.698 741.2 479.498 750.9 486.498 763.5C493.698 776.1 497.298 790.8 497.298 807.6ZM444.798 794.1C444.798 785.3 441.798 778.3 435.798 773.1C429.798 767.9 422.298 765.3 413.298 765.3C404.698 765.3 397.398 767.8 391.398 772.8C385.598 777.8 381.998 784.9 380.598 794.1H444.798ZM559.736 810C559.736 792.8 562.936 777.7 569.336 764.7C575.936 751.7 584.836 741.7 596.036 734.7C607.236 727.7 619.736 724.2 633.536 724.2C645.336 724.2 655.636 726.6 664.436 731.4C673.436 736.2 680.336 742.5 685.136 750.3V726.6H736.436V894H685.136V870.3C680.136 878.1 673.136 884.4 664.136 889.2C655.336 894 645.036 896.4 633.236 896.4C619.636 896.4 607.236 892.9 596.036 885.9C584.836 878.7 575.936 868.6 569.336 855.6C562.936 842.4 559.736 827.2 559.736 810ZM685.136 810.3C685.136 797.5 681.536 787.4 674.336 780C667.336 772.6 658.736 768.9 648.536 768.9C638.336 768.9 629.636 772.6 622.436 780C615.436 787.2 611.936 797.2 611.936 810C611.936 822.8 615.436 833 622.436 840.6C629.636 848 638.336 851.7 648.536 851.7C658.736 851.7 667.336 848 674.336 840.6C681.536 833.2 685.136 823.1 685.136 810.3ZM946.623 786C958.823 788.6 968.623 794.7 976.023 804.3C983.423 813.7 987.123 824.5 987.123 836.7C987.123 854.3 980.923 868.3 968.523 878.7C956.323 888.9 939.223 894 917.223 894H819.123V683.4H913.923C935.323 683.4 952.023 688.3 964.023 698.1C976.223 707.9 982.323 721.2 982.323 738C982.323 750.4 979.023 760.7 972.423 768.9C966.023 777.1 957.423 782.8 946.623 786ZM870.423 768.6H904.023C912.423 768.6 918.823 766.8 923.223 763.2C927.823 759.4 930.123 753.9 930.123 746.7C930.123 739.5 927.823 734 923.223 730.2C918.823 726.4 912.423 724.5 904.023 724.5H870.423V768.6ZM908.223 852.6C916.823 852.6 923.423 850.7 928.023 846.9C932.823 842.9 935.223 837.2 935.223 829.8C935.223 822.4 932.723 816.6 927.723 812.4C922.923 808.2 916.223 806.1 907.623 806.1H870.423V852.6H908.223ZM1059.18 754.5C1065.18 745.3 1072.68 738.1 1081.68 732.9C1090.68 727.5 1100.68 724.8 1111.68 724.8V779.1H1097.58C1084.78 779.1 1075.18 781.9 1068.78 787.5C1062.38 792.9 1059.18 802.5 1059.18 816.3V894H1007.88V726.6H1059.18V754.5ZM1153 709.2C1144 709.2 1136.6 706.6 1130.8 701.4C1125.2 696 1122.4 689.4 1122.4 681.6C1122.4 673.6 1125.2 667 1130.8 661.8C1136.6 656.4 1144 653.7 1153 653.7C1161.8 653.7 1169 656.4 1174.6 661.8C1180.4 667 1183.3 673.6 1183.3 681.6C1183.3 689.4 1180.4 696 1174.6 701.4C1169 706.6 1161.8 709.2 1153 709.2ZM1178.5 726.6V894H1127.2V726.6H1178.5ZM1196.47 810C1196.47 792.8 1199.67 777.7 1206.07 764.7C1212.67 751.7 1221.57 741.7 1232.77 734.7C1243.97 727.7 1256.47 724.2 1270.27 724.2C1281.27 724.2 1291.27 726.5 1300.27 731.1C1309.47 735.7 1316.67 741.9 1321.87 749.7V672H1373.17V894H1321.87V870C1317.07 878 1310.17 884.4 1301.17 889.2C1292.37 894 1282.07 896.4 1270.27 896.4C1256.47 896.4 1243.97 892.9 1232.77 885.9C1221.57 878.7 1212.67 868.6 1206.07 855.6C1199.67 842.4 1196.47 827.2 1196.47 810ZM1321.87 810.3C1321.87 797.5 1318.27 787.4 1311.07 780C1304.07 772.6 1295.47 768.9 1285.27 768.9C1275.07 768.9 1266.37 772.6 1259.17 780C1252.17 787.2 1248.67 797.2 1248.67 810C1248.67 822.8 1252.17 833 1259.17 840.6C1266.37 848 1275.07 851.7 1285.27 851.7C1295.47 851.7 1304.07 848 1311.07 840.6C1318.27 833.2 1321.87 823.1 1321.87 810.3ZM1464.89 724.2C1476.69 724.2 1486.99 726.6 1495.79 731.4C1504.79 736.2 1511.69 742.5 1516.49 750.3V726.6H1567.79V893.7C1567.79 909.1 1564.69 923 1558.49 935.4C1552.49 948 1543.19 958 1530.59 965.4C1518.19 972.8 1502.69 976.5 1484.09 976.5C1459.29 976.5 1439.19 970.6 1423.79 958.8C1408.39 947.2 1399.59 931.4 1397.39 911.4H1448.09C1449.69 917.8 1453.49 922.8 1459.49 926.4C1465.49 930.2 1472.89 932.1 1481.69 932.1C1492.29 932.1 1500.69 929 1506.89 922.8C1513.29 916.8 1516.49 907.1 1516.49 893.7V870C1511.49 877.8 1504.59 884.2 1495.79 889.2C1486.99 894 1476.69 896.4 1464.89 896.4C1451.09 896.4 1438.59 892.9 1427.39 885.9C1416.19 878.7 1407.29 868.6 1400.69 855.6C1394.29 842.4 1391.09 827.2 1391.09 810C1391.09 792.8 1394.29 777.7 1400.69 764.7C1407.29 751.7 1416.19 741.7 1427.39 734.7C1438.59 727.7 1451.09 724.2 1464.89 724.2ZM1516.49 810.3C1516.49 797.5 1512.89 787.4 1505.69 780C1498.69 772.6 1490.09 768.9 1479.89 768.9C1469.69 768.9 1460.99 772.6 1453.79 780C1446.79 787.2 1443.29 797.2 1443.29 810C1443.29 822.8 1446.79 833 1453.79 840.6C1460.99 848 1469.69 851.7 1479.89 851.7C1490.09 851.7 1498.69 848 1505.69 840.6C1512.89 833.2 1516.49 823.1 1516.49 810.3ZM1753.7 807.6C1753.7 812.4 1753.4 817.4 1752.8 822.6H1636.7C1637.5 833 1640.8 841 1646.6 846.6C1652.6 852 1659.9 854.7 1668.5 854.7C1681.3 854.7 1690.2 849.3 1695.2 838.5H1749.8C1747 849.5 1741.9 859.4 1734.5 868.2C1727.3 877 1718.2 883.9 1707.2 888.9C1696.2 893.9 1683.9 896.4 1670.3 896.4C1653.9 896.4 1639.3 892.9 1626.5 885.9C1613.7 878.9 1603.7 868.9 1596.5 855.9C1589.3 842.9 1585.7 827.7 1585.7 810.3C1585.7 792.9 1589.2 777.7 1596.2 764.7C1603.4 751.7 1613.4 741.7 1626.2 734.7C1639 727.7 1653.7 724.2 1670.3 724.2C1686.5 724.2 1700.9 727.6 1713.5 734.4C1726.1 741.2 1735.9 750.9 1742.9 763.5C1750.1 776.1 1753.7 790.8 1753.7 807.6ZM1701.2 794.1C1701.2 785.3 1698.2 778.3 1692.2 773.1C1686.2 767.9 1678.7 765.3 1669.7 765.3C1661.1 765.3 1653.8 767.8 1647.8 772.8C1642 777.8 1638.4 784.9 1637 794.1H1701.2Z" fill="white"/>
</g>
<g filter="url(#filter1_d_1352_2707)">
<circle cx="310" cy="510" r="45" fill="white"/>
</g>
<g filter="url(#filter2_d_1352_2707)">
<circle cx="479" cy="464" r="40" fill="white"/>
</g>
<g filter="url(#filter3_d_1352_2707)">
<circle cx="255" cy="779" r="40" fill="white"/>
</g>
<g filter="url(#filter4_d_1352_2707)">
<circle cx="633" cy="441" r="35" fill="white"/>
</g>
<g filter="url(#filter5_d_1352_2707)">
<circle cx="1036" cy="769" r="45" fill="white"/>
</g>
<g filter="url(#filter6_d_1352_2707)">
<circle cx="1191" cy="447" r="45" fill="white"/>
</g>
</g>
<defs>
<filter id="filter0_d_1352_2707" x="-567.5" y="632.7" width="2366.2" height="412.8" filterUnits="userSpaceOnUse" color-interpolation-filters="sRGB">
<feFlood flood-opacity="0" result="BackgroundImageFix"/>
<feColorMatrix in="SourceAlpha" type="matrix" values="0 0 0 0 0 0 0 0 0 0 0 0 0 0 0 0 0 0 127 0" result="hardAlpha"/>
<feOffset dy="24"/>
<feGaussianBlur stdDeviation="22.5"/>
<feComposite in2="hardAlpha" operator="out"/>
<feColorMatrix type="matrix" values="0 0 0 0 0.683333 0 0 0 0 0.683333 0 0 0 0 0.683333 0 0 0 0.1 0"/>
<feBlend mode="normal" in2="BackgroundImageFix" result="effect1_dropShadow_1352_2707"/>
<feBlend mode="normal" in="SourceGraphic" in2="effect1_dropShadow_1352_2707" result="shape"/>
</filter>
<filter id="filter1_d_1352_2707" x="225" y="441" width="170" height="170" filterUnits="userSpaceOnUse" color-interpolation-filters="sRGB">
<feFlood flood-opacity="0" result="BackgroundImageFix"/>
<feColorMatrix in="SourceAlpha" type="matrix" values="0 0 0 0 0 0 0 0 0 0 0 0 0 0 0 0 0 0 127 0" result="hardAlpha"/>
<feOffset dy="16"/>
<feGaussianBlur stdDeviation="20"/>
<feComposite in2="hardAlpha" operator="out"/>
<feColorMatrix type="matrix" values="0 0 0 0 0.8 0 0 0 0 0.8 0 0 0 0 0.8 0 0 0 0.15 0"/>
<feBlend mode="normal" in2="BackgroundImageFix" result="effect1_dropShadow_1352_2707"/>
<feBlend mode="normal" in="SourceGraphic" in2="effect1_dropShadow_1352_2707" result="shape"/>
</filter>
<filter id="filter2_d_1352_2707" x="399" y="400" width="160" height="160" filterUnits="userSpaceOnUse" color-interpolation-filters="sRGB">
<feFlood flood-opacity="0" result="BackgroundImageFix"/>
<feColorMatrix in="SourceAlpha" type="matrix" values="0 0 0 0 0 0 0 0 0 0 0 0 0 0 0 0 0 0 127 0" result="hardAlpha"/>
<feOffset dy="16"/>
<feGaussianBlur stdDeviation="20"/>
<feComposite in2="hardAlpha" operator="out"/>
<feColorMatrix type="matrix" values="0 0 0 0 0.8 0 0 0 0 0.8 0 0 0 0 0.8 0 0 0 0.15 0"/>
<feBlend mode="normal" in2="BackgroundImageFix" result="effect1_dropShadow_1352_2707"/>
<feBlend mode="normal" in="SourceGraphic" in2="effect1_dropShadow_1352_2707" result="shape"/>
</filter>
<filter id="filter3_d_1352_2707" x="175" y="715" width="160" height="160" filterUnits="userSpaceOnUse" color-interpolation-filters="sRGB">
<feFlood flood-opacity="0" result="BackgroundImageFix"/>
<feColorMatrix in="SourceAlpha" type="matrix" values="0 0 0 0 0 0 0 0 0 0 0 0 0 0 0 0 0 0 127 0" result="hardAlpha"/>
<feOffset dy="16"/>
<feGaussianBlur stdDeviation="20"/>
<feComposite in2="hardAlpha" operator="out"/>
<feColorMatrix type="matrix" values="0 0 0 0 0.8 0 0 0 0 0.8 0 0 0 0 0.8 0 0 0 0.15 0"/>
<feBlend mode="normal" in2="BackgroundImageFix" result="effect1_dropShadow_1352_2707"/>
<feBlend mode="normal" in="SourceGraphic" in2="effect1_dropShadow_1352_2707" result="shape"/>
</filter>
<filter id="filter4_d_1352_2707" x="558" y="382" width="150" height="150" filterUnits="userSpaceOnUse" color-interpolation-filters="sRGB">
<feFlood flood-opacity="0" result="BackgroundImageFix"/>
<feColorMatrix in="SourceAlpha" type="matrix" values="0 0 0 0 0 0 0 0 0 0 0 0 0 0 0 0 0 0 127 0" result="hardAlpha"/>
<feOffset dy="16"/>
<feGaussianBlur stdDeviation="20"/>
<feComposite in2="hardAlpha" operator="out"/>
<feColorMatrix type="matrix" values="0 0 0 0 0.8 0 0 0 0 0.8 0 0 0 0 0.8 0 0 0 0.15 0"/>
<feBlend mode="normal" in2="BackgroundImageFix" result="effect1_dropShadow_1352_2707"/>
<feBlend mode="normal" in="SourceGraphic" in2="effect1_dropShadow_1352_2707" result="shape"/>
</filter>
<filter id="filter5_d_1352_2707" x="951" y="700" width="170" height="170" filterUnits="userSpaceOnUse" color-interpolation-filters="sRGB">
<feFlood flood-opacity="0" result="BackgroundImageFix"/>
<feColorMatrix in="SourceAlpha" type="matrix" values="0 0 0 0 0 0 0 0 0 0 0 0 0 0 0 0 0 0 127 0" result="hardAlpha"/>
<feOffset dy="16"/>
<feGaussianBlur stdDeviation="20"/>
<feComposite in2="hardAlpha" operator="out"/>
<feColorMatrix type="matrix" values="0 0 0 0 0.8 0 0 0 0 0.8 0 0 0 0 0.8 0 0 0 0.15 0"/>
<feBlend mode="normal" in2="BackgroundImageFix" result="effect1_dropShadow_1352_2707"/>
<feBlend mode="normal" in="SourceGraphic" in2="effect1_dropShadow_1352_2707" result="shape"/>
</filter>
<filter id="filter6_d_1352_2707" x="1106" y="378" width="170" height="170" filterUnits="userSpaceOnUse" color-interpolation-filters="sRGB">
<feFlood flood-opacity="0" result="BackgroundImageFix"/>
<feColorMatrix in="SourceAlpha" type="matrix" values="0 0 0 0 0 0 0 0 0 0 0 0 0 0 0 0 0 0 127 0" result="hardAlpha"/>
<feOffset dy="16"/>
<feGaussianBlur stdDeviation="20"/>
<feComposite in2="hardAlpha" operator="out"/>
<feColorMatrix type="matrix" values="0 0 0 0 0.8 0 0 0 0 0.8 0 0 0 0 0.8 0 0 0 0.15 0"/>
<feBlend mode="normal" in2="BackgroundImageFix" result="effect1_dropShadow_1352_2707"/>
<feBlend mode="normal" in="SourceGraphic" in2="effect1_dropShadow_1352_2707" result="shape"/>
</filter>
<clipPath id="clip0_1352_2707">
<rect width="1440" height="1067" fill="white"/>
</clipPath>
</defs>
</svg>
