<svg width="52" height="52" viewBox="0 0 52 52" fill="none" xmlns="http://www.w3.org/2000/svg">
<circle cx="26" cy="26" r="26" fill="#F2FCF8"/>
<g clip-path="url(#clip0_1458_5096)">
<path d="M40.7607 32.0798C40.7701 32.0608 40.7784 32.0413 40.785 32.0213C42.6809 27.6454 42.3422 22.2808 39.8797 18.1806C41.1943 16.6091 39.4867 14.3585 37.6194 15.2293C37.2912 14.894 36.9467 14.5726 36.5896 14.2687C37.2905 12.3635 34.9515 10.8007 33.4948 12.2241C29.261 10.0862 23.995 10.1133 19.7845 12.2965C18.2867 10.7092 15.7712 12.4111 16.6781 14.4026C16.1587 14.8568 15.6671 15.3474 15.2138 15.8662C14.8225 16.3141 15.5315 16.9281 15.9202 16.4832C16.3418 16.0007 16.7987 15.5441 17.2813 15.1211C18.2146 15.7942 19.5678 15.4513 20.0798 14.4238C21.7693 14.9102 23.3828 15.6082 24.8863 16.504C24.7605 16.9579 24.8119 17.4648 25.0278 17.8838C23.7904 18.9528 22.676 20.1619 21.7083 21.4871C20.815 21.2172 19.8303 21.669 19.4418 22.515C17.4717 22.5256 15.4955 22.7375 13.5552 23.1476C13.3839 22.8283 13.1241 22.5638 12.8092 22.3866C13.1738 20.965 13.7512 19.6127 14.5289 18.3623C14.8388 17.8639 14.0566 17.3459 13.7325 17.8669C12.9056 19.1962 12.2914 20.6338 11.903 22.145C9.65634 22.1832 9.27917 25.2912 11.418 25.8891C11.3865 30.3125 13.299 34.6131 16.6154 37.5427C15.9235 39.4115 18.1695 40.953 19.6517 39.6349C23.9773 41.935 29.4441 41.9353 33.77 39.6356C35.2775 41.1266 37.692 39.4609 36.8428 37.5118C38.552 35.9928 39.8798 34.1349 40.7607 32.0798ZM40.1698 31.031C38.8716 29.7413 37.451 28.5713 35.9342 27.5443C36.1496 26.8695 35.9624 26.1104 35.4594 25.6123C36.7348 23.4916 37.7361 21.2177 38.4409 18.8423C38.6758 18.8431 38.9016 18.7997 39.1096 18.7213C41.2693 22.3688 41.6643 27.0716 40.1698 31.031ZM18.5895 36.3324C18.1948 32.4666 18.8874 28.6099 20.6015 25.1246C21.6664 25.4569 22.8173 24.7566 23.0241 23.6635C26.2578 24.0622 29.3721 25.0115 32.2949 26.49C32.1543 27.0364 32.2707 27.6389 32.6055 28.0934C29.3111 32.2671 24.9624 35.4077 19.9853 37.2078C19.6838 36.7302 19.1766 36.3961 18.5895 36.3324ZM33.1729 26.9652C33.1729 26.4338 33.6021 26.0015 34.1296 26.0015C35.3988 26.0543 35.3985 27.8764 34.1296 27.929C33.6021 27.929 33.1729 27.4967 33.1729 26.9652ZM39.4018 16.9406C39.4018 17.4721 38.9726 17.9044 38.4451 17.9044C37.1758 17.8516 37.1761 16.0295 38.4451 15.9769C38.9726 15.9769 39.4018 16.4092 39.4018 16.9406ZM36.9027 15.8381C36.2546 16.7489 36.5554 18.0654 37.5326 18.6067C36.8498 20.898 35.8819 23.0914 34.6505 25.1373C34.3931 25.0632 34.1073 25.0449 33.8426 25.0854C32.5555 22.3369 30.6827 19.8614 28.3949 17.884C28.6111 17.4647 28.6626 16.9587 28.5366 16.5041C29.9847 15.6414 31.5358 14.9614 33.1579 14.4781C33.697 15.5189 35.1432 15.8128 36.0411 15.0336C36.3387 15.2896 36.6267 15.5586 36.9027 15.8381ZM25.7547 17.0132C25.7547 16.4818 26.1839 16.0495 26.7114 16.0495C27.9807 16.1023 27.9803 17.9243 26.7114 17.9769C26.1839 17.9769 25.7547 17.5446 25.7547 17.0132ZM34.8256 12.6125C35.3532 12.6125 35.7824 13.0449 35.7824 13.5763C35.7297 14.8548 33.9213 14.8545 33.8688 13.5763C33.8688 13.0449 34.298 12.6125 34.8256 12.6125ZM18.3843 14.54C17.8567 14.54 17.4275 14.1077 17.4275 13.5762C17.4802 12.2976 19.2886 12.2981 19.3411 13.5762C19.3411 14.1077 18.9118 14.54 18.3843 14.54ZM20.2772 13.5043C20.2723 13.3741 20.2545 13.2474 20.2247 13.1251C24.1504 11.095 29.0547 11.0596 33.0107 13.0307C32.9599 13.2007 32.9321 13.3804 32.9312 13.5666C31.225 14.0713 29.5936 14.7843 28.0705 15.6901C27.3384 14.9328 26.0848 14.9326 25.3524 15.6901C23.7653 14.746 22.0615 14.0122 20.2772 13.5043ZM25.6487 18.5868C26.2829 19.0196 27.1397 19.0197 27.774 18.5868C29.9582 20.4728 31.7475 22.8335 32.98 25.4551C32.8965 25.5193 32.8185 25.5904 32.7467 25.6673C29.6653 24.1044 26.3771 23.1107 22.9615 22.7109C22.8693 22.4318 22.7145 22.1812 22.5135 21.976C23.4302 20.7308 24.4821 19.5934 25.6487 18.5868ZM21.1631 22.3444C21.6906 22.3444 22.1198 22.7768 22.1198 23.3082C22.0672 24.5868 20.2587 24.5864 20.2062 23.3082C20.2063 22.7768 20.6355 22.3444 21.1631 22.3444ZM10.9291 24.0463C10.9291 23.5149 11.3583 23.0826 11.8859 23.0826C13.1551 23.1354 13.1547 24.9574 11.8859 25.01C11.3584 25.0101 10.9291 24.5778 10.9291 24.0463ZM12.3558 25.8888C12.3558 25.8888 13.7803 25.5781 13.7803 24.0587C13.7803 24.0587 17.4355 23.4745 19.2745 23.4539C19.309 23.9083 19.5031 24.3183 19.8006 24.6277C17.973 28.3044 17.2359 32.3808 17.6602 36.4657C17.4775 36.5418 17.3093 36.6459 17.1606 36.7725C14.101 34.0316 12.3558 29.4393 12.3558 25.8888ZM18.3843 39.1864C17.8567 39.1864 17.4275 38.7541 17.4275 38.2227C17.4275 37.6912 17.8567 37.2589 18.3843 37.2589C18.9048 37.2589 19.3411 37.7097 19.3411 38.2227C19.3411 38.7541 18.9118 39.1864 18.3843 39.1864ZM26.7114 40.4293C24.4353 40.4293 22.1845 39.8842 20.1729 38.8493C20.2545 38.6152 20.2905 38.3486 20.2747 38.1002C25.4231 36.2444 29.9221 33.0013 33.3303 28.6889C33.6103 28.8202 33.921 28.8804 34.2297 28.8642C34.4381 29.6375 34.6027 30.4265 34.7194 31.2153C34.8088 31.8192 35.7369 31.6843 35.6473 31.0781C35.5234 30.2405 35.348 29.4027 35.1253 28.5822C35.2375 28.5125 35.3416 28.4311 35.4366 28.3401C37.0015 29.4026 38.4606 30.6222 39.7824 31.972C38.9626 33.7841 37.7695 35.4249 36.2536 36.7808C36.1037 36.6682 35.9366 36.5777 35.7572 36.5133C35.8494 35.6414 35.8895 34.7611 35.876 33.8905C35.8665 33.2778 34.9286 33.2922 34.9382 33.905C34.9512 34.7419 34.9124 35.5881 34.8234 36.4262C33.7173 36.602 32.9939 37.7489 33.2987 38.8238C31.2744 39.8752 29.0062 40.4293 26.7114 40.4293ZM35.1209 39.268C34.5934 39.268 34.1642 38.8356 34.1642 38.3042C34.2168 37.0256 36.0253 37.0261 36.0777 38.3042C36.0777 38.8356 35.6485 39.268 35.1209 39.268Z" fill="#27C078"/>
</g>
<defs>
<clipPath id="clip0_1458_5096">
<rect width="32" height="32" fill="white" transform="translate(10 10)"/>
</clipPath>
</defs>
</svg>
