<svg width="208" height="208" viewBox="0 0 208 208" fill="none" xmlns="http://www.w3.org/2000/svg">
<g filter="url(#filter0_d_1426_3056)">
<path d="M125.094 74.2188C122.938 74.2188 121.188 75.9688 121.188 78.125C121.188 80.2812 122.938 82.0312 125.094 82.0312C127.25 82.0312 129 80.2812 129 78.125C129 75.9688 127.25 74.2188 125.094 74.2188Z" fill="#0A3320"/>
<path d="M147.431 155.184L147.841 154.833C151.777 151.455 155.455 147.778 158.833 143.841L159.184 143.432L159.566 143.813L194.252 178.5C195.822 180.068 196.688 182.156 196.688 184.375C196.688 186.594 195.822 188.682 194.252 190.252L147.431 155.184ZM147.431 155.184L147.813 155.566L182.498 190.252C184.069 191.822 186.157 192.688 188.375 192.688C190.593 192.688 192.681 191.822 194.252 190.252L147.431 155.184ZM199.069 173.681L199.069 173.681C201.927 176.537 203.5 180.333 203.5 184.375C203.5 188.417 201.927 192.213 199.068 195.07L199.068 195.07C196.21 197.927 192.415 199.5 188.375 199.5C184.335 199.5 180.54 197.927 177.681 195.069L139.959 157.347L139.956 157.344L139.953 157.341L125.541 142.928L125.251 142.639L124.911 142.865C112.199 151.304 97.4784 155.75 82.125 155.75C39.323 155.75 4.5 120.927 4.5 78.125C4.5 35.323 39.323 0.5 82.125 0.5C124.927 0.5 159.75 35.323 159.75 78.125C159.75 93.478 155.305 108.198 146.865 120.911L146.639 121.251L146.928 121.541L199.069 173.681ZM131.229 138.204L130.801 138.554L131.192 138.945L142.274 150.027L142.6 150.353L142.951 150.055C146.95 146.667 150.667 142.95 154.055 138.951L154.353 138.6L154.027 138.274L142.945 127.192L142.554 126.801L142.204 127.229C138.918 131.246 135.246 134.918 131.229 138.204ZM123.65 135.45L123.675 135.432L123.676 135.431C129.741 131.023 135.05 125.712 139.455 119.643C148.275 107.5 152.938 93.1426 152.938 78.125C152.938 39.0785 121.171 7.3125 82.125 7.3125C43.0785 7.3125 11.3125 39.0785 11.3125 78.125C11.3125 117.171 43.0785 148.938 82.125 148.938C97.1407 148.938 111.497 144.276 123.638 135.458C123.642 135.456 123.646 135.453 123.65 135.45Z" fill="#0A3320" stroke="#0A3320"/>
<g filter="url(#filter1_d_1426_3056)">
<path d="M82.125 15.625C47.6621 15.625 19.625 43.6621 19.625 78.125C19.625 112.588 47.6621 140.625 82.125 140.625C116.588 140.625 144.625 112.588 144.625 78.125C144.625 43.6621 116.588 15.625 82.125 15.625ZM82.125 132.812C51.9703 132.812 27.4375 108.28 27.4375 78.125C27.4375 47.9703 51.9703 23.4375 82.125 23.4375C112.28 23.4375 136.812 47.9703 136.812 78.125C136.812 108.28 112.28 132.812 82.125 132.812Z" fill="#0A3320"/>
</g>
<path d="M125.9 61.3566C122.537 52.602 116.68 45.1168 108.963 39.7109C101.062 34.1758 91.7816 31.25 82.125 31.25C79.968 31.25 78.2188 32.9992 78.2188 35.1563C78.2188 37.3133 79.968 39.0625 82.125 39.0625C98.1793 39.0625 112.84 49.1477 118.608 64.159C119.205 65.7121 120.685 66.6652 122.255 66.6652C122.721 66.6652 123.195 66.5813 123.655 66.4043C125.669 65.6305 126.674 63.3707 125.9 61.3566Z" fill="#0A3320"/>
</g>
<defs>
<filter id="filter0_d_1426_3056" x="0" y="0" width="208" height="208" filterUnits="userSpaceOnUse" color-interpolation-filters="sRGB">
<feFlood flood-opacity="0" result="BackgroundImageFix"/>
<feColorMatrix in="SourceAlpha" type="matrix" values="0 0 0 0 0 0 0 0 0 0 0 0 0 0 0 0 0 0 127 0" result="hardAlpha"/>
<feOffset dy="4"/>
<feGaussianBlur stdDeviation="2"/>
<feComposite in2="hardAlpha" operator="out"/>
<feColorMatrix type="matrix" values="0 0 0 0 0 0 0 0 0 0 0 0 0 0 0 0 0 0 0.25 0"/>
<feBlend mode="normal" in2="BackgroundImageFix" result="effect1_dropShadow_1426_3056"/>
<feBlend mode="normal" in="SourceGraphic" in2="effect1_dropShadow_1426_3056" result="shape"/>
</filter>
<filter id="filter1_d_1426_3056" x="15.625" y="15.625" width="133" height="133" filterUnits="userSpaceOnUse" color-interpolation-filters="sRGB">
<feFlood flood-opacity="0" result="BackgroundImageFix"/>
<feColorMatrix in="SourceAlpha" type="matrix" values="0 0 0 0 0 0 0 0 0 0 0 0 0 0 0 0 0 0 127 0" result="hardAlpha"/>
<feOffset dy="4"/>
<feGaussianBlur stdDeviation="2"/>
<feComposite in2="hardAlpha" operator="out"/>
<feColorMatrix type="matrix" values="0 0 0 0 0 0 0 0 0 0 0 0 0 0 0 0 0 0 0.25 0"/>
<feBlend mode="normal" in2="BackgroundImageFix" result="effect1_dropShadow_1426_3056"/>
<feBlend mode="normal" in="SourceGraphic" in2="effect1_dropShadow_1426_3056" result="shape"/>
</filter>
</defs>
</svg>
