<svg width="288" height="222" viewBox="0 0 288 222" fill="none" xmlns="http://www.w3.org/2000/svg">
<path d="M100 53.5L100.263 53.075L100 53.5ZM4.75685e-05 1.99998L3.34617 6.70496L5.74774 1.45464L4.75685e-05 1.99998ZM286.5 221C286.873 220.667 286.873 220.667 286.873 220.667C286.873 220.667 286.873 220.667 286.873 220.667C286.873 220.667 286.873 220.667 286.873 220.667C286.873 220.667 286.873 220.667 286.873 220.667C286.872 220.666 286.872 220.666 286.871 220.665C286.869 220.663 286.867 220.66 286.864 220.657C286.858 220.65 286.848 220.639 286.836 220.626C286.811 220.598 286.774 220.557 286.725 220.502C286.628 220.392 286.481 220.229 286.288 220.014C285.902 219.584 285.328 218.947 284.577 218.118L283.836 218.789C284.586 219.617 285.159 220.253 285.544 220.682C285.737 220.897 285.883 221.06 285.98 221.169C286.029 221.223 286.066 221.264 286.09 221.292C286.102 221.305 286.111 221.316 286.118 221.322C286.121 221.326 286.123 221.328 286.124 221.33C286.125 221.331 286.126 221.332 286.126 221.332C286.126 221.332 286.126 221.332 286.127 221.332C286.127 221.333 286.127 221.333 286.127 221.333C286.127 221.333 286.127 221.333 286.127 221.333C286.127 221.333 286.127 221.333 286.5 221ZM279.829 212.917C278.449 211.416 276.881 209.719 275.138 207.844L274.405 208.524C276.147 210.398 277.714 212.094 279.092 213.594L279.829 212.917ZM270.35 202.72C268.836 201.107 267.23 199.404 265.538 197.619L264.812 198.307C266.503 200.091 268.108 201.792 269.621 203.404L270.35 202.72ZM260.716 192.556C259.162 190.931 257.549 189.252 255.883 187.526L255.163 188.22C256.829 189.946 258.44 191.623 259.994 193.247L260.716 192.556ZM251.031 182.521C249.446 180.893 247.819 179.23 246.154 177.534L245.441 178.235C247.105 179.929 248.73 181.592 250.315 183.218L251.031 182.521ZM241.247 172.562C239.632 170.933 237.985 169.279 236.309 167.603L235.602 168.31C237.277 169.985 238.923 171.638 240.537 173.266L241.247 172.562ZM231.337 162.657C229.709 161.044 228.056 159.414 226.38 157.77L225.68 158.484C227.355 160.127 229.007 161.756 230.634 163.367L231.337 162.657ZM221.387 152.895C219.73 151.285 218.052 149.663 216.356 148.031L215.663 148.752C217.358 150.382 219.034 152.003 220.69 153.612L221.387 152.895ZM211.302 143.194C209.63 141.603 207.943 140.005 206.24 138.401L205.555 139.129C207.256 140.731 208.942 142.328 210.612 143.918L211.302 143.194ZM201.139 133.623C199.439 132.04 197.727 130.454 196.003 128.867L195.326 129.602C197.048 131.188 198.759 132.773 200.457 134.354L201.139 133.623ZM190.858 124.158C189.14 122.595 187.412 121.033 185.674 119.472L185.005 120.216C186.742 121.775 188.469 123.337 190.185 124.898L190.858 124.158ZM180.456 114.816C178.716 113.275 176.969 111.737 175.214 110.204L174.556 110.957C176.309 112.488 178.055 114.025 179.792 115.565L180.456 114.816ZM169.935 105.624C168.17 104.104 166.399 102.591 164.623 101.087L163.977 101.85C165.75 103.353 167.519 104.864 169.282 106.382L169.935 105.624ZM159.271 96.5889C157.478 95.0946 155.682 93.6103 153.882 92.1377L153.249 92.9115C155.046 94.3823 156.84 95.8647 158.631 97.3571L159.271 96.5889ZM148.462 87.7431C146.636 86.2773 144.809 84.8251 142.982 83.3882L142.364 84.1743C144.188 85.609 146.013 87.0591 147.836 88.5228L148.462 87.7431ZM137.463 79.0964C135.61 77.6722 133.759 76.2654 131.909 74.878L131.309 75.6779C133.155 77.0629 135.004 78.4673 136.853 79.8891L137.463 79.0964ZM126.281 70.7106C124.383 69.3252 122.49 67.962 120.601 66.623L120.023 67.4388C121.908 68.7749 123.797 70.1354 125.691 71.5182L126.281 70.7106ZM114.878 62.6302C112.939 61.3001 111.006 59.9979 109.082 58.7258L108.531 59.5599C110.45 60.8288 112.378 62.1278 114.312 63.4548L114.878 62.6302ZM103.198 54.9141C102.217 54.2925 101.239 53.6793 100.263 53.075L99.7367 53.925C100.709 54.5275 101.684 55.1389 102.662 55.7587L103.198 54.9141ZM100.263 53.075C99.2816 52.4667 98.2825 51.8548 97.2676 51.2401L96.7495 52.0954C97.7617 52.7085 98.758 53.3186 99.7367 53.925L100.263 53.075ZM91.2159 47.6459C89.2179 46.4809 87.1755 45.3097 85.0992 44.1362L84.6071 45.0068C86.68 46.1783 88.7184 47.3473 90.7122 48.5098L91.2159 47.6459ZM78.9554 40.7104C76.912 39.5854 74.8465 38.4617 72.7681 37.343L72.2941 38.2235C74.37 39.3409 76.4326 40.463 78.4731 41.5864L78.9554 40.7104ZM66.5564 34.033C64.4784 32.9363 62.3966 31.8479 60.3198 30.771L59.8595 31.6588C61.9343 32.7346 64.0139 33.8219 66.0896 34.9174L66.5564 34.033ZM54.0568 27.5496C51.9476 26.4732 49.853 25.4125 47.7827 24.3712L47.3334 25.2645C49.402 26.305 51.4948 27.3648 53.6023 28.4403L54.0568 27.5496ZM41.4798 21.2225C39.3328 20.1571 37.2248 19.1181 35.1673 18.11L34.7273 19.008C36.7834 20.0154 38.8899 21.0537 41.0353 22.1183L41.4798 21.2225ZM28.8531 15.0349C26.6492 13.968 24.5266 12.9471 22.5023 11.9786L22.0707 12.8807C24.0937 13.8485 26.2149 14.8688 28.4173 15.935L28.8531 15.0349ZM16.1507 8.95767C13.8059 7.849 11.6637 6.84347 9.76306 5.95591L9.33996 6.862C11.2393 7.74891 13.38 8.75377 15.7233 9.8617L16.1507 8.95767ZM100 53.5L100.527 52.65L100 53.5ZM4.75685e-05 1.99998L6.69228 11.4099L11.4954 0.909311L4.75685e-05 1.99998ZM286.5 221C287.247 220.335 287.247 220.335 287.247 220.335C287.247 220.335 287.247 220.335 287.247 220.335C287.247 220.335 287.247 220.335 287.247 220.335C287.246 220.334 287.246 220.334 287.246 220.334C287.246 220.334 287.245 220.333 287.244 220.332C287.243 220.33 287.24 220.328 287.237 220.324C287.231 220.317 287.221 220.307 287.209 220.293C287.184 220.265 287.147 220.223 287.098 220.169C287 220.059 286.854 219.895 286.66 219.68C286.274 219.25 285.699 218.612 284.948 217.782L283.465 219.125C284.215 219.953 284.788 220.588 285.172 221.016C285.365 221.231 285.51 221.393 285.607 221.502C285.656 221.556 285.693 221.597 285.717 221.624C285.729 221.638 285.738 221.648 285.744 221.655C285.747 221.659 285.75 221.661 285.751 221.663C285.752 221.664 285.752 221.664 285.753 221.665C285.753 221.665 285.753 221.665 285.753 221.665C285.753 221.665 285.753 221.665 285.753 221.665C285.753 221.665 285.753 221.665 285.753 221.665C285.753 221.665 285.753 221.665 286.5 221ZM280.197 212.579C278.816 211.077 277.248 209.379 275.504 207.503L274.039 208.865C275.78 210.738 277.346 212.433 278.724 213.933L280.197 212.579ZM270.715 202.377C269.2 200.764 267.593 199.06 265.901 197.275L264.449 198.651C266.139 200.434 267.744 202.135 269.257 203.746L270.715 202.377ZM261.078 192.21C259.522 190.584 257.91 188.906 256.243 187.178L254.804 188.567C256.469 190.292 258.079 191.969 259.632 193.593L261.078 192.21ZM251.389 182.172C249.804 180.544 248.177 178.88 246.511 177.184L245.084 178.586C246.748 180.279 248.373 181.941 249.956 183.567L251.389 182.172ZM241.602 172.21C239.987 170.581 238.339 168.926 236.662 167.249L235.248 168.664C236.923 170.338 238.569 171.991 240.182 173.618L241.602 172.21ZM231.689 162.301C230.061 160.688 228.407 159.058 226.73 157.413L225.33 158.841C227.004 160.483 228.655 162.111 230.282 163.722L231.689 162.301ZM221.736 152.536C220.078 150.926 218.4 149.303 216.703 147.671L215.316 149.112C217.011 150.742 218.686 152.362 220.342 153.971L221.736 152.536ZM211.646 142.832C209.974 141.24 208.286 139.641 206.583 138.037L205.212 139.493C206.912 141.095 208.598 142.691 210.267 144.281L211.646 142.832ZM201.479 133.257C199.78 131.673 198.067 130.087 196.342 128.499L194.987 129.97C196.709 131.555 198.419 133.139 200.116 134.72L201.479 133.257ZM191.195 123.788C189.476 122.225 187.746 120.661 186.008 119.1L184.671 120.588C186.407 122.147 188.133 123.707 189.849 125.268L191.195 123.788ZM180.787 114.442C179.047 112.9 177.299 111.361 175.543 109.827L174.227 111.333C175.979 112.864 177.724 114.4 179.461 115.939L180.787 114.442ZM170.261 105.245C168.495 103.725 166.723 102.211 164.947 100.705L163.654 102.231C165.426 103.733 167.194 105.244 168.956 106.761L170.261 105.245ZM159.591 96.2047C157.797 94.7096 155.999 93.2244 154.199 91.7508L152.932 93.2985C154.728 94.7682 156.521 96.2497 158.311 97.7412L159.591 96.2047ZM148.775 87.3532C146.948 85.8864 145.119 84.4331 143.291 82.9952L142.054 84.5673C143.878 86.001 145.701 87.45 147.523 88.9127L148.775 87.3532ZM137.767 78.7C135.913 77.2746 134.06 75.8667 132.209 74.478L131.009 76.0778C132.854 77.4617 134.7 78.8648 136.548 80.2855L137.767 78.7ZM126.575 70.3068C124.676 68.92 122.781 67.5555 120.89 66.2151L119.734 67.8467C121.616 69.1814 123.504 70.5405 125.396 71.922L126.575 70.3068ZM115.16 62.2179C113.219 60.8863 111.285 59.5825 109.358 58.3087L108.255 59.977C110.172 61.2443 112.097 62.5417 114.029 63.8671L115.16 62.2179ZM103.465 54.4919C102.483 53.8693 101.504 53.2552 100.527 52.65L99.4734 54.3501C100.444 54.9516 101.418 55.5621 102.394 56.181L103.465 54.4919ZM100.527 52.65C99.5435 52.0407 98.5429 51.428 97.5266 50.8124L96.4904 52.523C97.5013 53.1354 98.4961 53.7446 99.4734 54.3501L100.527 52.65ZM91.4677 47.214C89.4677 46.0478 87.4233 44.8754 85.3452 43.7009L84.3611 45.4421C86.4322 46.6126 88.4687 47.7804 90.4603 48.9417L91.4677 47.214ZM79.1966 40.2724C77.1516 39.1465 75.0848 38.0222 73.0051 36.9027L72.0571 38.6638C74.1317 39.7805 76.193 40.9018 78.232 42.0244L79.1966 40.2724ZM66.7897 33.5908C64.7107 32.4936 62.6278 31.4046 60.55 30.3272L59.6293 32.1027C61.7031 33.178 63.7817 34.2647 65.8563 35.3596L66.7897 33.5908ZM54.2841 27.1043C52.1739 26.0274 50.0785 24.9662 48.0074 23.9245L47.1087 25.7112C49.1765 26.7513 51.2685 27.8106 53.375 28.8857L54.2841 27.1043ZM41.7021 20.7746C39.5543 19.7088 37.4455 18.6695 35.3873 17.661L34.5073 19.457C36.5626 20.4641 38.6685 21.502 40.813 22.5661L41.7021 20.7746ZM29.0709 14.5848C26.8663 13.5176 24.743 12.4963 22.7181 11.5276L21.8549 13.3317C23.8772 14.2992 25.9978 15.3192 28.1995 16.385L29.0709 14.5848ZM16.3644 8.50563C14.0189 7.39662 11.876 6.39074 9.97462 5.50287L9.1284 7.31503C11.027 8.20163 13.167 9.20615 15.5095 10.3137L16.3644 8.50563Z" fill="#27C078"/>
</svg>
