<svg width="52" height="52" viewBox="0 0 52 52" fill="none" xmlns="http://www.w3.org/2000/svg">
<circle cx="26" cy="26" r="26" fill="#FBFAF9"/>
<path d="M30.6443 32.0382C30.5006 31.5371 30.1706 31.1218 29.7146 30.8689C29.1763 30.5701 28.5442 30.5413 27.9803 30.7895C27.7391 30.8957 27.6296 31.1774 27.7359 31.4186C27.8421 31.6599 28.1237 31.7693 28.365 31.663C28.6534 31.536 28.9764 31.5507 29.2516 31.7034C29.4846 31.8327 29.6533 32.0449 29.7266 32.301C29.7999 32.557 29.7692 32.8261 29.6399 33.059C29.2118 33.8311 29.2003 35.3479 29.2004 35.5154C29.2004 35.5296 29.1852 36.9483 28.6737 38.3327C28.0303 40.0742 26.9209 40.9572 25.3766 40.9572H21.5301C20.7113 40.9572 18.6864 40.6626 17.5714 37.9346C17.4718 37.6907 17.1934 37.5736 16.9492 37.6734C16.7052 37.7731 16.5882 38.0516 16.688 38.2957C17.6134 40.5599 19.4235 41.9116 21.5302 41.9116H25.3766C27.3419 41.9116 28.7946 40.7805 29.5776 38.6403C30.1409 37.1006 30.1546 35.5842 30.1549 35.5178C30.1546 34.9697 30.241 33.9431 30.4745 33.5221C30.7276 33.0663 30.7878 32.5393 30.6443 32.0382Z" fill="#FFA500"/>
<path d="M26.8851 25.0093C26.5509 24.6752 26.1069 24.4912 25.6347 24.4912C24.6602 24.4912 23.8669 25.284 23.8663 26.2588V29.2611C23.6224 29.1341 23.3454 29.0623 23.0521 29.0623C22.4572 29.0623 21.9301 29.3575 21.6093 29.809C21.3012 29.5487 20.9033 29.3916 20.4693 29.3916C19.5851 29.3916 18.8504 30.0438 18.7209 30.8924C18.4722 30.7588 18.1881 30.6829 17.8866 30.6829C16.9114 30.6829 16.118 31.4763 16.118 32.4515V35.4299C16.118 35.9058 16.1666 36.3924 16.2624 36.876C16.3074 37.1032 16.5068 37.2605 16.7301 37.2605C16.7608 37.2605 16.792 37.2575 16.8233 37.2512C17.0818 37.2 17.2499 36.9489 17.1987 36.6904C17.1149 36.2678 17.0725 35.8436 17.0725 35.4298V32.4514C17.0725 32.0025 17.4377 31.6373 17.8866 31.6373C18.3356 31.6373 18.7008 32.0025 18.7008 32.4514V33.1258C18.7008 33.3893 18.9144 33.603 19.178 33.603C19.4416 33.603 19.6552 33.3893 19.6552 33.1258V32.4514V31.1601C19.6552 30.7112 20.0205 30.346 20.4694 30.346C20.9183 30.346 21.2835 30.7112 21.2835 31.1601V32.5852C21.2835 32.8488 21.4971 33.0625 21.7607 33.0625C22.0244 33.0625 22.238 32.8488 22.238 32.5852V31.1601V30.8308C22.238 30.3819 22.6033 30.0167 23.0521 30.0167C23.5011 30.0167 23.8663 30.382 23.8663 30.8308V33.0056C23.8663 33.2692 24.0799 33.4829 24.3436 33.4829C24.6072 33.4829 24.8208 33.2692 24.8208 33.0056V30.8308V26.2591C24.8211 25.8106 25.1863 25.4456 25.6348 25.4456C25.8521 25.4456 26.0566 25.5303 26.2104 25.6841C26.3643 25.838 26.4489 26.0423 26.4489 26.2597V33.1873V35.513C26.4489 35.7766 26.6626 35.9903 26.9262 35.9903C27.1898 35.9903 27.4034 35.7766 27.4034 35.513V33.1873V26.2598C27.4032 25.7875 27.2192 25.3434 26.8851 25.0093Z" fill="#FFA500"/>
<path d="M26.0001 21.521C23.9142 21.521 22.2171 23.2181 22.2171 25.3041C22.2171 26.0161 22.4162 26.71 22.7926 27.3108C22.9327 27.5341 23.2271 27.6017 23.4504 27.4617C23.6738 27.3217 23.7414 27.0273 23.6014 26.8039C23.3202 26.3552 23.1716 25.8366 23.1716 25.3041C23.1716 23.7444 24.4404 22.4754 26.0001 22.4754C27.5598 22.4754 28.8287 23.7443 28.8287 25.3041C28.8286 26.1369 28.4639 26.9237 27.828 27.4627C27.6269 27.6332 27.6021 27.9343 27.7726 28.1354C27.8669 28.2467 28.0014 28.304 28.1368 28.304C28.2459 28.304 28.3555 28.2668 28.4452 28.1908C29.2955 27.47 29.7831 26.4178 29.7831 25.3041C29.7831 23.2181 28.086 21.521 26.0001 21.521Z" fill="#FFA500"/>
<path d="M26 10.0884C23.9141 10.0884 22.217 11.7854 22.217 13.8714C22.217 15.9574 23.9141 17.6544 26 17.6544C28.0859 17.6544 29.783 15.9574 29.783 13.8714C29.783 11.7854 28.0859 10.0884 26 10.0884ZM26 16.6999C24.4403 16.6999 23.1714 15.4311 23.1714 13.8713C23.1714 12.3116 24.4402 11.0428 26 11.0428C27.5597 11.0428 28.8286 12.3116 28.8286 13.8713C28.8286 15.431 27.5597 16.6999 26 16.6999Z" fill="#FFA500"/>
<path d="M13.7831 10.0884C11.6971 10.0884 10 11.7854 10 13.8714C10 15.9574 11.6971 17.6544 13.7831 17.6544C15.869 17.6544 17.5661 15.9574 17.5661 13.8714C17.5661 11.7854 15.8689 10.0884 13.7831 10.0884ZM13.7831 16.6999C12.2234 16.6999 10.9544 15.4311 10.9544 13.8713C10.9544 12.3116 12.2233 11.0428 13.7831 11.0428C15.3428 11.0428 16.6116 12.3116 16.6116 13.8713C16.6116 15.431 15.3428 16.6999 13.7831 16.6999Z" fill="#FFA500"/>
<path d="M38.217 10.0884C36.1311 10.0884 34.434 11.7854 34.434 13.8714C34.434 15.9574 36.1311 17.6544 38.217 17.6544C38.8126 17.6544 39.4062 17.5123 39.9337 17.2433C40.1685 17.1236 40.2617 16.8361 40.142 16.6014C40.0221 16.3666 39.7347 16.2733 39.5001 16.3931C39.1007 16.5968 38.669 16.7 38.217 16.7C36.6573 16.7 35.3884 15.4311 35.3884 13.8714C35.3884 12.3117 36.6572 11.0428 38.217 11.0428C39.7767 11.0428 41.0456 12.3117 41.0456 13.8714C41.0456 14.4906 40.8493 15.0784 40.4781 15.5713C40.3195 15.7818 40.3616 16.0811 40.5721 16.2396C40.7827 16.3983 41.082 16.3561 41.2404 16.1456C41.7374 15.4858 42 14.6994 42 13.8714C42 11.7854 40.3029 10.0884 38.217 10.0884Z" fill="#FFA500"/>
<path d="M34.8768 16.9064C34.6995 16.7112 34.3977 16.6967 34.2026 16.8741L29.0077 21.5947C28.8127 21.772 28.7982 22.0738 28.9754 22.2689C29.0696 22.3725 29.1989 22.4251 29.3288 22.4251C29.4433 22.4251 29.5581 22.3841 29.6496 22.3011L34.8445 17.5804C35.0396 17.4032 35.054 17.1014 34.8768 16.9064Z" fill="#FFA500"/>
<path d="M22.5617 21.6754L17.5201 16.8129C17.3304 16.63 17.0283 16.6354 16.8453 16.8251C16.6623 17.0148 16.6678 17.3169 16.8574 17.4999L21.899 22.3625C21.9916 22.4518 22.111 22.4962 22.2303 22.4962C22.3553 22.4962 22.4802 22.4474 22.5738 22.3504C22.7568 22.1605 22.7513 21.8584 22.5617 21.6754Z" fill="#FFA500"/>
<path d="M26 18.2544C25.7364 18.2544 25.5228 18.4681 25.5228 18.7316V20.5345C25.5228 20.798 25.7364 21.0117 26 21.0117C26.2636 21.0117 26.4773 20.798 26.4773 20.5345V18.7316C26.4773 18.4681 26.2636 18.2544 26 18.2544Z" fill="#FFA500"/>
</svg>
