<svg width="106" height="308" viewBox="0 0 106 308" fill="none" xmlns="http://www.w3.org/2000/svg">
<path d="M53.5 103.5L53.9623 103.31L53.5 103.5ZM0.999992 -3.23075e-06L0.953174 5.77332L5.97642 2.92721L0.999992 -3.23075e-06ZM105 307C105.494 306.922 105.494 306.922 105.494 306.922C105.494 306.922 105.494 306.922 105.494 306.921C105.494 306.921 105.494 306.921 105.494 306.921C105.494 306.921 105.494 306.921 105.494 306.921C105.494 306.92 105.493 306.919 105.493 306.917C105.493 306.915 105.492 306.911 105.491 306.905C105.49 306.895 105.487 306.878 105.484 306.857C105.477 306.814 105.466 306.751 105.453 306.666C105.426 306.497 105.385 306.246 105.331 305.914C105.223 305.252 105.062 304.271 104.849 302.996L103.863 303.161C104.076 304.434 104.236 305.414 104.344 306.075C104.398 306.406 104.439 306.657 104.466 306.825C104.479 306.909 104.489 306.973 104.496 307.015C104.499 307.036 104.502 307.052 104.504 307.063C104.505 307.068 104.505 307.072 104.506 307.075C104.506 307.076 104.506 307.077 104.506 307.077C104.506 307.078 104.506 307.078 104.506 307.078C104.506 307.078 104.506 307.078 104.506 307.078C104.506 307.078 104.506 307.078 104.506 307.078C104.506 307.078 104.506 307.078 105 307ZM103.475 294.975C103.065 292.626 102.594 289.968 102.063 287.034L101.079 287.212C101.609 290.144 102.08 292.8 102.49 295.147L103.475 294.975ZM100.603 279.073C100.134 276.557 99.6339 273.903 99.1021 271.126L98.1199 271.314C98.6514 274.09 99.1515 276.742 99.6197 279.256L100.603 279.073ZM97.5552 263.154C97.0502 260.586 96.5227 257.936 95.9731 255.213L94.9929 255.411C95.5421 258.132 96.0693 260.78 96.574 263.347L97.5552 263.154ZM94.3542 247.297C93.8181 244.71 93.2642 242.069 92.6929 239.382L91.7147 239.59C92.2857 242.275 92.8392 244.914 93.375 247.5L94.3542 247.297ZM90.9888 231.471C90.4212 228.87 89.8385 226.234 89.241 223.568L88.2652 223.787C88.8623 226.451 89.4446 229.085 90.0118 231.684L90.9888 231.471ZM87.4478 215.675C86.8475 213.068 86.2339 210.439 85.6072 207.791L84.6341 208.022C85.2603 210.667 85.8735 213.294 86.4733 215.899L87.4478 215.675ZM83.717 199.92C83.0816 197.312 82.4339 194.691 81.7743 192.062L80.8044 192.305C81.4634 194.932 82.1105 197.55 82.7454 200.157L83.717 199.92ZM79.7763 184.219C79.102 181.613 78.4163 179.003 77.7194 176.394L76.7533 176.652C77.4495 179.258 78.1346 181.866 78.8082 184.469L79.7763 184.219ZM75.598 168.583C74.8787 165.979 74.1483 163.38 73.4072 160.79L72.4458 161.065C73.1861 163.652 73.9156 166.248 74.6341 168.85L75.598 168.583ZM71.1412 153.017C70.3693 150.419 69.5866 147.834 68.7932 145.267L67.8378 145.563C68.63 148.126 69.4117 150.707 70.1826 153.302L71.1412 153.017ZM66.3552 137.545C65.5201 134.956 64.674 132.391 63.8173 129.855L62.8699 130.175C63.7251 132.707 64.5697 135.267 65.4035 137.852L66.3552 137.545ZM61.1677 122.201C60.2536 119.627 59.3282 117.089 58.3918 114.592L57.4555 114.943C58.3897 117.434 59.3131 119.967 60.2254 122.536L61.1677 122.201ZM55.4714 107.035C54.9713 105.78 54.4683 104.538 53.9623 103.31L53.0377 103.69C53.5421 104.915 54.0437 106.154 54.5424 107.405L55.4714 107.035ZM53.9623 103.31C53.4438 102.05 52.909 100.774 52.3596 99.4815L51.4393 99.8728C51.9874 101.162 52.5206 102.435 53.0377 103.69L53.9623 103.31ZM49.0395 91.877C47.929 89.3935 46.7776 86.8715 45.5944 84.3249L44.6875 84.7463C45.8688 87.2889 47.0182 89.8065 48.1266 92.2852L49.0395 91.877ZM42.0493 76.8152C40.8595 74.3315 39.6484 71.8376 38.4241 69.3457L37.5266 69.7867C38.7495 72.2758 39.9592 74.7668 41.1475 77.2472L42.0493 76.8152ZM34.7316 61.9121C33.4832 59.4249 32.2297 56.9521 30.9791 54.5063L30.0887 54.9616C31.3382 57.4053 32.5907 59.8759 33.8379 62.3607L34.7316 61.9121ZM27.1766 47.1316C25.8788 44.6346 24.5935 42.1814 23.3302 39.7865L22.4457 40.253C23.7081 42.6463 24.9925 45.0977 26.2893 47.5928L27.1766 47.1316ZM19.4351 32.453C18.0796 29.918 16.7645 27.4758 15.5033 25.147L14.6239 25.6232C15.8844 27.9505 17.1987 30.3912 18.5533 32.9245L19.4351 32.453ZM11.5304 17.8566C10.0667 15.1872 8.71929 12.7479 7.51782 10.5842L6.64356 11.0697C7.84423 13.232 9.19078 15.6696 10.6536 18.3374L11.5304 17.8566ZM53.5 103.5L54.4247 103.119L53.5 103.5ZM0.999992 -3.23075e-06L0.906346 11.5466L10.9528 5.85441L0.999992 -3.23075e-06ZM105 307C105.988 306.843 105.988 306.843 105.988 306.843C105.988 306.843 105.988 306.843 105.988 306.843C105.988 306.843 105.988 306.843 105.988 306.843C105.988 306.843 105.987 306.842 105.987 306.842C105.987 306.841 105.987 306.84 105.987 306.839C105.987 306.836 105.986 306.832 105.985 306.827C105.983 306.816 105.981 306.8 105.977 306.778C105.97 306.735 105.96 306.671 105.947 306.587C105.919 306.418 105.879 306.166 105.825 305.834C105.717 305.171 105.555 304.189 105.342 302.914L103.369 303.244C103.582 304.516 103.743 305.495 103.851 306.155C103.904 306.486 103.945 306.736 103.972 306.904C103.985 306.988 103.996 307.052 104.002 307.094C104.006 307.115 104.008 307.131 104.01 307.141C104.011 307.147 104.011 307.15 104.012 307.153C104.012 307.154 104.012 307.155 104.012 307.156C104.012 307.156 104.012 307.157 104.012 307.157C104.012 307.157 104.012 307.157 104.012 307.157C104.012 307.157 104.012 307.157 104.012 307.157C104.012 307.157 104.012 307.157 105 307ZM103.968 294.889C103.557 292.539 103.086 289.88 102.556 286.946L100.587 287.301C101.117 290.232 101.588 292.887 101.998 295.233L103.968 294.889ZM101.094 278.982C100.626 276.465 100.125 273.81 99.5932 271.032L97.6289 271.408C98.1601 274.183 98.6601 276.834 99.1282 279.348L101.094 278.982ZM98.0458 263.057C97.5406 260.488 97.013 257.838 96.4632 255.114L94.5027 255.51C95.0518 258.23 95.5789 260.877 96.0834 263.443L98.0458 263.057ZM94.8438 247.196C94.3075 244.608 93.7535 241.966 93.1819 239.278L91.2257 239.694C91.7965 242.378 92.3498 245.017 92.8854 247.602L94.8438 247.196ZM91.4773 231.365C90.9095 228.763 90.3266 226.126 89.7289 223.459L87.7773 223.896C88.3742 226.56 88.9563 229.193 89.5233 231.791L91.4773 231.365ZM87.935 215.563C87.3346 212.955 86.7207 210.324 86.0938 207.676L84.1476 208.137C84.7736 210.781 85.3865 213.407 85.986 216.011L87.935 215.563ZM84.2028 199.802C83.5671 197.192 82.9192 194.57 82.2593 191.94L80.3194 192.427C80.9782 195.052 81.625 197.67 82.2596 200.275L84.2028 199.802ZM80.2604 184.094C79.5858 181.486 78.8998 178.875 78.2025 176.265L76.2702 176.781C76.9661 179.386 77.6508 181.992 78.3241 184.595L80.2604 184.094ZM76.08 168.45C75.3602 165.845 74.6295 163.244 73.8879 160.653L71.9651 161.203C72.7049 163.788 73.434 166.383 74.1522 168.983L76.08 168.45ZM71.6205 152.875C70.8481 150.275 70.0648 147.688 69.2709 145.12L67.3601 145.71C68.1518 148.271 68.9329 150.851 69.7033 153.444L71.6205 152.875ZM66.831 137.392C65.9953 134.801 65.1485 132.234 64.291 129.695L62.3962 130.335C63.2506 132.864 64.0945 135.423 64.9276 138.006L66.831 137.392ZM61.6389 122.034C60.7239 119.457 59.7975 116.916 58.86 114.416L56.9873 115.119C57.9205 117.607 58.8429 120.137 59.7542 122.703L61.6389 122.034ZM55.9359 106.85C55.4351 105.593 54.9313 104.349 54.4247 103.119L52.5753 103.881C53.079 105.104 53.5799 106.341 54.078 107.59L55.9359 106.85ZM54.4247 103.119C53.9053 101.858 53.3699 100.58 52.8197 99.2858L50.9792 100.068C51.5266 101.356 52.0591 102.627 52.5753 103.881L54.4247 103.119ZM49.4959 91.6729C48.3843 89.187 47.2319 86.6628 46.0478 84.1143L44.234 84.957C45.4145 87.4976 46.5628 90.013 47.6701 92.4893L49.4959 91.6729ZM42.5003 76.5992C41.3097 74.1139 40.0978 71.6185 38.8729 69.1252L37.0778 70.0071C38.3001 72.4949 39.509 74.9844 40.6966 77.4633L42.5003 76.5992ZM35.1785 61.6878C33.9295 59.1994 32.6754 56.7255 31.4243 54.2787L29.6435 55.1892C30.8925 57.6319 32.1444 60.1013 33.391 62.585L35.1785 61.6878ZM27.6203 46.901C26.3219 44.403 25.0362 41.9489 23.7724 39.5532L22.0035 40.4863C23.2654 42.8787 24.5493 45.3292 25.8457 47.8234L27.6203 46.901ZM19.876 32.2172C18.5201 29.6814 17.2046 27.2384 15.9429 24.9088L14.1843 25.8613C15.4443 28.1879 16.7582 30.6278 18.1123 33.1603L19.876 32.2172ZM11.9689 17.6163C10.5047 14.9459 9.15682 12.5059 7.95495 10.3415L6.20644 11.3124C7.40671 13.474 8.75282 15.9108 10.2152 18.5778L11.9689 17.6163Z" fill="#FFA500"/>
</svg>
