<svg width="180" height="180" viewBox="0 0 180 180" fill="none" xmlns="http://www.w3.org/2000/svg">
<g filter="url(#filter0_d_1309_4895)">
<circle cx="90" cy="74" r="50" fill="white"/>
</g>
<circle cx="90" cy="74" r="37.5" fill="#FFA500"/>
<g clip-path="url(#clip0_1309_4895)">
<path d="M108.848 71.8722L73.6408 64.3887L73.3289 65.856C73.1635 66.6342 73.314 67.4463 73.7474 68.1136C74.1807 68.7809 74.8614 69.2487 75.6396 69.4141L80.0413 70.3497C80.8196 70.5152 81.6317 70.3646 82.299 69.9313C82.9663 69.498 83.4341 68.8173 83.5995 68.039C83.4341 68.8173 83.5846 69.6294 84.0179 70.2967C84.4513 70.964 85.1319 71.4318 85.9102 71.5972L94.7135 73.4684C95.4918 73.6338 96.3039 73.4833 96.9712 73.05C97.6385 72.6166 98.1063 71.936 98.2717 71.1577C98.1063 71.936 98.2568 72.7481 98.6901 73.4154C99.1235 74.0826 99.8042 74.5505 100.582 74.7159L104.984 75.6515C105.762 75.8169 106.574 75.6664 107.242 75.2331C107.909 74.7997 108.377 74.119 108.542 73.3408L108.854 71.8736L108.848 71.8722Z" fill="white"/>
<path d="M108.805 70.3297L108.132 60.5638C108.109 60.2386 107.982 59.9297 107.768 59.6837C107.554 59.4376 107.266 59.2679 106.947 59.2002L100.227 57.7717L100.098 68.4789L108.805 70.3297Z" fill="white"/>
<path d="M87.2576 55.015L80.5374 53.5866C80.2186 53.5188 79.8864 53.5567 79.5911 53.6945C79.2958 53.8323 79.0534 54.0626 78.9006 54.3504L74.3132 62.9982L83.0205 64.8489L87.2576 55.015Z" fill="white"/>
<path d="M97.2347 57.1357L90.25 55.651L86.0129 65.485L97.1058 67.8428L97.2347 57.1357Z" fill="white"/>
<path d="M100.271 76.1831C99.187 75.9537 98.2267 75.3313 97.5749 74.4358C96.6152 74.9887 95.4848 75.1668 94.4017 74.9356L85.5983 73.0644C84.5148 72.835 83.5545 72.2126 82.9027 71.3171C81.943 71.87 80.8126 72.0481 79.7294 71.8169L75.3278 70.8813C74.8278 70.774 74.35 70.5816 73.9151 70.3127L70.43 86.7089C70.3473 87.098 70.4226 87.5041 70.6392 87.8377C70.8559 88.1714 71.1962 88.4053 71.5854 88.488L74.5198 89.1117L77.3266 75.9067C77.4093 75.5176 77.6432 75.1772 77.9769 74.9606C78.3105 74.7439 78.7166 74.6686 79.1057 74.7514L86.4418 76.3107C86.8309 76.3934 87.1713 76.6273 87.3879 76.961C87.6046 77.2946 87.6799 77.7007 87.5972 78.0898L84.7904 91.2948L100.93 94.7253C101.319 94.808 101.725 94.7328 102.059 94.5161C102.392 94.2994 102.626 93.9591 102.709 93.57L106.194 77.1738C105.687 77.2426 105.173 77.2239 104.672 77.1187L100.271 76.1831ZM99.8666 85.2983C99.7838 85.6874 99.5499 86.0277 99.2163 86.2444C98.8826 86.4611 98.4766 86.5363 98.0875 86.4536L90.7514 84.8943C90.3622 84.8116 90.0219 84.5777 89.8052 84.244C89.5885 83.9104 89.5133 83.5043 89.596 83.1152L90.5316 78.7135C90.6143 78.3244 90.8482 77.9841 91.1819 77.7674C91.5155 77.5507 91.9216 77.4755 92.3107 77.5582L99.6468 79.1175C100.036 79.2002 100.376 79.4341 100.593 79.7678C100.81 80.1014 100.885 80.5075 100.802 80.8966L99.8666 85.2983Z" fill="url(#paint0_linear_1309_4895)"/>
</g>
<defs>
<filter id="filter0_d_1309_4895" x="0" y="0" width="180" height="180" filterUnits="userSpaceOnUse" color-interpolation-filters="sRGB">
<feFlood flood-opacity="0" result="BackgroundImageFix"/>
<feColorMatrix in="SourceAlpha" type="matrix" values="0 0 0 0 0 0 0 0 0 0 0 0 0 0 0 0 0 0 127 0" result="hardAlpha"/>
<feOffset dy="16"/>
<feGaussianBlur stdDeviation="20"/>
<feComposite in2="hardAlpha" operator="out"/>
<feColorMatrix type="matrix" values="0 0 0 0 0.8 0 0 0 0 0.8 0 0 0 0 0.8 0 0 0 0.15 0"/>
<feBlend mode="normal" in2="BackgroundImageFix" result="effect1_dropShadow_1309_4895"/>
<feBlend mode="normal" in="SourceGraphic" in2="effect1_dropShadow_1309_4895" result="shape"/>
</filter>
<linearGradient id="paint0_linear_1309_4895" x1="90.2388" y1="72.8765" x2="82.5" y2="97" gradientUnits="userSpaceOnUse">
<stop stop-color="white"/>
<stop offset="1" stop-color="white" stop-opacity="0"/>
</linearGradient>
<clipPath id="clip0_1309_4895">
<rect width="36" height="36" fill="white" transform="translate(76.1357 52.6509) rotate(12)"/>
</clipPath>
</defs>
</svg>
