<svg width="52" height="52" viewBox="0 0 52 52" fill="none" xmlns="http://www.w3.org/2000/svg">
<circle cx="26" cy="26" r="26" fill="#FFFAF0"/>
<path d="M15.4741 18.5063C15.2151 18.5063 15.0049 18.7163 15.0049 18.9756V20.9775C15.0049 21.2368 15.2151 21.4468 15.4741 21.4468H21.48C21.739 21.4468 21.9492 21.2368 21.9492 20.9775V18.9756C21.9492 18.7163 21.739 18.5063 21.48 18.5063H15.4741ZM21.0107 20.5083H15.9434V19.4448H21.0107V20.5083Z" fill="#F7302B"/>
<path d="M23.4048 30.4492C23.4304 30.4534 23.4561 30.4556 23.4819 30.4556C23.5254 30.4556 23.5688 30.4495 23.6108 30.4375L27.1143 29.4365C27.1421 29.4285 27.1692 29.418 27.1953 29.405L30.1982 27.9036C30.3572 27.824 30.4575 27.6616 30.4575 27.4839C30.4575 27.1248 30.3125 26.6594 29.957 26.3494V17.7036C29.957 17.4443 29.7471 17.2344 29.4878 17.2344C29.2288 17.2344 29.0186 17.4443 29.0186 17.7036V26.0144C29.0081 26.0144 28.998 26.0137 28.9873 26.0137C28.0161 26.0137 26.7581 26.7546 26.3464 27.0146H24.147L22.8176 25.9512H24.9834C25.2424 25.9512 25.4526 25.7412 25.4526 25.4819V24.481C25.4526 23.6702 24.793 23.0107 23.9824 23.0107H19.478C19.3535 23.0107 19.2341 23.0601 19.1462 23.1482L17.2817 25.0127H16.4438V24.9814C16.4438 24.7222 16.2336 24.5122 15.9746 24.5122H13.9414V12.9385H19.5093V16.4731C19.5093 16.7878 19.8279 17.0178 20.127 16.9182L21.48 16.4673L22.833 16.9182C23.1321 17.0178 23.4507 16.7878 23.4507 16.4731V12.9385H29.0186V15.4514C29.0186 15.7104 29.2285 15.9204 29.4878 15.9204C29.7471 15.9204 29.957 15.7104 29.957 15.4514V12.4692C29.957 12.21 29.7471 12 29.4878 12H13.4722C13.2131 12 13.0029 12.21 13.0029 12.4692V24.5122H10.4692C10.21 24.5122 10 24.7222 10 24.9814C10 25.2407 10.21 25.4507 10.4692 25.4507H15.5054V29.5171H10.4692C10.21 29.5171 10 29.7271 10 29.9863C10 30.2456 10.21 30.4556 10.4692 30.4556H15.9746C16.2336 30.4556 16.4438 30.2456 16.4438 29.9863V29.4546H17.437L23.4048 30.4492ZM22.5122 12.9385V15.8223L21.6284 15.5276C21.5327 15.4956 21.4272 15.4956 21.3315 15.5276L20.4478 15.8223V12.9385H22.5122ZM16.4438 25.9512H17.4761C17.5994 25.9512 17.7202 25.9004 17.8079 25.8137L19.6724 23.9492H23.9824C24.2756 23.9492 24.5142 24.1877 24.5142 24.481V25.0127H21.48C21.2866 25.0127 21.1104 25.1362 21.0415 25.3159C20.9705 25.5017 21.0295 25.7249 21.1868 25.8484L23.6892 27.8503C23.7725 27.9167 23.876 27.9531 23.9824 27.9531H26.4849C26.5774 27.9531 26.668 27.9258 26.7451 27.8743C27.1299 27.6177 28.2827 26.9521 28.9873 26.9521C29.2642 26.9521 29.3997 27.0786 29.4641 27.2214L26.8145 28.5461L23.4548 29.5061L17.5532 28.5225C17.5486 28.5217 17.5442 28.5215 17.5398 28.521C17.5312 28.5198 17.5229 28.5188 17.5146 28.5181C17.5063 28.5173 17.498 28.5171 17.49 28.5168C17.4854 28.5166 17.4807 28.5161 17.4761 28.5161H16.4438V25.9512Z" fill="#F7302B"/>
<path d="M41.4995 37.9941H36.4946C36.4893 37.9941 36.4841 37.9949 36.4788 37.9949C36.4705 37.9951 36.4622 37.9956 36.4539 37.9961C36.4446 37.9971 36.4355 37.998 36.4265 37.9993C36.4216 38 36.417 38.0002 36.4124 38.001L30.5178 38.9834L27.1675 38.0261L24.5479 36.7163C24.615 36.5894 24.7444 36.4927 24.9834 36.4927C25.6775 36.4927 26.825 37.1548 27.2083 37.4097C27.2903 37.4644 27.387 37.4937 27.4858 37.4937H29.9883C30.0583 37.4937 30.1277 37.479 30.1917 37.4504L34.687 35.4526C34.9045 35.3594 35.0315 35.1194 34.9822 34.8872C34.9331 34.6555 34.719 34.4861 34.4819 34.4907H31.9902V33.9902C31.9902 33.7144 32.2148 33.4897 32.4907 33.4897H36.7878L38.6431 35.3452C38.7363 35.4377 38.8657 35.4917 38.9971 35.4917H41.4995C41.7759 35.4917 42 35.2676 42 34.9912C42 34.7148 41.7759 34.4907 41.4995 34.4907H39.2043L37.3491 32.6355C37.2551 32.5415 37.1279 32.4888 36.9951 32.4888H32.4907C31.6628 32.4888 30.9893 33.1624 30.9893 33.9902V34.9912C30.9893 35.2676 31.2134 35.4917 31.4897 35.4917H32.1343L31.9619 35.5684H30.6362C30.2146 35.3027 28.9595 34.5674 27.9863 34.5674C26.9924 34.5674 26.5698 35.2983 26.4968 35.8845C26.0132 35.6711 25.4639 35.4917 24.9834 35.4917C23.8818 35.4917 23.4819 36.3896 23.4819 36.9932C23.4819 37.1829 23.5891 37.356 23.7585 37.4409L26.7615 38.9424C26.7891 38.9563 26.8181 38.9673 26.8479 38.9758L30.3513 39.9768C30.3962 39.9897 30.4424 39.9961 30.4888 39.9961C30.5161 39.9961 30.5437 39.9939 30.571 39.9895L36.5361 38.9951H41.4995C41.7759 38.9951 42 38.771 42 38.4946C42 38.2183 41.7759 37.9941 41.4995 37.9941ZM27.5581 35.7922C27.6135 35.6814 27.7075 35.5684 27.9863 35.5684C28.615 35.5684 29.6155 36.1113 30.0835 36.4033L29.8821 36.4927H28.8191C28.7729 36.4272 28.7107 36.3718 28.634 36.3335L27.5566 35.7949C27.5571 35.7939 27.5576 35.793 27.5581 35.7922Z" fill="#F7302B"/>
</svg>
