<svg width="52" height="52" viewBox="0 0 52 52" fill="none" xmlns="http://www.w3.org/2000/svg">
<circle cx="26" cy="26" r="26" fill="#F7F5F3"/>
<path d="M30.4881 22.1137C29.9937 21.1707 28.8232 20.8049 27.8778 21.2998L20.0842 25.3885C19.1376 25.8846 18.7734 27.0516 19.2698 27.9988L23.5424 36.1445C24.0377 37.0878 25.2077 37.4539 26.1531 36.9584L33.9473 32.8702C34.8934 32.3738 35.2576 31.2061 34.7611 30.2599L30.4881 22.1137ZM33.5097 32.0365L25.7156 36.1247C25.2312 36.3802 24.6306 36.1914 24.376 35.707L20.1035 27.5613C19.8511 27.08 20.0303 26.4796 20.5212 26.2221L28.3149 22.1334C28.8076 21.8763 29.404 22.073 29.6545 22.5512L33.9275 30.6973C34.1829 31.1844 33.9947 31.7821 33.5097 32.0365Z" fill="#27C078"/>
<path d="M36.9707 25.9951L41.2201 20.4516C41.5683 19.9951 41.6248 19.3928 41.3707 18.8798C41.1213 18.3669 40.6083 18.0516 40.0389 18.0516H39.7142V13.1528C39.7142 12.1269 38.8813 11.2939 37.8554 11.2939H33.7283C32.7024 11.2939 31.8695 12.1269 31.8695 13.1528V18.0516H31.5448C31.493 18.0516 31.446 18.0563 31.3942 18.061L30.3919 16.1457C29.7283 14.8892 28.166 14.3998 26.9095 15.0634L26.0813 15.4963L25.3142 14.028C24.8389 13.1245 23.7189 12.7763 22.8154 13.2515L21.1448 14.1268C20.1801 13.1339 18.7495 12.4092 17.1542 12.1315C13.8977 11.5574 10.9236 12.9645 10.5189 15.2704C10.1095 17.5763 12.4295 19.9151 15.6813 20.4892C15.893 20.5268 16.1001 20.5504 16.3072 20.5692L16.3307 20.6115L15.5025 21.0445C14.2413 21.7033 13.7566 23.2657 14.4154 24.5268L22.1754 39.3221C22.8496 40.6085 24.4428 41.0623 25.6578 40.4092L37.0696 34.428C38.3247 33.7665 38.8185 32.2153 38.1519 30.941L35.8555 26.5692C36.293 26.5457 36.6977 26.3434 36.9707 25.9951ZM15.5589 19.1481L15.7707 19.5481C13.0695 19.0445 11.1307 17.2092 11.446 15.4304C11.7613 13.6422 14.246 12.5739 16.9895 13.0587C18.2836 13.2845 19.4507 13.8304 20.2742 14.5834L16.3401 16.6445C15.4028 17.1384 15.0994 18.2759 15.5589 19.1481ZM37.3189 31.3787C37.7329 32.1778 37.4459 33.1583 36.6319 33.5951L25.2248 39.5763C24.4248 39.9951 23.4319 39.6845 23.013 38.8845L15.2483 24.0892C14.8295 23.2892 15.1401 22.2963 15.9401 21.8775L17.1824 21.2281C17.4083 21.1104 17.493 20.8328 17.3848 20.6069C18.439 20.5739 19.4131 20.3339 20.2178 19.9245C20.77 20.3269 21.5446 20.4422 22.2648 20.0704C23.2176 19.5746 23.586 18.3915 23.0884 17.4351C22.5848 16.4798 21.4037 16.1128 20.4484 16.6116C19.5166 17.101 19.1448 18.2492 19.6013 19.1904C18.8484 19.5339 17.9119 19.7081 16.9001 19.6704L16.3919 18.7104C16.167 18.2793 16.3185 17.7171 16.7778 17.4775L23.2484 14.0845C23.6954 13.8492 24.246 14.0234 24.4813 14.4657L25.4696 16.3481C25.5849 16.5789 25.8779 16.6686 26.1048 16.5457L27.3472 15.8963C28.1095 15.4873 29.119 15.7533 29.5543 16.5834L30.5331 18.4516C30.001 18.9267 29.866 19.7966 30.3589 20.4516L34.246 25.5198L37.3189 31.3787ZM20.4154 18.7057C20.2366 18.2305 20.4295 17.6845 20.886 17.4445C21.0365 17.3645 21.1966 17.3316 21.3519 17.3316C21.2201 17.8681 20.8907 18.3339 20.4154 18.7057ZM22.1989 17.7928C22.2177 17.8163 22.2366 17.8398 22.2554 17.8728C22.51 18.3723 22.3165 18.988 21.8272 19.2375C21.606 19.3551 21.3612 19.3787 21.1213 19.3222C21.6295 18.8987 22.0013 18.381 22.1989 17.7928ZM35.3519 25.421L31.1072 19.8775C30.8321 19.5107 31.0864 18.9928 31.5448 18.9928H32.3401C32.5989 18.9928 32.8107 18.781 32.8107 18.5222V13.1528C32.8107 12.6445 33.2248 12.2351 33.7283 12.2351H37.8554C38.3636 12.2351 38.773 12.6445 38.773 13.1528V18.5222C38.773 18.781 38.9848 18.9928 39.2436 18.9928H40.0389C40.2507 18.9928 40.4342 19.1057 40.5283 19.2987C40.6224 19.4916 40.6036 19.7081 40.4719 19.8775L36.2224 25.421C36.0154 25.6892 35.5589 25.6892 35.3519 25.421Z" fill="#27C078"/>
<path d="M28.0874 25.4118C27.8346 25.3566 27.5824 25.5166 27.5267 25.7702L26.1375 32.0951C26.0819 32.3492 26.2423 32.6001 26.496 32.6558C26.7543 32.7116 27.0016 32.5479 27.0566 32.2973L28.4458 25.9724C28.5015 25.7183 28.3411 25.4673 28.0874 25.4118Z" fill="#27C078"/>
<path d="M25.8866 26.9633C25.4955 26.2069 24.5603 25.9086 23.802 26.2992C23.0403 26.693 22.7456 27.6255 23.1375 28.3838C23.5286 29.1404 24.4618 29.4403 25.2225 29.0483C25.9843 28.6546 26.279 27.7221 25.8871 26.9638C25.887 26.9637 25.887 26.9637 25.8866 26.9633ZM24.7905 28.2119C24.4919 28.3669 24.1275 28.2496 23.9739 27.9518C23.8224 27.6591 23.9313 27.2923 24.234 27.1356C24.5311 26.9817 24.8976 27.1004 25.0511 27.3962C25.2025 27.6904 25.092 28.0559 24.7905 28.2119Z" fill="#27C078"/>
<path d="M29.1885 29.2108C28.4312 29.6023 28.1334 30.5375 28.5245 31.2949C28.9167 32.0536 29.8467 32.3528 30.609 31.9599C31.3673 31.5679 31.6651 30.6327 31.2736 29.8748C30.882 29.118 29.9486 28.8183 29.1885 29.2108ZM30.177 31.1235C29.8792 31.2761 29.5155 31.1627 29.3608 30.8629C29.2073 30.5665 29.3245 30.2002 29.6209 30.0467C29.9171 29.8932 30.284 30.0105 30.4371 30.3068C30.5925 30.6081 30.473 30.9707 30.177 31.1235Z" fill="#27C078"/>
</svg>
