<svg width="303" height="63" viewBox="0 0 303 63" fill="none" xmlns="http://www.w3.org/2000/svg">
<path d="M114.5 2L114.463 2.4986L114.5 2ZM1.3451e-05 9L5.35402 11.1606L4.54812 5.44358L1.3451e-05 9ZM302 62C302.22 61.5509 302.22 61.5509 302.22 61.5509C302.22 61.5509 302.22 61.5509 302.22 61.5509C302.22 61.5508 302.22 61.5508 302.22 61.5508C302.219 61.5507 302.219 61.5506 302.219 61.5504C302.218 61.5501 302.217 61.5496 302.216 61.549C302.213 61.5477 302.21 61.5459 302.205 61.5434C302.194 61.5385 302.18 61.5312 302.16 61.5215C302.12 61.5022 302.061 61.4733 301.982 61.4351C301.825 61.3588 301.591 61.2454 301.282 61.097C300.666 60.8001 299.752 60.3629 298.565 59.8014L298.137 60.7054C299.323 61.2659 300.234 61.7021 300.848 61.998C301.156 62.1459 301.389 62.2588 301.545 62.3347C301.623 62.3726 301.682 62.4013 301.721 62.4204C301.741 62.43 301.756 62.4372 301.766 62.442C301.771 62.4444 301.774 62.4462 301.777 62.4474C301.778 62.4479 301.779 62.4484 301.779 62.4487C301.78 62.4488 301.78 62.4489 301.78 62.449C301.78 62.449 301.78 62.4491 301.78 62.4491C301.78 62.4491 301.78 62.4491 301.78 62.4491C301.78 62.4491 301.78 62.4491 302 62ZM291.044 56.3043C288.821 55.2859 286.301 54.1437 283.513 52.8995L283.105 53.8126C285.89 55.0554 288.408 56.1964 290.628 57.2134L291.044 56.3043ZM276.005 49.5887C273.6 48.5409 271.06 47.4463 268.398 46.314L268.007 47.2343C270.666 48.3653 273.203 49.4588 275.605 50.5054L276.005 49.5887ZM260.821 43.1297C258.355 42.106 255.809 41.0607 253.189 39.9998L252.814 40.9267C255.43 41.9865 257.974 43.0306 260.438 44.0533L260.821 43.1297ZM245.521 36.9343C243.008 35.9427 240.44 34.9428 237.825 33.9389L237.467 34.8725C240.079 35.8752 242.644 36.8741 245.154 37.8645L245.521 36.9343ZM230.104 31.0177C227.56 30.0693 224.979 29.1213 222.366 28.1774L222.027 29.1179C224.636 30.0606 227.214 31.0075 229.755 31.9547L230.104 31.0177ZM214.597 25.417C212.02 24.5171 209.418 23.6244 206.796 22.7422L206.477 23.69C209.095 24.5709 211.694 25.4624 214.267 26.3611L214.597 25.417ZM198.962 20.1592C196.353 19.3168 193.73 18.4878 191.096 17.6753L190.801 18.6309C193.431 19.442 196.05 20.2697 198.655 21.1108L198.962 20.1592ZM183.196 15.2989C180.555 14.5253 177.909 13.7713 175.261 13.0399L174.995 14.0038C177.637 14.7338 180.279 15.4864 182.915 16.2586L183.196 15.2989ZM167.289 10.9097C164.615 10.2198 161.944 9.55622 159.28 8.92218L159.049 9.89501C161.706 10.5275 164.371 11.1896 167.04 11.878L167.289 10.9097ZM151.231 7.09378C148.521 6.50838 145.822 5.95747 143.142 5.44453L142.954 6.42672C145.626 6.93809 148.317 7.48742 151.02 8.07124L151.231 7.09378ZM135.01 3.99912C132.26 3.5491 129.534 3.14416 126.838 2.78824L126.707 3.77964C129.392 4.13413 132.108 4.53754 134.849 4.98599L135.01 3.99912ZM118.627 1.85067C117.254 1.71957 115.891 1.60296 114.537 1.5014L114.463 2.4986C115.809 2.59963 117.166 2.71567 118.532 2.84614L118.627 1.85067ZM114.537 1.5014C113.192 1.40039 111.823 1.31181 110.435 1.23499L110.38 2.23347C111.762 2.30995 113.124 2.39811 114.463 2.4986L114.537 1.5014ZM102.224 0.917571C99.531 0.854574 96.7861 0.827484 94.0061 0.832136L94.0078 1.83213C96.7803 1.82749 99.5167 1.85451 102.201 1.9173L102.224 0.917571ZM85.7855 0.932497C83.0602 0.992728 80.317 1.07858 77.5702 1.18636L77.6094 2.18559C80.3509 2.07802 83.0885 1.99235 85.8076 1.93225L85.7855 0.932497ZM69.3634 1.5702C66.6132 1.7186 63.8741 1.8854 61.1606 2.06687L61.2273 3.06464C63.9368 2.88344 66.6717 2.7169 69.4173 2.56875L69.3634 1.5702ZM52.9691 2.66277C50.1931 2.88044 47.4618 3.11011 44.7921 3.34744L44.8806 4.34351C47.5471 4.10647 50.275 3.8771 53.0473 3.6597L52.9691 2.66277ZM36.6107 4.115C33.7801 4.3942 31.0495 4.67737 28.4429 4.95847L28.5502 5.9527C31.1539 5.67192 33.8814 5.38905 36.7089 5.11018L36.6107 4.115ZM20.2739 5.87621C17.283 6.22566 14.5462 6.56023 12.1162 6.86659L12.2413 7.85873C14.6685 7.55273 17.4022 7.21853 20.3899 6.86945L20.2739 5.87621ZM114.5 2L114.425 2.99719L114.5 2ZM1.3451e-05 9L10.708 13.3211L9.09622 1.88716L1.3451e-05 9ZM302 62C302.44 61.1018 302.44 61.1018 302.44 61.1018C302.44 61.1018 302.44 61.1018 302.44 61.1018C302.439 61.1017 302.439 61.1017 302.439 61.1017C302.439 61.1016 302.439 61.1014 302.438 61.1013C302.438 61.1009 302.437 61.1004 302.436 61.0998C302.433 61.0985 302.429 61.0967 302.424 61.0942C302.414 61.0892 302.399 61.0818 302.379 61.0721C302.339 61.0526 302.279 61.0236 302.2 60.9853C302.043 60.9088 301.808 60.7952 301.499 60.6465C300.882 60.3491 299.967 59.9115 298.779 59.3494L297.924 61.1574C299.108 61.7174 300.018 62.1531 300.632 62.4485C300.938 62.5962 301.171 62.7089 301.327 62.7845C301.405 62.8223 301.463 62.8508 301.502 62.8699C301.522 62.8794 301.536 62.8865 301.546 62.8912C301.551 62.8936 301.555 62.8954 301.557 62.8965C301.558 62.8971 301.559 62.8975 301.56 62.8978C301.56 62.898 301.56 62.8981 301.56 62.8981C301.56 62.8982 301.56 62.8982 301.56 62.8982C301.56 62.8982 301.56 62.8982 301.56 62.8982C301.56 62.8982 301.56 62.8982 302 62ZM291.253 55.8497C289.028 54.8307 286.506 53.6878 283.717 52.4429L282.902 54.2692C285.684 55.5113 288.201 56.6516 290.42 57.668L291.253 55.8497ZM276.204 49.1303C273.798 48.082 271.257 46.9868 268.594 45.8539L267.811 47.6944C270.469 48.8248 273.005 49.9177 275.406 50.9638L276.204 49.1303ZM261.013 42.668C258.546 41.6436 255.998 40.5978 253.377 39.5364L252.626 41.3902C255.241 42.4493 257.784 43.4929 260.246 44.5151L261.013 42.668ZM245.704 36.4692C243.19 35.4771 240.621 34.4766 238.004 33.4721L237.288 35.3393C239.898 36.3414 242.461 37.3397 244.97 38.3296L245.704 36.4692ZM230.279 30.5492C227.734 29.6003 225.151 28.6517 222.536 27.7071L221.857 29.5881C224.465 30.5303 227.041 31.4766 229.58 32.4232L230.279 30.5492ZM214.762 24.945C212.183 24.0445 209.579 23.1511 206.955 22.2683L206.317 24.1639C208.934 25.0442 211.53 25.9351 214.102 26.8332L214.762 24.945ZM199.116 19.6834C196.505 18.8404 193.879 18.0107 191.243 17.1975L190.654 19.1086C193.281 19.9191 195.899 20.7462 198.501 21.5866L199.116 19.6834ZM183.336 14.8191C180.694 14.0448 178.045 13.2901 175.394 12.5579L174.861 14.4857C177.502 15.215 180.141 15.9669 182.774 16.7384L183.336 14.8191ZM167.414 10.4256C164.737 9.73492 162.063 9.07057 159.396 8.43577L158.933 10.3814C161.587 11.0132 164.249 11.6745 166.915 12.3622L167.414 10.4256ZM151.337 6.60504C148.622 6.01886 145.92 5.46716 143.236 4.95345L142.86 6.91781C145.528 7.42841 148.215 7.97694 150.915 8.55998L151.337 6.60504ZM135.091 3.50568C132.336 3.05488 129.605 2.64917 126.903 2.29254L126.642 4.27534C129.321 4.62911 132.032 5.03176 134.768 5.47943L135.091 3.50568ZM118.675 1.35294C117.298 1.22152 115.931 1.10462 114.575 1.0028L114.425 2.99719C115.768 3.09797 117.121 3.21371 118.485 3.34388L118.675 1.35294ZM114.575 1.0028C113.226 0.901539 111.854 0.812748 110.463 0.735758L110.352 2.7327C111.731 2.80901 113.09 2.89697 114.425 2.99719L114.575 1.0028ZM102.236 0.417708C99.5381 0.354604 96.7891 0.327477 94.0052 0.332137L94.0086 2.33213C96.7773 2.3275 99.5096 2.35448 102.189 2.41716L102.236 0.417708ZM85.7744 0.432618C83.0461 0.492918 80.3 0.578862 77.5506 0.686745L77.629 2.68521C80.3679 2.57774 83.1026 2.49216 85.8186 2.43213L85.7744 0.432618ZM69.3364 1.07093C66.584 1.21945 63.8427 1.38638 61.1273 1.56799L61.2607 3.56353C63.9682 3.38246 66.7009 3.21605 69.4442 3.06802L69.3364 1.07093ZM52.93 2.1643C50.1522 2.38212 47.4191 2.61192 44.7478 2.84941L44.9249 4.84155C47.5897 4.60464 50.3159 4.37543 53.0864 4.15817L52.93 2.1643ZM36.5617 3.61742C33.7294 3.89677 30.9973 4.18011 28.3893 4.46135L28.6038 6.44982C31.2061 6.16919 33.9321 5.88647 36.758 5.60776L36.5617 3.61742ZM20.2159 5.37958C17.2233 5.72923 14.485 6.06398 12.0536 6.37051L12.3038 8.35481C14.7296 8.04898 17.4619 7.71496 20.448 7.36607L20.2159 5.37958Z" fill="#F7302B"/>
</svg>
