<svg width="48" height="48" viewBox="0 0 48 48" fill="none" xmlns="http://www.w3.org/2000/svg">
<circle cx="24" cy="24" r="24" fill="#FFF4E0"/>
<path d="M26.6277 31.9881C26.9251 31.9881 27.1662 31.747 27.1662 31.4496C27.1662 31.1522 26.9251 30.9111 26.6277 30.9111C26.3303 30.9111 26.0892 31.1522 26.0892 31.4496C26.0892 31.747 26.3303 31.9881 26.6277 31.9881Z" fill="#27C078"/>
<path d="M27.5569 20.5573C24.8492 19.6126 21.0954 20.4188 20.9508 20.4557C20.8783 20.4674 20.8089 20.4937 20.7469 20.5331C20.685 20.5726 20.6318 20.6243 20.5905 20.685C20.5493 20.7458 20.5209 20.8144 20.5072 20.8865C20.4934 20.9586 20.4945 21.0328 20.5105 21.1045C20.5265 21.1762 20.557 21.2438 20.6001 21.3033C20.6431 21.3628 20.6979 21.4128 20.7611 21.4503C20.8242 21.4878 20.8944 21.512 20.9672 21.5214C21.04 21.5308 21.114 21.5252 21.1846 21.5049C21.2185 21.5049 24.7785 20.7296 27.2 21.5757C27.2574 21.5954 27.3178 21.6048 27.3785 21.6034C27.5054 21.6032 27.6282 21.5581 27.7251 21.4762C27.8221 21.3942 27.887 21.2806 27.9083 21.1555C27.9297 21.0304 27.9061 20.9017 27.8418 20.7922C27.7775 20.6828 27.6766 20.5996 27.5569 20.5573Z" fill="#27C078"/>
<path d="M36.4615 23.9048C36.3852 23.7 36.24 23.5281 36.0508 23.4186C35.8616 23.3091 35.6402 23.2689 35.4246 23.3048C35.2043 23.3361 35.0004 23.4388 34.8442 23.5972C34.688 23.7557 34.5881 23.961 34.56 24.1817C34.5278 24.5997 34.6579 25.014 34.9231 25.3386L34.8492 25.3971C34.7876 25.4435 34.7159 25.4746 34.64 25.4879C34.5641 25.5013 34.486 25.4965 34.4123 25.474C34.3023 25.4262 34.2051 25.353 34.1286 25.2605C34.0522 25.168 33.9986 25.0588 33.9723 24.9417C33.9723 24.9417 33.9723 24.9417 33.9723 24.9202C33.1692 21.8433 30.9815 19.5786 27.7385 18.431C28.3731 17.754 28.8015 16.9102 28.9736 15.9984C29.1457 15.0866 29.0543 14.1447 28.71 13.283C28.3658 12.4213 27.783 11.6756 27.0301 11.1334C26.2771 10.5911 25.3852 10.2748 24.4588 10.2215C23.5325 10.1681 22.6101 10.38 21.7999 10.8322C20.9897 11.2844 20.3252 11.9583 19.8843 12.7747C19.4434 13.5912 19.2445 14.5164 19.3107 15.4419C19.377 16.3674 19.7058 17.2549 20.2585 18.0002C19.8094 18.1108 19.3692 18.2548 18.9415 18.431L18.7846 18.4894C18.3441 18.0701 17.7828 17.8002 17.1802 17.7179C16.5777 17.6356 15.9645 17.7451 15.4277 18.031C15.3415 18.0774 15.2695 18.1462 15.2191 18.2301C15.1688 18.3141 15.142 18.41 15.1415 18.5079V20.4525C13.9186 21.4104 12.9646 22.6687 12.3723 24.1048H11.3538C11.2009 24.0928 11.0472 24.1128 10.9024 24.1635C10.7577 24.2143 10.625 24.2946 10.513 24.3993C10.401 24.5041 10.312 24.6311 10.2518 24.7722C10.1915 24.9132 10.1613 25.0653 10.1631 25.2186C10.1631 25.3756 10.1292 28.3756 10.1815 28.7048C10.1928 28.847 10.2321 28.9855 10.2973 29.1123C10.3625 29.2392 10.4522 29.3518 10.5612 29.4437C10.6703 29.5356 10.7965 29.6049 10.9326 29.6476C11.0686 29.6903 11.2118 29.7056 11.3538 29.6925H12.3631C12.9544 31.13 13.9086 32.3895 15.1323 33.3479V35.8094C15.1331 36.3295 15.3403 36.8281 15.7084 37.1955C16.0764 37.563 16.5753 37.7694 17.0954 37.7694H18.7538C19.274 37.7694 19.7728 37.563 20.1409 37.1955C20.5089 36.8281 20.7161 36.3295 20.7169 35.8094C22.4033 36.094 24.1278 36.0638 25.8031 35.7202V35.8217C25.8039 36.3413 26.0107 36.8394 26.378 37.2068C26.7454 37.5742 27.2435 37.7809 27.7631 37.7817H29.4277C29.9473 37.7809 30.4453 37.5742 30.8127 37.2068C31.1801 36.8394 31.3869 36.3413 31.3877 35.8217V32.9356C33.2338 31.2679 34.2308 29.1294 34.2308 26.8894C34.2308 26.8248 34.2308 26.7017 34.2308 26.5325C34.4466 26.5832 34.671 26.5858 34.8879 26.5401C35.1049 26.4943 35.3091 26.4014 35.4862 26.2679C35.5869 26.1954 35.6835 26.1174 35.7754 26.034C36.0381 26.1664 36.3365 26.2107 36.6263 26.1603C36.9162 26.1098 37.1821 25.9674 37.3846 25.754C37.4388 25.7044 37.4823 25.6443 37.5124 25.5773C37.5425 25.5103 37.5585 25.4378 37.5596 25.3643C37.5606 25.2909 37.5466 25.218 37.5184 25.1502C37.4902 25.0823 37.4485 25.021 37.3957 24.9699C37.3429 24.9188 37.2802 24.879 37.2115 24.8531C37.1428 24.8271 37.0695 24.8154 36.9961 24.8189C36.9227 24.8223 36.8508 24.8407 36.7848 24.8729C36.7188 24.9052 36.6601 24.9506 36.6123 25.0063C36.5689 25.0586 36.5074 25.0927 36.44 25.1017C36.5221 24.9134 36.5662 24.7108 36.5699 24.5054C36.5736 24.3 36.5368 24.0959 36.4615 23.9048ZM24.1815 11.2894C24.9325 11.29 25.6663 11.5131 26.2906 11.9305C26.9148 12.3479 27.4014 12.9408 27.6889 13.6345C27.9764 14.3282 28.0519 15.0915 27.9059 15.8281C27.76 16.5647 27.399 17.2415 26.8687 17.7732C26.3384 18.3048 25.6624 18.6674 24.9262 18.8151C24.19 18.9629 23.4265 18.8892 22.7321 18.6034C22.0377 18.3176 21.4435 17.8324 21.0246 17.2092C20.6057 16.586 20.3809 15.8526 20.3785 15.1017C20.3801 14.0944 20.781 13.1288 21.4933 12.4165C22.2055 11.7042 23.1711 11.3034 24.1785 11.3017L24.1815 11.2894ZM30.5046 32.2833C30.0708 32.6863 29.1785 33.3233 29.1723 33.3294C29.0716 33.4167 29.0068 33.5383 28.9905 33.6706C28.9743 33.8029 29.0076 33.9365 29.0842 34.0456C29.1608 34.1547 29.2751 34.2316 29.405 34.2613C29.535 34.291 29.6713 34.2714 29.7877 34.2063C29.8062 34.2063 30.0369 34.0279 30.3231 33.8094V35.7694C30.3223 36.0034 30.229 36.2275 30.0635 36.393C29.8981 36.5584 29.674 36.6517 29.44 36.6525H27.7723C27.5384 36.6517 27.3142 36.5584 27.1488 36.393C26.9833 36.2275 26.89 36.0034 26.8892 35.7694V35.0002C26.8891 34.918 26.8701 34.837 26.8338 34.7633C26.7975 34.6896 26.7448 34.6252 26.6797 34.5751C26.6147 34.5249 26.539 34.4902 26.4586 34.4738C26.3781 34.4573 26.2949 34.4595 26.2154 34.4802C24.2839 34.9782 22.2626 35.0161 20.3138 34.591C19.644 34.3823 18.9892 34.1284 18.3538 33.831C18.2241 33.771 18.0758 33.765 17.9417 33.8143C17.8075 33.8637 17.6984 33.9643 17.6385 34.094C17.5785 34.2238 17.5725 34.3721 17.6218 34.5062C17.6712 34.6404 17.7718 34.7494 17.9015 34.8094C17.9477 34.831 18.8677 35.2556 19.6492 35.5171V35.7817C19.6484 36.0162 19.5547 36.2408 19.3886 36.4063C19.2225 36.5719 18.9976 36.6648 18.7631 36.6648H17.1046C16.8701 36.6648 16.6452 36.5719 16.4791 36.4063C16.313 36.2408 16.2193 36.0162 16.2185 35.7817V33.0771C16.2186 32.9943 16.1995 32.9125 16.1626 32.8383C16.1258 32.7641 16.0722 32.6994 16.0062 32.6494C14.7342 31.7237 13.7695 30.4374 13.2369 28.9571C13.1991 28.8548 13.1313 28.7663 13.0424 28.7031C12.9535 28.64 12.8475 28.6052 12.7385 28.6033H11.3538H11.2554C11.2554 28.6033 11.2554 28.5756 11.2554 28.5571C11.2308 28.2925 11.2308 25.5725 11.2308 25.3048C11.2338 25.2634 11.24 25.2222 11.2492 25.1817C11.282 25.1788 11.3149 25.1788 11.3477 25.1817H12.7385C12.8508 25.1821 12.9605 25.1473 13.0521 25.0821C13.1437 25.017 13.2126 24.9249 13.2492 24.8187C13.7826 23.3388 14.7472 22.0527 16.0185 21.1263C16.0849 21.0767 16.1387 21.0121 16.1756 20.9378C16.2125 20.8635 16.2314 20.7816 16.2308 20.6986V18.8525C16.5843 18.7331 16.9662 18.7268 17.3235 18.8343C17.6807 18.9418 17.9957 19.1579 18.2246 19.4525C18.2957 19.5426 18.3938 19.6077 18.5045 19.6381C18.6152 19.6686 18.7328 19.6628 18.84 19.6217L19.3508 19.431C19.9016 19.1905 20.4821 19.0249 21.0769 18.9386L21.1631 18.9171C21.9475 19.5386 22.9049 19.9024 23.9041 19.9586C24.9033 20.0148 25.8955 19.7606 26.7446 19.231C30.0954 20.2217 32.3169 22.4371 33.0031 25.4771C33.1058 25.941 33.1595 26.4143 33.1631 26.8894C33.1631 28.8863 32.2215 30.8033 30.5046 32.2833Z" fill="#27C078"/>
<path d="M16.8554 23.1846C16.7437 23.1364 16.6232 23.1123 16.5015 23.1138C16.2672 23.1266 16.0419 23.2081 15.8536 23.3482C15.6654 23.4883 15.5226 23.6807 15.4431 23.9015C15.1815 24.5169 15.3908 25.1877 15.9231 25.4092C16.0322 25.455 16.1494 25.478 16.2677 25.4769C16.5021 25.4646 16.7277 25.3837 16.9164 25.2442C17.1051 25.1047 17.2487 24.9128 17.3292 24.6923C17.5908 24.0677 17.3846 23.4031 16.8554 23.1846Z" fill="#27C078"/>
<path d="M23.5385 16.8461C23.0985 16.8461 22.7262 16.5723 22.7262 16.2523C22.7262 16.1095 22.6694 15.9725 22.5684 15.8715C22.4675 15.7705 22.3305 15.7138 22.1877 15.7138C22.0449 15.7138 21.9079 15.7705 21.8069 15.8715C21.706 15.9725 21.6492 16.1095 21.6492 16.2523C21.6492 17.1753 22.4954 17.923 23.5385 17.923H23.6277V18.0892C23.6277 18.232 23.6844 18.369 23.7854 18.4699C23.8864 18.5709 24.0233 18.6277 24.1662 18.6277C24.309 18.6277 24.4459 18.5709 24.5469 18.4699C24.6479 18.369 24.7046 18.232 24.7046 18.0892V17.92C25.7108 17.883 26.5169 17.1507 26.5169 16.2523V16.1938C26.5078 15.8508 26.3802 15.5214 26.1559 15.2618C25.9315 15.0021 25.6242 14.828 25.2862 14.7692L24.6923 14.6461V13.3107C25.0985 13.3415 25.4277 13.5938 25.4277 13.8953C25.4277 14.0382 25.4844 14.1751 25.5854 14.2761C25.6864 14.3771 25.8233 14.4338 25.9662 14.4338C26.109 14.4338 26.2459 14.3771 26.3469 14.2761C26.4479 14.1751 26.5046 14.0382 26.5046 13.8953C26.5046 13 25.6985 12.2677 24.6923 12.2307V12.1107C24.6923 11.9679 24.6356 11.831 24.5346 11.73C24.4336 11.629 24.2967 11.5723 24.1538 11.5723C24.011 11.5723 23.8741 11.629 23.7731 11.73C23.6721 11.831 23.6154 11.9679 23.6154 12.1107V12.2277H23.5385C22.4954 12.2277 21.6492 12.9753 21.6492 13.8953V13.9538C21.6648 14.2875 21.7904 14.6067 22.0063 14.8616C22.2223 15.1165 22.5165 15.2928 22.8431 15.363L23.6277 15.523V16.8461H23.5385ZM24.7046 15.7446L25.0646 15.8184C25.2923 15.8738 25.44 16.0215 25.44 16.1907V16.2523C25.44 16.56 25.1108 16.8092 24.7046 16.84V15.7446ZM23.0677 14.3077C22.9831 14.2881 22.9059 14.2447 22.8454 14.1825C22.7848 14.1203 22.7434 14.042 22.7262 13.9569V13.8953C22.7262 13.5877 23.0985 13.3046 23.5385 13.3046H23.6277V14.4246L23.0677 14.3077Z" fill="#27C078"/>
<path d="M29.8369 24.4616C29.7752 24.4956 29.7208 24.5415 29.6769 24.5966C29.6329 24.6518 29.6003 24.715 29.5809 24.7828C29.5614 24.8505 29.5555 24.9214 29.5636 24.9915C29.5716 25.0615 29.5934 25.1292 29.6277 25.1908C30.2431 26.2831 29.72 28.7385 28.2769 29.9447C28.1678 30.0362 28.0995 30.1673 28.0868 30.3092C28.0741 30.451 28.1181 30.5921 28.2092 30.7016C28.2543 30.756 28.3097 30.8009 28.3723 30.8337C28.4348 30.8666 28.5032 30.8867 28.5736 30.893C28.644 30.8993 28.7149 30.8916 28.7822 30.8704C28.8496 30.8492 28.9121 30.8148 28.9662 30.7693C30.6892 29.3324 31.4831 26.3108 30.5692 24.6678C30.4994 24.5434 30.383 24.4519 30.2457 24.4132C30.1084 24.3746 29.9614 24.392 29.8369 24.4616Z" fill="#27C078"/>
</svg>
