<svg width="269" height="268" viewBox="0 0 269 268" fill="none" xmlns="http://www.w3.org/2000/svg">
<circle cx="134.333" cy="134" r="132" stroke="#FFA500" stroke-width="4" stroke-dasharray="16 16"/>
<circle cx="134.333" cy="134" r="116" stroke="#FFA500" stroke-width="2"/>
<g opacity="0.3">
<g clip-path="url(#clip0_2488_3309)">
<g filter="url(#filter0_d_2488_3309)">
<path d="M134.498 94.748C131.648 97.426 126.17 97.0395 122.101 96.9143L123.049 106.206C130.022 109.668 137.536 108.843 144.876 106.952L145.922 96.707C142.873 94.152 137.037 98.2258 134.498 94.748Z" fill="url(#paint0_linear_2488_3309)"/>
<path d="M153.433 74.7477C152.238 72.8384 153.433 69.8543 153.433 67.2278C153.433 64.6008 151.404 65.7946 151.165 64.8406C150.924 63.8853 148.061 64.0048 148.061 64.0048C147.819 65.5561 140.66 73.6743 138.036 76.1796C135.409 78.6858 135.529 81.1946 135.529 81.1946C135.529 81.1946 134.061 83.3622 134.003 87.0886C133.944 83.3622 132.477 81.1946 132.477 81.1946C132.477 81.1946 132.596 78.688 129.972 76.1796C127.344 73.6743 120.183 65.5561 119.945 64.0048C119.945 64.0048 117.081 63.8858 116.841 64.8406C116.603 65.7946 114.572 64.603 114.572 67.2278C114.572 69.8543 115.767 72.8384 114.572 74.7477C113.378 76.657 116.005 79.1637 115.767 81.7902C115.543 84.2591 118.801 94.1126 121.472 95.4795C125.471 95.6147 131.832 96.2903 134.009 93.188C134.387 92.65 135.081 92.773 135.319 93.3585C136.436 96.1207 141.747 94.4218 143.971 94.5255C145.005 94.572 145.852 94.912 146.584 95.4544C149.247 93.9988 152.466 84.245 152.243 81.7902C152.002 79.1632 154.626 76.657 153.433 74.7477Z" fill="url(#paint1_linear_2488_3309)"/>
<path d="M187.334 174.422C187.452 173.826 190.316 174.063 190.316 172.393C190.316 170.724 192.108 169.648 191.866 168.811C191.63 167.974 186.974 159.381 184.707 157.114C182.437 154.844 174.559 144.221 173.007 140.4C171.456 136.581 164.651 128.344 158.204 119.63C153.405 113.142 148.347 109.504 146.072 108.068C145.999 108.128 145.908 108.177 145.797 108.207C138.028 110.263 130.069 111.142 122.681 107.608C121.025 108.572 115.247 112.262 109.795 119.633C103.349 128.348 96.546 136.583 94.9924 140.402C93.4415 144.223 85.5619 154.847 83.2946 157.116C81.0256 159.384 76.3703 167.976 76.1326 168.814C75.8928 169.65 77.684 170.724 77.684 172.395C77.684 174.067 80.5482 173.828 80.6667 174.424C80.7858 175.02 80.3088 177.288 82.6955 177.528L81.026 181.224C81.026 181.224 80.7884 183.014 81.98 182.775C83.1751 182.534 79.9526 185.639 84.6079 185.043C89.2636 184.447 87.1132 187.669 89.5021 188.027L87.5928 191.25C87.5928 191.25 89.026 193.16 90.5769 192.564C90.5769 192.564 89.3818 195.07 90.0995 196.146C90.8172 197.222 91.7712 195.43 92.6048 194.595C93.442 193.758 92.6048 196.623 95.4694 195.789L96.4247 194.356C96.4247 194.356 98.334 197.531 100.484 196.48L100.365 198.416C100.365 198.416 102.394 198.534 102.872 198.416L102.634 200.565L104.903 199.969C104.903 199.969 104.425 201.998 106.097 202.119C106.097 202.119 105.143 203.315 105.62 203.315C106.097 203.315 110.394 204.51 112.781 202.717L112.543 201.405L114.216 201.524L114.574 202.718C114.574 202.718 115.41 202.361 116.961 201.645C118.513 200.928 117.677 203.707 117.677 203.707C117.677 203.707 119.35 202.784 120.541 203.707C121.736 204.628 123.765 203.022 125.556 203.707C125.556 203.707 128.061 203.555 128.301 202.959V201.408C128.301 201.408 129.615 202.841 130.808 201.886V200.692C130.808 200.692 131.666 200.792 132.64 200.889C132.647 200.983 132.656 201.046 132.665 201.048C132.821 201.089 133.355 201.062 134.005 201.012C134.656 201.062 135.19 201.087 135.345 201.048C135.354 201.046 135.363 200.983 135.37 200.889C136.343 200.791 137.203 200.692 137.203 200.692V201.886C138.397 202.841 139.71 201.408 139.71 201.408V202.959C139.946 203.555 142.455 203.707 142.455 203.707C144.247 203.022 146.276 204.628 147.47 203.707C148.664 202.784 150.334 203.707 150.334 203.707C150.334 203.707 149.499 200.928 151.052 201.645C152.606 202.363 153.438 202.718 153.438 202.718L153.797 201.524L155.469 201.405L155.23 202.717C157.616 204.51 161.915 203.315 162.392 203.315C162.87 203.315 161.915 202.119 161.915 202.119C163.587 202 163.109 199.969 163.109 199.969L165.377 200.565L165.14 198.416C165.618 198.534 167.646 198.416 167.646 198.416L167.528 196.48C169.677 197.531 171.585 194.356 171.585 194.356L172.54 195.789C175.406 196.626 174.569 193.761 175.406 194.595C176.24 195.43 177.196 197.222 177.912 196.146C178.626 195.07 177.435 192.564 177.435 192.564C178.985 193.16 180.416 191.25 180.416 191.25L178.508 188.027C180.894 187.667 178.746 184.445 183.402 185.043C188.058 185.638 184.835 182.539 186.029 182.775C187.226 183.014 186.985 181.224 186.985 181.224L185.312 177.524C187.691 177.285 187.213 175.018 187.334 174.422Z" fill="url(#paint2_linear_2488_3309)"/>
</g>
</g>
<rect x="64.5" y="64.5" width="139" height="139" stroke="black"/>
</g>
<defs>
<filter id="filter0_d_2488_3309" x="72.1105" y="64" width="123.778" height="148" filterUnits="userSpaceOnUse" color-interpolation-filters="sRGB">
<feFlood flood-opacity="0" result="BackgroundImageFix"/>
<feColorMatrix in="SourceAlpha" type="matrix" values="0 0 0 0 0 0 0 0 0 0 0 0 0 0 0 0 0 0 127 0" result="hardAlpha"/>
<feOffset dy="4"/>
<feGaussianBlur stdDeviation="2"/>
<feComposite in2="hardAlpha" operator="out"/>
<feColorMatrix type="matrix" values="0 0 0 0 0 0 0 0 0 0 0 0 0 0 0 0 0 0 0.25 0"/>
<feBlend mode="normal" in2="BackgroundImageFix" result="effect1_dropShadow_2488_3309"/>
<feBlend mode="normal" in="SourceGraphic" in2="effect1_dropShadow_2488_3309" result="shape"/>
</filter>
<linearGradient id="paint0_linear_2488_3309" x1="134.011" y1="94.748" x2="134.011" y2="108.586" gradientUnits="userSpaceOnUse">
<stop stop-color="#FFFDFD"/>
<stop offset="0.284375" stop-color="white" stop-opacity="0.632407"/>
<stop offset="0.565625" stop-color="white" stop-opacity="0.528125"/>
<stop offset="1" stop-color="white" stop-opacity="0"/>
</linearGradient>
<linearGradient id="paint1_linear_2488_3309" x1="134.002" y1="64" x2="134.002" y2="95.6351" gradientUnits="userSpaceOnUse">
<stop stop-color="#FFFDFD"/>
<stop offset="0.284375" stop-color="white" stop-opacity="0.632407"/>
<stop offset="0.565625" stop-color="white" stop-opacity="0.528125"/>
<stop offset="1" stop-color="white" stop-opacity="0"/>
</linearGradient>
<linearGradient id="paint2_linear_2488_3309" x1="134" y1="107.608" x2="134" y2="204" gradientUnits="userSpaceOnUse">
<stop stop-color="#FFFDFD"/>
<stop offset="0.284375" stop-color="white" stop-opacity="0.632407"/>
<stop offset="0.565625" stop-color="white" stop-opacity="0.528125"/>
<stop offset="1" stop-color="white" stop-opacity="0"/>
</linearGradient>
<clipPath id="clip0_2488_3309">
<rect x="64" y="64" width="140" height="140" fill="white"/>
</clipPath>
</defs>
</svg>
