<svg width="48" height="48" viewBox="0 0 48 48" fill="none" xmlns="http://www.w3.org/2000/svg">
<circle cx="24" cy="24" r="24" fill="#FFF4E0"/>
<path d="M29.416 18.056H21.928V21.368C22.248 21.016 22.696 20.728 23.272 20.504C23.848 20.28 24.472 20.168 25.144 20.168C26.344 20.168 27.336 20.44 28.12 20.984C28.92 21.528 29.504 22.232 29.872 23.096C30.24 23.96 30.424 24.896 30.424 25.904C30.424 27.776 29.896 29.264 28.84 30.368C27.784 31.456 26.296 32 24.376 32C23.096 32 21.984 31.784 21.04 31.352C20.096 30.904 19.368 30.288 18.856 29.504C18.344 28.72 18.064 27.816 18.016 26.792H22.024C22.12 27.288 22.352 27.704 22.72 28.04C23.088 28.36 23.592 28.52 24.232 28.52C24.984 28.52 25.544 28.28 25.912 27.8C26.28 27.32 26.464 26.68 26.464 25.88C26.464 25.096 26.272 24.496 25.888 24.08C25.504 23.664 24.944 23.456 24.208 23.456C23.664 23.456 23.216 23.592 22.864 23.864C22.512 24.12 22.28 24.464 22.168 24.896H18.208V14.456H29.416V18.056Z" fill="#0A0C14"/>
</svg>
