<svg width="48" height="48" viewBox="0 0 48 48" fill="none" xmlns="http://www.w3.org/2000/svg">
<circle cx="24" cy="24" r="24" fill="#FFF4E0"/>
<path d="M17.224 19.424C17.288 17.712 17.848 16.392 18.904 15.464C19.96 14.536 21.392 14.072 23.2 14.072C24.4 14.072 25.424 14.28 26.272 14.696C27.136 15.112 27.784 15.68 28.216 16.4C28.664 17.12 28.888 17.928 28.888 18.824C28.888 19.88 28.624 20.744 28.096 21.416C27.568 22.072 26.952 22.52 26.248 22.76V22.856C27.16 23.16 27.88 23.664 28.408 24.368C28.936 25.072 29.2 25.976 29.2 27.08C29.2 28.072 28.968 28.952 28.504 29.72C28.056 30.472 27.392 31.064 26.512 31.496C25.648 31.928 24.616 32.144 23.416 32.144C21.496 32.144 19.96 31.672 18.808 30.728C17.672 29.784 17.072 28.36 17.008 26.456H20.992C21.008 27.16 21.208 27.72 21.592 28.136C21.976 28.536 22.536 28.736 23.272 28.736C23.896 28.736 24.376 28.56 24.712 28.208C25.064 27.84 25.24 27.36 25.24 26.768C25.24 26 24.992 25.448 24.496 25.112C24.016 24.76 23.24 24.584 22.168 24.584H21.4V21.248H22.168C22.984 21.248 23.64 21.112 24.136 20.84C24.648 20.552 24.904 20.048 24.904 19.328C24.904 18.752 24.744 18.304 24.424 17.984C24.104 17.664 23.664 17.504 23.104 17.504C22.496 17.504 22.04 17.688 21.736 18.056C21.448 18.424 21.28 18.88 21.232 19.424H17.224Z" fill="#0A0C14"/>
</svg>
