<svg width="48" height="48" viewBox="0 0 48 48" fill="none" xmlns="http://www.w3.org/2000/svg">
<circle cx="24" cy="24" r="24" fill="#EEFCF5"/>
<path d="M20.7032 29.4637L20.1061 30.3809L19.502 29.4557C19.3781 29.266 19.1239 29.2126 18.9343 29.3365C18.7446 29.4604 18.6913 29.7145 18.8151 29.9042L19.6962 31.2535L19.6928 32.6471C19.6923 32.8736 19.8754 33.0577 20.1019 33.0583H20.103C20.329 33.0583 20.5125 32.8753 20.5131 32.6492L20.5165 31.2542L21.3907 29.9113C21.5143 29.7214 21.4605 29.4673 21.2707 29.3438C21.0808 29.2202 20.8268 29.2739 20.7032 29.4637ZM17.7906 29.2698C17.564 29.2698 17.3804 29.4534 17.3804 29.68V31.7202C17.3804 31.8593 17.3408 32.0215 17.0466 32.1696C16.9553 32.2156 16.8558 32.238 16.7426 32.238H16.7414C16.618 32.2378 16.5111 32.2077 16.4145 32.146C16.1844 31.999 16.1382 31.8749 16.1382 31.7223V29.6799C16.1382 29.4534 15.9545 29.2697 15.728 29.2697C15.5015 29.2697 15.3179 29.4534 15.3179 29.6799V31.7223C15.3179 32.1845 15.5383 32.5596 15.9728 32.8372C16.2017 32.9835 16.4599 33.0578 16.7402 33.0583H16.7425C16.9835 33.0583 17.2099 33.0058 17.4156 32.9023C18.0644 32.5754 18.2006 32.0791 18.2006 31.7202V29.68C18.2007 29.4534 18.0171 29.2698 17.7906 29.2698ZM14.422 30.9266C14.5218 30.7617 14.5803 30.5693 14.5803 30.3629C14.5803 29.7602 14.0899 29.2698 13.4871 29.2698H12.625C12.3985 29.2698 12.2148 29.4534 12.2148 29.68V32.6481C12.2136 32.8704 12.402 33.0594 12.625 33.0583H12.6268C12.6269 33.0583 13.4193 33.0548 13.6378 33.0548C14.3045 33.0548 14.8468 32.5124 14.8468 31.8457C14.8468 31.4781 14.6817 31.1485 14.422 30.9266ZM13.0352 30.0901H13.4872C13.6376 30.0901 13.76 30.2125 13.76 30.3629C13.76 30.5134 13.6376 30.6358 13.4872 30.6358C13.4239 30.6358 13.0352 30.6366 13.0352 30.6366V30.0901ZM13.6378 32.2345C13.526 32.2345 13.2646 32.2354 13.0352 32.2363V31.4574C13.0821 31.4572 13.6378 31.4569 13.6378 31.4569C13.8521 31.4569 14.0265 31.6313 14.0265 31.8456C14.0265 32.06 13.8521 32.2345 13.6378 32.2345ZM36.6782 30.9612L34.8571 30.9623V22.5861C36.7464 21.3684 38 19.2459 38 16.8359C38 15.8588 37.798 14.915 37.3996 14.0308C37.3066 13.8242 37.0637 13.7322 36.8573 13.8253C36.6507 13.9184 36.5587 14.1612 36.6518 14.3677C37.0021 15.1453 37.1797 15.9758 37.1797 16.8359C37.1797 20.153 34.4811 22.8516 31.1641 22.8516C27.847 22.8516 25.1484 20.153 25.1484 16.8359C25.1484 13.5189 27.847 10.8203 31.1641 10.8203C32.8948 10.8203 34.543 11.5668 35.686 12.8684C35.8355 13.0387 36.0946 13.0554 36.2648 12.906C36.435 12.7565 36.4518 12.4974 36.3023 12.3272C35.0036 10.8482 33.1308 10 31.1641 10C27.3947 10 24.3281 13.0666 24.3281 16.8359C24.3281 19.2459 25.5818 21.3684 27.4711 22.5861L27.4727 30.9612H25.6499C25.3176 30.9612 25.0207 31.1594 24.8935 31.4661C24.7662 31.7729 24.8356 32.1231 25.0706 32.3586L30.3923 37.6802C30.605 37.893 30.8846 37.9995 31.1641 37.9995C31.4436 37.9995 31.7231 37.893 31.9359 37.6802L37.2578 32.3583C37.4925 32.1231 37.5619 31.7729 37.4346 31.4661C37.3074 31.1594 37.0105 30.9612 36.6782 30.9612ZM31.3559 37.1002C31.3045 37.1516 31.2364 37.1799 31.1641 37.1799C31.0917 37.1799 31.0236 37.1516 30.9723 37.1002L25.6539 31.7815H27.4727C27.924 31.7815 28.2913 31.414 28.2913 30.9623V23.038C29.1652 23.4444 30.1385 23.6719 31.1641 23.6719C32.1896 23.6719 33.1629 23.4444 34.0368 23.038V30.9623C34.0368 31.414 34.4041 31.7815 34.8555 31.7815L36.6743 31.7817L31.3559 37.1002ZM20.5289 25.4139L20.5273 17.0388H22.3501C22.6824 17.0388 22.9793 16.8406 23.1065 16.5339C23.2338 16.2271 23.1644 15.8769 22.9294 15.6414L17.6077 10.3198C17.1822 9.89418 16.4897 9.89418 16.0641 10.3198L10.7421 15.6417C10.5074 15.8769 10.438 16.2271 10.5653 16.5339C10.6926 16.8406 10.9895 17.0388 11.3217 17.0388L13.1428 17.0377V21.1281C13.1428 21.3546 13.3265 21.5382 13.553 21.5382C13.7795 21.5382 13.9631 21.3546 13.9631 21.1281V17.0377C13.9631 16.586 13.5959 16.2185 13.1445 16.2185L11.3256 16.2183L16.6441 10.8998C16.6954 10.8485 16.7635 10.8202 16.8359 10.8202C16.9082 10.8202 16.9763 10.8485 17.0277 10.8998L22.3461 16.2186H20.5273C20.076 16.2186 19.7087 16.5861 19.7087 17.0378V24.962C18.8348 24.5556 17.8615 24.3281 16.8359 24.3281C15.8104 24.3281 14.8371 24.5556 13.9632 24.962V23.0421C13.9632 22.8156 13.7796 22.632 13.553 22.632C13.3265 22.632 13.1429 22.8156 13.1429 23.0421V25.4139C11.2536 26.6316 10 28.7541 10 31.1641C10 34.9334 13.0666 38 16.8359 38C20.6053 38 23.6719 34.9334 23.6719 31.1641C23.6719 28.7541 22.4182 26.6316 20.5289 25.4139ZM16.8359 37.1797C13.5189 37.1797 10.8203 34.4811 10.8203 31.1641C10.8203 27.847 13.5189 25.1484 16.8359 25.1484C20.153 25.1484 22.8516 27.847 22.8516 31.1641C22.8516 34.4811 20.153 37.1797 16.8359 37.1797ZM27.5346 17.9099C27.2505 17.9099 26.9775 17.7958 26.8042 17.6046C26.6522 17.4368 26.3928 17.424 26.2249 17.5761C26.057 17.7282 26.0443 17.9876 26.1964 18.1555C26.5273 18.5207 27.0151 18.7302 27.5346 18.7302C28.1791 18.7302 28.7206 18.3175 28.8221 17.7488C28.8988 17.3194 28.7059 16.7591 27.9343 16.4745C27.5765 16.3425 27.2429 16.1989 27.1334 16.1511C27.0721 16.0986 27.0743 16.0272 27.0787 15.9971C27.0851 15.9521 27.1184 15.8421 27.2873 15.7912C27.6842 15.6716 28.0563 15.9635 28.0681 15.9729C28.2415 16.1165 28.4985 16.0935 28.6437 15.9209C28.7894 15.7475 28.767 15.4888 28.5936 15.343C28.5649 15.3189 27.8816 14.7554 27.0507 15.0058C26.6262 15.1336 26.3258 15.4689 26.2667 15.8805C26.2111 16.2678 26.3791 16.6404 26.7049 16.8528C26.8418 16.9421 27.0896 17.0373 27.6504 17.2441C27.7448 17.2789 28.0498 17.4078 28.0147 17.6046C27.9878 17.7547 27.8009 17.9099 27.5346 17.9099ZM31.0129 15.7755C31.2394 15.7755 31.4231 15.5919 31.4231 15.3654C31.4231 15.1389 31.2394 14.9552 31.0129 14.9552H29.7736C29.5471 14.9552 29.3635 15.1389 29.3635 15.3654V18.3064C29.3635 18.5329 29.5471 18.7166 29.7736 18.7166H31.0129C31.2394 18.7166 31.4231 18.5329 31.4231 18.3064C31.4231 18.0799 31.2394 17.8963 31.0129 17.8963H30.1838V17.2461H30.9215C31.148 17.2461 31.3317 17.0625 31.3317 16.8359C31.3317 16.6094 31.148 16.4258 30.9215 16.4258H30.1838V15.7755H31.0129ZM32.3966 14.9417C32.1701 14.9417 31.9865 15.1253 31.9865 15.3518V18.3175C31.9865 18.5172 32.1303 18.6879 32.3272 18.7217C32.3569 18.7268 33.0975 18.7295 33.4382 18.7276C33.6648 18.7264 33.8474 18.5417 33.8461 18.3152C33.8448 18.0894 33.6615 17.9073 33.436 17.9073H33.4336C33.2427 17.9084 33.0046 17.9093 32.8068 17.9097V15.3518C32.8068 15.1253 32.6231 14.9417 32.3966 14.9417ZM34.7885 14.9417C34.562 14.9417 34.3783 15.1253 34.3783 15.3518V18.3175C34.3783 18.5172 34.5221 18.6879 34.719 18.7217C34.7487 18.7268 35.4895 18.7295 35.8301 18.7276C36.0566 18.7264 36.2392 18.5417 36.238 18.3152C36.2367 18.0894 36.0533 17.9073 35.8279 17.9073H35.8255C35.6345 17.9084 35.3964 17.9093 35.1986 17.9097V15.3518C35.1986 15.1253 35.015 14.9417 34.7885 14.9417Z" fill="#27C078"/>
</svg>
